<svg xmlns="http://www.w3.org/2000/svg" width="48" height="72" viewBox="0 0 48 72"><defs><linearGradient id="4aiea" x1="21.97" x2="46.97" y1="42.93" y2="56.09" gradientUnits="userSpaceOnUse"><stop offset="0" stop-color="#29353b"/><stop offset="1"/></linearGradient></defs><g><g><g><g><path fill="#8dc603" d="M11.828 53.219l11.615-23.364c3.058-6.15 10.592-8.68 16.743-5.623l-9.587-4.766c-6.15-3.058-13.685-.527-16.743 5.623L2.241 48.452c-3.058 6.151-.527 13.685 5.623 16.743l9.587 4.766c-6.15-3.058-8.68-10.592-5.623-16.742z"/></g></g><g><g><path fill="#373c41" d="M9.35 47.289l-1.13-.613.57-1.051 1.13.613zm1.52-2.803l-1.13-.613.571-1.051 1.13.612zm1.521-2.803l-1.13-.613.571-1.051 1.13.612zm1.52-2.804l-1.128-.612.57-1.052 1.13.613zm1.522-2.803l-1.13-.613.57-1.05 1.13.612zm1.52-2.803l-1.128-.613.57-1.051 1.129.612z"/></g></g><g><path fill="#a4e603" d="M40.828 24.552l-10.996-5.467c-.295-.147-.593-.28-.894-.402 5.52 3.308 7.674 10.417 4.763 16.272L22.086 58.318c-2.911 5.856-9.88 8.43-15.849 6.025.279.167.565.324.86.47l10.997 5.468c6.15 3.057 13.684.527 16.742-5.624l11.615-23.363c3.058-6.15.528-13.684-5.623-16.742z"/></g><g><path fill="url(#4aiea)" d="M25.916 66.137a7.246 7.246 0 0 1-3.151-9.752l10.41-20.35a7.246 7.246 0 1 1 12.903 6.6l-10.41 20.35a7.246 7.246 0 0 1-9.752 3.152z"/></g><g><g><path fill="#fff" d="M39.074 36.844l-2.037 3.982-.74-.378 1.72-3.362-.841-.43.317-.62z"/></g><g><path fill="#fff" d="M42.549 42.856l-.32.626-2.936-1.502.254-.495 2.35-.692c.265-.08.461-.167.589-.262a.953.953 0 0 0 .287-.33c.095-.186.105-.36.03-.523-.074-.163-.233-.306-.475-.43-.406-.208-.788-.228-1.146-.062l-.314-.663c.263-.129.555-.184.878-.165.322.02.647.112.973.28.432.22.725.5.878.836.153.337.14.681-.04 1.034-.112.216-.26.396-.449.539-.188.143-.473.27-.855.38l-1.582.469z"/></g><g><path fill="#fff" d="M34.5 47.15c.158.355.141.72-.05 1.096-.123.239-.292.425-.509.558a1.37 1.37 0 0 1-.765.19c-.293-.006-.612-.098-.957-.274a3.135 3.135 0 0 1-.762-.545 2.278 2.278 0 0 1-.499-.681l.607-.415c.086.197.214.384.385.56.17.175.366.32.586.432.262.134.495.185.7.154a.585.585 0 0 0 .453-.332.58.58 0 0 0-.004-.587c-.108-.187-.357-.38-.748-.58l-.961-.492 1.313-2.062 2.338 1.196-.317.62-1.712-.876-.557.878.381.195c.561.287.92.608 1.079.964z"/></g><g><path fill="#fff" d="M39.573 47.96c.126.496.027 1.062-.299 1.7-.229.447-.506.787-.83 1.02a1.907 1.907 0 0 1-1.056.372 2.303 2.303 0 0 1-1.147-.275 2.75 2.75 0 0 1-.544-.36 1.762 1.762 0 0 1-.372-.431l.558-.418c.131.23.35.423.658.58.383.196.742.232 1.079.107.336-.124.618-.408.845-.852l.003-.006c-.188.077-.39.103-.608.08a1.903 1.903 0 0 1-.668-.209 1.799 1.799 0 0 1-.628-.511 1.302 1.302 0 0 1-.27-.68c-.023-.246.028-.49.153-.733.131-.258.312-.451.54-.58.23-.13.481-.191.755-.185.274.006.548.08.821.219.546.28.883.667 1.01 1.162zm-1.26.906a.694.694 0 0 0 .475-.374.686.686 0 0 0 .027-.593c-.082-.202-.251-.369-.509-.5-.231-.119-.45-.153-.658-.104a.69.69 0 0 0-.467.382.687.687 0 0 0-.037.605c.082.195.244.355.487.479.239.122.466.157.682.105z"/></g><g><path fill="#fff" d="M38.423 43.751a.51.51 0 0 1 .408.037c.14.072.231.175.273.308a.513.513 0 0 1-.04.4.513.513 0 0 1-.3.266.513.513 0 0 1-.41-.041.51.51 0 0 1-.269-.31.51.51 0 0 1 .036-.398.511.511 0 0 1 .302-.262zm-2.167-1.108a.51.51 0 0 1 .408.036c.14.072.231.175.273.309a.512.512 0 0 1-.04.4.513.513 0 0 1-.3.265.513.513 0 0 1-.41-.04.51.51 0 0 1-.269-.31.51.51 0 0 1 .035-.399.51.51 0 0 1 .303-.261z"/></g></g><g><path fill="#373c41" d="M12.4 55.673L.227 49.62l.715-1.438 12.175 6.053z"/></g><g><path fill="none" stroke="#fff" stroke-miterlimit="20" stroke-width=".25" d="M26.63 53.875c-.767 1.177-1.544 2.371-1.99 3.705-.445 1.333-.531 2.843.072 4.113"/></g><g><path fill="none" stroke="#fff" stroke-miterlimit="20" stroke-width=".25" d="M42.412 33.807L44.453 37"/></g></g><g><g><g><path fill="#373c41" d="M15.206 6.687a4.937 4.937 0 0 0 4.937 4.936V23.87a2.468 2.468 0 0 0 4.937 0V3.649c0-1.049-.851-1.9-1.9-1.9h-3.037a4.937 4.937 0 0 0-4.937 4.938z"/></g><g><path fill="#a4e603" d="M23.94 18.553h-1.52v-5.886h1.52z"/></g></g><g><g><path fill="#373c41" d="M14.112 16.691a4.936 4.936 0 0 1-3.716 5.91l2.721 11.94a2.468 2.468 0 0 1-4.813 1.097l-2.721-11.94-1.772-7.775a1.899 1.899 0 0 1 1.43-2.273l2.961-.675a4.936 4.936 0 0 1 5.91 3.716z"/></g><g><path fill="#a4e603" d="M8.233 30.202l1.481-.337-1.308-5.74-1.48.338z"/></g></g><g><path fill="none" stroke="#fff" stroke-miterlimit="20" stroke-width=".25" d="M21.092 3.311a3.286 3.286 0 0 0-2.186 1.381"/></g><g><path fill="none" stroke="#fff" stroke-miterlimit="20" stroke-width=".25" d="M6.458 14.697c-1.138 1.006-1.424 2.847-.646 4.15"/></g></g></g></svg>