<svg xmlns="http://www.w3.org/2000/svg" xmlns:xlink="http://www.w3.org/1999/xlink" viewBox="0 0 479.46 340.94"><defs><style>.cls-1,.cls-14{fill:#373c41;}.cls-1{opacity:0.3;}.cls-2{fill:#bc445c;}.cls-3{fill:url(#Безымянный_градиент_27);}.cls-4{fill:#db4f69;}.cls-5{fill:url(#Безымянный_градиент_27-2);}.cls-6{fill:#40dc9e;}.cls-7{fill:#37be8a;}.cls-8{fill:#8dc603;}.cls-9{fill:url(#Безымянный_градиент_27-3);}.cls-10{fill:url(#Безымянный_градиент_27-4);}.cls-11{fill:url(#Безымянный_градиент_22);}.cls-12{fill:url(#Безымянный_градиент_27-5);}.cls-13{fill:#fff;}.cls-15{fill:#eeb5ac;}.cls-16{fill:#dea095;}.cls-17{fill:#623c34;}</style><linearGradient id="Безымянный_градиент_27" x1="25303.54" y1="10411.16" x2="25330.15" y2="10411.16" gradientTransform="translate(25431.3 10718.45) rotate(180)" gradientUnits="userSpaceOnUse"><stop offset="0" stop-color="#db4f69"/><stop offset="1" stop-color="#bc445c"/></linearGradient><linearGradient id="Безымянный_градиент_27-2" x1="25362.08" y1="10411.16" x2="25388.69" y2="10411.16" xlink:href="#Безымянный_градиент_27"/><linearGradient id="Безымянный_градиент_27-3" x1="25346.15" y1="10395.02" x2="25372.76" y2="10395.02" xlink:href="#Безымянный_градиент_27"/><linearGradient id="Безымянный_градиент_27-4" x1="25404.69" y1="10395.02" x2="25431.3" y2="10395.02" xlink:href="#Безымянный_градиент_27"/><linearGradient id="Безымянный_градиент_22" x1="176.53" y1="27.66" x2="164.86" y2="59.62" gradientUnits="userSpaceOnUse"><stop offset="0" stop-color="#eeb5ac"/><stop offset="1" stop-color="#dea095"/></linearGradient><linearGradient id="Безымянный_градиент_27-5" x1="433.28" y1="235.48" x2="263.06" y2="153.14" gradientTransform="matrix(1, 0, 0, 1, 0, 0)" xlink:href="#Безымянный_градиент_27"/></defs><title>bubble</title><g id="Слой_2" data-name="Слой 2"><g id="элементы"><ellipse class="cls-1" cx="277.55" cy="318.09" rx="201.91" ry="22.86"/><path class="cls-2" d="M131.55,305l-7.94,13.89a9,9,0,0,1-7.71,4.71,47.83,47.83,0,0,1-6.31-.06l-3.41-23.17a9.32,9.32,0,0,1,9.33-9.33h7.93A9.33,9.33,0,0,1,131.55,305Z"/><path class="cls-3" d="M126.52,305l-7.94,13.89c-4.74,8.3-17.43,4.93-17.43-4.63V300.34a9.33,9.33,0,0,1,9.33-9.33h7.94A9.33,9.33,0,0,1,126.52,305Z"/><path class="cls-4" d="M113.18,311.57h-49a4.22,4.22,0,0,1,0-8.44h49a4.22,4.22,0,0,1,0,8.44Z"/><path class="cls-2" d="M73.37,305l-7.94,13.89a9,9,0,0,1-7.71,4.71,47.83,47.83,0,0,1-6.31-.06L48,300.34A9.32,9.32,0,0,1,57.33,291h7.93A9.33,9.33,0,0,1,73.37,305Z"/><path class="cls-5" d="M68,305,60,318.86c-4.74,8.3-17.43,4.93-17.43-4.63V300.34A9.33,9.33,0,0,1,51.94,291h7.94A9.33,9.33,0,0,1,68,305Z"/><ellipse class="cls-6" cx="251" cy="228.89" rx="110.91" ry="101.97"/><path class="cls-7" d="M251,194.52c37.89,0,77.66-7.87,91.95-22.66-1.44-2-3-3.84-4.55-5.7-9.73,11-42.92,21.2-87.4,21.2s-77.68-10.2-87.4-21.2c-1.58,1.85-3.12,3.75-4.56,5.7C173.34,186.65,213.11,194.52,251,194.52Z"/><path class="cls-7" d="M333.31,160.56c-1.79-1.82-3.66-3.56-5.59-5.26C312.34,163,285,169,251,169s-61.34-6-76.73-13.66c-1.92,1.7-3.8,3.44-5.59,5.26,18.46,10.2,51,15.56,82.32,15.56S314.86,170.76,333.31,160.56Z"/><path class="cls-7" d="M251,212.92c43,0,88.3-8.65,101.63-24.87-1.18-2.47-2.45-4.9-3.84-7.27-5.1,12.32-43.82,25-97.79,25s-92.69-12.66-97.8-25c-1.38,2.37-2.65,4.8-3.83,7.27C162.7,204.27,208,212.92,251,212.92Z"/><path class="cls-7" d="M251,231.32c45.34,0,93-8.3,108.43-23.88-.69-2.94-1.5-5.84-2.45-8.69-4.74,12.46-46.93,25.41-106,25.41s-101.25-12.95-106-25.41c-1,2.84-1.77,5.75-2.45,8.69C158,223,205.65,231.32,251,231.32Z"/><path class="cls-7" d="M152.56,275.86A101.43,101.43,0,0,0,163,291c20.93,9.16,55.09,14,88,14s67-4.8,88-14a101,101,0,0,0,10.46-15.09c-10,11.26-47.63,21.89-98.43,21.89S162.54,287.13,152.56,275.86Z"/><path class="cls-8" d="M150,271.07a6,6,0,0,1-.1-1h-.41C149.68,270.38,149.86,270.73,150,271.07Z"/><path class="cls-8" d="M352.48,270h-.41a6.09,6.09,0,0,1-.1,1Z"/><path class="cls-7" d="M144.51,257.47a96.68,96.68,0,0,0,4.62,11.81c21.5,11.28,63,17.24,102.85,17.24,38.28,0,78.14-5.5,100.27-15.95a97.55,97.55,0,0,0,4.45-10.72c-14,10.34-53.18,19.51-104.72,19.51C196.52,279.36,155.4,268.73,144.51,257.47Z"/><path class="cls-7" d="M140.78,240.32q.6,4.85,1.66,9.54c21.59,11.95,65.87,18.26,108.26,18.26,42.84,0,87.63-6.45,109-18.66a94.55,94.55,0,0,0,1.63-9.71C349,250.76,307,261,250.7,261,195.4,261,153.87,251.11,140.78,240.32Z"/><path class="cls-7" d="M361.9,229.63c0-.25,0-.49,0-.74q0-4.08-.35-8.1C350.16,232,308,242.56,251.13,242.56c-57.24,0-99.63-10.69-110.67-22q-.37,4.13-.37,8.33v.57c20,13.24,66.56,20.26,111,20.26C295.41,249.72,341.77,242.76,361.9,229.63Z"/><path class="cls-2" d="M88.94,321.1,81,335a9,9,0,0,1-7.71,4.71,47.83,47.83,0,0,1-6.31-.06l-3.41-23.17a9.33,9.33,0,0,1,9.33-9.33h7.94A9.33,9.33,0,0,1,88.94,321.1Z"/><path class="cls-9" d="M83.91,321.1,76,335c-4.74,8.31-17.43,4.94-17.43-4.63V316.47a9.33,9.33,0,0,1,9.33-9.33h7.94A9.33,9.33,0,0,1,83.91,321.1Z"/><path class="cls-4" d="M70.57,327.7h-49a4.22,4.22,0,0,1,0-8.44h49a4.22,4.22,0,1,1,0,8.44Z"/><path class="cls-2" d="M30.76,321.1,22.82,335a9,9,0,0,1-7.71,4.71,47.83,47.83,0,0,1-6.31-.06L5.39,316.47a9.33,9.33,0,0,1,9.33-9.33h7.93A9.33,9.33,0,0,1,30.76,321.1Z"/><path class="cls-10" d="M25.37,321.1,17.43,335C12.69,343.3,0,339.93,0,330.36V316.47a9.33,9.33,0,0,1,9.33-9.33h7.94A9.33,9.33,0,0,1,25.37,321.1Z"/><path class="cls-11" d="M172.72,96.07c.21-6.08.33-12.15.44-18.22s.09-12.13.09-18.2l.18-36.4,17.28,9.39c-5.28,3.14-10.63,6.18-16,9.18l-8.07,4.48-8.12,4.4c-5.41,2.93-10.82,5.87-16.27,8.75s-10.89,5.77-16.36,8.6a7.64,7.64,0,0,1-8-13q7.5-5.41,15.08-10.7c5-3.56,10.1-7,15.17-10.55l7.6-5.24,7.64-5.17c5.11-3.43,10.25-6.82,15.44-10.11a11.26,11.26,0,0,1,17.26,8.85l0,.54,2,36.36c.3,6.06.58,12.12,1,18.17s.82,12.12,1.33,18.17a13.88,13.88,0,0,1-27.67,2.35A13.24,13.24,0,0,1,172.72,96.07Z"/><path class="cls-12" d="M420.4,132.37l-106.23-28c-17-4.48-34,5.17-36.3,20.59h0c-2.25,14.94,9.44,34.26,26.08,36.17a24.33,24.33,0,0,0,3.08.11l79.42-1.53-13.51,44.19,9.45,103.88,20.21-8.86L415,159.13Z"/><path class="cls-6" d="M405.39,282.13,382,308l.11,13.86,57.13-.42a9.4,9.4,0,0,0,9.33-9.47h0l-40.16-17h0a7,7,0,0,0-.07-9.9Z"/><rect class="cls-13" x="421.5" y="288.26" width="4.13" height="38.81" transform="translate(-25.52 576.73) rotate(-66.92)"/><path class="cls-14" d="M144.23,109.08c.2-6.63.32-1.18.32-1.18,4.12-10.63,10.72-15.23,20.63-17.61,4.07-1,6.66-1,10.91-2.08,8.89-2.34,18.76-5.06,27.71-8.08,5.37,8.21,9.73,16.91,14.82,25.26,22.73,7.31,48,3.41,70.46,1.31,17.36-1.63,24.78,9.53,27.1,24.17.14.88.71,2.47.41,3.43-4.72,15.57-5.36,24.55-27.48,26.55-48.45,4.39-82.85-4.38-127-20.71C141.88,132.69,144.13,119.39,144.23,109.08Z"/><path class="cls-15" d="M170.94,140.41c-6.56,3-13.07,6.1-19.57,9.21s-13,6.32-19.41,9.51l-38.81,19-.39.19a11.29,11.29,0,0,1-15.21-14.91C80.28,157.6,83.11,151.8,86,146l4.35-8.65,4.42-8.61c3-5.75,5.89-11.49,8.9-17.21s6-11.44,9.07-17.13a7.64,7.64,0,0,1,13.9,6.26q-3.34,9.1-6.82,18.14c-2.29,6.05-4.64,12.06-7,18.07l-3.53,9-3.59,9c-2.42,6-4.88,11.95-7.45,17.86L82.65,158l37.81-20.95c6.32-3.47,12.64-6.91,18.91-10.48s12.52-7.12,18.74-10.78a13.88,13.88,0,0,1,14.07,23.94C171.78,140,171.35,140.22,170.94,140.41Z"/><rect class="cls-16" x="125.49" y="71.07" width="21.22" height="47.35" rx="8.05" transform="translate(287.36 26.78) rotate(120.96)"/><path class="cls-15" d="M99.37,60.08,132.5,45l13.65,13.15.77.67a23.25,23.25,0,0,1,1.79,1.79l.81,1a22.55,22.55,0,0,1,2.24,3.33,22.23,22.23,0,0,1-2,24.2c-.05.06-.11.12-.16.19A29.37,29.37,0,0,1,99.37,60.08Z"/><path class="cls-17" d="M94.86,54.38l.19-.2,8.8-9a42.29,42.29,0,0,1,31.88-12.71h0L125.07,72.94a8.54,8.54,0,0,0-11.94,2,8.37,8.37,0,0,0-.11,9.72,8.56,8.56,0,0,0,5.62,3.63l12.12,11.76a29.33,29.33,0,0,1-35.9-45.68Z"/><path class="cls-17" d="M59.75,140.73l9.34-40.54a31.2,31.2,0,0,1,37.41-23.4h0l-15.2-3.5h0a31.2,31.2,0,0,0-37.41,23.4l-9.34,40.54Z"/><path class="cls-15" d="M226.52,107.47l-19.42,47.1a231.32,231.32,0,0,0,69.8,7.12L264.58,109C251.88,110,238.93,110.1,226.52,107.47Z"/><path class="cls-4" d="M259.38,5c-4.14,12.19-2.35,24.2-1.86,36.75.31,7.9.34,15.8.58,23.7l1.12,37.88.18,6.06c-1.93.1-3.86.19-5.79.24l8.8,52.38a263.71,263.71,0,0,0,26.7-1.11c22.12-2,22.76-11,27.48-26.55a2.39,2.39,0,0,0,.07-.94,25.22,25.22,0,0,0,.63-11.14,22.2,22.2,0,0,0-.76-3L292.17,42.38l2.42,1.6L396.87,64.45l-2.75-21.9L382.65,38l-28.09-11.1L319.36,13,286.52,0Z"/><path class="cls-6" d="M378.85,35.11l18.2,29.75,13.31,3.84L426.2,13.81a9.41,9.41,0,0,0-6.43-11.65h0L392,35.83h0a7,7,0,0,0-9.51-2.75Z"/><rect class="cls-13" x="389.09" y="22.88" width="38.81" height="4.13" transform="translate(128.93 323.83) rotate(-50.41)"/></g></g></svg>