<svg xmlns="http://www.w3.org/2000/svg" width="59" height="62" viewBox="0 0 59 62"><defs><linearGradient id="4gkfa" x1="35.66" x2="18.66" y1="31.78" y2="37.59" gradientUnits="userSpaceOnUse"><stop offset="0" stop-color="#eb556f"/><stop offset="1" stop-color="#c34761"/></linearGradient></defs><g><g><g><path fill="#373c41" d="M16.644 47.398l.242.527 5.37-2.467c-.083-.175-.17-.348-.261-.517z"/></g><g><path fill="#373c41" d="M14.098 45.45l1.66-5.7a10.914 10.914 0 0 0-.557-.162l-1.66 5.7z"/></g><g><path fill="#373c41" d="M12.034 45.187l-.853-5.878c-.193.022-.384.05-.574.083l.854 5.878z"/></g><g><path fill="#373c41" d="M10.045 45.797l-3.212-4.99c-.165.1-.328.205-.487.314l3.212 4.99z"/></g><g><path fill="#373c41" d="M8.489 47.184L3.5 43.97c-.109.16-.213.321-.314.487l4.99 3.214z"/></g><g><path fill="#373c41" d="M7.648 49.08l-5.878-.84c-.033.19-.06.382-.082.574l5.878.84z"/></g><g><path fill="#373c41" d="M7.675 51.168L1.97 52.83c.05.187.104.372.163.556l5.703-1.662z"/></g><g><path fill="#373c41" d="M8.553 53.046l-4.485 3.883c.123.149.249.295.379.438l4.485-3.883z"/></g><g><path fill="#373c41" d="M10.147 54.398l-2.484 5.39c.173.086.348.167.526.243l2.484-5.39z"/></g><g><path fill="#373c41" d="M12.144 54.963L12.13 60.9c.192.006.385.006.58.002l.012-5.94z"/></g><g><path fill="#373c41" d="M14.208 54.648l2.44 5.413c.177-.075.353-.155.527-.239l-2.439-5.412z"/></g><g><path fill="#373c41" d="M15.942 53.513l4.473 3.898c.13-.142.258-.288.38-.436l-4.472-3.899z"/></g><g><path fill="#373c41" d="M43.19 45.425l-4.155-4.234a10.89 10.89 0 0 0-.413.406l4.154 4.234z"/></g><g><path fill="#373c41" d="M41.952 47.093l-5.547-2.12c-.074.178-.143.358-.208.54l5.548 2.12z"/></g><g><path fill="#373c41" d="M41.514 49.13l-5.925.367c.007.194.019.387.036.579l5.925-.369z"/></g><g><path fill="#373c41" d="M41.964 51.16l-5.241 2.793c.087.173.178.343.273.511l5.241-2.793z"/></g><g><path fill="#373c41" d="M43.212 52.826l-3.607 4.709c.15.122.304.239.46.352l3.607-4.71z"/></g><g><path fill="#373c41" d="M45.044 53.82l-1.337 5.787c.186.049.375.092.564.13l1.338-5.786z"/></g><g><path fill="#373c41" d="M47.113 53.97l1.2 5.815c.19-.034.38-.073.567-.116l-1.2-5.816z"/></g><g><path fill="#373c41" d="M49.068 53.238l3.492 4.8c.159-.11.315-.224.467-.342l-3.49-4.8z"/></g><g><path fill="#373c41" d="M50.538 51.775l5.173 2.907c.1-.165.194-.334.285-.504L50.82 51.27z"/></g><g><path fill="#373c41" d="M51.27 49.816l5.916.515c.021-.191.038-.383.049-.577l-5.914-.515z"/></g><g><path fill="#373c41" d="M51.126 47.748l5.593-1.999c-.06-.184-.126-.366-.195-.545l-5.593 1.999z"/></g><g><path fill="#373c41" d="M50.13 45.912l4.265-4.124c-.13-.142-.265-.28-.403-.415l-4.264 4.123z"/></g><g><path fill="#373c41" d="M48.476 44.665l2.156-5.533a10.698 10.698 0 0 0-.54-.212l-2.156 5.534z"/></g><g><path fill="#373c41" d="M46.44 44.21l-.326-5.927c-.195.005-.387.016-.578.031l.325 5.928z"/></g><g><g><path fill="#2f3439" d="M22.743 53.462a10.84 10.84 0 0 1-2.328 3.949 10.888 10.888 0 0 1-3.768 2.65c-1.2.506-2.512.802-3.891.841h-.045a10.756 10.756 0 0 1-5.048-1.114 10.908 10.908 0 0 1-3.595-2.86 10.811 10.811 0 0 1-2.298-8.687 10.778 10.778 0 0 1 1.73-4.27 10.925 10.925 0 0 1 3.333-3.164 10.755 10.755 0 0 1 5.314-1.57 10.804 10.804 0 0 1 6.96 2.287l.735-.795a11.862 11.862 0 0 0-7.726-2.571C5.548 38.342.354 43.837.54 50.405c.185 6.568 5.679 11.762 12.247 11.577 5.2-.146 9.536-3.619 11.027-8.318z"/></g></g><g><g><path fill="#2f3439" d="M23.282 50.416l1.076.133c.01-.27.013-.54.006-.814l-.008-.177-1.083-.053a10.912 10.912 0 0 1 .009.911z"/></g></g><g><g><path fill="#2f3439" d="M23.16 51.732c-.054.35-.125.696-.213 1.036l1.064.2c.091-.362.166-.73.222-1.104z"/></g></g><g><g><path fill="#2f3439" d="M22.256 45.458c.486 1.028.814 2.146.954 3.323l1.094.053a11.88 11.88 0 0 0-3.473-7.23l-.734.795a10.887 10.887 0 0 1 2.159 3.059z"/></g></g><g><g><path fill="#2f3439" d="M58.33 48.78c-.185-6.569-5.679-11.762-12.247-11.578a11.873 11.873 0 0 0-3.715.705l.427.995a10.776 10.776 0 0 1 3.318-.62 10.778 10.778 0 0 1 4.519.85 10.886 10.886 0 0 1 6.087 6.617 10.806 10.806 0 0 1 .467 4.582 10.756 10.756 0 0 1-1.475 4.351 10.924 10.924 0 0 1-3.151 3.356 10.78 10.78 0 0 1-5.838 1.909 10.82 10.82 0 0 1-3.015-.34 10.81 10.81 0 0 1-4.102-2.072 10.908 10.908 0 0 1-2.882-3.582 10.759 10.759 0 0 1-1.134-4.456l-.003-.078a10.782 10.782 0 0 1 .82-4.446 10.88 10.88 0 0 1 2.629-3.782 10.872 10.872 0 0 1 2.545-1.771l-.427-.995c-4.046 2-6.782 6.225-6.648 11.025.185 6.568 5.68 11.762 12.248 11.577 6.568-.185 11.762-5.679 11.577-12.247z"/></g></g><g><g><path fill="#37be8a" d="M24.233 51.864l.438.054a2.887 2.887 0 0 1 .184-1.308l-.497-.061-1.076-.133-9.063-1.118a1.859 1.859 0 0 1-.162 1.311l9.103 1.123z"/></g></g><g><g><path fill="#2f3439" d="M28.198 48.852l-.966-2.591 1.237-.035-.037-1.32-2.861.08 1.422 3.843a2.881 2.881 0 0 1 1.205.023z"/></g></g><g><path fill="#373c41" d="M28.336 48.887c.435.125.827.35 1.152.648a2.88 2.88 0 0 1-.38 4.541l-1.01-2.708-1.238.462 1.004 2.69a2.869 2.869 0 0 1-1.898-.45l-2.153-.406-1.07-.202-10.009-1.89a1.861 1.861 0 1 1 .87-3.259l.982.048 8.624.42 1.094.053 1.306.064.959.047a2.859 2.859 0 0 1 .89-.168 2.883 2.883 0 0 1 .877.11zm-3.246 4.285a2.865 2.865 0 0 1-.43-1.433 2.87 2.87 0 0 1 .85-2.125l-1.154-.056-1.083-.053-9.13-.444a1.845 1.845 0 0 1-.39 1.97l9.194 1.737 1.064.2z"/></g><g><g><path fill="#2f3439" d="M28.098 51.368l-1.238.462 1.004 2.69.492 1.319-1.237.035.037 1.32 4.2-.118-.036-1.32-1.569.043-.643-1.723z"/></g></g><g><g><path fill="url(#4gkfa)" d="M20.216 24.195c.048-.037.092-.06.138-.092.045-.026.09-.05.133-.072.044-.024.086-.04.13-.061l.126-.05a2.221 2.221 0 0 1 1.372-.05l.847.22.844.229c1.123.311 2.24.65 3.349 1.016l.83.279.828.287c.553.19 1.103.388 1.655.582l1.653.585 1.656.577.356.124a2.448 2.448 0 0 1 1.369 3.439l-1.787 3.443c-.603 1.144-1.199 2.292-1.81 3.433l-.913 1.713-.922 1.71c-.62 1.136-1.238 2.274-1.876 3.404a1.326 1.326 0 0 1-2.42-1.041c.38-1.24.78-2.472 1.179-3.704l.606-1.845.615-1.841c.408-1.229.83-2.45 1.246-3.676l1.27-3.665 1.724 3.563-1.721-.334-1.724-.325c-.575-.11-1.15-.214-1.723-.328l-.86-.169-.858-.177a73.011 73.011 0 0 1-3.406-.804l-.845-.226-.842-.235a2.22 2.22 0 0 1-1.161-.734l-.084-.106c-.027-.04-.056-.076-.082-.118a2.28 2.28 0 0 1-.078-.13c-.025-.05-.05-.092-.073-.148a4 4 0 0 1 1.26-4.673z"/></g></g><g><g><path fill="#2f3439" d="M23.857 30.418c.851-.536.451-1.852-.554-1.824l-6.588.185a.988.988 0 0 0-.96 1.016l.11 3.893a.988.988 0 0 0 1.514.808l2.352-1.48 1.142-.72z"/></g></g><g><path fill="#373c41" d="M39.113 31.753v-.021l-.203-7.18 7.802-.22.06 2.132a.298.298 0 0 1 .01.357v.025c.02.71-.113 1.39-.367 2.008a.297.297 0 0 1-.07.164 4.934 4.934 0 0 1-4.351 2.894l-2.173.061-.102-.237zm5.015-5.336l2.04-.058-.04-1.41-2.04.057zm.06 2.16l1.71-.048a4.302 4.302 0 0 0 .285-1.57l-2.038.058zm.057 2.015a4.36 4.36 0 0 0 1.364-1.454l-1.404.04zm-2.59-4.106l1.873-.052-.04-1.41-1.873.052zm.06 2.16l1.873-.052-.043-1.56-1.874.052zm.075 2.671l.187-.005a4.305 4.305 0 0 0 1.679-.39c0-.006-.002-.012-.003-.017l-.048-1.71-1.873.052zm-2.223-4.772l1.487-.042-.04-1.41-1.487.042zm.06 2.16l1.488-.041-.044-1.56-1.487.041zm.076 2.671l1.487-.042-.058-2.07-1.487.042z"/></g><g><g><path fill="#37be8a" d="M47.054 48.823l-4.259-9.921-.427-.995-2.547-5.934-.004-.008-.228-8.135-1.404.04.22 7.846-15.482 6.116-2.05-5.536-1.142.72 2.07 5.593-1.96 2.12-.734.795-6 6.491c.182.073.348.175.496.298l.983.048 5.511-5.962.734-.794 1.485-1.607 3.295 8.9.958.047c.137-.05.279-.088.424-.117l-1.422-3.842-2.19-5.915L37.6 33.454l-9.263 15.433c.435.125.827.35 1.152.648L39.07 33.57l2.083 4.854.427.995 4.26 9.924a.66.66 0 0 0 1.214-.52z"/></g></g><g><g><path fill="#2f3439" d="M41.394 24.482l-7.782.219a.702.702 0 0 1-.04-1.404l7.783-.219a.702.702 0 0 1 .04 1.404z"/></g></g><g><g><g><path fill="#40dc9e" d="M23.718 9.69a2.1 2.1 0 0 1 .41.093c1.113.365 1.847 1.43 1.834 2.603-.022 2.048-.19 4.087-.008 6.139-.88.593-1.76 1.125-2.627 1.777-.295 1.937-.438 4.317-.081 6.165.357 1.849-1.661 3.015-2.671 3.292-1.01.276-.423-.007-.41.135-2.08-.675-3.11-.781-3.25-3.387-.286-5.37.883-10.12 3.105-15.03.921-2.036 1.733-2.016 3.698-1.786z"/></g></g></g><g><g><path fill="#dea095" d="M23.658 11.013a1.248 1.248 0 0 0 1.428-1.028l.493-3.023a1.248 1.248 0 0 0-1.028-1.429 1.248 1.248 0 0 0-1.428 1.028l-.493 3.024a1.248 1.248 0 0 0 1.028 1.428z"/></g></g><g><g><g><path fill="#eeb5ac" d="M24.042 1.766l4.035 1.395.095 2.22.012.12c.008.1.01.2.007.297l-.014.153a2.641 2.641 0 0 1-.08.464 2.602 2.602 0 0 1-2.128 1.89l-.028.005A3.444 3.444 0 0 1 22.044 5.2a3.458 3.458 0 0 1 1.998-3.435z"/></g></g><g><path fill="#623c34" d="M24.12.916h.032l1.476-.054c1.4-.05 2.757.494 3.734 1.499l-4.178 2.575c-.1-.528-.611-.903-1.176-.796a.983.983 0 0 0-.796.818c-.045.288.031.556.184.762l.078 1.979A3.44 3.44 0 0 1 24.12.916z"/></g></g><g><g><path fill="#623c34" d="M17.613 10.016c.49-1.425 1.097-3.34 1.547-4.667.747-2.198 2.426-3.154 4.6-2.864-.038.01-.038.01 0 0-1.206-.179-.409-.206-1.947-.431.239.031.239.031 0 0-1.539-.226-3.925.622-4.434 2.788-.308 1.307-1.1 3.186-1.48 4.587.543.223 1.143.42 1.714.587z"/></g></g><g><g><path fill="#eeb5ac" d="M34.152 21.453c-.579-.459-1.162-.91-1.745-1.364l-.887-.689-.893-.681a93.55 93.55 0 0 0-1.598-1.186l-2.294-3.383c-.403-.589-.809-1.176-1.201-1.773-.394-.595-.786-1.193-1.169-1.796a1.628 1.628 0 1 0-2.636 1.903c.453.554.897 1.113 1.338 1.675.444.56.873 1.13 1.306 1.697l2.609 3.398.039.051c.076.099.17.187.278.261.62.42 1.247.828 1.878 1.232l.948.602.953.595c.533.332 1.067.663 1.602.992l.674 1.541a2.473 2.473 0 0 0 2.857 1.41l.572-.14a.72.72 0 0 0 .41-1.124l-.89-1.223a1.444 1.444 0 0 0-.28-.955c-.039-.057-.088-.108-.135-.16a2.607 2.607 0 0 0-.16-.14 2.911 2.911 0 0 0-.088-.058l-.046-.03-.011-.006-.005-.004-.003-.001-.008-.006a2.084 2.084 0 0 1-.342-.284 3.317 3.317 0 0 1-.192-.207l-.069-.081"/></g></g><g><g><path fill="#db4f69" d="M30.396 36.286l-.217-.285-1.175-1.547-1.169-1.553c-.39-.517-.777-1.037-1.17-1.55l-.589-.773-.595-.767a90.39 90.39 0 0 0-2.188-2.682l-.008-.126a2.213 2.213 0 0 0-.039-.536c-.144-.746-.206-1.579-.21-2.434l-6.131-.482-.002.046-.049-.021-.652 4.04.004.008c-.004.046-.005.09-.01.135a2.435 2.435 0 0 0 .001.16c0 .053.007.101.01.152l.018.145a2.624 2.624 0 0 0 .645 1.364l.63.738.636.73c.853.972 1.728 1.923 2.623 2.858l.675.698.681.692c.453.462.913.919 1.37 1.378l1.372 1.376.746.756.036 2.559c.025 1.269.043 2.538.077 3.807l.048 1.905.057 1.905c.044 1.27.087 2.54.15 3.811a1.327 1.327 0 0 0 2.63.159c.216-1.255.41-2.51.607-3.766l.286-1.884.276-1.885c.187-1.256.357-2.514.535-3.77l.51-3.773a2.158 2.158 0 0 0-.42-1.588z"/></g></g><g><g><g><g><path fill="#40dc9e" d="M28.895 51.152l-3.275 2.45-.304 1.596 6.582 1.251a1.103 1.103 0 0 0 1.29-.877L28.954 52.7a.82.82 0 0 0 .217-1.14z"/></g></g><g><path fill="#fff" d="M32.149 55.984l.272-.4-3.76-2.562-.273.4z"/></g></g></g></g></g></svg>