<svg xmlns="http://www.w3.org/2000/svg" viewBox="0 0 19.81 19.87"><defs><style>.cls-1{fill:#373c41;}</style></defs><title>Ресурс 4</title><g id="Слой_2" data-name="Слой 2"><g id="элементы"><path class="cls-1" d="M19.81,10a9.83,9.83,0,0,1-9.92,9.92A9.83,9.83,0,0,1,0,9.91,9.85,9.85,0,0,1,9.86,0,9.84,9.84,0,0,1,19.81,10Zm-15.6,0c0,.8,0,1.6,0,2.4a3.1,3.1,0,0,0,2.91,3.25,38.08,38.08,0,0,0,5.55,0,3,3,0,0,0,2.89-3.05c.07-1.72.07-3.44,0-5.15a3,3,0,0,0-2.75-3,44.07,44.07,0,0,0-5.63,0,3.11,3.11,0,0,0-3,3.26C4.19,8.36,4.21,9.14,4.21,9.92Z"/><path class="cls-1" d="M5.54,9.9c0-.8,0-1.61,0-2.41A1.79,1.79,0,0,1,7.42,5.54q2.47-.09,4.95,0a1.78,1.78,0,0,1,1.9,1.92c.05,1.69,0,3.39,0,5.08a1.57,1.57,0,0,1-1.55,1.71c-1.85.09-3.71.1-5.56,0a1.59,1.59,0,0,1-1.59-1.75c0-.86,0-1.74,0-2.61Zm1.4.06a3,3,0,0,0,2.94,3,3.06,3.06,0,0,0,3.07-3,3.11,3.11,0,0,0-3-3A3,3,0,0,0,6.94,10Zm6.83-2.85V6.78c-.3-.2-.59-.54-.91-.58a.63.63,0,0,0-.73.77,1.05,1.05,0,0,0,.73.69C13.15,7.68,13.47,7.31,13.77,7.11Z"/><path class="cls-1" d="M9.88,11.64A1.63,1.63,0,0,1,8.17,10,1.7,1.7,0,0,1,10,8.23,1.68,1.68,0,0,1,11.65,10,1.63,1.63,0,0,1,9.88,11.64Z"/></g></g></svg>