<svg xmlns="http://www.w3.org/2000/svg" width="93" height="65" viewBox="0 0 93 65"><defs><linearGradient id="6a0ya" x1="8.78" x2="15.78" y1="42.18" y2="41.66" gradientUnits="userSpaceOnUse"><stop offset="0" stop-color="#fff"/><stop offset="1" stop-color="#ccd6d7"/></linearGradient><linearGradient id="6a0yb" x1="78.47" x2="85.47" y1="42.18" y2="41.66" gradientUnits="userSpaceOnUse"><stop offset="0" stop-color="#fff"/><stop offset="1" stop-color="#ccd6d7"/></linearGradient><linearGradient id="6a0yc" x1="24.37" x2="19.37" y1="58.47" y2="58.65" gradientUnits="userSpaceOnUse"><stop offset="0" stop-color="#eb556f"/><stop offset="1" stop-color="#c34761"/></linearGradient><linearGradient id="6a0yd" x1="13.27" x2="8.27" y1="58.47" y2="58.65" gradientUnits="userSpaceOnUse"><stop offset="0" stop-color="#eb556f"/><stop offset="1" stop-color="#c34761"/></linearGradient><linearGradient id="6a0ye" x1="16.29" x2="11.29" y1="61.53" y2="61.71" gradientUnits="userSpaceOnUse"><stop offset="0" stop-color="#eb556f"/><stop offset="1" stop-color="#c34761"/></linearGradient><linearGradient id="6a0yf" x1="5.19" x2=".19" y1="61.53" y2="61.71" gradientUnits="userSpaceOnUse"><stop offset="0" stop-color="#eb556f"/><stop offset="1" stop-color="#c34761"/></linearGradient><linearGradient id="6a0yg" x1="33.95" x2="26.22" y1="2.45" y2="21.22" gradientUnits="userSpaceOnUse"><stop offset="0" stop-color="#f5b0a8"/><stop offset="1" stop-color="#e29b92"/></linearGradient><linearGradient id="6a0yh" x1="79.85" x2="52.85" y1="45.85" y2="32.64" gradientUnits="userSpaceOnUse"><stop offset="0" stop-color="#eb556f"/><stop offset="1" stop-color="#c34761"/></linearGradient></defs><g><g><g><path fill="url(#6a0ya)" d="M15.49 50.178H8.78V33.66h6.71z"/></g><g><path fill="url(#6a0yb)" d="M85.178 50.178h-6.71V33.66h6.71z"/></g></g><g><path fill="#fff" d="M92.25 39.235H1.708V23.233H92.25z"/></g><g><g opacity=".3"><path fill="#373c41" d="M14.536 60.606c0-2.395 17.148-4.336 38.302-4.336s38.302 1.94 38.302 4.336c0 2.394-17.148 4.336-38.302 4.336S14.536 63 14.536 60.606z"/></g><g><g><g><path fill="#bc445c" d="M25.14 58.117l-1.505 2.635a1.715 1.715 0 0 1-1.464.894c-.612.018-1.01.014-1.196-.012l-.648-4.395c0-.978.793-1.77 1.77-1.77h1.506c1.36 0 2.212 1.468 1.537 2.648z"/></g></g><g><path fill="url(#6a0yc)" d="M24.186 58.117l-1.505 2.635c-.9 1.576-3.308.937-3.308-.879V57.24c0-.978.793-1.77 1.77-1.77h1.506c1.36 0 2.212 1.468 1.537 2.648z"/></g><g><g><path fill="#db4f69" d="M21.656 59.369h-9.3a.8.8 0 1 1 0-1.601h9.3a.8.8 0 0 1 0 1.6z"/></g></g><g><g><path fill="#bc445c" d="M14.103 58.117l-1.505 2.635a1.715 1.715 0 0 1-1.464.894c-.612.018-1.01.014-1.196-.012L9.29 57.24c0-.978.793-1.77 1.77-1.77h1.506c1.36 0 2.211 1.468 1.537 2.648z"/></g></g><g><path fill="url(#6a0yd)" d="M13.081 58.117l-1.505 2.635c-.9 1.576-3.308.937-3.308-.879V57.24c0-.978.793-1.77 1.77-1.77h1.506c1.36 0 2.212 1.468 1.537 2.648z"/></g></g><g><g><g><path fill="#40dc9e" d="M68.84 43.685c0 10.683-9.42 19.344-21.04 19.344s-21.04-8.66-21.04-19.344c0-10.683 9.42-19.343 21.04-19.343s21.04 8.66 21.04 19.343z"/></g></g><g><g><g><path fill="#37be8a" d="M47.8 37.165c7.188 0 14.733-1.492 17.444-4.298-.273-.371-.564-.73-.864-1.082-1.844 2.087-8.142 4.022-16.58 4.022-8.438 0-14.735-1.935-16.58-4.023-.3.353-.591.712-.864 1.083 2.712 2.806 10.257 4.298 17.444 4.298z"/></g></g><g><g><path fill="#37be8a" d="M63.416 30.723c-.34-.345-.695-.676-1.06-.998-2.92 1.463-8.112 2.592-14.556 2.592-6.443 0-11.636-1.13-14.555-2.592a20.19 20.19 0 0 0-1.06.998c3.5 1.934 9.68 2.951 15.615 2.951 5.935 0 12.115-1.017 15.616-2.95z"/></g></g><g><g><path fill="#37be8a" d="M47.8 40.655c8.161 0 16.75-1.64 19.28-4.717-.224-.47-.465-.93-.728-1.38-.968 2.338-8.314 4.74-18.552 4.74s-17.584-2.402-18.552-4.74c-.262.45-.504.91-.727 1.38 2.528 3.077 11.118 4.717 19.28 4.717z"/></g></g><g><g><path fill="#37be8a" d="M47.8 44.146c8.602 0 17.644-1.574 20.57-4.53-.13-.558-.284-1.109-.465-1.648-.9 2.363-8.902 4.82-20.105 4.82-11.203 0-19.206-2.457-20.105-4.82-.18.539-.335 1.09-.465 1.648 2.927 2.956 11.968 4.53 20.57 4.53z"/></g></g><g><g><path fill="#37be8a" d="M29.127 52.596a19.214 19.214 0 0 0 1.985 2.864c3.971 1.737 10.452 2.648 16.688 2.648 6.237 0 12.717-.91 16.688-2.648a19.232 19.232 0 0 0 1.985-2.864c-1.893 2.137-9.035 4.155-18.673 4.155-9.639 0-16.78-2.018-18.673-4.155z"/></g></g><g><path fill="#8dc603" d="M28.646 51.687a1.208 1.208 0 0 1-.02-.196h-.077l.097.196z"/></g><g><path fill="#8dc603" d="M67.051 51.49h-.077c0 .066-.009.131-.02.197l.097-.196z"/></g></g><g><g><path fill="#37be8a" d="M27.599 49.106c.243.768.537 1.516.877 2.24 4.079 2.142 11.958 3.271 19.511 3.271 7.26 0 14.823-1.043 19.02-3.026.322-.659.604-1.338.845-2.033-2.661 1.96-10.088 3.702-19.865 3.702-10.521 0-18.321-2.017-20.388-4.154z"/></g></g><g><g><path fill="#37be8a" d="M26.892 45.854c.075.612.18 1.215.314 1.809 4.096 2.267 12.497 3.464 20.537 3.464 8.127 0 16.624-1.223 20.669-3.539.134-.605.238-1.22.31-1.844-2.33 2.089-10.302 4.025-20.979 4.025-10.49 0-18.368-1.869-20.85-3.915z"/></g></g><g><g><path fill="#37be8a" d="M68.838 43.825l.002-.14c0-.517-.022-1.029-.066-1.536-2.162 2.128-10.166 4.13-20.95 4.13-10.857 0-18.898-2.03-20.994-4.174-.046.521-.07 1.048-.07 1.58l.002.108c3.792 2.512 12.626 3.843 21.062 3.843 8.401 0 17.196-1.32 21.014-3.811z"/></g></g></g><g><g><g><path fill="#bc445c" d="M17.057 61.178l-1.505 2.634a1.714 1.714 0 0 1-1.464.894c-.612.018-1.01.014-1.196-.011l-.648-4.396c0-.977.793-1.77 1.77-1.77h1.506c1.36 0 2.212 1.468 1.537 2.649z"/></g></g><g><path fill="url(#6a0ye)" d="M16.103 61.178l-1.505 2.634c-.9 1.576-3.308.937-3.308-.878v-2.635c0-.977.793-1.77 1.77-1.77h1.506c1.36 0 2.212 1.468 1.537 2.649z"/></g><g><g><path fill="#db4f69" d="M13.573 62.43h-9.3a.8.8 0 0 1 0-1.602h9.3a.8.8 0 0 1 0 1.601z"/></g></g><g><g><path fill="#bc445c" d="M6.02 61.178l-1.505 2.634a1.715 1.715 0 0 1-1.464.894c-.612.018-1.01.014-1.196-.011l-.648-4.396c0-.977.793-1.77 1.77-1.77h1.506c1.36 0 2.212 1.468 1.537 2.649z"/></g></g><g><path fill="url(#6a0yf)" d="M4.998 61.178l-1.505 2.634c-.9 1.576-3.308.937-3.308-.878v-2.635c0-.977.793-1.77 1.77-1.77h1.506c1.36 0 2.212 1.468 1.537 2.649z"/></g></g><g><g><g><g><path fill="url(#6a0yg)" d="M32.95 18.488c.04-1.152.064-2.304.083-3.455.023-1.151.018-2.302.019-3.453l.034-6.906 3.278 1.782a132.785 132.785 0 0 1-3.035 1.742l-1.532.848-1.54.836c-1.027.557-2.053 1.114-3.086 1.66-1.03.55-2.065 1.095-3.105 1.63a1.45 1.45 0 0 1-1.512-2.463 243.22 243.22 0 0 1 2.86-2.03c.954-.674 1.916-1.337 2.877-2l1.443-.994 1.45-.982c.969-.65 1.942-1.294 2.928-1.917a2.135 2.135 0 0 1 3.273 1.678l.005.103.375 6.897c.058 1.149.11 2.299.19 3.447.075 1.15.156 2.299.253 3.447a2.634 2.634 0 1 1-5.258.13z"/></g></g></g><g><g><path fill="url(#6a0yh)" d="M79.936 25.374l-20.151-5.316c-3.219-.85-6.446.98-6.886 3.906-.428 2.834 1.79 6.499 4.946 6.86.194.023.39.026.585.022l15.065-.29-2.563 8.382 1.793 19.707 3.835-1.68 2.348-26.513z"/></g><g><g><g><path fill="#40dc9e" d="M77.089 53.785L72.66 58.7l.02 2.628 10.837-.079a1.784 1.784 0 0 0 1.771-1.797l-7.618-3.23a1.328 1.328 0 0 0-.014-1.878z"/></g></g><g><path fill="#fff" d="M83.77 60.432l.306-.72-6.772-2.886-.307.72z"/></g></g></g><g><g><path fill="#373c41" d="M27.547 20.957c.037-1.258.06-.224.06-.224.78-2.017 2.034-2.89 3.914-3.34.771-.186 1.262-.183 2.069-.395 1.687-.444 3.56-.96 5.256-1.533 1.019 1.558 1.846 3.208 2.811 4.792 4.313 1.387 9.102.647 13.368.247 3.293-.308 4.7 1.81 5.14 4.586.027.168.134.468.079.651-.896 2.955-1.018 4.657-5.215 5.037-9.19.833-15.715-.83-24.1-3.928-3.829-1.415-3.402-3.937-3.382-5.893z"/></g></g><g><g><g><path fill="#eeb5ac" d="M32.612 26.9c-1.243.572-2.478 1.157-3.712 1.747-1.235.587-2.457 1.198-3.682 1.804l-7.362 3.61-.074.037a2.143 2.143 0 0 1-2.885-2.83 146.534 146.534 0 0 1 1.6-3.303l.825-1.64.838-1.636c.56-1.089 1.117-2.179 1.689-3.263.566-1.087 1.138-2.17 1.72-3.25a1.449 1.449 0 0 1 2.636 1.187 262.773 262.773 0 0 1-1.293 3.442c-.434 1.146-.88 2.287-1.325 3.428l-.669 1.71-.682 1.706c-.459 1.135-.925 2.266-1.413 3.388l-2.959-2.793 7.174-3.973c1.197-.658 2.398-1.31 3.585-1.988 1.19-.674 2.377-1.352 3.557-2.045a2.633 2.633 0 1 1 2.432 4.663z"/></g></g></g><g><g><path fill="#dea095" d="M29.855 20.547a2.02 2.02 0 0 0-.69-2.762l-4.25-2.55a2.02 2.02 0 0 0-2.762.691 2.02 2.02 0 0 0 .69 2.762l4.25 2.55a2.02 2.02 0 0 0 2.762-.69z"/></g></g><g><g><g><path fill="#eeb5ac" d="M19.036 11.662l6.284-2.867 2.59 2.494.147.128c.12.108.233.222.338.34l.155.195c.158.199.304.407.424.631.77 1.437.675 3.243-.384 4.59l-.028.037a5.572 5.572 0 0 1-8.034.706c-1.798-1.577-2.343-4.114-1.492-6.254z"/></g></g><g><path fill="#623c34" d="M18.18 10.58l.037-.037 1.67-1.71a8.02 8.02 0 0 1 6.046-2.41l-2.022 7.679a1.62 1.62 0 0 0-2.265.38 1.59 1.59 0 0 0-.02 1.845c.269.389.657.617 1.066.687l2.298 2.232a5.564 5.564 0 0 1-6.81-8.667z"/></g></g><g><path fill="#623c34" d="M11.52 26.962l1.773-7.691a5.919 5.919 0 0 1 7.097-4.44l-2.884-.664a5.92 5.92 0 0 0-7.097 4.44l-1.772 7.69z"/></g><g><g><path fill="#eeb5ac" d="M43.157 20.652l-3.684 8.935c4.228 1.068 8.386 1.578 13.242 1.35l-2.339-9.993c-2.408.179-4.865.206-7.22-.292z"/></g></g><g><g><path fill="#db4f69" d="M49.39 1.202c-.784 2.313-.446 4.592-.352 6.972.058 1.499.064 2.998.109 4.497l.213 7.186.034 1.15c-.366.019-.732.036-1.099.045l1.67 9.936c1.61.018 3.287-.049 5.064-.21 4.197-.38 4.32-2.082 5.215-5.037a.499.499 0 0 0 .012-.179 4.77 4.77 0 0 0 .12-2.112 4.398 4.398 0 0 0-.144-.567l-4.62-14.579.457.303 19.403 3.883-.52-4.155-2.177-.86-5.328-2.107-6.679-2.64-6.23-2.464z"/></g></g><g><g><g><path fill="#40dc9e" d="M72.053 6.925l3.453 5.643 2.526.729 3.005-10.414a1.784 1.784 0 0 0-1.22-2.208L74.555 7.06a1.328 1.328 0 0 0-1.804-.52z"/></g></g><g><path fill="#fff" d="M80.325 2.41l-.603-.5-4.692 5.673.603.5z"/></g></g></g></g></g></svg>