<svg xmlns="http://www.w3.org/2000/svg" width="14" height="11" viewBox="0 0 14 11"><g><g><g><path fill="#373c41" d="M2.45.883L4.32.885l-.004 2.707H3.73l.002-2.12-.694-.001-.002 2.12-.587-.001zm4.87 1.359c0 .762-.623 1.383-1.386 1.382A1.386 1.386 0 0 1 4.552 2.24c0-.763.623-1.384 1.385-1.383.763.001 1.384.623 1.383 1.386zm-.614-.001c0-.438-.33-.797-.77-.798-.438 0-.77.358-.77.796 0 .439.33.797.769.798.439 0 .77-.358.77-.796zm2.37-.432a.911.911 0 0 1-.927.918H8.14v.87l-.588-.001.003-2.708.595.001c.53 0 .926.413.925.92zm-.59 0a.345.345 0 0 0-.344-.348v.698a.35.35 0 0 0 .343-.35zm2.34-.917v.587h-.54l-.003 2.12-.587-.001.002-2.12h-.54V.89zM2.152.852v.587c-.439 0-.77.358-.771.796 0 .439.33.797.769.798v.587A1.386 1.386 0 0 1 .766 2.235c0-.763.623-1.384 1.385-1.383z"/></g><g><path fill="#373c41" d="M2.154 4.13l.587.002-.003 2.707-.587-.001.001-1.06h-.694l-.001 1.06-.587-.001.003-2.707h.587l-.001 1.06h.694zm7.921.01h.584l-.004 2.707h-.586l.001-1.534-.887 1.533-.59-.001.002-1.525-.882 1.524h-.674l1.566-2.706h.578l-.001 1.545zM5.742 5.488c0 .763-.623 1.384-1.385 1.383a1.386 1.386 0 0 1-1.383-1.386c0-.762.623-1.383 1.385-1.382.763 0 1.384.623 1.383 1.385zm-.614 0c0-.439-.33-.798-.77-.798-.438 0-.77.358-.77.796 0 .439.33.797.77.798.438 0 .77-.358.77-.796zm1.443.486h-.008v.869h-.588l.004-2.708h.594c.53.001.926.414.925.92a.911.911 0 0 1-.927.919zm.336-.919a.345.345 0 0 0-.342-.347l-.001.697a.35.35 0 0 0 .343-.35zm6.044-.912l-.003 2.707h-.587V6.49h-.727l-.208.357h-.674l1.566-2.706zm-.588 1.086l-.426.736h.425z"/></g><g><path fill="#373c41" d="M3.482 8.641l.834 1.448h-.674l-.81-1.407-.001 1.405h-.587l.002-1.405-.813 1.404-.674-.001.837-1.446-.727-1.261h.675l.702 1.22.001-1.219.587.001-.002 1.218.705-1.217h.674zm4.805.624c0 .53-.433.823-.95.827h-.4l.001-.56h.4c.24-.001.347-.12.347-.287 0-.171-.118-.288-.316-.289h-.322v-.515h.284c.164 0 .271-.09.271-.245 0-.142-.062-.232-.263-.25l-.399-.001v-.56h.4c.438 0 .858.209.857.697 0 .225-.061.383-.279.555.229.133.37.319.37.628zm1.605-1.877h.587l-.003 2.708-.587-.001v-1.06h-.747l-.001 1.06-.587-.001.003-2.708.587.001-.002 1.06h.749zM5.98 7.384h.58l-.003 2.707H5.97l.002-1.529-.884 1.528h-.593l.003-2.708h.586l-.001 1.551zm6.967.007l-.003 2.707h-.587l.001-1.529-.884 1.528h-.593l.003-2.708h.587l-.001 1.551.897-1.55z"/></g><g><path fill="#a7e600" d="M13.259 2.248l-.47.812h-.598l.313-.542-1.68-.002v-.541l1.68.002-.311-.542h.598z"/></g></g></g></svg>