<svg xmlns="http://www.w3.org/2000/svg" viewBox="0 0 60.83 45"><defs><style>.cls-1{fill:#373c41;}.cls-2{fill:#a7e600;}</style></defs><title>Ресурс 1</title><g id="Слой_2" data-name="Слой 2"><g id="элементы"><path class="cls-1" d="M8.22,13.33h2.86V3h3.38l0,10.32h2.86V.16H8.24ZM25.2,0a6.74,6.74,0,1,0,6.73,6.74A6.75,6.75,0,0,0,25.2,0m0,10.61a3.77,3.77,0,0,1-3.74-3.88,3.75,3.75,0,1,1,7.49,0,3.77,3.77,0,0,1-3.75,3.87M36,.18h-2.9V13.35h2.85V9.12h0a4.43,4.43,0,0,0,4.51-4.46A4.44,4.44,0,0,0,36,.18m0,6.18V3A1.68,1.68,0,0,1,37.6,4.65a1.71,1.71,0,0,1-1.67,1.71m5-6.17V3h2.63V13.36h2.85V3.05H49V.19ZM0,6.73a6.75,6.75,0,0,0,6.73,6.74V10.61A3.77,3.77,0,0,1,3,6.73,3.78,3.78,0,0,1,6.78,2.86V0A6.75,6.75,0,0,0,0,6.73"/><path class="cls-1" d="M6.78,21.12H3.41V16H.56l0,13.18H3.4V24H6.78v5.16H9.63L9.65,16H6.79ZM41,23.51V16H38.18L30.56,29.16h3.28l4.3-7.42v7.43H41l4.32-7.46v7.46h2.86V16H45.34ZM17.52,15.82a6.74,6.74,0,1,0,6.73,6.74,6.75,6.75,0,0,0-6.73-6.74m0,10.62a3.88,3.88,0,1,1,3.76-3.88,3.79,3.79,0,0,1-3.76,3.88m15.29-6A4.43,4.43,0,0,0,28.3,16H25.4V29.15h2.85V24.93h0a4.43,4.43,0,0,0,4.51-4.47m-4.55,1.7V18.77a1.67,1.67,0,0,1,1.66,1.69,1.7,1.7,0,0,1-1.67,1.7m28-6.15L48.63,29.18h3.28l1-1.74h3.54v1.74h2.85l0-13.17Zm.22,8.88H54.4l2.08-3.58Z"/><path class="cls-1" d="M16.8,31.78H13.52L10.09,37.7V31.77H7.24V37.7L3.82,31.76H.54L4.07,37.9,0,44.94H3.28l4-6.83v6.83h2.85V38.11L14,45h3.28l-4-7Zm18,6.11a3.07,3.07,0,0,0,1.36-2.7c0-2.38-2-3.39-4.17-3.39H30.09v2.73h2c1,.09,1.28.53,1.28,1.22A1.17,1.17,0,0,1,32,36.94H30.61v2.51h1.57a1.38,1.38,0,0,1,1.54,1.41c0,.81-.52,1.39-1.69,1.39h-2V45h2c2.51,0,4.62-1.45,4.62-4a3.25,3.25,0,0,0-1.8-3m9.6-.92H40.8V31.8H38V45h2.85V39.82h3.64V45h2.86V31.81H44.45ZM21.05,39.33V31.78H18.2V45h2.88l4.31-7.44V45h2.85l0-13.18H25.41ZM56.5,31.82l-4.37,7.54V31.82H49.28V45h2.89l4.3-7.43V45h2.86V31.82Z"/><polygon class="cls-2" points="60.83 6.79 58.55 10.74 55.64 10.74 57.16 8.11 48.99 8.1 48.99 5.46 57.16 5.47 55.65 2.84 58.56 2.84 60.83 6.79"/></g></g></svg>