<svg xmlns="http://www.w3.org/2000/svg" width="84" height="97" viewBox="0 0 84 97"><defs><linearGradient id="cxfla" x1="77.86" x2="58.86" y1="10.38" y2="10.21" gradientUnits="userSpaceOnUse"><stop offset="0" stop-color="#f5b0a8"/><stop offset="1" stop-color="#e29b92"/></linearGradient><linearGradient id="cxflb" x1="38.42" x2="47.44" y1="47.33" y2="29.37" gradientUnits="userSpaceOnUse"><stop offset="0" stop-color="#29353b"/><stop offset="1"/></linearGradient><linearGradient id="cxflc" x1="73.7" x2="76.7" y1="6.48" y2="5.2" gradientUnits="userSpaceOnUse"><stop offset="0" stop-color="#f5b0a8"/><stop offset="1" stop-color="#e29b92"/></linearGradient><linearGradient id="cxfld" x1=".5" x2="76.5" y1="78.14" y2="77.75" gradientUnits="userSpaceOnUse"><stop offset="0" stop-color="#43a584" stop-opacity="0"/><stop offset="1" stop-color="#43a584"/></linearGradient></defs><g><g><g><path fill="url(#cxfla)" d="M58.992 12.901a1.913 1.913 0 0 1 2.483-1.074c.75.298 1.503.583 2.258.866.754.284 1.514.55 2.272.82l3.38 1.218c.209-.342.42-.683.631-1.023l.672-1.07.682-1.063c.454-.71.908-1.419 1.37-2.123.443-.68.509-.767.961-1.442l.015-.75 1.348-4.347a.756.756 0 0 1 1.203-.36l.478.393a2.597 2.597 0 0 1 .607 3.29L76.166 8.32c-.281.366-.428.562-.441.59-.36.762-.492.989-.863 1.745-.367.759-.744 1.512-1.119 2.267l-.564 1.13-.573 1.125a94.483 94.483 0 0 1-1.18 2.232 1.536 1.536 0 0 1-1.777.734l-.068-.02-4.637-1.356c-.772-.229-1.543-.462-2.319-.677-.776-.217-1.553-.43-2.334-.632a1.913 1.913 0 0 1-1.3-2.557z"/></g><g><g><g><path fill="#ed992c" d="M58.336 10.433c-.017-.05-.017-.05 0 0 1.334-.23 2.448.757 3.188 1.818.303.435.543.929.934 1.494.82 1.18 1.727 2.709 2.486 4.01a91.888 91.888 0 0 0-2.794 3.496c-.197 3.486-1.265 7.36-2.464 10.454-.926 2.39-2.56 2.703-4.624 2.334a1.616 1.616 0 0 1-.45-.17c-1.573-1.023-2.98-2.225-1.995-4.493 2.155-4.967 2.864-9.92 2.473-15.273-.178-2.444 1.338-3.34 3.246-3.67z"/></g></g></g><g><g><path fill="#dea095" d="M59 12.012a1.466 1.466 0 0 0 1.523-1.397l.156-3.595a1.466 1.466 0 0 0-1.397-1.523 1.466 1.466 0 0 0-1.524 1.396l-.155 3.595A1.466 1.466 0 0 0 59 12.012z"/></g></g><g><g><g><path fill="#eeb5ac" d="M58.89 1.147l4.58 2.041-.112 2.608v.142c0 .118-.008.233-.021.348l-.032.177a3.105 3.105 0 0 1-.14.535 3.056 3.056 0 0 1-2.682 1.997l-.034.002a4.046 4.046 0 0 1-4.245-4.033c-.006-1.736 1.112-3.252 2.686-3.817z"/></g></g><g><path fill="#623c34" d="M59.068.16l.038.003 1.732.087a5.824 5.824 0 0 1 4.218 2.132l-5.15 2.59a1.176 1.176 0 0 0-1.296-1.05c-.493.05-.895.394-1.014.876a1.18 1.18 0 0 0 .139.91l-.11 2.324A4.041 4.041 0 0 1 59.067.16z"/></g></g><g><g><path fill="url(#cxflb)" d="M40.508 41.773l4.837.889 6.517-11.472a3.18 3.18 0 0 1 .23-.357c1.396-1.836 4.506-1.863 6.117-.545 1.662 1.36 1.609 4.052-.114 5.747-2.034 2-4.075 3.993-6.107 5.995-.918.904-1.837 1.807-2.773 2.69-.714.675-1.27 1.685-2.256 1.998-.334.105-.69.115-1.04.125-3.977.103-7.955.224-11.932.33l-6.012.16-1.53-2.626z"/></g></g><g><g><path fill="#623c34" d="M47.488 7.272c1.288-1.061 2.871-2.56 4.108-3.519 2.049-1.588 4.311-.968 5.921.748-.036-.018-.036-.018 0 0-.925-1.025-.247-.503-1.428-1.807.185.197.185.197 0 0-1.182-1.303-3.947-2.4-5.842-.624-1.145 1.073-2.91 2.434-4.138 3.576.422.548.902 1.114 1.38 1.626z"/></g></g><g><g><path fill="#eeb5ac" d="M39.406 42.003l1.83 4.968c-2.417.068-4.833.137-7.25.201l-6.01.16-1.531-2.625z"/></g></g><g><path fill="#373c41" d="M51.705 31.527c.173-.5 1.802-4.574 2.017-5.042.13.054.13.054 0 0 1.637.676 5.108 2.104 6.814 2.812-.23.718-.474 1.414-.724 2.077 1.552.838 3.106 1.672 4.66 2.509 1.088.587 2.157 1.21 3.245 1.798.942.508 1.968.838 2.676 1.693.524.634.794 1.434 1.054 2.215 1.786 5.37 3.6 10.729 5.422 16.087l-2.054 2.24-6.972-12.56-.616-5.142-12.904-2.912a3.187 3.187 0 0 1-.408-.117c-1.232-.457-2.092-1.624-2.432-2.862-.26-.947-.093-1.892.222-2.796z"/></g><g><g><path fill="#eeb5ac" d="M72.996 44.223c1.283 3.82 2.576 7.637 3.873 11.453l-2.054 2.24-6.195-11.161z"/></g></g><g><g><path fill="#eeb5ac" d="M38.896 24.709l.662-1.48c.205-.458.563-.83 1.013-1.052.395-.655.551-.816.956-1.464.405-.656.819-1.307 1.231-1.958l.62-.976.629-.97a80.09 80.09 0 0 1 1.288-1.918c.183-.262.45-.467.777-.57l.07-.022 4.611-1.444c.77-.238 1.54-.471 2.305-.724.766-.25 1.53-.504 2.292-.769a1.913 1.913 0 0 1 2.51 1.463c.189 1.025-.503 2.005-1.522 2.223-.775.167-1.546.344-2.317.524-.785.182-1.564.382-2.345.579l-4.197 1.037c-.347.457-.7.91-1.056 1.36l-.72.904-.73.897c-.487.598-.973 1.197-1.467 1.79-.358.434-.72.865-1.083 1.296l-.05.4-.014.11a3.458 3.458 0 0 0-.026.296 2.549 2.549 0 0 0 .02.466l.002.011v.003l.002.006.002.014.01.056c.006.037.012.073.016.11.003.038.004.075.005.112 0 .037.003.074 0 .111-.007.074-.012.147-.029.218a1.507 1.507 0 0 1-.545.892l-.322 1.556a.756.756 0 0 1-1.162.475l-.514-.346a2.597 2.597 0 0 1-.922-3.216z"/></g></g><g><g><g><g><path fill="#db4f69" d="M76.287 53.41l-1.5 4.562.785 1.74 7.174-3.232c.652-.293.943-1.06.649-1.712l-6.007.09a.964.964 0 0 0-.56-1.244z"/></g></g></g><g><path fill="#fff" d="M82.674 55.864l-.008-.568-5.344.07.007.568z"/></g></g><g><g><path fill="#ed992c" d="M52.167 12.417l3.954-1.597 1.481-.224 1.517 5.17-3.96-.457-2.488.59z"/></g></g><g><g><path fill="#ed992c" d="M60.47 10.942l3.895 1.985-1.723 3.964-2.324-3.673z"/></g></g><g><path fill="url(#cxflc)" d="M73.7 7.246l.107-.475.025-.109a4.553 4.553 0 0 0 .054-.292 2.559 2.559 0 0 0 .025-.465v-.011l-.001-.003v-.007l-.002-.014-.004-.056a2.92 2.92 0 0 1-.005-.112c0-.037.003-.075.005-.112.003-.037.005-.074.012-.11.013-.073.025-.145.049-.214.085-.278.243-.524.456-.707a1.459 1.459 0 0 1 .859-.356l.052-.003h.05c.07.003.136.004.207.018.035.005.07.011.104.018l.025.005.014.005.03.01.118.037.474.15-.23 1.003-.474-.068-.118-.016-.03-.005-.015-.002-.005.001a.09.09 0 0 1-.017.005c-.008 0-.024.006-.036.008l-.01.002-.008.005a.113.113 0 0 1-.016.007.234.234 0 0 0-.095.094.192.192 0 0 0-.027.12c-.001.009.005.017.006.025-.001.003.003.007.005.01a.04.04 0 0 1 .003.01.046.046 0 0 1 .007.009l.003.004v.001l.001.006.004.018a3.977 3.977 0 0 1 .093.745 4.903 4.903 0 0 1-.005.434l-.008.132-.028.486z"/></g><g><g><g><g><path fill="#db4f69" d="M30.313 47.45L26.4 44.663l-1.895.233.96 7.81c.087.71.733 1.214 1.443 1.127l1.696-5.763a.964.964 0 0 0 1.353-.166z"/></g></g></g><g><path fill="#fff" d="M26.075 52.82l.545.162 1.517-5.125-.544-.161z"/></g></g></g><g><path fill="url(#cxfld)" d="M23.316 95.385L76.5 59.75.505 96.145c7.575-.14 15.185-.395 22.811-.76z"/></g></g></svg>