<svg xmlns="http://www.w3.org/2000/svg" width="119" height="119" viewBox="0 0 119 119"><defs><linearGradient id="z172a" x1="32.25" x2="59.24" y1="42.22" y2="24.7" gradientUnits="userSpaceOnUse"><stop offset="0" stop-color="#29353b"/><stop offset="1"/></linearGradient><linearGradient id="z172b" x1="93.26" x2="67.26" y1="12.65" y2="13.38" gradientUnits="userSpaceOnUse"><stop offset="0" stop-color="#f5b0a8"/><stop offset="1" stop-color="#e29b92"/></linearGradient><linearGradient id="z172c" x1="87.75" x2="91.75" y1="11.2" y2="10.03" gradientUnits="userSpaceOnUse"><stop offset="0" stop-color="#f5b0a8"/><stop offset="1" stop-color="#e29b92"/></linearGradient><linearGradient id="z172d" x1="14.75" x2="64.99" y1="97.95" y2="59.75" gradientUnits="userSpaceOnUse"><stop offset="0" stop-color="#43a584" stop-opacity="0"/><stop offset="1" stop-color="#43a584"/></linearGradient></defs><g><g><path fill="#f6b4ab" d="M27.72 118.553c-.11-.003-.163-.06-.157-.169"/></g><g><path fill="#fff" d="M77.312 1.664l2.551 4.072-1.179 2.09-1.7-2.725-20.096 35.703-2.249-1.722L74.68 3.477l-2.902-.532 1.17-2.072z"/></g><g><path fill="#fff" d="M89.69 10.318l2.642 4.17-1.197 2.12-1.76-2.79-20.396 36.237-2.316-1.775 20.339-36.134-2.98-.564 1.186-2.103z"/></g><g><path fill="#fff" d="M102.44 19.233l2.738 4.272-1.215 2.153-1.824-2.859-20.703 36.785-2.386-1.828 20.644-36.68-3.06-.598 1.204-2.134z"/></g><g><path fill="#fff" d="M115.583 28.422l2.838 4.378-1.234 2.186-1.89-2.93-21.021 37.35-2.46-1.884 20.96-37.242-3.146-.634 1.223-2.167z"/></g><g><g><g/><g><path fill="#a4e603" d="M54.966 27.1c1.247-2.027 3.552-5.479 4.284-7.209.268-2.5.36-3.736 1.336-5.71.54-1.093 1.071-2.511 1.732-3.582.136-.219.27-.408.41-.569l6.434 1.702c.8.792.883 1.656.322 3.097-.645 1.657-1.604 3.356-2.35 4.999-.379.237-.74.412-1.105.681-1.71 3.265-3.77 6.654-5.697 9.722-1.192 1.897-2.5 2.09-4.311 1.186-1.811-.904-2.045-2.71-1.055-4.318z"/></g></g><g><g><path fill="#373c41" d="M54.79 31.198l-.008-.026"/></g><g><path fill="#373c41" d="M54.795 31.212l-.005-.014"/></g><g/><g><path fill="#373c41" d="M54.782 31.172l-.008-.027"/></g><g><path fill="#373c41" d="M54.774 31.145l-.002-.006"/></g></g><g><path fill="url(#z172a)" d="M31.652 29.802a40.34 40.34 0 0 0 11.002 6.114l.146.053 1.652 2.98 7.878-8.071a8.328 8.328 0 0 1 2.256-4.459l.597-.612a3.673 3.673 0 0 1 6.07 1.282l-.782.034-2.11 5.945-3.97 4.068-3.68 1.866c-1.21.615-2.421 1.23-3.633 1.843-.7.354-1.454.627-2.078 1.114-.356.277-.983.344-1.393.155-.976-.45-1.02-.836-1.768-1.422l-1.544-1.208-4.005-3.133-3.873-3.03-2.113-1.653-.069-.054z"/></g><g><path fill="#373c41" d="M53.26 28.996a6.217 6.217 0 0 1 2.003-3.764l1.984-1.782-.009.034.027-.04 5.02 3.63c-.433.711-.865 1.413-1.294 2.103l4.611 5.422 3.93 9.938 10.636 12.507-1.752 1.49a40.333 40.333 0 0 0-9.55-8.199l-.133-.081-1.466-4.672-8.088-9.51-2.833-1.64-2.183-2.568-.068-.079a1.685 1.685 0 0 1-.075-.096l-.97-1.193z"/></g><g><path fill="url(#z172b)" d="M67.375 13.13a1.746 1.746 0 0 1 2.288-1.137l9.899 3.718 7.967-3.729.233-.79 3.39-3.318a.789.789 0 0 1 1.282.265l.243.598a2.708 2.708 0 0 1-1.073 3.319 436.847 436.847 0 0 0-2.101 1.456l-5.41 3.906-4.358.963a1.286 1.286 0 0 1-.372-.032 1.308 1.308 0 0 1-.384-.052l-6.706-1.995c-.8.433-1.74.53-2.612.271l-.502-.15a2.649 2.649 0 0 1-1.784-3.294z"/></g><g><g><path fill="#eeb5ac" d="M42.738 21.822l.257-.763c.255-.755.688-1.428 1.21-2.03v-.001l3.507-4.976 3.803-2.336c.119-.05.24-.079.361-.092.122-.043.25-.07.381-.076l6.99-.31a3.43 3.43 0 0 1 2.379-1.111l.523-.024a2.65 2.65 0 0 1 2.764 2.53 1.746 1.746 0 0 1-1.79 1.823l-10.57-.274-6.423 6.272-.004.162-.004.112a4.163 4.163 0 0 0 .003.298 2.56 2.56 0 0 0 .065.462l.003.011v.003l.002.006.004.014.015.055c.01.036.019.072.027.109l.016.11c.004.038.01.075.01.112 0 .074.002.148-.008.22a1.512 1.512 0 0 1-.458.943l-.172 1.584a.759.759 0 0 1-1.115.585l-.546-.295a2.605 2.605 0 0 1-1.23-3.123z"/></g></g><g><g><path fill="#eeb5ac" d="M65.69 34.819l3.842 9.718 10.636 12.506-1.752 1.49a40.333 40.333 0 0 0-9.55-8.198l-.133-.081-1.466-4.672-6.026-7.086z"/></g></g><g/><g><path fill="#a4e603" d="M62.72 10.033l8.694 2.249 3.148 1.499-1.424 3.223-5.322-.075-7.363-2.473-1.876-.118-.426-3.051 2.994-1.554z"/></g><g><g><g><path fill="#373c41" d="M78.068 54.622l-.072 3.691 1.305 1.534 6.325-5.379a1.367 1.367 0 0 0 .155-1.926z"/></g></g><g><path fill="#fff" d="M85.372 53.865l-.174-.574-5.397 1.637.174.574z"/></g></g><g><g><path fill="#dea095" d="M66.106 13.19a1.466 1.466 0 0 0 1.907-.797l1.653-4.02c.306-.744-.337-.909-1.081-1.215l.285-.693a1.466 1.466 0 0 0-1.908.796l-1.653 4.021a1.466 1.466 0 0 0 .797 1.908z"/></g></g><g><g><g><path fill="#eeb5ac" d="M71.909 2.128c.056.024.112.05.166.078.032.015.062.032.093.049l.068.036c.042.023.082.048.123.073l.032.019c.047.03.093.06.139.092l.01.006c.194.136.372.288.532.454.55.568.893 1.296.981 2.06-1.01 2.444-1.773 4.29-2.29 5.536a1.313 1.313 0 0 1-1.742.705c-1.895-.832-2.971-2.735-2.78-4.621a3.85 3.85 0 0 1-.123-.325l-.001-.003a3.21 3.21 0 0 1-.048-.162l-.002-.006a3.57 3.57 0 0 1-.039-.16l-.002-.011a3.378 3.378 0 0 1-.03-.157l-.003-.016a3.54 3.54 0 0 1-.022-.153l-.002-.02a3.26 3.26 0 0 1-.013-.15l-.002-.026a3.305 3.305 0 0 1-.005-.143V5.25c-.001-.045 0-.091.001-.137l.001-.038.009-.132.003-.044a3.74 3.74 0 0 1 .015-.126l.007-.05.021-.12.01-.054.026-.116.014-.057.033-.114.016-.058.042-.12.017-.05c.022-.057.045-.113.07-.168.77-1.756 2.864-2.534 4.675-1.738z"/></g></g></g><g><path fill="#623c34" d="M68.356 1.07a3.454 3.454 0 0 1 1.476-.374c1.657-.052 3.363.988 4.327 2.278.87 1.163 1.34 2.51 1.414 4.042l-2.829-1.163-1.99.83a1.049 1.049 0 1 0-1.538.643l-1.945.812a335.48 335.48 0 0 1-.912-3.26c-.076-1.53.59-3.089 1.997-3.808z"/></g><g><path fill="url(#z172c)" d="M87.754 11.173l.334-.383.076-.088a4.507 4.507 0 0 0 .195-.24 2.642 2.642 0 0 0 .252-.416l.006-.01v-.003l.004-.006.006-.014.023-.053.051-.106.06-.1c.022-.032.041-.065.066-.095.048-.06.095-.12.15-.172.217-.213.484-.36.77-.422a1.52 1.52 0 0 1 .964.099l.049.022.046.026c.062.037.123.07.181.118l.086.069.02.017.011.011.023.024.09.093.36.371-.708.807-.401-.297-.1-.074-.025-.018-.013-.01c-.004-.002-.004 0-.006-.002a.105.105 0 0 1-.017-.004c-.008-.005-.025-.005-.037-.01l-.01-.002h-.01a.11.11 0 0 1-.018-.003.243.243 0 0 0-.134.04.197.197 0 0 0-.084.097c-.006.007-.004.018-.007.025-.003.003 0 .009-.001.012l-.001.011a.057.057 0 0 1 .002.012v.005l-.002.007-.006.019-.045.153a4.149 4.149 0 0 1-.238.576 4.995 4.995 0 0 1-.22.395l-.073.117-.266.433z"/></g><g><g><path fill="#eeb5ac" d="M30.597 31.897l.164-.956.891-1.139a40.34 40.34 0 0 0 11.002 6.114l.146.053 1.652 2.98 5.08-5.205 2.663 4.506-1.483.752c-1.211.615-2.422 1.23-3.634 1.843-.7.354-1.454.627-2.078 1.114-.356.277-.983.344-1.393.155-.976-.45-1.02-.836-1.768-1.422l-1.544-1.208-4.005-3.133-3.873-3.03-1.82-1.424z"/></g></g><g><g><g><path fill="#373c41" d="M32.779 33.564l-.672-3.63-1.586-1.24-5.116 6.539a1.367 1.367 0 0 0 .235 1.918z"/></g></g><g><path fill="#fff" d="M25.776 35.773l.286.527 4.957-2.688-.285-.527z"/></g></g></g><g><path fill="url(#z172d)" d="M29.704 93.114l.345-.063 49.7-33.301L-.007 97.947a800.391 800.391 0 0 0 29.712-4.833z"/></g></g></svg>