<svg xmlns="http://www.w3.org/2000/svg" width="205.48" height="350" viewBox="0 0 205.48 350">
  <title>Ресурс 1</title>
  <g>
    <g>
      <g>
        <path d="M41.33,182.44l0-.13Z" fill="#373c41"/>
        <path d="M41.35,182.51l0-.07Z" fill="#373c41"/>
        <path d="M41.35,182.51Z" fill="#373c41"/>
        <path d="M41.29,182.31l0-.13Z" fill="#373c41"/>
        <path d="M41.25,182.18v0Z" fill="#373c41"/>
      </g>
      <path d="M58.42,175h0a15.34,15.34,0,0,0,15.34-15.34V104.83l3.29-5v-27a14,14,0,0,0-14-14H46.86A11.08,11.08,0,0,0,35.77,69.91V90.5a51.31,51.31,0,0,0,7.31,26.41h0v42.75A15.34,15.34,0,0,0,58.42,175Z" fill="#a4e603"/>
      <path d="M54.58,65h0a7.14,7.14,0,0,0,7.13-7.12V36.72c0-3.92-3.21-3.47-7.13-3.47V29.59a7.15,7.15,0,0,0-7.12,7.13V57.91A7.14,7.14,0,0,0,54.58,65Z" fill="#e08b7b"/>
      <path d="M60.25,4.41c.3,0,.59,0,.89,0l.51,0,.37,0c.23,0,.46.06.69.1l.18,0,.8.16h.05A17.65,17.65,0,0,1,67,5.89h0a17.37,17.37,0,0,1,8.24,7.47s0,19.34-.07,29.2A6.39,6.39,0,0,1,68.68,49h-.07A22.39,22.39,0,0,1,47.52,33.29h0c-.21-.2-.41-.4-.6-.61h0l-.56-.63h0c-.18-.21-.35-.42-.52-.64l0,0c-.16-.21-.32-.43-.47-.65l0,0L44.88,30l0-.07c-.13-.21-.26-.43-.38-.65a.41.41,0,0,0-.05-.09l-.33-.64L44,28.46c-.1-.21-.2-.42-.29-.63l-.06-.15c-.09-.21-.17-.41-.25-.62l-.06-.18c-.08-.2-.14-.4-.21-.61l-.06-.2c-.06-.2-.12-.4-.17-.6l-.06-.23c0-.2-.09-.39-.13-.59l-.06-.26-.09-.57c0-.1,0-.19,0-.28L42.47,23l0-.29c0-.2,0-.41,0-.61s0-.18,0-.27c0-.29,0-.59,0-.88C42.61,11.56,50.61,4.18,60.25,4.41Z" fill="#f2a397"/>
      <path d="M42.27,6.22a16.94,16.94,0,0,1,6-4.42C55.6-1.5,65.22,0,72,4.05c9.12,5.45,13.87,15.6,13.87,15.6H70.92l-7.44,7.44a5.11,5.11,0,1,0-5.74,5.74L50.47,40.1s-10.09-12.88-10.15-13C37.14,20.34,37.26,12.07,42.27,6.22Z" fill="#623c34"/>
      <path d="M71.94,170.78V213L54.69,263.64a5.77,5.77,0,0,1-5.24,3.91h0a5.77,5.77,0,0,1-6-5.77v-63.6l-7.31-10.47V170.78a17.91,17.91,0,0,1,18.48-17.9h0A17.92,17.92,0,0,1,71.94,170.78Z" fill="#373c41"/>
      <path d="M55.15,255v87.34H43.94a196.35,196.35,0,0,0-9.58-60.6l-.23-.72,11-26Z" fill="#373c41"/>
      <g>
        <path d="M45.93,63.65h0a13.48,13.48,0,0,0-18.6,4.19L25.9,70.09a17.47,17.47,0,0,0-2.28,13.17h0l-19,30.09a6.66,6.66,0,0,0-.72,5.6l0,.08a6.65,6.65,0,0,0,7,4.58h0a6.66,6.66,0,0,0,4.72-2.68l32.75-44.5A8.89,8.89,0,0,0,45.93,63.65Z" fill="#f2a397"/>
        <path d="M8.74,112.53l39.13,39a5.61,5.61,0,0,1,1.61,4.53l-.06.5a5.55,5.55,0,0,1-5.52,5h0a5.52,5.52,0,0,1-3.15-1L12.69,141.45.55,122.26a6.56,6.56,0,0,1,4-8.86l3.31-1.08A.9.9,0,0,1,8.74,112.53Z" fill="#f2a397"/>
      </g>
      <g>
        <path d="M55,326.71,43.08,340.18V350H83.54a6.66,6.66,0,0,0,6.66-6.66h0Z" fill="#a4e603"/>
        <rect x="71.02" y="326.39" width="2.92" height="27.49" transform="translate(-268.35 270.99) rotate(-66.5)" fill="#fff"/>
      </g>
      <path d="M55.13,154.91l37,9.46,40.09,28a5.75,5.75,0,0,1,2.13,6h0c-.7,3.2-3.67,5.26-6.55,4.53L72.07,188.66l-11,4.73L46.26,189.6c-8.86-2.26-13.88-12.19-11.09-21.91h0C37.83,158.4,46.67,152.75,55.13,154.91Z" fill="#373c41"/>
      <path d="M134.43,198.72v87.34H123.22a196.33,196.33,0,0,0-9.58-60.59l-.23-.72,11-26Z" fill="#373c41"/>
      <g>
        <path d="M132.64,274.46l-11.92,13.48v9.82h40.47a6.67,6.67,0,0,0,6.66-6.66h0Z" fill="#a4e603"/>
        <rect x="148.67" y="274.15" width="2.92" height="27.49" transform="translate(-173.75 310.78) rotate(-66.5)" fill="#fff"/>
      </g>
    </g>
    <polyline points="95.51 350 95.51 298.49 205.48 298.49" fill="none" stroke="#a7e600" stroke-miterlimit="10" stroke-width="2"/>
    <path d="M41,165.66l-3.13-11,3.28-1.41c.06-.34.11-.67.19-1s.16-.74.26-1.1l.14-.55.16-.54a27.44,27.44,0,0,1,1.6-4.19,28.55,28.55,0,0,1,2.19-3.85l.64-.9.33-.43c.11-.15.22-.3.33-.43l1.25-1.57,3.66,2.45-1,1.76c-.09.15-.15.28-.22.42l-.21.4c-.13.28-.27.55-.39.82A23.74,23.74,0,0,0,48.84,148c-.2.73-.36,1.46-.49,2.2l2.92-1.26,0-.05.92-.61a41.76,41.76,0,0,1,14.23-6l.06,0,.94,4.3h-.06A37.74,37.74,0,0,0,57,150.43l.12,1a42.26,42.26,0,0,1,13.08-3.13l.88-.07.32,4.39-.87.07A37.79,37.79,0,0,0,57.69,156l0,.14a42.49,42.49,0,0,1,10.44-.69l2.55.15-.25,4.4-2.55-.15a37.57,37.57,0,0,0-9.53.65A42,42,0,0,1,64,161.54l2.73.72-1.12,4.25-2.74-.72a37.7,37.7,0,0,0-7.1-1.16l-5.44-.37v-.11Z" fill="#f2a397"/>
  </g>
</svg>
