<svg xmlns="http://www.w3.org/2000/svg" width="409" height="447"><path fill="#fff" d="M18.153 247.108l1.364 2.723-.911 1.615-.91-1.82-15.552 27.613-1.346-1.032 15.52-27.554-1.847-.13.906-1.605zm18.302-32.51l1.424 2.618-.912 1.615-.948-1.751-15.55 27.611-1.386-.962L34.6 216.177l-1.886-.06.906-1.605zm18.301-32.507l1.483 2.513-.912 1.615-.987-1.68-15.55 27.608-1.424-.892 15.516-27.55-1.925.01.906-1.605zm18.299-32.503l1.542 2.407-.912 1.615L72.66 152l-15.55 27.606-1.463-.823 15.515-27.546-1.965.078.906-1.604zm18.297-32.5l1.6 2.302-.91 1.615-1.067-1.54-15.547 27.603-1.502-.753 15.513-27.544-2.003.149.906-1.605zm18.295-32.497l1.66 2.197-.911 1.615-1.106-1.47-15.545 27.6-1.542-.682 15.512-27.541-2.043.217.906-1.604zM25.54 252.273l1.404 2.77-.923 1.635-.935-1.854-15.73 27.932-1.378-1.056 15.697-27.87-1.884-.143.916-1.623zm18.512-32.883l1.464 2.663-.922 1.633-.975-1.781-15.73 27.929-1.417-.985 15.696-27.868-1.924-.071.916-1.623zm18.51-32.88l1.525 2.555-.922 1.634-1.016-1.71-15.728 27.926-1.457-.913 15.694-27.865h-1.964l.916-1.623zm18.508-32.878l1.586 2.449-.922 1.633-1.056-1.638L64.951 184l-1.497-.841 15.692-27.863-2.003.07.916-1.622zm18.507-32.872l1.646 2.34-.922 1.634-1.096-1.566-15.725 27.92-1.538-.77 15.69-27.86-2.043.142.916-1.622zm18.504-32.87l1.707 2.233-.922 1.633-1.137-1.494-15.723 27.918-1.578-.699 15.69-27.857-2.084.214.916-1.623zM33.097 257.557l1.446 2.82-.933 1.654-.963-1.887L16.734 288.4l-1.41-1.08 15.88-28.194-1.923-.156.927-1.642zm18.727-33.266l1.508 2.711-.933 1.653-1.004-1.813-15.912 28.253-1.45-1.007 15.877-28.191-1.963-.083.926-1.642zm18.725-33.261l1.57 2.6-.933 1.653-1.046-1.74-15.91 28.25-1.491-.933 15.875-28.189-2.004-.01.927-1.642zm18.723-33.259l1.631 2.49-.933 1.653-1.086-1.666-15.91 28.248-1.532-.861 15.875-28.186-2.045.063.926-1.642zm18.72-33.255l1.694 2.38-.933 1.653-1.128-1.592-15.907 28.245-1.574-.788 15.873-28.183-2.086.135.927-1.641zm18.719-33.251l1.755 2.27-.932 1.653-1.17-1.52-15.905 28.243-1.615-.715 15.871-28.18-2.126.208.926-1.641zM40.833 262.966l1.489 2.872-.944 1.672-.992-1.92-16.1 28.588-1.443-1.106 16.065-28.525-1.962-.17.938-1.66zm18.947-33.657l1.551 2.76-.944 1.672-1.033-1.846-16.1 28.586-1.484-1.031 16.064-28.522-2.004-.095.937-1.661zm18.944-33.653l1.615 2.647-.944 1.672-1.076-1.77-16.097 28.582-1.527-.956 16.062-28.519-2.046-.02.938-1.661zm18.942-33.649l1.678 2.534-.943 1.672-1.118-1.695-16.096 28.58-1.569-.881 16.06-28.517-2.087.054.937-1.66zm18.94-33.646l1.742 2.422-.944 1.672-1.16-1.62-16.094 28.577-1.61-.806 16.058-28.514-2.13.128.938-1.66zm18.938-33.641l1.805 2.308-.943 1.672-1.203-1.545-16.093 28.575-1.652-.732 16.057-28.51-2.171.202.937-1.66zM48.752 268.503l1.534 2.925-.956 1.692-1.02-1.956-16.292 28.929-1.477-1.133 16.255-28.863-2.003-.185.949-1.68zm19.171-34.057l1.598 2.81-.955 1.692-1.064-1.88-16.29 28.927-1.52-1.056 16.254-28.861-2.046-.108.948-1.68zm19.169-34.053l1.663 2.694-.955 1.692-1.107-1.802L70.404 231.9l-1.563-.979 16.252-28.858-2.088-.032.948-1.68zm19.168-34.05l1.727 2.58-.955 1.691-1.15-1.725-16.288 28.92-1.606-.902 16.25-28.855-2.13.045.948-1.68zm19.164-34.045l1.792 2.463-.955 1.692-1.194-1.648-16.285 28.917-1.649-.825 16.249-28.853-2.174.122.948-1.681zm19.163-34.042l1.857 2.348-.955 1.692-1.237-1.571-16.284 28.914-1.692-.749 16.247-28.85-2.217.198.948-1.68zM56.862 274.173l1.58 2.98-.967 1.713-1.052-1.994-16.488 29.278-1.512-1.16 16.45-29.21-2.045-.2.96-1.7zm19.401-34.467l1.646 2.862-.966 1.712-1.097-1.914-16.485 29.275-1.557-1.081 16.448-29.208-2.089-.121.96-1.701zm19.399-34.463l1.713 2.744-.967 1.712-1.14-1.835-16.484 29.272-1.601-1.003 16.446-29.205-2.132-.043.96-1.7zm19.398-34.459l1.778 2.626-.966 1.712-1.185-1.756-16.483 29.268-1.645-.924 16.445-29.202-2.176.035.96-1.7zm19.394-34.455l1.845 2.507-.966 1.712-1.23-1.677-16.48 29.266-1.69-.846 16.444-29.199-2.22.113.96-1.7zm19.392-34.451l1.912 2.389-.966 1.712-1.274-1.599-16.48 29.263-1.732-.767 16.442-29.196-2.265.191.96-1.7zM64.994 279.859l1.627 3.035-.978 1.733-1.083-2.03-16.684 29.627-1.55-1.187 16.646-29.56-2.088-.214.972-1.721zm19.632-34.878l1.695 2.914-.978 1.733-1.129-1.95-16.682 29.625-1.594-1.107 16.644-29.556-2.133-.134.971-1.722zm19.63-34.874l1.763 2.793-.978 1.733-1.174-1.868-16.68 29.62-1.64-1.026 16.642-29.553-2.178-.054.971-1.721zm19.628-34.87l1.83 2.672-.978 1.733-1.22-1.787-16.678 29.617-1.684-.946 16.64-29.55-2.223.026.972-1.721zm19.625-34.866l1.898 2.551-.978 1.733-1.264-1.707-16.678 29.615-1.729-.866 16.639-29.546-2.268.105.972-1.72zm19.623-34.861l1.966 2.43-.978 1.732-1.31-1.626-16.675 29.612-1.775-.786 16.637-29.543-2.312.185.971-1.72zm-89.63 180.297l1.677 3.094-.99 1.754-1.117-2.069-16.89 29.993-1.587-1.217 16.85-29.923-2.133-.23.983-1.743zM93.376 250.5l1.746 2.97-.99 1.753-1.163-1.986-16.888 29.99-1.634-1.135 16.849-29.92-2.18-.148.983-1.743zm19.871-35.304l1.816 2.845-.99 1.755-1.21-1.904-16.886 29.986-1.68-1.051 16.847-29.917-2.226-.067.983-1.742zm19.868-35.3l1.886 2.721-.99 1.755-1.256-1.821-16.884 29.983-1.726-.97 16.844-29.913-2.271.015.983-1.742zm19.867-35.296l1.955 2.598-.99 1.754-1.303-1.738-16.882 29.98-1.772-.887 16.843-29.91-2.318.096.984-1.742zm19.864-35.292l2.025 2.474-.99 1.754-1.35-1.655-16.88 29.977-1.818-.805 16.841-29.907-2.363.178.983-1.741zM82.222 291.904l1.73 3.154-1.004 1.777-1.151-2.11-17.1 30.368-1.627-1.248 17.06-30.296-2.18-.248.995-1.764zm20.121-35.749l1.8 3.027-1.002 1.777-1.2-2.025-17.098 30.364-1.674-1.162 17.058-30.293-2.228-.164.996-1.764zm20.118-35.744l1.872 2.9-1.003 1.776-1.246-1.94-17.097 30.361-1.722-1.078 17.056-30.29-2.274-.08.995-1.764zm20.116-35.741l1.943 2.773-1.002 1.776-1.294-1.855-17.095 30.358-1.77-.993 17.055-30.287-2.322.004.996-1.764zm20.114-35.735l2.014 2.645-1.002 1.776-1.342-1.77-17.093 30.355-1.817-.91 17.053-30.283-2.369.088.995-1.764zm20.112-35.732l2.085 2.518-1.002 1.776-1.39-1.685-17.09 30.351-1.865-.825 17.05-30.28-2.415.172.995-1.764zm-91.64 184.952l1.782 3.217-1.015 1.799-1.187-2.152-17.316 30.752-1.669-1.279 17.275-30.679-2.23-.266 1.009-1.786zm20.374-36.201l1.856 3.087-1.015 1.798-1.236-2.064-17.315 30.749-1.717-1.193 17.273-30.675-2.277-.18 1.008-1.786zm20.372-36.196l1.93 2.956-1.016 1.799-1.285-1.978-17.312 30.746-1.766-1.106 17.27-30.672-2.325-.094 1.008-1.786zm20.37-36.192l2.002 2.826-1.015 1.798-1.334-1.89-17.31 30.742-1.815-1.02 17.27-30.668-2.375-.008 1.008-1.786zm20.367-36.188l2.075 2.695-1.015 1.799-1.383-1.803-17.308 30.739-1.863-.933 17.267-30.666-2.422.079 1.008-1.786zm20.364-36.183l2.15 2.564-1.016 1.799-1.431-1.716-17.307 30.735-1.912-.846 17.266-30.662-2.471.164 1.008-1.785zm-92.678 187.371l1.839 3.281-1.028 1.822-1.225-2.195-17.538 31.147-1.711-1.312 17.495-31.071-2.28-.286 1.021-1.809zm20.634-36.664l1.914 3.147-1.028 1.822-1.275-2.105-17.536 31.143-1.76-1.223 17.492-31.068-2.329-.197 1.021-1.809zm20.632-36.66l1.99 3.014-1.029 1.822-1.325-2.016-17.534 31.14-1.81-1.135 17.49-31.064-2.378-.109 1.02-1.809zm20.63-36.655l2.064 2.88-1.028 1.821-1.375-1.926-17.532 31.136-1.861-1.046 17.49-31.06-2.43-.02 1.022-1.81zm20.627-36.651l2.14 2.746-1.029 1.822-1.425-1.838-17.53 31.133-1.91-.957 17.487-31.057-2.478.068 1.02-1.808zm20.625-36.646l2.214 2.612-1.028 1.821-1.476-1.748-17.527 31.13-1.961-.868 17.485-31.054-2.527.156 1.02-1.808zm-93.741 189.853l1.897 3.348-1.041 1.846-1.264-2.24-17.765 31.55-1.756-1.345 17.72-31.474-2.331-.305 1.034-1.832zm20.901-37.14l1.975 3.211-1.042 1.846-1.316-2.148-17.762 31.547-1.807-1.255 17.719-31.47-2.383-.214 1.034-1.832zm20.899-37.135l2.052 3.074-1.042 1.845-1.367-2.056-17.76 31.544-1.86-1.164 17.718-31.466-2.434-.124 1.034-1.832zm20.896-37.13l2.129 2.936-1.042 1.846-1.418-1.965-17.759 31.54-1.91-1.073 17.716-31.462-2.485-.034 1.034-1.832zm20.894-37.126l2.206 2.799-1.042 1.845-1.47-1.873-17.756 31.537-1.961-.982 17.713-31.46-2.535.058 1.034-1.832zm20.891-37.122l2.283 2.662-1.042 1.845-1.52-1.781-17.756 31.533-2.012-.89 17.712-31.457-2.586.149 1.034-1.832zm-95.031 192.26l1.957 3.416-1.055 1.87-1.304-2.285-17.993 31.957-1.801-1.381 17.948-31.878-2.385-.325 1.047-1.856zm21.169-37.617l2.037 3.275-1.055 1.87-1.357-2.192-17.99 31.954-1.855-1.288 17.946-31.874-2.437-.232 1.047-1.856zm21.167-37.613l2.116 3.135-1.056 1.869-1.41-2.097-17.988 31.95-1.906-1.194 17.944-31.87-2.49-.14 1.048-1.855zm21.164-37.608l2.195 2.994-1.055 1.869-1.463-2.003-17.986 31.946-1.96-1.1 17.943-31.867-2.542-.046 1.047-1.856zm21.161-37.603l2.274 2.852-1.055 1.87-1.515-1.91-17.984 31.943-2.012-1.006 17.94-31.864-2.594.047 1.048-1.856zm21.16-37.599l2.352 2.712-1.055 1.869-1.567-1.815-17.983 31.939-2.064-.913 17.938-31.86-2.646.14 1.047-1.856zm-95.916 194.965l2.021 3.489-1.069 1.894-1.347-2.333-18.231 32.383-1.85-1.418 18.186-32.302-2.442-.347 1.062-1.88zm21.45-38.117l2.103 3.343-1.07 1.894-1.4-2.236-18.23 32.379-1.904-1.322 18.184-32.298-2.495-.251 1.062-1.88zm21.448-38.114l2.183 3.2-1.069 1.893-1.455-2.14-18.227 32.376-1.958-1.226 18.182-32.294-2.549-.156 1.062-1.88zm21.445-38.108l2.265 3.054-1.07 1.894-1.509-2.043-18.225 32.371-2.012-1.13 18.18-32.29-2.602-.06 1.061-1.88zm21.442-38.104l2.346 2.91-1.07 1.894-1.562-1.947-18.224 32.368-2.065-1.034 18.178-32.287-2.656.035 1.061-1.88zm21.44-38.099l2.427 2.765-1.07 1.894-1.616-1.85-18.222 32.364-2.12-.938 18.176-32.283-2.709.13 1.061-1.88zm-97.053 197.654l2.088 3.563-1.084 1.92-1.39-2.383-18.478 32.82-1.9-1.456 18.43-32.736-2.5-.37 1.076-1.906zm21.739-38.632l2.171 3.414-1.084 1.92-1.446-2.283-18.476 32.816-1.955-1.358 18.428-32.733-2.554-.271 1.075-1.906zm21.736-38.627l2.254 3.266-1.083 1.92-1.502-2.185-18.473 32.813-2.011-1.26 18.426-32.729-2.61-.173 1.075-1.906zm21.733-38.622l2.338 3.117-1.083 1.92-1.558-2.086-18.471 32.809-2.067-1.16 18.425-32.726-2.665-.076 1.075-1.905zm21.731-38.618l2.421 2.968-1.083 1.92-1.614-1.986-18.469 32.805-2.121-1.062 18.422-32.722-2.72.023 1.075-1.905zm21.728-38.613l2.504 2.82-1.083 1.92-1.67-1.888-18.466 32.802-2.177-.963 18.42-32.718-2.775.12 1.076-1.905zm-98.216 200.419l2.157 3.64-1.1 1.947-1.436-2.435-18.73 33.27-1.952-1.497 18.681-33.184-2.56-.394 1.09-1.931zm22.035-39.16l2.242 3.487-1.098 1.946-1.494-2.333-18.728 33.266-2.01-1.395 18.68-33.18-2.617-.293 1.09-1.931zm22.032-39.156l2.328 3.335-1.098 1.946-1.551-2.231-18.726 33.262-2.066-1.294 18.677-33.176-2.674-.192 1.09-1.931zm22.03-39.15l2.414 3.182-1.099 1.946-1.609-2.13-18.723 33.259-2.123-1.193 18.675-33.172-2.73-.091 1.09-1.931zm22.026-39.146l2.5 3.03-1.099 1.945-1.665-2.027-18.721 33.254-2.18-1.09 18.673-33.169-2.787.01 1.09-1.932zm22.024-39.141l2.585 2.877-1.098 1.946-1.723-1.925-18.719 33.25-2.236-.99 18.67-33.164-2.843.11 1.09-1.931zm-99.408 203.262l2.23 3.72-1.114 1.974-1.485-2.489-18.99 33.732-2.007-1.538 18.94-33.644-2.624-.419 1.105-1.958zm22.34-39.703l2.318 3.563-1.114 1.973-1.544-2.384-18.987 33.728-2.066-1.434 18.938-33.64-2.682-.314 1.105-1.958zm22.337-39.698l2.405 3.406-1.114 1.973-1.602-2.28-18.985 33.725-2.124-1.33 18.935-33.636-2.74-.211 1.105-1.958zm22.334-39.694l2.493 3.25-1.113 1.973-1.662-2.175-18.983 33.72-2.182-1.226 18.933-33.63-2.798-.109 1.105-1.958zm22.331-39.688l2.581 3.093-1.113 1.973-1.72-2.07-18.98 33.716-2.242-1.122 18.931-33.627-2.856-.005 1.105-1.957zm22.328-39.683l2.67 2.936-1.114 1.973-1.779-1.965-18.978 33.711-2.3-1.017 18.93-33.623-2.915.099 1.105-1.958zM171.498 354.323l2.305 3.804-1.13 2.001-1.535-2.544-19.256 34.206-2.064-1.582 19.205-34.115-2.69-.446 1.12-1.985zm22.652-40.262l2.396 3.643-1.13 2.001-1.595-2.437-19.254 34.202-2.124-1.474 19.203-34.111-2.75-.34 1.12-1.985zm22.65-40.256l2.487 3.48-1.13 2.002-1.656-2.329-19.252 34.198-2.184-1.367 19.2-34.107-2.809-.233 1.12-1.985zm22.647-40.251l2.577 3.32-1.13 2-1.717-2.221-19.248 34.194-2.244-1.26 19.197-34.103-2.869-.126 1.12-1.985zm22.644-40.246l2.667 3.158-1.129 2.001-1.777-2.114-19.247 34.19-2.304-1.153 19.196-34.099-2.93-.02 1.121-1.984zm22.641-40.24l2.758 2.996-1.13 2.001-1.837-2.006-19.245 34.186-2.364-1.046 19.193-34.095-2.988.087 1.12-1.985zM182.614 362.095l2.383 3.889-1.146 2.03-1.587-2.602-19.524 34.684-2.122-1.626 19.472-34.59-2.757-.473 1.136-2.013zm22.968-40.823l2.476 3.722-1.146 2.03-1.65-2.491-19.52 34.68-2.185-1.516 19.47-34.587-2.818-.362 1.136-2.013zm22.965-40.819l2.569 3.557-1.146 2.03-1.711-2.38-19.52 34.675-2.245-1.405 19.467-34.583-2.88-.253 1.137-2.013zm22.962-40.813l2.662 3.391-1.146 2.03-1.773-2.27-19.518 34.672-2.307-1.295 19.465-34.579-2.94-.144 1.135-2.013zm22.959-40.807l2.755 3.225-1.146 2.029-1.835-2.159-19.515 34.668-2.37-1.185 19.463-34.575-3.002-.034 1.136-2.013zm22.955-40.802l2.848 3.059-1.145 2.029-1.898-2.048-19.512 34.664-2.43-1.076 19.46-34.57-3.065.075 1.136-2.012zM194.292 370.26l2.465 3.979-1.162 2.058-1.643-2.661-19.806 35.186-2.183-1.673 19.752-35.09-2.828-.502 1.152-2.042zm23.298-41.414l2.562 3.808-1.162 2.058-1.707-2.548-19.803 35.183-2.248-1.56 19.75-35.086-2.891-.389 1.152-2.042zm23.297-41.409l2.656 3.637-1.161 2.059-1.77-2.434-19.802 35.178-2.311-1.446 19.747-35.082-2.954-.276 1.152-2.042zm23.293-41.403l2.752 3.467-1.162 2.058-1.834-2.32-19.8 35.174-2.374-1.333 19.746-35.078-3.018-.163 1.152-2.042zm23.289-41.397l2.848 3.295-1.162 2.059-1.898-2.206-19.796 35.17-2.438-1.22 19.743-35.074-3.081-.05 1.152-2.042zm23.286-41.392l2.945 3.125-1.162 2.058-1.962-2.092-19.794 35.166-2.502-1.107 19.74-35.07-3.144.063 1.153-2.042zM206.312 378.664l2.551 4.072-1.179 2.09-1.7-2.725-20.096 35.703-2.249-1.722 20.041-35.605-2.902-.532 1.17-2.072zm23.639-42.022l2.65 3.897-1.178 2.089-1.766-2.608-20.094 35.7-2.314-1.606 20.039-35.6-2.968-.417 1.17-2.071zm23.637-42.016l2.749 3.72-1.18 2.09-1.83-2.49-20.092 35.695-2.38-1.49 20.037-35.595-3.033-.3 1.17-2.072zm23.633-42.01l2.848 3.544-1.18 2.09-1.897-2.373-20.089 35.69-2.444-1.372 20.033-35.592-3.097-.184 1.169-2.071zm23.63-42.005l2.947 3.369-1.18 2.089-1.963-2.255L280.57 249.5l-2.51-1.256 20.03-35.587-3.162-.068 1.17-2.072zm23.627-41.999l3.045 3.193-1.179 2.089-2.03-2.138-20.083 35.682-2.575-1.14 20.028-35.582-3.228.048 1.17-2.071zM218.69 387.318l2.642 4.17-1.197 2.12-1.76-2.79-20.396 36.237-2.316-1.775 20.339-36.134-2.98-.564 1.186-2.103zm23.99-42.648l2.744 3.99-1.197 2.12-1.828-2.67-20.393 36.232-2.383-1.654 20.335-36.13-3.047-.445 1.187-2.102zm23.987-42.641l2.846 3.807-1.197 2.12-1.896-2.548-20.39 36.228-2.45-1.534 20.332-36.126-3.114-.325 1.187-2.102zm23.984-42.636l2.947 3.626-1.196 2.12-1.964-2.427-20.388 36.223-2.518-1.414 20.33-36.12-3.18-.206 1.186-2.103zm23.981-42.63l3.049 3.445-1.197 2.12-2.032-2.306-20.385 36.218-2.585-1.294 20.328-36.116-3.248-.086 1.186-2.102zm23.978-42.623l3.15 3.263-1.197 2.12-2.1-2.185-20.382 36.213-2.652-1.173 20.325-36.112-3.315.033 1.186-2.102zM231.44 396.233l2.738 4.272-1.215 2.153-1.824-2.859-20.703 36.785-2.386-1.828 20.644-36.68-3.06-.598 1.204-2.134zm24.353-43.292l2.842 4.085-1.215 2.152-1.894-2.733-20.7 36.78-2.456-1.704 20.642-36.675-3.13-.475 1.204-2.135zm24.349-43.286l2.946 3.898-1.215 2.152-1.963-2.608-20.698 36.775-2.525-1.58 20.639-36.67-3.2-.353 1.205-2.134zm24.345-43.28l3.051 3.711-1.214 2.152-2.034-2.484-20.695 36.77-2.595-1.456 20.637-36.665-3.269-.23 1.205-2.133zm24.342-43.275l3.156 3.525-1.215 2.153-2.104-2.36-20.692 36.766-2.664-1.333 20.634-36.66-3.337-.107 1.204-2.133zm24.338-43.267l3.26 3.338-1.214 2.152-2.173-2.235-20.69 36.761-2.733-1.209 20.63-36.656-3.405.017 1.204-2.134zM244.583 405.422l2.838 4.378-1.234 2.186-1.89-2.93-21.021 37.35-2.46-1.884 20.96-37.242-3.146-.634 1.223-2.167zm24.725-43.956l2.945 4.185-1.234 2.185-1.962-2.8-21.018 37.345-2.531-1.757 20.957-37.237-3.217-.507 1.223-2.167zm24.722-43.951l3.052 3.993-1.234 2.185-2.034-2.672-21.015 37.34-2.603-1.629L291.15 319.5l-3.288-.38 1.223-2.167zm24.717-43.945l3.16 3.8-1.233 2.186-2.107-2.544-21.012 37.336-2.674-1.501 20.951-37.228-3.359-.253 1.223-2.167zm24.713-43.937l3.27 3.607-1.234 2.185-2.179-2.415-21.01 37.331-2.745-1.374 20.949-37.222-3.43-.127 1.222-2.166zm24.711-43.933l3.377 3.416-1.234 2.185-2.25-2.287-21.007 37.326-2.818-1.246 20.947-37.218h-3.502l1.223-2.165zM256.86 77.188c-13.956 0-24.889-5.147-24.889-11.719 0-6.571 10.933-11.72 24.89-11.72 13.956 0 24.889 5.149 24.889 11.72 0 6.572-10.933 11.72-24.89 11.72zm0-21.652c-12.523 0-23.103 4.549-23.103 9.933 0 5.385 10.58 9.933 23.104 9.933 12.523 0 23.103-4.548 23.103-9.933 0-5.384-10.58-9.933-23.103-9.933z"/><path fill="#db4f69" d="M322.953 102.033l-72.708-38.55V.547l72.708 38.55z"/><path fill="#db4f69" d="M305.112 62.676v1.485l-10.22 10.798 10.22 5.289L408.75 68.145V40.622z"/><path fill="#fff" d="M250.245 63.483V.547h-6.993l-.18 2.861v62.074l68.854 36.551h11.027z"/><path fill="#fff" d="M294.892 74.959V57.387l103.637-22.055v27.523zM268 82.072l-2.33.956 1 2.435-.708 1.804-1.531-3.73-5.36 2.201 2.2 5.36 3.8-1.56-.676 1.725-2.615 1.074 1.122 2.733-.707 1.803-1.654-4.027-5.36 2.2 2.201 5.36 4.085-1.676-.677 1.725-8.632 3.545-2.867-.993-1.948-4.742-5.36 2.201.006.014-1.935-.67.182-.074-2.201-5.36-3.013 1.237-.161-1.382 2.665-1.094-2.201-5.36-1.16.476-.161-1.382.812-.333-1.505-3.323-.174-3.045-.941-14.241 1.336-.088.372 5.623 1.936-.77a16.013 16.013 0 002.255 1.522l1.85 4.504 4.702-1.93c.79.21 1.607.402 2.451.571l2.155 5.249 5.36-2.201-.906-2.207c.488.03.98.051 1.476.067l.67 1.631 4.129-1.696a49.409 49.409 0 004.762-.507l-1.784.732 2.201 5.36 3.515-1.443zm-18.238-.224l2.2 5.36 5.361-2.2-2.2-5.36zm-1.239.51l-5.36 2.2 2.2 5.36 5.36-2.2zm-8.07-4.399l2.201 5.36 5.36-2.2-2.2-5.36zm-6.456-5.088l.405 6.125 4.303-1.767-2.2-5.36zm2.058 13.158l5.36-2.2-2.2-5.361-4.72 1.938.144 2.174zm2.71 6.599l5.36-2.2-2.201-5.361-5.36 2.201zm8.07 4.398l-2.201-5.36-5.36 2.201 2.2 5.36zm1.238-.508l5.36-2.201-2.2-5.36-5.36 2.2zm5.87-.963l-5.36 2.201 2.2 5.36 5.36-2.2zm3.889-9.308l-5.36 2.2 2.2 5.36 5.36-2.2zm6.09-3.949l-2.201-5.36-5.36 2.2 2.201 5.361z"/></svg>