<svg xmlns="http://www.w3.org/2000/svg" xmlns:xlink="http://www.w3.org/1999/xlink" viewBox="0 0 479.46 340.94"><defs><linearGradient id="Безымянный_градиент_27" x1="25303.54" y1="10411.16" x2="25330.15" y2="10411.16" gradientTransform="rotate(180 12715.65 5359.225)" gradientUnits="userSpaceOnUse"><stop offset="0" stop-color="#db4f69"/><stop offset="1" stop-color="#bc445c"/></linearGradient><linearGradient id="Безымянный_градиент_27-2" x1="25362.08" y1="10411.16" x2="25388.69" y2="10411.16" xlink:href="#Безымянный_градиент_27"/><linearGradient id="Безымянный_градиент_27-3" x1="25346.15" y1="10395.02" x2="25372.76" y2="10395.02" xlink:href="#Безымянный_градиент_27"/><linearGradient id="Безымянный_градиент_27-4" x1="25404.69" y1="10395.02" x2="25431.3" y2="10395.02" xlink:href="#Безымянный_градиент_27"/><linearGradient id="Безымянный_градиент_22" x1="176.53" y1="27.66" x2="164.86" y2="59.62" gradientUnits="userSpaceOnUse"><stop offset="0" stop-color="#eeb5ac"/><stop offset="1" stop-color="#dea095"/></linearGradient><linearGradient id="Безымянный_градиент_27-5" x1="433.28" y1="235.48" x2="263.06" y2="153.14" xlink:href="#Безымянный_градиент_27"/><style>.cls-2{fill:#bc445c}.cls-4{fill:#db4f69}.cls-6{fill:#40dc9e}.cls-7{fill:#37be8a}.cls-13{fill:#fff}.cls-15{fill:#eeb5ac}.cls-17{fill:#623c34}</style></defs><g id="Слой_2" data-name="Слой 2"><g id="элементы"><ellipse cx="277.55" cy="318.09" rx="201.91" ry="22.86" opacity=".3" fill="#373c41"/><path class="cls-2" d="M131.55 305l-7.94 13.89a9 9 0 01-7.71 4.71 47.83 47.83 0 01-6.31-.06l-3.41-23.17a9.32 9.32 0 019.33-9.33h7.93a9.33 9.33 0 018.11 13.96z"/><path d="M126.52 305l-7.94 13.89c-4.74 8.3-17.43 4.93-17.43-4.63v-13.92a9.33 9.33 0 019.33-9.33h7.94a9.33 9.33 0 018.1 13.99z" fill="url(#Безымянный_градиент_27)"/><path class="cls-4" d="M113.18 311.57h-49a4.22 4.22 0 010-8.44h49a4.22 4.22 0 010 8.44z"/><path class="cls-2" d="M73.37 305l-7.94 13.89a9 9 0 01-7.71 4.71 47.83 47.83 0 01-6.31-.06L48 300.34a9.32 9.32 0 019.33-9.34h7.93a9.33 9.33 0 018.11 14z"/><path d="M68 305l-8 13.86c-4.74 8.3-17.43 4.93-17.43-4.63v-13.89a9.33 9.33 0 019.37-9.34h7.94A9.33 9.33 0 0168 305z" fill="url(#Безымянный_градиент_27-2)"/><ellipse class="cls-6" cx="251" cy="228.89" rx="110.91" ry="101.97"/><path class="cls-7" d="M251 194.52c37.89 0 77.66-7.87 91.95-22.66-1.44-2-3-3.84-4.55-5.7-9.73 11-42.92 21.2-87.4 21.2s-77.68-10.2-87.4-21.2a103.42 103.42 0 00-4.56 5.7c14.3 14.79 54.07 22.66 91.96 22.66z"/><path class="cls-7" d="M333.31 160.56c-1.79-1.82-3.66-3.56-5.59-5.26C312.34 163 285 169 251 169s-61.34-6-76.73-13.66c-1.92 1.7-3.8 3.44-5.59 5.26 18.46 10.2 51 15.56 82.32 15.56s63.86-5.4 82.31-15.6zM251 212.92c43 0 88.3-8.65 101.63-24.87-1.18-2.47-2.45-4.9-3.84-7.27-5.1 12.32-43.82 25-97.79 25s-92.69-12.66-97.8-25c-1.38 2.37-2.65 4.8-3.83 7.27C162.7 204.27 208 212.92 251 212.92z"/><path class="cls-7" d="M251 231.32c45.34 0 93-8.3 108.43-23.88-.69-2.94-1.5-5.84-2.45-8.69-4.74 12.46-46.93 25.41-106 25.41s-101.25-12.95-106-25.41c-1 2.84-1.77 5.75-2.45 8.69C158 223 205.65 231.32 251 231.32zm-98.44 44.54A101.43 101.43 0 00163 291c20.93 9.16 55.09 14 88 14s67-4.8 88-14a101 101 0 0010.46-15.09c-10 11.26-47.63 21.89-98.43 21.89s-88.49-10.67-98.47-21.94z"/><path d="M150 271.07a6 6 0 01-.1-1h-.41c.19.31.37.66.51 1zM352.48 270h-.41a6.09 6.09 0 01-.1 1z" fill="#8dc603"/><path class="cls-7" d="M144.51 257.47a96.68 96.68 0 004.62 11.81c21.5 11.28 63 17.24 102.85 17.24 38.28 0 78.14-5.5 100.27-15.95a97.55 97.55 0 004.45-10.72c-14 10.34-53.18 19.51-104.72 19.51-55.46 0-96.58-10.63-107.47-21.89z"/><path class="cls-7" d="M140.78 240.32q.6 4.85 1.66 9.54c21.59 11.95 65.87 18.26 108.26 18.26 42.84 0 87.63-6.45 109-18.66a94.55 94.55 0 001.63-9.71C349 250.76 307 261 250.7 261c-55.3 0-96.83-9.89-109.92-20.68z"/><path class="cls-7" d="M361.9 229.63v-.74q0-4.08-.35-8.1C350.16 232 308 242.56 251.13 242.56c-57.24 0-99.63-10.69-110.67-22q-.37 4.13-.37 8.33v.57c20 13.24 66.56 20.26 111 20.26 44.32 0 90.68-6.96 110.81-20.09z"/><path class="cls-2" d="M88.94 321.1L81 335a9 9 0 01-7.71 4.71 47.83 47.83 0 01-6.31-.06l-3.41-23.17a9.33 9.33 0 019.33-9.33h7.94a9.33 9.33 0 018.1 13.95z"/><path d="M83.91 321.1L76 335c-4.74 8.31-17.43 4.94-17.43-4.63v-13.9a9.33 9.33 0 019.33-9.33h7.94a9.33 9.33 0 018.07 13.96z" fill="url(#Безымянный_градиент_27-3)"/><path class="cls-4" d="M70.57 327.7h-49a4.22 4.22 0 010-8.44h49a4.22 4.22 0 110 8.44z"/><path class="cls-2" d="M30.76 321.1L22.82 335a9 9 0 01-7.71 4.71 47.83 47.83 0 01-6.31-.06l-3.41-23.18a9.33 9.33 0 019.33-9.33h7.93a9.33 9.33 0 018.11 13.96z"/><path d="M25.37 321.1L17.43 335C12.69 343.3 0 339.93 0 330.36v-13.89a9.33 9.33 0 019.33-9.33h7.94a9.33 9.33 0 018.1 13.96z" fill="url(#Безымянный_градиент_27-4)"/><path d="M172.72 96.07c.21-6.08.33-12.15.44-18.22s.09-12.13.09-18.2l.18-36.4 17.28 9.39c-5.28 3.14-10.63 6.18-16 9.18l-8.07 4.48-8.12 4.4c-5.41 2.93-10.82 5.87-16.27 8.75s-10.89 5.77-16.36 8.6a7.64 7.64 0 01-8-13q7.5-5.41 15.08-10.7c5-3.56 10.1-7 15.17-10.55l7.6-5.24 7.64-5.17c5.11-3.43 10.25-6.82 15.44-10.11a11.26 11.26 0 0117.26 8.85v.54l2 36.36c.3 6.06.58 12.12 1 18.17s.82 12.12 1.33 18.17a13.88 13.88 0 01-27.67 2.35 13.24 13.24 0 01-.02-1.65z" fill="url(#Безымянный_градиент_22)"/><path d="M420.4 132.37l-106.23-28c-17-4.48-34 5.17-36.3 20.59-2.25 14.94 9.44 34.26 26.08 36.17a24.33 24.33 0 003.08.11l79.42-1.53-13.51 44.19 9.45 103.88 20.21-8.86L415 159.13z" fill="url(#Безымянный_градиент_27-5)"/><path class="cls-6" d="M405.39 282.13L382 308l.11 13.86 57.13-.42a9.4 9.4 0 009.33-9.47l-40.16-17a7 7 0 00-.07-9.9z"/><path class="cls-13" transform="rotate(-66.92 423.574 307.673)" d="M421.5 288.26h4.13v38.81h-4.13z"/><path d="M144.23 109.08c.2-6.63.32-1.18.32-1.18 4.12-10.63 10.72-15.23 20.63-17.61 4.07-1 6.66-1 10.91-2.08 8.89-2.34 18.76-5.06 27.71-8.08 5.37 8.21 9.73 16.91 14.82 25.26 22.73 7.31 48 3.41 70.46 1.31 17.36-1.63 24.78 9.53 27.1 24.17.14.88.71 2.47.41 3.43-4.72 15.57-5.36 24.55-27.48 26.55-48.45 4.39-82.85-4.38-127-20.71-20.23-7.45-17.98-20.75-17.88-31.06z" fill="#373c41"/><path class="cls-15" d="M170.94 140.41c-6.56 3-13.07 6.1-19.57 9.21s-13 6.32-19.41 9.51l-38.81 19-.39.19a11.29 11.29 0 01-15.21-14.91C80.28 157.6 83.11 151.8 86 146l4.35-8.65 4.42-8.61c3-5.75 5.89-11.49 8.9-17.21s6-11.44 9.07-17.13a7.64 7.64 0 0113.9 6.26q-3.34 9.1-6.82 18.14c-2.29 6.05-4.64 12.06-7 18.07l-3.53 9-3.59 9c-2.42 6-4.88 11.95-7.45 17.86L82.65 158l37.81-20.95c6.32-3.47 12.64-6.91 18.91-10.48s12.52-7.12 18.74-10.78a13.88 13.88 0 0114.07 23.94c-.4.27-.83.49-1.24.68z"/><rect x="125.49" y="71.07" width="21.22" height="47.35" rx="8.05" transform="rotate(120.96 136.098 94.746)" fill="#dea095"/><path class="cls-15" d="M99.37 60.08L132.5 45l13.65 13.15.77.67a23.25 23.25 0 011.79 1.79l.81 1a22.55 22.55 0 012.24 3.33 22.23 22.23 0 01-2 24.2c-.05.06-.11.12-.16.19a29.37 29.37 0 01-50.23-29.25z"/><path class="cls-17" d="M94.86 54.38l.19-.2 8.8-9a42.29 42.29 0 0131.88-12.71l-10.66 40.47a8.54 8.54 0 00-11.94 2 8.37 8.37 0 00-.11 9.72 8.56 8.56 0 005.62 3.63l12.12 11.76a29.33 29.33 0 01-35.9-45.68z"/><path class="cls-17" d="M59.75 140.73l9.34-40.54a31.2 31.2 0 0137.41-23.4l-15.2-3.5a31.2 31.2 0 00-37.41 23.4l-9.34 40.54z"/><path class="cls-15" d="M226.52 107.47l-19.42 47.1a231.32 231.32 0 0069.8 7.12L264.58 109c-12.7 1-25.65 1.1-38.06-1.53z"/><path class="cls-4" d="M259.38 5c-4.14 12.19-2.35 24.2-1.86 36.75.31 7.9.34 15.8.58 23.7l1.12 37.88.18 6.06c-1.93.1-3.86.19-5.79.24l8.8 52.38a263.71 263.71 0 0026.7-1.11c22.12-2 22.76-11 27.48-26.55a2.39 2.39 0 00.07-.94 25.22 25.22 0 00.63-11.14 22.2 22.2 0 00-.76-3l-24.36-76.89 2.42 1.6 102.28 20.47-2.75-21.9L382.65 38l-28.09-11.1-35.2-13.9-32.84-13z"/><path class="cls-6" d="M378.85 35.11l18.2 29.75 13.31 3.84 15.84-54.89a9.41 9.41 0 00-6.43-11.65L392 35.83a7 7 0 00-9.51-2.75z"/><path class="cls-13" transform="rotate(-50.41 408.474 24.95)" d="M389.09 22.88h38.81v4.13h-38.81z"/></g></g></svg>