<svg xmlns="http://www.w3.org/2000/svg" width="12" height="11"><path fill="#61be6a" d="M8.274 4.858v-.14L8.27 2.187c0-.076-.004-.153-.009-.229a.526.526 0 00-.55-.518H2.012c-.388-.001-.6.209-.6.596 0 2.472 0 4.944.003 7.416 0 .105.014.219.057.312.095.205.274.295.498.295h5.717c.371 0 .596-.216.582-.588-.006-.163.034-.27.18-.355.174-.103.332-.235.508-.362.003.043.006.073.006.102v.948c-.001.55-.397.945-.946.945H1.676c-.56 0-.955-.395-.956-.958V1.698c.001-.486.308-.854.78-.937A.914.914 0 011.666.75h6.342c.555 0 .956.404.956.96 0 .609.002 1.216-.002 1.824a.449.449 0 01-.054.204c-.185.338-.376.672-.565 1.007l-.069.113z"/><path fill="#61be6a" d="M7.108 9.118c.038-.496.071-.967.113-1.437a.629.629 0 01.078-.244c.753-1.343 1.509-2.683 2.264-4.024.148-.263.389-.336.653-.198.23.12.46.243.688.367.252.136.33.395.189.645-.761 1.354-1.523 2.708-2.288 4.06a.658.658 0 01-.178.198c-.368.272-.74.54-1.115.802a.406.406 0 01-.227.078c-.124-.005-.182-.112-.177-.247zm3.306-4.282c.14-.253.277-.493.408-.737.054-.1.033-.189-.062-.244a20.151 20.151 0 00-.688-.388c-.087-.047-.177-.025-.228.061-.144.244-.281.492-.425.746l.995.562zm-.305.25l-.184-.113-1.643 2.923.177.115c.55-.977 1.097-1.945 1.65-2.924zM8.347 8.339l-.853-.486-.028.326c-.026.323-.025.323.259.482.018.01.035.025.055.028.027.004.062.01.082-.004.16-.11.316-.224.485-.346zM3.699 7.81a.91.91 0 11-1.821-.025.91.91 0 01.933-.89.91.91 0 01.888.916zm-.913-.52a.513.513 0 00-.514.515.517.517 0 10.514-.516zM6.01 5.036h1.58c.169.001.27.149.2.288-.044.088-.12.115-.216.115-.822-.002-1.644-.001-2.466-.001h-.666c-.154 0-.249-.08-.247-.204.001-.123.092-.198.242-.198H6.01zM6.003 3.25l-1.571-.001c-.131 0-.217-.066-.234-.175-.018-.117.07-.223.2-.228.145-.005.291-.002.437-.002h2.694c.187.001.282.068.283.2.001.132-.098.205-.28.205H6.004zM2.589 5.632c.207-.2.393-.385.587-.562a.396.396 0 01.189-.093c.104-.018.19.035.24.13.05.097.05.203-.027.282a34.2 34.2 0 01-.803.813c-.09.089-.237.08-.332-.01-.148-.14-.293-.285-.434-.434a.252.252 0 01.008-.356.255.255 0 01.356-.005c.08.077.15.163.216.235zM2.6 3.433c.203-.197.397-.386.592-.573a.26.26 0 01.306-.05.241.241 0 01.13.27.33.33 0 01-.08.152c-.243.252-.49.5-.737.748-.123.123-.27.121-.394-.001a28.633 28.633 0 01-.383-.382c-.12-.122-.124-.282-.015-.388.105-.102.263-.094.38.021.07.068.136.138.2.203zm4.196 4.195H4.449c-.16-.001-.251-.073-.253-.199-.002-.124.092-.203.247-.203h2.484l-.131.402zm-1.364.76h-.998c-.094 0-.172-.027-.216-.115-.07-.138.03-.289.197-.291.23-.004.458-.001.687-.002l1.33.001c.177.001.282.147.212.29-.045.093-.128.118-.225.118h-.987v-.001zm-.001-4.383h-.998c-.147-.001-.24-.081-.237-.203.001-.122.094-.199.242-.199h1.985c.147 0 .24.077.242.198.003.125-.09.203-.246.203H5.43zm.009 1.787h.988c.142 0 .238.083.238.204 0 .117-.092.2-.231.2H4.428c-.14 0-.23-.08-.232-.198-.003-.12.094-.206.236-.206H5.44z"/></svg>