<svg xmlns="http://www.w3.org/2000/svg" width="61" height="64"><defs><linearGradient id="a" x1="33.89" x2="14.89" y1="33.64" y2="28.97" gradientUnits="userSpaceOnUse"><stop offset=".11" stop-color="#29353b"/><stop offset="1"/></linearGradient></defs><path fill="#373c41" d="M16.929 47.395l.293.537 5.476-2.984a11.04 11.04 0 00-.313-.526zm-2.821-1.867l1.336-6.12a11.403 11.403 0 00-.597-.132l-1.336 6.121zm-2.191-.128l-1.323-6.128c-.201.038-.4.08-.597.128l1.322 6.128zm-2.051.784l-3.741-5.022c-.167.118-.33.24-.49.366l3.74 5.021zm-1.539 1.573l-5.483-3.024c-.103.175-.202.354-.296.535l5.484 3.024zm-.748 2.058l-6.25-.461c-.02.201-.034.405-.044.61l6.25.46zm.178 2.195l-5.884 2.16c.065.194.136.385.211.574l5.885-2.16zm1.061 1.914l-4.442 4.41c.14.15.283.294.43.435l4.442-4.412zm1.776 1.308l-2.228 5.854c.188.078.379.15.571.218l2.228-5.855zm2.142.451l.415 6.253c.202-.008.406-.021.61-.04l-.415-6.254zm2.151-.48l2.957 5.523c.183-.092.363-.188.539-.29l-2.957-5.522zm1.743-1.32l4.99 3.781c.128-.159.251-.32.37-.486L17 53.396zm28.104-10.479l-4.68-4.158c-.139.149-.274.301-.405.457l4.679 4.158zM43.55 45.25l-5.992-1.832c-.065.192-.124.387-.179.584l5.993 1.832zm-.313 2.175l-6.212.814c.021.204.048.406.08.607l6.211-.815zm.62 2.105l-5.317 3.32c.104.176.212.348.325.518l5.316-3.318zm1.433 1.664l-3.457 5.218c.167.117.337.23.51.338l3.457-5.218zm2.002.916l-.991 6.188c.2.038.4.07.603.097l.99-6.189zm2.188.008l1.682 6.035c.199-.05.395-.103.589-.163l-1.682-6.037zm2.006-.912l4.022 4.802c.16-.127.315-.258.467-.393l-4.02-4.801zm1.441-1.646l5.656 2.688c.093-.181.18-.365.264-.552L53.19 49.01zm.631-2.115l6.264.116c.01-.203.013-.406.01-.611l-6.263-.116zm-.301-2.167L59 42.771c-.076-.19-.158-.376-.244-.56l-5.744 2.507zm-1.18-1.861l4.192-4.649c-.148-.14-.3-.276-.455-.408l-4.191 4.648zm-1.833-1.194l1.871-5.98a11.375 11.375 0 00-.583-.184l-1.87 5.981zm-2.176-.331l-.77-6.218c-.205.02-.406.045-.607.075l.77 6.218z"/><path fill="#2f3439" d="M24.134 50.094l1.143.062a12.43 12.43 0 00-.053-.857l-.02-.186-1.145.023a11.857 11.857 0 01.075.958zm-.347 3.246a11.446 11.446 0 01-2.167 4.324 11.485 11.485 0 01-3.776 3.062 11.375 11.375 0 01-4.035 1.166l-.048.004a11.444 11.444 0 01-4.824-.592 11.507 11.507 0 01-4.562-2.97 11.41 11.41 0 01-2.502-4.163 11.43 11.43 0 01.971-9.438 11.53 11.53 0 013.28-3.57 11.35 11.35 0 015.482-2.035 11.406 11.406 0 017.492 1.905l.717-.89a12.519 12.519 0 00-8.319-2.15C4.594 38.66-.478 44.819.19 51.72c.668 6.902 6.826 11.974 13.728 11.306 5.464-.529 9.78-4.498 11.01-9.552z"/><path fill="#2f3439" d="M24.101 51.488a11.51 11.51 0 01-.149 1.105l1.135.135c.07-.387.121-.78.154-1.178zm-1.403-6.54a11.345 11.345 0 011.244 3.43l1.155-.023a12.536 12.536 0 00-4.178-7.361l-.715.888a11.49 11.49 0 012.494 3.066zm38.217.897c-.667-6.902-6.826-11.973-13.728-11.306a12.53 12.53 0 00-3.86 1.01l.521 1.016a11.366 11.366 0 013.45-.89 11.377 11.377 0 014.817.568 11.488 11.488 0 014.154 2.525A11.44 11.44 0 0159 42.771a11.398 11.398 0 01.823 4.79 11.347 11.347 0 01-1.24 4.687 11.524 11.524 0 01-3.075 3.76 11.366 11.366 0 01-6.008 2.43 11.431 11.431 0 01-3.2-.14 11.409 11.409 0 01-4.467-1.886 11.511 11.511 0 01-3.293-3.563 11.35 11.35 0 01-1.515-4.61l-.009-.081a11.377 11.377 0 01.542-4.74 11.484 11.484 0 012.496-4.172 11.47 11.47 0 012.553-2.048l-.522-1.016c-4.115 2.397-6.692 7.043-6.204 12.085.668 6.902 6.826 11.974 13.729 11.307 6.901-.668 11.973-6.827 11.305-13.729z"/><path fill="#a4e603" d="M25.24 51.55l.466.025a2.982 2.982 0 01.1-1.39l-.529-.029-1.143-.062-9.621-.524a1.955 1.955 0 01-.076 1.392l9.664.526z"/><path fill="#2f3439" d="M29.198 48.092l-1.205-2.657 1.3-.126-.133-1.388-3.006.291 1.774 3.943a3.045 3.045 0 011.27-.063z"/><path fill="url(#a)" d="M33.61 27.77a1.04 1.04 0 00-.233-.199l-8.171-5.11-7.404-1.74a3.221 3.221 0 00-2.912.76l2.44 5.755 1.967.462 2.137-.85 8.962 2.105-1.803 1.474-.023.135a35.414 35.414 0 01-3.559 10.462l1.788.941 6.689-12.71a1.013 1.013 0 00.373-.71l.265-.503z"/><path fill="#dea095" d="M33.377 27.571l-4.6-2.877-2.039 3.4 3.658.859-1.803 1.474-.023.135a35.414 35.414 0 01-3.559 10.462l1.788.941 6.689-12.71a1.013 1.013 0 00.373-.71l.265-.503-.516-.271a1.04 1.04 0 00-.233-.2z"/><path fill="#373c41" d="M29.346 48.12c.466.1.896.308 1.26.599a3.04 3.04 0 01-.073 4.808l-1.26-2.778-1.269.576 1.25 2.76a3.026 3.026 0 01-2.03-.336l-2.296-.274-1.14-.136-10.675-1.269a1.964 1.964 0 11.68-3.493l1.039-.02 9.11-.18 1.155-.022 1.38-.027 1.012-.02a3.005 3.005 0 01.926-.241 3.05 3.05 0 01.93.053zm-3.11 4.745a3.022 3.022 0 01-.555-1.478 3.03 3.03 0 01.741-2.298l-1.218.024-1.145.023-9.644.19a1.921 1.921 0 01.182.651 1.955 1.955 0 01-.45 1.45l9.805 1.166 1.135.135z"/><path fill="#8dc603" d="M27.415 40.225l-2.57 1.975-.337 1.736 7.156 1.388a1.2 1.2 0 001.407-.95z"/><path fill="#fff" d="M31.939 44.818l.298-.434-4.082-2.802-.298.434z"/><path fill="#a4e603" d="M42.607 37.198l5.2 10.142a.697.697 0 101.24-.636l-5.199-10.139-.521-1.016-4.255-8.299a95.36 95.36 0 012.02-1.822l-1.47-.565a175 175 0 01-1.69 1.461 1.04 1.04 0 00-.258 1.254l.92 1.793-15.744 7.5-2.557-5.68-1.15.84 2.582 5.739-1.91 2.373-.717.89L13.25 48.3c.196.064.379.159.543.278l1.039-.02 5.372-6.675.715-.888 1.448-1.799 4.11 9.133 1.012-.02c.14-.062.287-.113.439-.153l-1.775-3.943-2.731-6.07 14.563-6.938-8.64 16.916c.467.1.897.308 1.26.599l8.937-17.497 2.543 4.96z"/><path fill="#2f3439" d="M29.273 50.75l-1.269.575 1.25 2.76.614 1.352-1.3.126.134 1.387 4.414-.427-.134-1.387-1.648.16-.802-1.769zM23.3 28.998c.857-.625.34-1.982-.716-1.88l-6.922.67a1.043 1.043 0 00-.938 1.138l.396 4.09c.078.804 1 1.219 1.653.743l2.37-1.729 1.15-.84zm19.27-3.001l.518-1.294-5.553-2.136-.517 1.294 2.603 1.002 1.471.565z"/><path fill="#373c41" d="M21.728 25.953l-.009-.021m.014.034l-.005-.013m-.008-.021l-.01-.023m0 .001l-.003-.006"/><path fill="#a4e603" d="M15.649 24.527c.634.713.324.145.27.283 1.732.388 2.79.695 3.941-1.098 1.861-2.9 1.561-4.196 4.545-6.535.393-.1.775-.123 1.182-.188 1.258-1.077 2.894-1.82 4.222-2.734 1.52-1.047 1.54-1.793.894-3.393-.339-.84-.919-1.77-1.45-2.474-.804-1.063-1.383-1.348-2.653-.734-1.068.516-2.374 1.394-3.399 2.047-1.852 1.182-3.161 2.723-4.031 4.732.014-.035.012-.027 0 0-1.833 1.783-2.76 4.568-4.125 6.511-1.082 1.541-.052 2.845.603 3.583z"/><path fill="#dea095" d="M29.053 10.22c.47.526 1.286.572 1.812.102l2.846-2.544c.526-.47.08-.848-.39-1.374l.49-.438A1.287 1.287 0 0032 5.864l-2.846 2.544a1.287 1.287 0 00-.101 1.812z"/><path fill="#eeb5ac" d="M34.599 1.205a3.112 3.112 0 01.25.044l.065.013c.041.01.081.02.122.032l.031.008c.047.014.094.028.14.044l.01.003a3.123 3.123 0 011.89 1.75c-.254 2.308-.447 4.05-.579 5.228a1.153 1.153 0 01-1.286 1.022l-.012-.001c-1.8-.24-3.173-1.582-3.473-3.22a3.124 3.124 0 01-.183-.244l-.001-.001a3.12 3.12 0 01-.155-.256l-.005-.008a3.218 3.218 0 01-.125-.262l-.007-.017a2.8 2.8 0 01-.048-.122l-.008-.022a2.922 2.922 0 01-.039-.119l-.009-.027a2.79 2.79 0 01-.032-.116l-.008-.033a2.956 2.956 0 01-.025-.113l-.008-.039a2.806 2.806 0 01-.017-.11l-.007-.043a3.01 3.01 0 01-.012-.106l-.005-.048-.006-.105-.002-.051v-.157c0-.037.003-.074.005-.11l.003-.048c.004-.053.01-.106.017-.159.221-1.669 1.797-2.836 3.519-2.607z"/><path fill="#623c34" d="M31.344 1.18c.34-.319.732-.54 1.154-.676 1.384-.448 3.076.013 4.204.865 1.018.768 1.745 1.79 2.18 3.064l-2.67-.29-1.474 1.186a.92.92 0 10-1.14.917l-1.443 1.16a288.839 288.839 0 01-1.566-2.527c-.437-1.271-.256-2.749.755-3.699z"/><path fill="#eeb5ac" d="M41.172 25.597l-.538-1.283a1.308 1.308 0 00-.048-.914c-.022-.06-.055-.115-.087-.17-.016-.03-.036-.055-.054-.081l-.06-.078a2.886 2.886 0 00-.066-.073l-.034-.035-.01-.009-.003-.004-.002-.002-.007-.007a1.986 1.986 0 01-.245-.326 2.969 2.969 0 01-.128-.226l-.044-.087-.196-.38-.014.01-.004-.01-.28.084-5.955-7.004c-.007-.008-.016-.014-.024-.02L28.12 7.844a1.537 1.537 0 00-2.233-.26 2.331 2.331 0 00-.266 3.286l.299.351c.519.61 1.258.99 2.056 1.054l3.988 4.69c.056.066.117.124.184.174l1.518 2.901 3.825 3.099.276 1.513a2.273 2.273 0 002.257 1.866l.542-.004a.662.662 0 00.605-.918z"/><path fill="#373c41" d="M15.849 26.851l1.96 1.203 5.007 10.944-.771 4.131.069.118a35.413 35.413 0 014.024 10.292l1.973-.433-3.108-14.158v-.005l-.795-9.605-3.037-6.973a3.233 3.233 0 00-.271-.496c.364-.731.64-1.363 1.008-1.982l-5.425-1.418c-.465.88-.92 1.738-1.438 2.475l-.675 1.12c-.183 1.104-.153 2.317.257 3.358z"/><path fill="#eeb5ac" d="M22.114 43.247a35.413 35.413 0 014.024 10.292l1.973-.433-3.108-14.158v-.005l-.649-7.833-4.177 2.12 2.64 5.768-.772 4.131z"/><path fill="#a4e603" d="M27.533 51.426l-1.975 2.57.122 1.764 7.273-.502a1.2 1.2 0 001.114-1.28z"/><path fill="#fff" d="M33.088 54.699l.176-.496-4.666-1.657-.176.496z"/></svg>