<svg xmlns="http://www.w3.org/2000/svg" viewBox="0 0 205.48 350"><defs><style>.cls-1{fill:#373c41}.cls-2{fill:#a4e603}.cls-4{fill:#f2a397}.cls-6{fill:#fff}</style></defs><g id="Слой_2" data-name="Слой 2"><g id="элементы"><path class="cls-1" d="M41.33 182.44v-.13zm.02.07v-.07zm-.06-.2v-.13zm-.04-.13z"/><path class="cls-2" d="M58.42 175a15.34 15.34 0 0015.34-15.34v-54.83l3.29-5v-27a14 14 0 00-14-14H46.86a11.08 11.08 0 00-11.09 11.08V90.5a51.31 51.31 0 007.31 26.41v42.75A15.34 15.34 0 0058.42 175z"/><path d="M54.58 65a7.14 7.14 0 007.13-7.12V36.72c0-3.92-3.21-3.47-7.13-3.47v-3.66a7.15 7.15 0 00-7.12 7.13v21.19A7.14 7.14 0 0054.58 65z" fill="#e08b7b"/><path class="cls-4" d="M60.25 4.41h1.77c.23 0 .46.06.69.1h.18l.8.16h.05A17.65 17.65 0 0167 5.89a17.37 17.37 0 018.24 7.47s0 19.34-.07 29.2A6.39 6.39 0 0168.68 49h-.07a22.39 22.39 0 01-21.09-15.71c-.21-.2-.41-.4-.6-.61l-.56-.63c-.18-.21-.35-.42-.52-.64-.16-.21-.32-.43-.47-.65l-.49-.76v-.07c-.13-.21-.26-.43-.38-.65a.41.41 0 00-.05-.09l-.33-.64-.12-.09c-.1-.21-.2-.42-.29-.63l-.06-.15c-.09-.21-.17-.41-.25-.62l-.06-.18c-.08-.2-.14-.4-.21-.61l-.06-.2c-.06-.2-.12-.4-.17-.6l-.06-.23c0-.2-.09-.39-.13-.59l-.06-.26-.09-.57v-.28l-.09-.54v-2.05c.14-9.39 8.14-16.77 17.78-16.54z"/><path d="M42.27 6.22a16.94 16.94 0 016-4.42C55.6-1.5 65.22 0 72 4.05c9.12 5.45 13.87 15.6 13.87 15.6H70.92l-7.44 7.44a5.11 5.11 0 10-5.74 5.74l-7.27 7.27s-10.09-12.88-10.15-13c-3.18-6.76-3.06-15.03 1.95-20.88z" fill="#623c34"/><path class="cls-1" d="M71.94 170.78V213l-17.25 50.64a5.77 5.77 0 01-5.24 3.91 5.77 5.77 0 01-6-5.77v-63.6l-7.31-10.47v-16.93a17.91 17.91 0 0118.48-17.9 17.92 17.92 0 0117.32 17.9z"/><path class="cls-1" d="M55.15 255v87.34H43.94a196.35 196.35 0 00-9.58-60.6l-.23-.72 11-26z"/><path class="cls-4" d="M45.93 63.65a13.48 13.48 0 00-18.6 4.19l-1.43 2.25a17.47 17.47 0 00-2.28 13.17l-19 30.09a6.66 6.66 0 00-.72 5.6v.08a6.65 6.65 0 007 4.58 6.66 6.66 0 004.72-2.68l32.75-44.5a8.89 8.89 0 00-2.44-12.78z"/><path class="cls-4" d="M8.74 112.53l39.13 39a5.61 5.61 0 011.61 4.53l-.06.5a5.55 5.55 0 01-5.52 5 5.52 5.52 0 01-3.15-1l-28.06-19.11L.55 122.26a6.56 6.56 0 014-8.86l3.31-1.08a.9.9 0 01.88.21z"/><path class="cls-2" d="M55 326.71l-11.92 13.47V350h40.46a6.66 6.66 0 006.66-6.66z"/><path class="cls-6" transform="rotate(-66.5 72.49 340.146)" d="M71.02 326.39h2.92v27.49h-2.92z"/><path class="cls-1" d="M55.13 154.91l37 9.46 40.09 28a5.75 5.75 0 012.13 6c-.7 3.2-3.67 5.26-6.55 4.53l-55.73-14.24-11 4.73-14.81-3.79c-8.86-2.26-13.88-12.19-11.09-21.91 2.66-9.29 11.5-14.94 19.96-12.78z"/><path class="cls-1" d="M134.43 198.72v87.34h-11.21a196.33 196.33 0 00-9.58-60.59l-.23-.72 11-26z"/><path class="cls-2" d="M132.64 274.46l-11.92 13.48v9.82h40.47a6.67 6.67 0 006.66-6.66z"/><path class="cls-6" transform="rotate(-66.5 150.134 287.896)" d="M148.67 274.15h2.92v27.49h-2.92z"/><path fill="none" stroke="#a7e600" stroke-miterlimit="10" stroke-width="2" d="M95.51 350v-51.51h109.97"/><path class="cls-4" d="M41 165.66l-3.13-11 3.28-1.41c.06-.34.11-.67.19-1s.16-.74.26-1.1l.14-.55.16-.54a27.44 27.44 0 011.6-4.19 28.55 28.55 0 012.19-3.85l.64-.9.33-.43c.11-.15.22-.3.33-.43l1.25-1.57 3.66 2.45-1 1.76c-.09.15-.15.28-.22.42l-.21.4c-.13.28-.27.55-.39.82a23.74 23.74 0 00-1.24 3.46c-.2.73-.36 1.46-.49 2.2l2.92-1.26v-.05l.92-.61a41.76 41.76 0 0114.23-6h.06l.94 4.3h-.06A37.74 37.74 0 0057 150.43l.12 1a42.26 42.26 0 0113.08-3.13l.88-.07.32 4.39-.87.07A37.79 37.79 0 0057.69 156v.14a42.49 42.49 0 0110.44-.69l2.55.15-.25 4.4-2.55-.15a37.57 37.57 0 00-9.53.65 42 42 0 015.65 1.04l2.73.72-1.12 4.25-2.74-.72a37.7 37.7 0 00-7.1-1.16l-5.44-.37v-.11z"/></g></g></svg>