<svg xmlns="http://www.w3.org/2000/svg" width="66" height="88"><defs><linearGradient id="a" x1="25.87" x2="19.23" y1="61.74" y2="40.24" gradientUnits="userSpaceOnUse"><stop offset="0" stop-color="#97cc45"/><stop offset="1"/></linearGradient><linearGradient id="b" x1="55.41" x2="45.26" y1="46.28" y2="72.18" gradientUnits="userSpaceOnUse"><stop offset="0" stop-color="#29353b"/><stop offset="1"/></linearGradient></defs><path d="M36.986 54.075l-.053.007m-.267.041l-.098.017m-.222.039l-.107.02m-.553.119l-.074.017m.411-.092l-.1.021m2.5-.318l-.114.005"/><path fill="url(#a)" d="M22.2 51.12C10.236 49.66.985 44.79 1.54 40.24L.255 50.758c-.213 1.751 1.027 3.55 3.316 5.183a3.474 3.474 0 003.953.049l3.718-2.498 2.413 3.65c1.634 2.47 4.26 4.125 7.201 4.487l.06.007.438.052c3.022.346 5.963-.966 7.809-3.384 1.4-1.834 3.57-3.206 6.136-3.89l.014-.112c5.273-.886 8.833-2.838 9.155-5.48l.402-3.294c-.555 4.548-10.705 7.052-22.67 5.592z"/><path d="M38.758 53.935l-.088.003m.877.003l-.114-.004m-.285-.004h-.052"/><path fill="#8cc63f" d="M17.508 36.006c2.064.008 4.243.142 6.485.416 11.178 1.363 19.986 5.704 20.645 9.977.118-.282.196-.573.233-.872.555-4.549-8.696-9.42-20.661-10.879-11.966-1.46-22.116 1.044-22.67 5.593-.083.677.052 1.36.38 2.04 1.732-2.085 5.876-3.503 11.244-3.96a6.263 6.263 0 004.344-2.315z"/><path fill="#a4e603" d="M44.47 48.82l.401-3.293c-.433 3.551-6.717 5.856-15.148 6l2.84 2.142-2.118 3.269c1.308-1.151 2.975-2.024 4.855-2.524l.014-.113c5.273-.886 8.833-2.838 9.155-5.48z"/><path fill="none" stroke="#fff" stroke-miterlimit="20" stroke-width=".25" d="M20.052 52.059l-4.708 3.07"/><path fill="#373c41" d="M50.823 26.817L13.426 35.7l-2.674-11.257C8.3 14.116 14.682 3.756 25.01 1.303 35.336-1.15 45.697 5.233 48.15 15.56z"/><path fill="none" stroke="#2f3439" stroke-miterlimit="20" stroke-width=".56" d="M18.063 26.007c.123.97.338 1.93.641 2.86m4.662-5.249c.166 1.043.478 2.063.925 3.02m4.831-4.764c.126.946.346 1.878.656 2.78m7.212-4.198c.25.976.575 1.932.971 2.857m6.278-3.073l.704 2.016"/><path fill="url(#b)" d="M40.416 72.184l-5.008-9.036 2.605-1.917c-.013-.308-.033-.614-.032-.922-.005-.342-.01-.684.002-1.026l.012-.511.029-.51c.08-1.36.262-2.707.551-4.022a26.398 26.398 0 011.15-3.843c.12-.31.25-.617.377-.923l.203-.453c.068-.15.138-.309.202-.44l.787-1.64 3.727 1.41-.497 1.75c-.044.152-.074.278-.109.413l-.103.4c-.059.268-.121.535-.175.804a21.432 21.432 0 00-.386 3.237c-.031.683-.021 1.363.018 2.04l2.311-1.701-.043-.04.688-.727A38.008 38.008 0 0158.042 46.3l.05-.023 1.71 3.599-.048.023a34.016 34.016 0 00-8.294 5.564l.307.84a38.39 38.39 0 0110.901-5.44l.758-.236 1.184 3.805-.757.236a34.405 34.405 0 00-10.659 5.534l.045.122a38.1 38.1 0 019.073-2.744l2.28-.39.67 3.929-2.28.389a34.128 34.128 0 00-8.273 2.524 38.245 38.245 0 015.206-.202l2.557.077-.12 3.983-2.556-.077a34.255 34.255 0 00-6.503.427l-4.875.791-.017-.1z"/><path fill="#373c41" d="M25.417 75l2.676-9.978 3.206.43c.204-.23.403-.464.617-.684.235-.25.468-.5.714-.737l.365-.36.375-.347a25.726 25.726 0 013.19-2.508 26.418 26.418 0 013.498-1.965c.302-.14.608-.27.911-.403l.462-.184c.152-.06.313-.127.45-.176l1.706-.634 1.7 3.604-1.573.914c-.137.078-.245.148-.365.22l-.351.217c-.23.152-.46.3-.685.456-.9.626-1.744 1.316-2.527 2.06-.496.47-.963.966-1.404 1.48l2.844.383-.003-.06 1-.044a38.01 38.01 0 0113.855 1.946l.051.017-1.27 3.778-.05-.017a34.02 34.02 0 00-9.832-1.76l-.361.816a38.39 38.39 0 0111.619 3.662l.709.357-1.792 3.56-.709-.358a34.405 34.405 0 00-11.51-3.424l-.053.118a38.103 38.103 0 018.432 4.33l1.91 1.305-2.247 3.29L49.065 83a34.13 34.13 0 00-7.704-3.933 38.282 38.282 0 013.885 3.472l1.785 1.832-2.853 2.782-1.786-1.832a34.259 34.259 0 00-4.973-4.21l-4.057-2.819.058-.084z"/><path fill="none" stroke="#2f3439" stroke-miterlimit="20" stroke-width=".56" d="M30.551 67.6a10.029 10.029 0 01-1.616 4.947"/></svg>