<svg xmlns="http://www.w3.org/2000/svg" width="76" height="13"><path fill="#61be6a" d="M66.243 11.488l1.633-2.823L1.5 8.655l.005-4.825 66.38.01-1.63-2.83 5.431.006 3.02 5.243-3.031 5.235z"/><path fill="#f7f7f7" d="M67.987.012l3.122.004h1.155l.576 1.001 2.443 4.242.576 1-.579 1-2.451 4.236-.579 1-1.154-.002-3.122-.004-3.465-.003 1.633-2.82L2.5 9.655H.498L.5 7.654l.003-2.826.002-1.998h1.998l63.65.01-1.63-2.832zm1.627 4.828L2.503 4.83 2.5 7.657l67.11.01-1.634 2.823 3.122.004 2.451-4.236-2.442-4.242-3.122-.003z"/></svg>