<svg xmlns="http://www.w3.org/2000/svg" width="11" height="7"><path fill="#61be6a" d="M10.599 4.024c-.087.221-.25.314-.484.296-.091-.007-.183-.001-.287-.001v1.49c-.001.282-.147.43-.427.432h-.335V1.235c.168.009.334.001.493.03.165.03.267.189.268.373.002.464 0 .929 0 1.393v.133c.102 0 .193.004.284-.001.238-.015.407.076.488.308v.553zM4.06 3.158h3.078V.933c0-.318.14-.458.458-.459.221 0 .443-.002.664 0 .265.004.415.158.415.424v5.685c0 .278-.152.427-.433.428h-.674c-.28 0-.43-.15-.43-.431V4.328H4.06V6.55c0 .32-.14.46-.457.46h-.675c-.243-.002-.405-.159-.405-.4V.87c0-.231.153-.39.386-.395.24-.006.48-.003.72-.001.28.001.43.148.43.43.002.703 0 1.408 0 2.112v.141zm-2.69.006v-1.49c0-.28.151-.43.43-.432h.329v4.99c-.157 0-.312.016-.464-.003-.177-.022-.294-.189-.294-.387-.002-.46-.001-.921-.001-1.382v-.141h-.32C.74 4.316.6 4.173.598 3.863v-.288c.002-.248.158-.406.407-.412.117-.002.234 0 .364 0z"/></svg>