<svg xmlns="http://www.w3.org/2000/svg" viewBox="0 0 19.81 19.87"><defs><style>.cls-1{fill:#373c41}</style></defs><g id="Слой_2" data-name="Слой 2"><g id="элементы"><path class="cls-1" d="M19.81 10a9.83 9.83 0 01-9.92 9.92A9.83 9.83 0 010 9.91 9.85 9.85 0 019.86 0a9.84 9.84 0 019.95 10zm-15.6 0v2.4a3.1 3.1 0 002.91 3.25 38.08 38.08 0 005.55 0 3 3 0 002.89-3.05c.07-1.72.07-3.44 0-5.15a3 3 0 00-2.75-3 44.07 44.07 0 00-5.63 0 3.11 3.11 0 00-3 3.26c.01.65.03 1.43.03 2.21z"/><path class="cls-1" d="M5.54 9.9V7.49a1.79 1.79 0 011.88-1.95q2.47-.09 4.95 0a1.78 1.78 0 011.9 1.92c.05 1.69 0 3.39 0 5.08a1.57 1.57 0 01-1.55 1.71c-1.85.09-3.71.1-5.56 0a1.59 1.59 0 01-1.59-1.75V9.89zm1.4.06a3 3 0 002.94 3 3.06 3.06 0 003.07-3 3.11 3.11 0 00-3-3A3 3 0 006.94 10zm6.83-2.85v-.33c-.3-.2-.59-.54-.91-.58a.63.63 0 00-.73.77 1.05 1.05 0 00.73.69c.29.02.61-.35.91-.55z"/><path class="cls-1" d="M9.88 11.64A1.63 1.63 0 018.17 10 1.7 1.7 0 0110 8.23 1.68 1.68 0 0111.65 10a1.63 1.63 0 01-1.77 1.64z"/></g></g></svg>