<svg xmlns="http://www.w3.org/2000/svg" viewBox="0 0 60.83 45"><g data-name="Слой 2"><path d="M8.22 13.33h2.86V3h3.38v10.32h2.86V.16H8.24zM25.2 0a6.74 6.74 0 106.73 6.74A6.75 6.75 0 0025.2 0m0 10.61a3.77 3.77 0 01-3.74-3.88 3.75 3.75 0 117.49 0 3.77 3.77 0 01-3.75 3.87M36 .18h-2.9v13.17h2.85V9.12a4.43 4.43 0 004.51-4.46A4.44 4.44 0 0036 .18m0 6.18V3a1.68 1.68 0 011.6 1.65 1.71 1.71 0 01-1.67 1.71m5-6.17V3h2.63v10.36h2.85V3.05H49V.19zM0 6.73a6.75 6.75 0 006.73 6.74v-2.86A3.77 3.77 0 013 6.73a3.78 3.78 0 013.78-3.87V0A6.75 6.75 0 000 6.73m6.78 14.39H3.41V16H.56v13.18H3.4V24h3.38v5.16h2.85L9.65 16H6.79zM41 23.51V16h-2.82l-7.62 13.16h3.28l4.3-7.42v7.43H41l4.32-7.46v7.46h2.86V16h-2.84zm-23.48-7.69a6.74 6.74 0 106.73 6.74 6.75 6.75 0 00-6.73-6.74m0 10.62a3.88 3.88 0 113.76-3.88 3.79 3.79 0 01-3.76 3.88m15.29-6A4.43 4.43 0 0028.3 16h-2.9v13.15h2.85v-4.22a4.43 4.43 0 004.51-4.47m-4.55 1.7v-3.39a1.67 1.67 0 011.66 1.69 1.7 1.7 0 01-1.67 1.7m28-6.15l-7.57 13.17h3.28l1-1.74h3.54v1.74h2.85V16.01zm.22 8.88H54.4l2.08-3.58zM16.8 31.78h-3.28l-3.43 5.92v-5.93H7.24v5.93l-3.42-5.94H.54l3.53 6.14L0 44.94h3.28l4-6.83v6.83h2.85v-6.83L14 45h3.28l-4-7zm18 6.11a3.07 3.07 0 001.36-2.7c0-2.38-2-3.39-4.17-3.39h-1.9v2.73h2c1 .09 1.28.53 1.28 1.22A1.17 1.17 0 0132 36.94h-1.39v2.51h1.57a1.38 1.38 0 011.54 1.41c0 .81-.52 1.39-1.69 1.39h-2V45h2c2.51 0 4.62-1.45 4.62-4a3.25 3.25 0 00-1.8-3m9.6-.92H40.8V31.8H38V45h2.85v-5.18h3.64V45h2.86V31.81h-2.9zm-23.4 2.25v-7.55H18.2V45h2.88l4.31-7.44V45h2.85V31.82h-2.83zm35.45-7.51l-4.37 7.54v-7.54h-2.85V45h2.89l4.3-7.43V45h2.86V31.82z" fill="#373c41"/><path fill="#a7e600" d="M60.83 6.79l-2.28 3.95h-2.91l1.52-2.63-8.17-.01V5.46l8.17.01-1.51-2.63h2.91l2.27 3.95z"/></g></svg>