<svg xmlns="http://www.w3.org/2000/svg" xmlns:xlink="http://www.w3.org/1999/xlink" viewBox="0 0 927.34 688.7"><defs><linearGradient id="Безымянный_градиент_32" x1="488.11" y1="-38.51" x2="488.11" y2="1290.45" gradientUnits="userSpaceOnUse"><stop offset="0" stop-color="#f9f9f9"/><stop offset=".1" stop-color="#f6f8f9"/><stop offset=".17" stop-color="#ecf6f8"/><stop offset=".24" stop-color="#dbf2f7"/><stop offset=".31" stop-color="#c4edf5"/><stop offset=".37" stop-color="#a6e6f3"/><stop offset=".43" stop-color="#81def0"/><stop offset=".46" stop-color="#69d9ee"/></linearGradient><linearGradient id="Безымянный_градиент_62" x1="936.1" y1="157.29" x2="679.03" y2="157.29" gradientUnits="userSpaceOnUse"><stop offset=".38" stop-color="#53a45d"/><stop offset="1" stop-color="#61be6a"/></linearGradient><linearGradient id="Безымянный_градиент_20" x1="767.64" y1="297.64" x2="874.11" y2="297.64" gradientUnits="userSpaceOnUse"><stop offset="0" stop-color="#a4e603"/><stop offset=".74" stop-color="#61be6a"/></linearGradient><linearGradient id="Безымянный_градиент_19" x1="765.63" y1="224.92" x2="927.34" y2="224.92" gradientUnits="userSpaceOnUse"><stop offset="0" stop-color="#a4e603"/><stop offset=".89" stop-color="#61be6a"/></linearGradient><linearGradient id="Безымянный_градиент_19-2" x1="499.33" y1="421.62" x2="499.33" y2="501.67" xlink:href="#Безымянный_градиент_19"/><linearGradient id="Безымянный_градиент_2" x1="658.55" y1="342.79" x2="571.64" y2="311.54" gradientUnits="userSpaceOnUse"><stop offset=".11" stop-color="#373c41"/><stop offset="1"/></linearGradient><linearGradient id="Безымянный_градиент_2-2" x1="406.48" y1="345.89" x2="337.53" y2="367.51" xlink:href="#Безымянный_градиент_2"/><linearGradient id="Безымянный_градиент_20-2" x1="2.81" y1="389.94" x2="151.34" y2="389.94" xlink:href="#Безымянный_градиент_20"/><linearGradient id="Безымянный_градиент_19-3" x1="0" y1="288.49" x2="225.61" y2="288.49" xlink:href="#Безымянный_градиент_19"/><linearGradient id="Безымянный_градиент_19-4" x1="579.2" y1="659.38" x2="579.2" y2="546.05" xlink:href="#Безымянный_градиент_19"/><style>.cls-3{fill:#664a46}.cls-7{fill:#db4f69}.cls-8{fill:#bc445c}.cls-9{fill:#fff}.cls-10{fill:none}.cls-11{fill:#373c41}.cls-12{fill:#2f3439}.cls-13{fill:#ed992c}.cls-15{fill:#dea095}.cls-16{fill:#eeb5ac}.cls-17{fill:#623c34}.cls-19{fill:#40dc9e}.cls-23{fill:#a4e603}</style></defs><g id="Слой_2" data-name="Слой 2"><g id="элементы"><rect x="63.43" y="66.57" width="849.36" height="511.18" rx="248.91" fill="url(#Безымянный_градиент_32)"/><path d="M610.34 179.72L687 45.57c45.86-80.26 168.41-47.71 168.41 44.72v134.15a90.14 90.14 0 01-90.15 90.14h-76.65c-69.22 0-112.61-74.77-78.27-134.86z" fill="url(#Безымянный_градиент_62)"/><path class="cls-3" d="M793.48 86.59v-6.96l-37.3 37.3V48.21h-4.93v137.4l-38-38v6.97l38 38v99.3l-57.71-57.71v6.97l57.71 57.71v138.19h4.93V254.09l37.3-37.3v-6.96l-37.3 37.3V123.89l37.3-37.3z"/><path d="M772.62 306.93l31.74-55.56c19-33.24 69.75-19.76 69.75 18.52v55.56a37.34 37.34 0 01-37.34 37.33H805c-28.63 0-46.61-30.97-32.38-55.85z" fill="url(#Безымянный_градиент_20)"/><path d="M883.47 209.89v-58.34c0-42.37-56.17-57.29-77.2-20.5l-35.14 61.5c-15.74 27.54 4.15 61.82 35.88 61.82h35.68l-16.84 29.46c-14.22 24.89 3.75 55.86 32.41 55.86H890a37.33 37.33 0 0037.33-37.34v-55.56c.01-25.79-23.02-40.32-43.86-36.9z" fill="url(#Безымянный_градиент_19)"/><path class="cls-3" d="M871.09 273.6l-27.37 27.37V148.83h-3.51v69.97l-29.38-29.38v4.97l29.38 29.38v213.34h3.51V305.94l27.37-27.37v-4.97z"/><rect x="134.77" y="421.62" width="729.12" height="80.04" rx="38.98" fill="url(#Безымянный_градиент_19-2)"/><rect class="cls-7" x="69.78" y="467.59" width="837.69" height="113.33" rx="55.18"/><ellipse class="cls-8" cx="626.93" cy="477.89" rx="154.54" ry="7.13"/><ellipse class="cls-8" cx="345.58" cy="519.89" rx="154.54" ry="7.13"/><path class="cls-9" d="M106.24 494.16h47.55v6.34h-47.55zm629.03 6.34h-96.91v-6.34h96.91zm-193.82 0h-96.92v-6.34h96.92zm-193.83 0H250.7v-6.34h96.92zm484.57-6.34h47.55v6.34h-47.55z"/><path class="cls-10" d="M593.94 410.4v-1.37l-48-3.69a9.11 9.11 0 01.37 1.26l47.52 7.23c.07-1.14.11-2.28.11-3.43zm5.54 4.29l2.6.39a15.24 15.24 0 013.59-5.14l-6.06-.47v.93c.02 1.44-.04 2.87-.13 4.29z"/><path class="cls-10" d="M546.24 386.34l-2.9-.94 9.57-29.75a56.86 56.86 0 00-16-2.29c-1.71 0-3.41.08-5.09.23l3.62 31.06-3 .35-3.63-31.06a56.61 56.61 0 00-20.07 6.89l16.16 26.73-2.61 1.58-16.16-26.73A57.54 57.54 0 00490.7 377l25.77 17.65-1.72 2.52L489 379.49a56.86 56.86 0 00-8 19.71l30.81 5.29-.52 3-30.81-5.29a58.41 58.41 0 00-.59 8.2 57.11 57.11 0 001.49 13l30.26-7.9.77 2.95-30.26 7.9a57 57 0 009.66 18.93l24.17-19.77 1.93 2.36-24.21 19.74a57.34 57.34 0 0016.56 13.22l13.87-28 2.73 1.36-13.87 28a56.74 56.74 0 0020.62 5.16l.94-31.25 3.05.09-.94 31.25h.23a56.83 56.83 0 0020.6-3.85l-12-28.85 2.82-1.17 12 28.84a57.36 57.36 0 0017.4-12.21l-23-21.18 2.07-2.24 23 21.18a57.09 57.09 0 0010.77-18.19l-52.39-11.43a11.17 11.17 0 01-1.42.11 9.8 9.8 0 110-19.59 9.64 9.64 0 013.91.82l32.53-33.27a57 57 0 00-17.36-9.83z"/><path class="cls-10" d="M589.17 387.59l-28.62 12.18-1.2-2.81 28.52-12.14a57.39 57.39 0 00-9.61-13.65l-29.88 30.56 45.32 3.48a56.54 56.54 0 00-4.53-17.62zm128.04 25.89a3.66 3.66 0 01-1.28.24 3.48 3.48 0 01-3.24-2.19l-21-52.86a57.65 57.65 0 00-13.65 8.94l21.24 22.9-2.24 2.07-21.23-22.89a57.42 57.42 0 00-12.17 17.44l28.88 12-1.17 2.82-28.88-12a56.81 56.81 0 00-3.8 20.46v.41l31.33-1.07.1 3.05-31.23 1.06a56.58 56.58 0 005.13 20.57l28-13.92 1.36 2.73-28 13.92a57.42 57.42 0 0013.27 16.54l19.68-24.25 2.36 1.93L681 455.62a56.79 56.79 0 0019 9.59l7.84-30.21 2.95.77L702.9 466a56.87 56.87 0 0012.87 1.47 58 58 0 008.39-.62l-5.45-30.78 3-.53 5.45 30.78a56.74 56.74 0 0019.61-8l-17.67-25.83 2.52-1.72 17.66 25.77a57.52 57.52 0 0014.56-15.47L737.05 425l1.57-2.61 26.8 16.06a56.74 56.74 0 006.83-20.06l-31-3.59.35-3 31 3.59c.14-1.64.22-3.29.22-5a56.87 56.87 0 00-2.34-16.18l-29.73 9.69-.94-2.9 29.72-9.69a57.17 57.17 0 00-10.7-18.31l-23.05 21.1-2.06-2.25 23-21.07a57.52 57.52 0 00-17.35-12.28l-12.17 28.79-2.8-1.19 12.16-28.8a56.83 56.83 0 00-20.84-3.94l.83 31.24-3 .08-.84-31.24a56.69 56.69 0 00-14.51 2.69L719.16 409a3.49 3.49 0 01-1.95 4.48zm-95.46-20.93h-6.52l4.71 13.77.72.21 51-79.84L596 354.14l10.65 31.45h15.07zm-23.12 29.04c-.36 2-.8 3.88-1.34 5.78l5.65 1.23a15.13 15.13 0 01-2-6.66zm.82-15.93l6.86.52-16-47.32-8 8.24a62.53 62.53 0 0117.14 38.56zm-54.19 7.82a9.76 9.76 0 01-1.66 2.17l48.13 10.5c.5-1.77.93-3.58 1.27-5.42z"/><path class="cls-11" d="M559.35 397l1.2 2.81 28.62-12.18c-.41-.94-.84-1.86-1.3-2.77zm-13.11-10.66l9.58-29.75c-1-.34-1.93-.65-2.91-.94l-9.57 29.75zm-10.82-1.69l-3.62-31.06c-1 .09-2 .21-3 .35l3.6 31.06zm-10.56 2.91l-16.16-26.73c-.88.5-1.75 1-2.61 1.58l16.16 26.73zm-8.39 7.07L490.7 377c-.6.82-1.17 1.66-1.73 2.51l25.78 17.66zm-4.7 9.86L481 399.2c-.2 1-.37 2-.52 3l30.81 5.29zm-.17 10.98l-30.26 7.9c.23 1 .49 2 .77 2.95l30.26-7.9zm4.34 10.01l-24.17 19.77a48.4 48.4 0 001.93 2.36l24.17-19.77zm8.19 7.35l-13.87 28c.9.48 1.81.93 2.73 1.36l13.87-28zm10.42 3.27l-.94 31.25c1 .06 2 .09 3 .09l.94-31.25zm10.91-1.35l12 28.85c1-.37 1.89-.76 2.82-1.18l-12-28.84zm9.29-5.75l23 21.18c.71-.73 1.4-1.48 2.07-2.24l-23-21.18zm144.58-38.49l-21.24-22.9c-.76.68-1.51 1.37-2.23 2.08l21.23 22.89zm-6.76 8.59l-28.88-12c-.41.92-.8 1.86-1.17 2.81l28.88 12zM690 409.75l-31.23 1.06c0 1 0 2 .1 3.05l31.23-1.06zm2 10.76l-28 13.92c.43.92.88 1.83 1.36 2.73l28-13.92zm6.35 8.94l-19.68 24.25q1.16 1 2.37 1.92l19.67-24.24zm9.49 5.55L700 465.21c1 .28 2 .54 2.95.77l7.89-30.25zm10.87 1.05l5.45 30.78c1-.15 2-.33 3-.53l-5.45-30.78zm10.39-3.56l17.67 25.78c.85-.56 1.68-1.14 2.51-1.73l-17.66-25.77zm7.95-7.49l26.79 16.06c.55-.85 1.07-1.72 1.58-2.61l-26.8-16.06zm4.15-10.19l31 3.59c.14-1 .25-2 .34-3l-31-3.59zm-.46-10.9l29.73-9.69c-.29-1-.61-2-1-2.9L739.8 401zm-4.96-9.81l23.05-21.1c-.67-.77-1.36-1.51-2.06-2.25l-23 21.07zm-8.53-6.81l12.17-28.79c-.93-.42-1.86-.82-2.81-1.2l-12.16 28.8zm-10.65-2.69l-.83-31.24c-1 0-2 0-3 .08l.84 31.24z"/><path class="cls-12" d="M593.83 413.83l5.65.86c.09-1.42.15-2.85.15-4.29v-.93l-5.69-.44v1.37c0 1.15-.04 2.29-.11 3.43zm-3.28 15.95A57.09 57.09 0 01579.78 448c-.67.76-1.36 1.51-2.07 2.24a57.36 57.36 0 01-17.4 12.21c-.93.42-1.87.81-2.82 1.18a56.83 56.83 0 01-20.6 3.85h-.23c-1 0-2 0-3-.09a56.74 56.74 0 01-20.66-5.2c-.92-.43-1.83-.88-2.73-1.36a57.34 57.34 0 01-16.56-13.22 48.4 48.4 0 01-1.93-2.36 57 57 0 01-9.66-18.93c-.28-1-.54-1.95-.77-2.95a57.11 57.11 0 01-1.49-13 58.41 58.41 0 01.59-8.2c.15-1 .32-2 .52-3a56.86 56.86 0 018-19.71c.56-.85 1.13-1.69 1.73-2.51a57.54 57.54 0 0115.39-14.57c.86-.55 1.73-1.08 2.61-1.58a56.61 56.61 0 0120.07-6.89 57.26 57.26 0 018.09-.58 56.86 56.86 0 0116 2.29c1 .29 2 .6 2.91.94a57 57 0 0117.36 9.83l4-4.08a62.71 62.71 0 1019 68.66z"/><path class="cls-12" d="M593 420.73c-.34 1.84-.77 3.65-1.27 5.42l5.56 1.22c.54-1.9 1-3.82 1.34-5.78zm-3.83-33.14a56.54 56.54 0 014.53 17.62l5.75.45a62.53 62.53 0 00-17.21-38.56l-4 4.07a57.39 57.39 0 019.61 13.65c.48.91.91 1.83 1.32 2.77zM778.5 410.4a62.73 62.73 0 00-82.39-59.57l2.1 5.3a56.69 56.69 0 0114.51-2.69c1-.05 2-.08 3-.08a56.83 56.83 0 0120.84 3.94c.95.38 1.88.78 2.81 1.2a57.52 57.52 0 0117.35 12.28c.7.74 1.39 1.48 2.06 2.25a57.17 57.17 0 0110.69 18.29c.34.95.66 1.92 1 2.9a56.87 56.87 0 012.34 16.18c0 1.68-.08 3.33-.22 5-.09 1-.2 2-.34 3a56.74 56.74 0 01-6.83 20.06c-.51.89-1 1.76-1.58 2.61a57.52 57.52 0 01-14.56 15.47c-.83.59-1.66 1.17-2.51 1.73a56.74 56.74 0 01-19.61 8c-1 .2-2 .38-3 .53a58 58 0 01-8.39.62A56.87 56.87 0 01702.9 466c-1-.23-2-.49-2.95-.77a56.79 56.79 0 01-18.95-9.61q-1.21-.93-2.37-1.92a57.42 57.42 0 01-13.27-16.54c-.48-.9-.93-1.81-1.36-2.73a56.58 56.58 0 01-5.21-20.57c-.06-1-.09-2-.1-3.05v-.41a56.81 56.81 0 013.8-20.46c.37-.95.76-1.89 1.17-2.81a57.42 57.42 0 0112.17-17.44c.72-.71 1.47-1.4 2.23-2.08a57.65 57.65 0 0113.65-8.94l-2.09-5.3a62.73 62.73 0 1088.85 57z"/><path class="cls-13" d="M598.63 421.59l2.29.35v-.95a15.28 15.28 0 011.19-5.91l-2.6-.39-5.65-.86-47.52-7.23a10.07 10.07 0 01.22 2.06 9.71 9.71 0 01-1.27 4.82l47.71 7.25z"/><path class="cls-12" d="M619.94 406.32l-4.71-13.77h6.52v-7h-15.07L613.6 406a15.31 15.31 0 012.46-.2 15.51 15.51 0 013.88.52z"/><path d="M651.6 307.54a5 5 0 00-1.06-1.1l-38.11-29.3L576.5 265a16.05 16.05 0 00-14.82 2.36l9.32 29.7 9.54 3.24 11-3.19 43.49 14.76-9.66 6.45-.18.66a176.69 176.69 0 01-22.7 50.24l8.43 5.53 39.31-59.89a5.17 5.17 0 002.08-2.84 4.21 4.21 0 00.12-.51l1.56-2.37z" fill="url(#Безымянный_градиент_2)"/><path class="cls-15" d="M650.54 306.44l-21.46-16.5-11.75 15.9 17.75 6-9.66 6.45-.18.66a176.69 176.69 0 01-22.7 50.24l8.43 5.53 39.31-59.89a5.17 5.17 0 002.08-2.84 4.21 4.21 0 00.12-.51l1.56-2.37-2.44-1.6a5 5 0 00-1.06-1.07z"/><path class="cls-11" d="M619.94 406.32a15.51 15.51 0 00-3.88-.5 15.31 15.31 0 00-2.46.2 15.08 15.08 0 00-2.25.55l-5-.39-6.86-.52-5.75-.45-45.32-3.48-5.16-.4a9.86 9.86 0 00-2.57-1.64 9.64 9.64 0 00-3.91-.82 9.8 9.8 0 100 19.59 11.17 11.17 0 001.42-.11l52.39 11.43 5.6 1.22 11.27 2.46a15.11 15.11 0 008.64 2.7c.43 0 .86 0 1.28-.06l-4.89-14.3 6.58-2.25L624 434a15.19 15.19 0 00-3.29-27.42zm-22.65 21.05l-5.56-1.22-48.13-10.5a9.84 9.84 0 002.93-7 10.07 10.07 0 00-.22-2.06 9.11 9.11 0 00-.37-1.26l48 3.69 5.69.44 6.06.47a15.07 15.07 0 00-4.8 11.07v.95a15.13 15.13 0 002 6.66z"/><path class="cls-8" d="M614.86 366.4l-13.71 8.6-2.51 8.45 34.87 10.33a6 6 0 007.44-4z"/><path class="cls-9" transform="rotate(-50 626.55 382.447)" d="M625.19 370.09h2.63v24.7h-2.63z"/><path class="cls-13" d="M691.74 358.67l21 52.86a3.48 3.48 0 003.24 2.19 3.66 3.66 0 001.28-.24 3.49 3.49 0 001.95-4.52l-20.95-52.83-2.1-5.3L679 307.58c2.3-1.78 6.67-5 10.91-8.07l-7-3.52a906.54 906.54 0 01-9.09 6.44 5.2 5.2 0 00-1.89 6.11l3.71 9.34-81.84 29.68-10-29.43-6.12 3.61 10.07 29.74-10.62 10.86-4 4.08-32.53 33.27a9.86 9.86 0 012.57 1.64l5.16.4 29.88-30.56 4-4.07 8-8.24 16 47.32 5 .39a15.08 15.08 0 012.25-.55l-6.92-20.43L596 354.14l75.65-27.45-51 79.84a15.11 15.11 0 016 3.58l52.78-82.58 10.25 25.84z"/><path class="cls-12" d="M619.03 419.55l-6.58 2.25 4.89 14.3 2.39 7.01h-6.51v6.95h22.12v-6.95h-8.26l-3.13-9.16-4.92-14.4zm-19.21-110.87a5.2 5.2 0 00-2.65-9.68h-34.69a5.2 5.2 0 00-5.2 5.2v20.51a5.2 5.2 0 007.85 4.47l12.59-7.44 6.12-3.61zm97.13-5.64l3.19-6.18-26.55-13.27-3.19 6.18 12.45 6.22 7.03 3.52 7.07 3.53z"/><path class="cls-11" d="M593.48 292.81v-.11zm.02.06v-.06zm-.05-.17v-.12zm-.04-.12z"/><path class="cls-13" d="M564 282.8c2.81 3.85 1.54.88 1.2 1.54 8.42 2.76 13.53 4.79 20.1-3.56 10.64-13.5 9.77-20.08 25.71-30.26 2-.31 3.91-.24 6-.37 6.76-4.74 15.24-7.64 22.27-11.54 8-4.47 8.52-8.16 6.08-16.42a58.57 58.57 0 00-6-13c-3.48-5.67-6.22-7.36-12.82-4.92-5.55 2.05-12.46 5.78-17.86 8.53a51.34 51.34 0 00-22.29 21.56c-9.95 8-15.89 21.36-23.6 30.35-6.2 7.15-1.71 14.12 1.21 18.09z"/><path class="cls-15" d="M637.41 218.21a6.41 6.41 0 009 1.37l15.35-11.26c2.84-2.08.81-4.17-1.27-7l2.64-1.94a6.41 6.41 0 00-9-1.37l-15.35 11.26a6.42 6.42 0 00-1.37 8.94z"/><path class="cls-16" d="M658.9 179.5c.27 0 .54 0 .8-.05h1.59l.72.07h.06a16.65 16.65 0 013 .63 15.56 15.56 0 018.07 5.89s1.83 17.27 2.76 26.09a5.76 5.76 0 01-5.18 6.35h-.06a20.13 20.13 0 01-20.36-12l-.59-.48-.56-.51-.52-.52-.49-.54c-.15-.17-.3-.35-.44-.54v-.05c-.14-.18-.28-.36-.41-.55l-.05-.07-.36-.55-.06-.09c-.11-.18-.22-.36-.32-.54l-.07-.13c-.1-.17-.19-.35-.28-.53l-.08-.15-.24-.53a1.3 1.3 0 00-.08-.17c-.07-.17-.14-.35-.2-.52s-.06-.14-.08-.2-.12-.34-.17-.51l-.08-.23-.14-.5-.06-.25c0-.17-.08-.34-.12-.51a2 2 0 010-.26 5.07 5.07 0 01-.09-.54 2.23 2.23 0 010-.23c0-.27-.07-.53-.09-.8a15.45 15.45 0 0114.18-16.48z"/><path class="cls-17" d="M642.22 177.3a15.07 15.07 0 014.9-4.52c6.27-3.67 15-3.22 21.42-.28 8.66 4 13.88 12.61 13.88 12.61l-13.31 1.43-5.93 7.36a4.59 4.59 0 10-4.58 5.68l-5.79 7.19s-10.25-10.53-10.32-10.64c-3.49-5.73-4.18-13.13-.27-18.83z"/><path class="cls-16" d="M690.19 300.38l-2.05-6.63a6.65 6.65 0 00.3-.89 6.56 6.56 0 00-.1-3.67 6.08 6.08 0 00-.35-.89 4.5 4.5 0 00-.23-.43c-.08-.14-.17-.27-.26-.41l-.29-.39-.16-.19v-.05c-.08-.11-.16-.21-.23-.32a10.36 10.36 0 01-.83-1.42q-.2-.37-.36-.78c-.06-.13-.11-.27-.17-.4l-.18-.46-.79-2h-.07v-.05l-1.43.28L656.68 244l-.11-.12L633.92 206a7.66 7.66 0 00-11-2.36 11.62 11.62 0 00-2.9 16.18l1.32 1.89a15 15 0 009.7 6.22l17.55 25.21a5.77 5.77 0 00.83.95l6.14 15.13 17.51 17.22.64 7.65a11.33 11.33 0 0010.31 10.35l2.69.24a3.3 3.3 0 003.48-4.3z"/><path class="cls-11" d="M563.86 294.44l9.15 6.92 19.61 56.74-5.82 20.14.29.62a177 177 0 0115 53l10-1.21-8.59-71.75.67-48.08-11.73-36.07a15.89 15.89 0 00-1.11-2.6c2.16-3.45 3.84-6.46 6-9.35L571 253.13a118.88 118.88 0 01-8.33 11.6l-3.85 5.27c-1.44 5.4-1.88 11.43-.34 16.8z"/><path class="cls-16" d="M587.09 378.86a177 177 0 0115 53l10-1.21-8.59-71.75.54-39.21-21.76 8.53 10.34 29.9-5.82 20.14z"/><path class="cls-7" d="M610.07 422.07l-11 11.82-.25 8.81 36.36 1a6 6 0 006.14-5.82z"/><path class="cls-9" transform="rotate(-64.93 625.422 434.565)" d="M624.13 422.22h2.63v24.7h-2.63z"/><path class="cls-10" d="M390.12 328.76h7.83v7.43h-7.83zM411 359.82v-9.09h-9.86v10.9h1a22.53 22.53 0 008.86-1.81zm-20.88-20.47h7.83v8.22h-7.83zm11 0h9.86v8.22h-9.86zm-11 11.38h7.83v10.9h-7.83zm-61.31 87.38h-6.51l4.7 13.77.72.21 51-79.84-75.62 27.46 10.65 31.45h15.06zm96.06-98.76h-10.73v8.22h9a22.53 22.53 0 001.73-8.22zM253.31 431.9l-2.9-.94 9.59-29.75a56.86 56.86 0 00-16-2.29c-1.72 0-3.41.08-5.09.23l3.62 31.06-3 .35-3.62-31.06a56.61 56.61 0 00-20.07 6.89L232 433.12l-2.61 1.58-16.23-26.7a57.58 57.58 0 00-15.4 14.57l25.78 17.65-1.73 2.52L196 425.06a56.42 56.42 0 00-8 19.7l30.8 5.29-.51 3-30.81-5.29a57.28 57.28 0 00.9 21.18l30.25-7.9.78 2.95-30.26 7.89a56.83 56.83 0 009.65 18.93l24.2-19.76 1.93 2.36-24.18 19.77a57.35 57.35 0 0016.57 13.21l13.87-28 2.73 1.35-13.87 28a56.54 56.54 0 0020.62 5.16l.94-31.25 3 .1-.89 31.25h.28a56.83 56.83 0 0020.6-3.85l-12-28.85 2.81-1.17 12 28.84a57.4 57.4 0 0017.41-12.21l-23-21.17 2.07-2.25 23 21.18a57.27 57.27 0 0010.77-18.19l-52.39-11.43a9.63 9.63 0 01-1.43.11 9.8 9.8 0 010-19.59 9.65 9.65 0 013.92.82L280.25 412a57.09 57.09 0 00-17.37-9.83zm53.2 19.32l6.87.52-16-47.31-8.05 8.23a62.54 62.54 0 0117.18 38.56zm107.63-122.46h10.74v7.43h-10.74z"/><path class="cls-10" d="M296.24 433.15l-28.63 12.18-1.19-2.8 28.52-12.14a57.45 57.45 0 00-9.61-13.66l-29.88 30.56 45.32 3.48a56.82 56.82 0 00-4.53-17.62zM424.27 459a3.38 3.38 0 01-1.28.24 3.48 3.48 0 01-3.23-2.19l-20.95-52.86a57.45 57.45 0 00-13.65 8.94l21.23 22.9-2.23 2.07-21.24-22.89a57.21 57.21 0 00-12.16 17.44l28.87 12-1.16 2.82-28.88-12a56.81 56.81 0 00-3.8 20.46v.41l31.21-1.02.1 3-31.23 1.06A56.77 56.77 0 00371.1 480l28-13.92 1.36 2.73-28 13.92a57.25 57.25 0 0013.27 16.54L405.41 475l2.37 1.92-19.67 24.25a56.86 56.86 0 0018.89 9.6l7.89-30.25 2.95.77-7.84 30.25a56.78 56.78 0 0012.83 1.46 58 58 0 008.39-.62l-5.45-30.78 3-.53 5.45 30.78a56.61 56.61 0 0019.6-8l-17.66-25.78 2.51-1.72 17.66 25.77a57.4 57.4 0 0014.57-15.47l-26.79-16.06 1.57-2.61 26.8 16.02a56.54 56.54 0 006.83-20l-31.05-3.59.35-3 31.05 3.58c.14-1.64.22-3.29.22-5a56.52 56.52 0 00-2.35-16.18l-29.72 9.69-.94-2.9 29.72-9.69a57.12 57.12 0 00-10.7-18.29l-23.05 21.07-2-2.25 23-21.06a57.14 57.14 0 00-17.35-12.29l-12.16 28.79-2.81-1.18 12.17-28.8a56.63 56.63 0 00-20.84-3.95l.83 31.24-3.05.08-.84-31.27a56.61 56.61 0 00-14.51 2.69l20.94 52.84a3.47 3.47 0 01-1.95 4.47zm-23.15-130.24h9.86v7.43h-9.86zM301 456v-1.36l-48-3.7a8.85 8.85 0 01.37 1.27l47.52 7.22c.11-1.17.11-2.32.11-3.43zm-48.67 3a9.76 9.76 0 01-1.66 2.17l48.12 10.5a54.05 54.05 0 001.27-5.42zm169.2-108.27h-7.39v7.45a23 23 0 007.39-7.45zM306.54 460.25l2.61.39a15.2 15.2 0 013.59-5.14l-6.06-.47v.93q.01 2.16-.14 4.29zm-.85 6.9c-.35 2-.8 3.89-1.33 5.78l5.64 1.23a15.08 15.08 0 01-2-6.66z"/><path class="cls-11" d="M266.42 442.53l1.19 2.8 28.63-12.18c-.41-.94-.85-1.86-1.3-2.76zm-13.11-10.63l9.57-29.75c-.95-.34-1.92-.65-2.9-.94L250.41 431zm-10.82-1.69l-3.62-31.06c-1 .09-2 .21-3 .35l3.62 31.06zm-10.56 2.91l-16.16-26.73c-.89.51-1.76 1-2.61 1.58l16.16 26.73zm-8.39 7.07l-25.78-17.65c-.59.82-1.17 1.66-1.72 2.52l25.77 17.65zm-4.71 9.86L188 444.76c-.2 1-.37 2-.52 3l30.81 5.29zm-.17 10.95l-30.25 7.9c.23 1 .49 2 .77 2.94l30.26-7.84zm4.34 10.05l-24.18 19.76c.63.81 1.27 1.6 1.93 2.37l24.18-19.77zm8.2 7.35l-13.87 28c.89.48 1.8.93 2.73 1.36l13.87-28zm10.42 3.26l-.94 31.25c1 .06 2 .09 3 .09l.94-31.24zm10.91-1.35l12 28.85c.95-.37 1.89-.76 2.81-1.18l-12-28.84zm9.29-5.71l23 21.17c.71-.73 1.4-1.47 2.07-2.24l-23-21.18zm144.57-38.53l-21.23-22.9c-.77.68-1.51 1.37-2.24 2.08l21.24 22.89zm-6.76 8.59l-28.87-12c-.42.92-.81 1.86-1.17 2.81l28.88 12zM397 455.32l-31.23 1.05c0 1 0 2 .1 3.05l31.23-1.06zm2.1 10.75l-28 13.93c.43.92.89 1.83 1.37 2.73l28-13.92zm6.31 8.93l-19.67 24.24c.77.67 1.56 1.31 2.37 1.93l19.67-24.25zm9.5 5.52L407 510.77c1 .29 2 .54 3 .77l7.89-30.25zm10.86 1.09l5.45 30.78c1-.15 2-.32 3-.53l-5.45-30.78zm10.4-3.56l17.66 25.78c.86-.56 1.69-1.13 2.51-1.73l-17.66-25.77zm7.95-7.48l26.79 16.06c.55-.85 1.07-1.72 1.57-2.61L445.69 468zm4.14-10.2l31.05 3.63c.14-1 .26-2 .35-3l-31.05-3.58zm-.45-10.9l29.72-9.69c-.29-1-.6-1.95-.94-2.9l-29.72 9.69zm-4.97-9.81l23.05-21.07c-.66-.76-1.35-1.51-2.06-2.24l-23 21.06zm-8.52-6.81l12.16-28.79c-.92-.42-1.85-.82-2.8-1.19l-12.17 28.8zm-10.65-2.69l-.83-31.24c-1 0-2 0-3 .08l.83 31.24z"/><path class="cls-12" d="M297.62 475.34a57.27 57.27 0 01-10.77 18.19c-.67.77-1.36 1.51-2.07 2.24A57.4 57.4 0 01267.37 508c-.92.42-1.86.81-2.81 1.18A56.83 56.83 0 01244 513h-.24c-1 0-2 0-3-.09a56.54 56.54 0 01-20.62-5.16c-.93-.43-1.84-.88-2.73-1.36a57.35 57.35 0 01-16.57-13.21c-.66-.77-1.3-1.56-1.93-2.37a56.83 56.83 0 01-9.65-18.93c-.28-1-.54-1.95-.77-2.94a57.28 57.28 0 01-.9-21.18c.15-1 .32-2 .52-3a56.42 56.42 0 018-19.7c.55-.86 1.13-1.7 1.72-2.52A57.58 57.58 0 01213.16 408c.85-.55 1.72-1.07 2.61-1.58a56.61 56.61 0 0120.07-6.89 57.09 57.09 0 018.09-.58 56.86 56.86 0 0116 2.29c1 .29 1.95.6 2.9.94a57.09 57.09 0 0117.42 9.82l4-4.07a62.71 62.71 0 1019 68.65zm3.28-15.95l5.64.86q.15-2.13.15-4.29v-.93l-5.69-.43v1.36c0 1.15 0 2.3-.1 3.43z"/><path class="cls-12" d="M300.06 466.29a54.05 54.05 0 01-1.27 5.42l5.57 1.22c.53-1.89 1-3.82 1.33-5.78zm-3.82-33.14a56.82 56.82 0 014.53 17.62l5.74.45a62.54 62.54 0 00-17.2-38.56l-4 4.07a57.45 57.45 0 019.61 13.66c.47.9.91 1.82 1.32 2.76zM485.56 456a62.72 62.72 0 00-82.38-59.57l2.1 5.3a56.61 56.61 0 0114.51-2.73c1-.05 2-.08 3-.08a56.63 56.63 0 0120.84 3.95c.95.37 1.88.77 2.8 1.19a57.14 57.14 0 0117.35 12.29c.71.73 1.4 1.48 2.06 2.24a57.12 57.12 0 0110.7 18.29c.34.95.65 1.92.94 2.9a56.52 56.52 0 012.4 16.22c0 1.68-.08 3.33-.22 5-.09 1-.21 2-.35 3a56.54 56.54 0 01-6.83 20c-.5.89-1 1.76-1.57 2.61a57.4 57.4 0 01-14.57 15.47c-.82.6-1.65 1.17-2.51 1.73a56.61 56.61 0 01-19.6 8c-1 .21-2 .38-3 .53a58 58 0 01-8.39.62 56.78 56.78 0 01-12.84-1.42c-1-.23-2-.48-3-.77a56.86 56.86 0 01-18.91-9.58c-.81-.62-1.6-1.26-2.37-1.93a57.25 57.25 0 01-13.27-16.54c-.48-.9-.94-1.81-1.37-2.73a56.77 56.77 0 01-5.2-20.57c-.06-1-.1-2-.1-3.05v-.41a56.81 56.81 0 013.8-20.46c.36-.95.75-1.89 1.17-2.81a57.21 57.21 0 0112.16-17.44c.73-.71 1.47-1.4 2.24-2.08a57.45 57.45 0 0113.65-8.94l-2.1-5.29a62.73 62.73 0 1088.85 57z"/><path class="cls-13" d="M305.69 467.15l2.3.35v-.95a15.14 15.14 0 011.19-5.91l-2.61-.39-5.64-.86-47.52-7.22a9.93 9.93 0 01.22 2.06 9.67 9.67 0 01-1.27 4.81l47.73 7.25z"/><path class="cls-12" d="M327 451.88l-4.7-13.77h6.51v-6.95h-15.06l6.91 20.42a15.28 15.28 0 016.34.3z"/><path class="cls-12" d="M327 451.88a15.18 15.18 0 00-8.59.25l-5-.39-6.87-.52-5.74-.45-45.32-3.48-5.17-.4a9.81 9.81 0 00-2.56-1.64 9.65 9.65 0 00-3.92-.82 9.8 9.8 0 000 19.59 9.63 9.63 0 001.43-.11l52.39 11.43 5.6 1.22 11.24 2.44a15.09 15.09 0 008.64 2.7c.43 0 .85 0 1.28-.06l-4.89-14.3 6.58-2.25 4.92 14.4a15.18 15.18 0 00-3.3-27.42zm-22.64 21.05l-5.57-1.22-48.12-10.5a9.84 9.84 0 002.93-7 9.93 9.93 0 00-.22-2.06 8.85 8.85 0 00-.37-1.27l48 3.7 5.69.43 6.06.47a15.07 15.07 0 00-4.76 11.07v.95a15.08 15.08 0 002 6.66z"/><path class="cls-12" d="M326.1 465.11l-6.58 2.25 4.88 14.3 2.4 7.01h-6.52v6.96h22.12v-6.96h-8.25l-3.13-9.16-4.92-14.4z"/><path d="M288.65 321c.26-.19.49-.31.74-.46s.48-.26.71-.36l.69-.3.67-.25A12.1 12.1 0 01294 319a11.79 11.79 0 014.66.49l4.42 1.28 4.41 1.33q8.81 2.72 17.47 5.85l4.33 1.58 4.31 1.64c2.88 1.08 5.75 2.2 8.62 3.31l8.62 3.32 8.63 3.28 1.85.7a12.89 12.89 0 016.69 18.3L358.13 378c-3.34 5.93-6.65 11.88-10 17.79l-5.13 8.86-5.1 8.86c-3.43 5.89-6.86 11.79-10.38 17.64a7 7 0 01-12.52-5.84c2.19-6.47 4.47-12.89 6.75-19.31l3.47-9.62 3.5-9.6c2.33-6.4 4.74-12.77 7.11-19.15l7.22-19.1 8.54 19-9-2-9-2c-3-.66-6-1.3-9-2l-4.51-1-4.48-1.06q-9-2.16-17.81-4.74l-4.41-1.31-4.4-1.36a11.88 11.88 0 01-4.15-2.16 11.74 11.74 0 01-1.84-1.88l-.43-.57c-.14-.21-.28-.41-.41-.63s-.27-.45-.4-.69-.25-.5-.36-.8a21 21 0 017.26-24.33z" fill="url(#Безымянный_градиент_2-2)"/><path class="cls-12" d="M306.89 354.25a5.21 5.21 0 00-2.65-9.69h-34.69a5.2 5.2 0 00-5.2 5.21v20.5a5.2 5.2 0 007.84 4.48l12.6-7.45 6.12-3.61z"/><path class="cls-11" d="M390.16 363.53l.5 1.26h11.44a26 26 0 0023.32-14.59 1.52 1.52 0 00.39-.85 25.62 25.62 0 002.24-10.51v-.13a1.58 1.58 0 000-1.88V325.6H387v37.93zm24-34.77h10.75v7.43h-10.77zm0 10.59h10.73a22.53 22.53 0 01-1.72 8.22h-9zm0 11.38h7.39a23 23 0 01-7.39 7.45zm-13-22H411v7.43h-9.86zm0 10.59H411v8.22h-9.86zm0 11.38H411v9.09a22.53 22.53 0 01-8.89 1.81h-1zm-11-22H398v7.43h-7.84zm0 10.59H398v8.22h-7.84zm0 11.38H398v10.9h-7.84z"/><path class="cls-13" d="M426.22 454.53l-20.94-52.84-2.1-5.3-12.52-31.6v-42.88h-7.39v41.32l-82.38 29.89-10-29.43-6.12 3.61 10.09 29.7-10.63 10.87-4 4.07-32.53 33.27a9.81 9.81 0 012.56 1.64l5.17.4 29.88-30.56 4-4.07 8.05-8.23 16 47.31 5 .39a15.39 15.39 0 012.25-.55l-6.91-20.42-10.6-31.41 75.65-27.46-51 79.84a15.15 15.15 0 016 3.58l52.78-82.58 10.24 25.85 2.1 5.29 20.95 52.86a3.48 3.48 0 003.23 2.19 3.38 3.38 0 001.28-.24 3.47 3.47 0 001.89-4.51z"/><path class="cls-12" d="M400.05 325.6h-41a3.7 3.7 0 010-7.39h41a3.7 3.7 0 010 7.39z"/><path class="cls-19" d="M309.22 245.16a11 11 0 012.14.55 14.19 14.19 0 019.27 14c-.42 10.78-1.61 21.48-.95 32.3-4.72 3-9.43 5.66-14.09 9-1.83 10.15-2.94 22.65-1.33 32.43s-9.19 15.61-14.55 16.92-2.22-.1-2.17.65c-10.85-3.86-16.25-4.57-16.6-18.3-.71-28.3 6.14-53.12 18.56-78.63 5.15-10.65 9.41-10.42 19.72-8.92z"/><rect class="cls-15" x="304.91" y="223.14" width="13.1" height="29.23" rx="6.38" transform="rotate(-169.13 311.467 237.754)"/><path class="cls-16" d="M312.1 203.51l21 7.93.18 11.7v.64a13.53 13.53 0 010 1.56l-.09.8a14.33 14.33 0 01-.49 2.43 13.68 13.68 0 01-11.48 9.63h-.15a18.13 18.13 0 01-9-34.71z"/><path class="cls-17" d="M312.63 199.05h.17l7.78-.06a26.09 26.09 0 0119.42 8.43l-22.36 12.93a5.27 5.27 0 00-6.07-4.36 5.18 5.18 0 00-4.31 4.19 5.28 5.28 0 00.86 4l.11 10.42a18.1 18.1 0 014.4-35.59z"/><path class="cls-17" d="M277.05 246c2.79-7.42 6.26-17.41 8.83-24.32 4.25-11.46 13.23-16.24 24.63-14.39-6.32-1.12-2.12-1.15-10.18-2.56-8.07-1.41-20.75 2.69-23.75 14-1.81 6.84-6.26 16.61-8.47 23.92a88.6 88.6 0 008.94 3.35z"/><path class="cls-16" d="M362.38 308.6c-3-2.5-6-5-9-7.44l-4.57-3.76-4.6-3.72a467.94 467.94 0 00-8.23-6.47l-11.57-18.14c-2-3.16-4.08-6.31-6.06-9.51s-4-6.39-5.88-9.62a9.8 9.8 0 00-.58-.85 8.57 8.57 0 00-13.58 10.47q3.45 4.47 6.8 9c2.25 3 4.42 6.08 6.61 9.13L325 296l.2.28a6.33 6.33 0 001.42 1.41c3.2 2.3 6.44 4.54 9.7 6.76l4.9 3.31 4.93 3.27c2.76 1.83 5.51 3.65 8.28 5.46l3.32 8.21a13 13 0 0014.82 7.84l3-.66a3.79 3.79 0 002.32-5.85l-4.5-6.56a7.79 7.79 0 000-1.08 7.49 7.49 0 00-1.35-4 8.12 8.12 0 00-.69-.86c-.12-.14-.27-.26-.4-.39l-.42-.37c-.15-.11-.3-.22-.46-.32l-.23-.16h-.06l-.36-.27a13.65 13.65 0 01-1.39-1.27l-.66-.73-.32-.39-.35-.44"/><path class="cls-11" d="M340.43 386.09l-1.1-1.53-6-8.32-5.92-8.34c-2-2.78-3.93-5.57-5.93-8.33l-3-4.16-3-4.12q-5.41-7.32-11.11-14.43v-.67a11.77 11.77 0 00-.12-2.82 70.71 70.71 0 01-.75-12.84l-32.19-3.45v.24l-.25-.12-4 21.17c0 .24 0 .47-.07.71s0 .57 0 .84v.8l.07.77a13.69 13.69 0 00.64 2.77 14.13 14.13 0 002.56 4.5l3.2 4 3.24 4q6.51 7.84 13.38 15.42l3.45 3.77 3.48 3.74c2.32 2.5 4.67 5 7 7.46l7 7.44 3.81 4.09-.19 13.47c-.05 6.68-.15 13.36-.15 20.05v20c0 6.69.08 13.38.23 20.07a7 7 0 0013.82 1.23c1.31-6.57 2.53-13.15 3.75-19.73l1.78-9.87 1.73-9.88c1.17-6.58 2.25-13.17 3.37-19.76l3.24-19.77a11.35 11.35 0 00-1.97-8.4z"/><path class="cls-19" d="M330.33 464.09l-17.6 12.4-1.83 8.36 34.44 7.56a5.8 5.8 0 006.92-4.43l-21.85-15.74a4.31 4.31 0 001.31-6z"/><path class="cls-9" transform="rotate(-54.12 337.809 481.968)" d="M336.5 469.97h2.55v23.95h-2.55z"/><path d="M9.75 402.9L54 325.39c26.5-46.37 97.3-27.56 97.3 25.84v77.51a52.08 52.08 0 01-52.08 52.08H55c-40 0-65.09-43.2-45.25-77.92z" fill="url(#Безымянный_градиент_20-2)"/><path d="M164.41 267.53v-81.39c0-59.12-78.37-79.94-107.7-28.61l-49 85.79c-22 38.44 5.79 86.26 50.06 86.26h49.75L84 370.67c-19.84 34.72 5.23 77.92 45.22 77.92h44.29a52.08 52.08 0 0052.08-52.08V319c.02-36-32.11-56.24-61.18-51.47z" fill="url(#Безымянный_градиент_19-3)"/><path class="cls-3" d="M147.14 356.4l-38.19 38.19V182.34h-4.9v97.61l-40.99-40.99v6.94l40.99 40.99v297.63h4.9V401.53l38.19-38.19v-6.94z"/><rect x="277.35" y="546.05" width="603.71" height="113.33" rx="55.18" fill="url(#Безымянный_градиент_19-4)"/><rect class="cls-23" x="78.52" y="566.65" width="393.17" height="113.33" rx="55.18"/><rect class="cls-23" x="537.47" y="575.37" width="257.47" height="113.33" rx="55.18"/></g></g></svg>