<svg xmlns="http://www.w3.org/2000/svg" width="49" height="67"><defs><linearGradient id="a" x1="1.57" x2="28.57" y1="39.85" y2="39.37" gradientUnits="userSpaceOnUse"><stop offset="0" stop-color="#29353b"/><stop offset="1"/></linearGradient><linearGradient id="b" x1="45.64" x2="42.64" y1="9.67" y2="11.08" gradientUnits="userSpaceOnUse"><stop offset="0" stop-color="#e29b92"/><stop offset="1" stop-color="#f5b0a8"/></linearGradient></defs><path fill="#eeb5ac" d="M31.028 11.831c.647.487 1.301.963 1.958 1.437.654.475 1.32.933 1.984 1.395l3.97 2.788-2.124.309a86.066 86.066 0 011.636-1.817l.833-.895.842-.888c.562-.591 1.123-1.183 1.691-1.769.566-.588 1.136-1.173 1.712-1.752a1.09 1.09 0 011.66 1.402c-.476.664-.957 1.324-1.442 1.98-.483.659-.973 1.31-1.462 1.963l-.735.978-.744.972a86.02 86.02 0 01-1.518 1.916 1.59 1.59 0 01-2.059.349l-.065-.04-4.14-2.532c-.687-.425-1.373-.854-2.07-1.265-.695-.413-1.392-.824-2.096-1.224a1.982 1.982 0 112.169-3.307z"/><path fill="#8dc603" d="M32.986 13.268c-.657-.474-1.311-.95-1.958-1.437a82.005 82.005 0 01-.576-.442 4.967 4.967 0 00-.989.081l-1.103 3.266c.14.156.306.293.499.402.704.4 1.401.81 2.096 1.224.673.397 1.334.81 1.998 1.22l.06.017 1.29-3.4a80.79 80.79 0 01-1.317-.931z"/><path fill="url(#a)" d="M28.103 31.742c.037.063.06.12.09.18.026.056.05.113.07.169.022.056.036.109.054.164l.043.159a2.638 2.638 0 01-.134 1.649l-.386.978-.396.975a86.909 86.909 0 01-1.702 3.852l-.454.952-.464.947c-.307.633-.625 1.261-.937 1.891l-.942 1.89-.93 1.894-.218.443a2.734 2.734 0 01-2.34 1.524l-4.06.164c-1.356.044-2.71.099-4.066.133l-2.034.056-2.036.045c-1.358.022-2.715.046-4.076.046a1.615 1.615 0 01-.399-3.18c1.319-.337 2.64-.649 3.962-.962l1.983-.459 1.985-.448c1.323-.301 2.649-.583 3.973-.874l3.976-.844-2.557 1.967.648-2.008.637-2.013c.213-.67.422-1.343.64-2.011l.326-1.004.335-.999c.454-1.33.938-2.648 1.454-3.952l.393-.977.403-.972a2.638 2.638 0 011.05-1.278l.141-.085c.051-.026.099-.054.154-.08.052-.025.109-.05.167-.074.063-.021.119-.046.19-.065a4.899 4.899 0 015.457 2.207z"/><path fill="#a4e603" d="M30.452 19.36v-7.97h-8.047v1.004c-.466.468-.652 1.137-.48 2.194.952 5.889.497 10.592-1.087 16.195-.788 2.791.374 4.446 3.037 4.936 2.662.491 3.98-.247 4.88-3.3 1.224-4.157 1.79-8.26 1.713-12.478-.003-.193-.01-.387-.016-.58z"/><path fill="#dea095" d="M26.499 12.603a1.518 1.518 0 001.5-1.526l-.032-3.726a1.518 1.518 0 00-1.526-1.5 1.518 1.518 0 00-1.5 1.526l.031 3.726a1.518 1.518 0 001.527 1.5z"/><path fill="#eeb5ac" d="M25.803 1.373l4.846 1.865.023 2.704.01.146c.005.122.003.242-.005.361l-.023.185a3.165 3.165 0 01-2.783 2.77l-.035.004a4.19 4.19 0 01-4.607-3.943c-.1-1.796.976-3.423 2.574-4.092z"/><path fill="#664a46" d="M25.933.343h.04l6.255-.054-2.096 1.89 2.113.14a18.207 18.207 0 01-4.73 2.773l-.457.182a1.218 1.218 0 10-2.206.879l.01 2.408A4.185 4.185 0 0125.934.343z"/><path fill="#eeb5ac" d="M17.105 41.941l-.35 1.104-.154.48-1.912.405c-1.324.291-2.65.572-3.973.874l-1.985.448-1.983.459c-1.322.313-2.643.625-3.962.961a1.615 1.615 0 00.399 3.18c1.36.001 2.718-.023 4.076-.045l2.036-.045 2.034-.056c1.356-.034 2.71-.089 4.065-.133l4.062-.164a2.734 2.734 0 002.34-1.524l.217-.443.857-1.745zm6.581-26.825c-.718.375-1.43.76-2.139 1.15-.71.387-1.41.791-2.113 1.191l-4.225 2.386.635-2.05c.325.747.633 1.5.937 2.257l.45 1.138.44 1.141c.292.762.586 1.523.87 2.288.287.764.57 1.53.846 2.299a1.09 1.09 0 01-1.98.896c-.396-.715-.784-1.433-1.168-2.154-.387-.718-.765-1.441-1.143-2.164l-.567-1.084-.558-1.089a85.792 85.792 0 01-1.077-2.194 1.59 1.59 0 01.57-2.01l.065-.041 4.065-2.648c.68-.439 1.361-.874 2.032-1.326.673-.45 1.343-.903 2.007-1.367a1.981 1.981 0 112.053 3.38z"/><path fill="#373c41" d="M6.547 50.224L2.734 46.62l-2.085-.035-.143 8.597a1.415 1.415 0 001.392 1.439l2.706-5.981a1.055 1.055 0 001.49.025z"/><path fill="#fff" d="M1.223 54.624l.565.257 2.417-5.317-.565-.257zm22.499-23.317l17.035 31.73"/><path fill="#373c41" d="M42.169 62.28a420.604 420.604 0 00-3.536-8.32l-.905-2.07-.913-2.065c-.606-1.378-1.228-2.747-1.842-4.12l-.922-2.06c-.309-.686-.613-1.374-.915-2.063l-.91-2.066-.461-1.03c-.154-.344-.307-.687-.466-1.028a85.414 85.414 0 00-2.533-5.078c.29-.988.542-1.972.758-2.955l-8.111-.849a52.58 52.58 0 01-.574 2.207c-.359 1.268-.313 2.3.09 3.096a2.591 2.591 0 00.155.76c.065.179.154.343.242.51.347.664.7 1.327 1.062 1.984a85.45 85.45 0 002.275 3.888c.196.32.398.638.599.956l.603.953 1.22 1.9c.407.633.813 1.267 1.214 1.903l1.207 1.907c.805 1.27 1.603 2.546 2.417 3.812l1.216 1.902 1.225 1.897a420.814 420.814 0 004.98 7.545 1.613 1.613 0 002.825-1.517z"/><path fill="#eeb5ac" d="M41.29 64.382a1.611 1.611 0 00.879-2.103 420.223 420.223 0 00-3.536-8.32l-.905-2.07-.913-2.064c-.606-1.378-1.228-2.747-1.842-4.12l-.922-2.06c-.309-.686-.613-1.374-.915-2.063l-.298-.677-5.804 3.846.05.08c.408.632.814 1.266 1.215 1.902l1.207 1.907c.805 1.27 1.603 2.546 2.417 3.812l1.216 1.902 1.225 1.897a420.266 420.266 0 004.98 7.545c.42.618 1.227.88 1.945.586z"/><path fill="#373c41" d="M40.826 59.23l-1.063 5.14 1.067 1.793 7.388-4.398c.672-.4.892-1.269.492-1.94l-6.51.841a1.053 1.053 0 00-.762-1.28z"/><path fill="#fff" d="M48.063 61.104l-.078-.616-5.794.739.079.616z"/><path fill="#eeb5ac" d="M46.69 8.275l-.945-.849-1.074-.144a.804.804 0 00-1.14.555l-.871 4.132 2.08.609 1.757-2.298.521-1.023a.727.727 0 00-.327-.982z"/><path fill="url(#b)" d="M42.643 11.955l.077-.5.018-.115a4.859 4.859 0 00.036-.307 2.675 2.675 0 00-.008-.485l-.001-.012v-.003l-.001-.007-.003-.014-.008-.058a3.175 3.175 0 01-.013-.116c-.002-.039-.002-.078-.002-.116 0-.039-.001-.078.004-.116.008-.076.016-.152.036-.226.068-.294.215-.56.424-.765a1.518 1.518 0 01.866-.43l.054-.008c.017-.002.035-.002.053-.003.071-.002.14-.006.215.003l.11.013.025.003.016.004.031.008.126.03.502.122-.168 1.058-.497-.036-.124-.01-.03-.002-.016-.001-.006.001a.104.104 0 01-.017.006c-.009 0-.024.009-.037.012a.02.02 0 00-.01.002l-.008.006a.109.109 0 01-.016.008.242.242 0 00-.093.104.197.197 0 00-.018.127c-.001.01.006.018.007.025 0 .004.004.008.006.011l.004.01a.057.057 0 01.008.008.05.05 0 01.003.005l.002.006.006.02a4.144 4.144 0 01.149.767 5.045 5.045 0 01.024.45l.002.137.005.508z"/><path fill="#eeb5ac" d="M20.07 31.796l1.152-.324.725-.869a.804.804 0 00.1-1.282l-.83-.726a1.559 1.559 0 00-.468-.982c-.053-.055-.114-.101-.175-.148-.03-.025-.063-.044-.096-.064a2.918 2.918 0 00-.1-.06 3.233 3.233 0 00-.106-.048l-.054-.023-.013-.006-.007-.002-.002-.002-.011-.005a2.584 2.584 0 01-.58-.37 4.486 4.486 0 01-.081-.066l-.089-.075-.387-.328-.012.017-.009-.008-1.603 1.457 1.158 2.935.486.758a.727.727 0 001.002.221z"/><path fill="#a4e603" d="M23.686 15.116a1.981 1.981 0 10-2.052-3.38 123.475 123.475 0 01-3.015 2.03l1.5 3.3a123.485 123.485 0 013.567-1.951z"/></svg>