<svg xmlns="http://www.w3.org/2000/svg" width="108" height="89"><defs><linearGradient id="a" x1="73.17" x2="92.17" y1="20.02" y2="15.75" gradientUnits="userSpaceOnUse"><stop offset="0" stop-color="#f5b0a8"/><stop offset="1" stop-color="#e29b92"/></linearGradient><linearGradient id="b" x1="59.88" x2="88.07" y1="48.34" y2="25.14" gradientUnits="userSpaceOnUse"><stop offset="0" stop-color="#eb556f"/><stop offset="1" stop-color="#c34761"/></linearGradient><linearGradient id="c" x1="77.48" x2="74.48" y1="23.94" y2="23.25" gradientUnits="userSpaceOnUse"><stop offset="0" stop-color="#f5b0a8"/><stop offset="1" stop-color="#e29b92"/></linearGradient><linearGradient id="d" x1=".13" x2="61.13" y1="69.1" y2="69.75" gradientUnits="userSpaceOnUse"><stop offset="0" stop-color="#43a584" stop-opacity="0"/><stop offset="1" stop-color="#43a584"/></linearGradient><linearGradient id="e" x1="37.13" x2="98.13" y1="74.03" y2="73.75" gradientUnits="userSpaceOnUse"><stop offset="0" stop-color="#43a584" stop-opacity="0"/><stop offset="1" stop-color="#43a584"/></linearGradient></defs><path fill="url(#a)" d="M73.699 22.938l1.69-1.804c.173-.746.351-1.49.533-2.232.21-.872.43-1.74.649-2.61l.329-1.303.339-1.3c.23-.866.465-1.73.716-2.59a1.532 1.532 0 011.293-1.09l.066-.009 5.106-.591c.851-.096 1.703-.187 2.553-.297.85-.109 1.7-.22 2.549-.344a1.913 1.913 0 11.33 3.804c-.858.024-1.714.06-2.57.1-.857.037-1.711.094-2.566.147l-4.115.237c-.168.503-.34 1.005-.515 1.505l-.448 1.267-.458 1.264c-.306.842-.611 1.685-.926 2.525-.31.84-.318.96-.641 1.797-.01.024-.053.343-.132.955l-1.904 4.197a.766.766 0 01-1.254.21l-.43-.456a2.63 2.63 0 01-.194-3.382z"/><path fill="url(#b)" d="M83.916 25.158c-.07.006-.128.02-.191.03a2.64 2.64 0 00-.172.043c-.056.015-.106.034-.16.05l-.148.058a2.563 2.563 0 00-1.212 1.042l-.545.858-.536.864a84.232 84.232 0 00-2.043 3.52l-.486.896-.477.901c-.32.6-.63 1.205-.945 1.808l-.941 1.81-.952 1.803 1.544-1.258-4.197 1.905c-1.396.644-2.795 1.279-4.187 1.932l-2.09.976-2.086.986c-1.388.664-2.777 1.327-4.158 2.012a1.556 1.556 0 001.074 2.903c1.494-.378 2.98-.778 4.466-1.176l2.226-.609 2.222-.617c1.483-.41 2.958-.838 4.437-1.257l4.427-1.284a2.41 2.41 0 001.282-.898l.262-.36 1.2-1.648 1.211-1.642c.403-.548.81-1.093 1.207-1.644l.6-.825.59-.83a84.143 84.143 0 002.262-3.384l.54-.862.53-.867a2.567 2.567 0 00.402-1.547l-.014-.159c-.008-.055-.013-.108-.025-.165a2.57 2.57 0 00-.037-.173c-.019-.062-.031-.12-.056-.185a4.728 4.728 0 00-4.824-3.007z"/><path fill="#ff9e1b" d="M83.861 31.351c1.018.598.237.146.237.146 2.266.301 4.197.088 5.003-2.551 1.63-5.336 3.719-10.425 6.454-15.397.906-1.648.092-2.627-1.115-3.52-.518-.383-1.511-.887-2.195-1.109-1.67-.542-2.723-.498-3.747 1.308-2.925 5.157-4.914 10.761-6.798 16.175-.939 2.698 1.135 4.344 2.161 4.948z"/><path fill="#dea095" d="M93.2 11.202c.637.49 1.56.371 2.05-.265l2.197-2.85a1.467 1.467 0 00-.265-2.05 1.466 1.466 0 00-2.05.265l-2.197 2.85c-.49.637-.371 1.56.265 2.05z"/><path fill="#eeb5ac" d="M99.365 2.255l2.57 4.306-1.593 2.068-.081.116a3.094 3.094 0 01-.218.272l-.128.127c-.131.13-.27.252-.422.356a3.056 3.056 0 01-3.343.089l-.029-.018a4.045 4.045 0 01-1.15-5.74 4.062 4.062 0 014.394-1.576z"/><path fill="#623c34" d="M100.078 1.55l.03.025h.001l4.783 3.687-2.718.186 1.521 1.367A17.586 17.586 0 0198.45 6.1l-.456-.134a1.176 1.176 0 10-2.199-.647l-1.427 1.836a4.04 4.04 0 015.712-5.605z"/><path fill="#373c41" d="M63.552 48.615l-3.789-3.365-2.013.03.12 8.301a1.366 1.366 0 001.387 1.346l2.432-5.853a1.017 1.017 0 001.438-.02z"/><path fill="#fff" d="M58.498 53.77l.553.23 2.173-5.204-.553-.23z"/><path fill="url(#c)" d="M77.495 22.385l-.168.464-.038.106a3.732 3.732 0 00-.092.287 2.595 2.595 0 00-.083.464v.012l-.001.003v.006l-.001.014-.003.057a3.41 3.41 0 01-.009.113 2.905 2.905 0 01-.02.112c-.007.037-.013.074-.025.11-.023.07-.044.142-.076.208a1.52 1.52 0 01-.548.652 1.476 1.476 0 01-.908.25l-.052-.004c-.017-.001-.034-.004-.052-.007-.068-.011-.134-.02-.204-.043a2.957 2.957 0 01-.103-.032l-.023-.008-.015-.007-.028-.013-.115-.052-.456-.21.358-.98.467.128.117.032.029.008.014.004h.006a.104.104 0 01.017-.003c.01.002.025-.003.038-.004h.01l.008-.004a.117.117 0 01.018-.005.236.236 0 00.108-.082.194.194 0 00.041-.118c.003-.008-.003-.018-.002-.025 0-.004-.003-.008-.004-.011a.041.041 0 01-.002-.01.054.054 0 01-.006-.01l-.002-.005v-.007l-.003-.02a4.028 4.028 0 010-.76 4.95 4.95 0 01.062-.434l.024-.131.09-.486z"/><path fill="#eeb5ac" d="M89.49 10.432c.928-.534 2.13-.166 2.65.771.403.73.817 1.453 1.233 2.175.422.736.86 1.46 1.295 2.188l1.605 2.708.552-.526 1.016-.953 1.022-.946c.682-.63 1.364-1.261 2.052-1.885a209.75 209.75 0 012.07-1.867c.015-.013.018-.053.013-.106a1 1 0 01.258-.775l.08-.08a4.39 4.39 0 00.205-.22 2.587 2.587 0 00.273-.384l.006-.01.002-.002.003-.006.006-.013.027-.05a3.23 3.23 0 01.057-.099l.065-.092c.023-.03.044-.06.07-.088.05-.055.1-.11.158-.156a1.527 1.527 0 01.99-.373l1.227-1.04a.766.766 0 011.224.345l.194.596a2.63 2.63 0 01-1.268 3.141l-2.218 1.029c-.563.656-1.13 1.31-1.7 1.958-.611.7-1.229 1.394-1.846 2.088l-.926 1.04-.934 1.034c-.625.686-1.255 1.368-1.896 2.038a1.547 1.547 0 01-2.4-.205l-.037-.054-2.843-4.217c-.47-.705-.938-1.411-1.422-2.108a138.67 138.67 0 00-1.462-2.082 1.912 1.912 0 01.599-2.773z"/><path fill="#db4f69" d="M82.412 24.37c.141-.402.285-.805.429-1.208l7.23 2.795-.128.38c.633.22 1.265.445 1.894.677l1.062.396 1.06.407c.706.27 1.41.549 2.115.823l2.114.827 2.117.816.4.154a2.801 2.801 0 011.73 3.201l-.927 4.321c-.319 1.44-.628 2.88-.957 4.318l-.489 2.157-.5 2.155c-.34 1.436-.678 2.873-1.04 4.306a1.559 1.559 0 01-1.567 1.175c-.86-.032-1.52-.775-1.499-1.636.038-1.464.099-2.926.158-4.387l.1-2.21.11-2.21c.072-1.473.163-2.943.243-4.415l.1-1.614-2.112-.502c-.735-.176-1.473-.347-2.207-.528l-1.102-.269-1.1-.28a104.223 104.223 0 01-4.36-1.227l-1.082-.336-1.078-.347a3.055 3.055 0 01-1.478-.962l-.107-.133c-.034-.05-.07-.094-.102-.146a2.974 2.974 0 01-.099-.16c-.03-.06-.063-.113-.091-.181a4.425 4.425 0 01.085-3.596 27.07 27.07 0 001.078-2.56z"/><path fill="#373c41" d="M100.27 50.833l-4.87-1.4-1.803.895 3.692 7.437a1.366 1.366 0 001.831.616l-.332-6.33c.532.18 1.11-.107 1.288-.64z"/><path fill="#fff" d="M97.936 57.664l.599-.03L98.249 52l-.599.03z"/><path fill="url(#d)" d="M14.214 85.098L61 53.75.129 82.902c4.627.797 9.324 1.528 14.085 2.196z"/><path fill="url(#e)" d="M52.554 89.033L97.75 58.75 37.134 87.78c5.087.482 10.23.9 15.42 1.253z"/></svg>