<svg xmlns="http://www.w3.org/2000/svg" width="83" height="88"><defs><linearGradient id="a" x1="47.54" x2="62.77" y1="53.32" y2="27.11" gradientUnits="userSpaceOnUse"><stop offset="0" stop-color="#29353b"/><stop offset="1"/></linearGradient><linearGradient id="b" x1=".5" x2="42.5" y1="73.89" y2="73.75" gradientUnits="userSpaceOnUse"><stop offset="0" stop-color="#43a584" stop-opacity="0"/><stop offset="1" stop-color="#43a584"/></linearGradient></defs><path fill="url(#a)" d="M40.765 51.364a38.095 38.095 0 009.758-6.792l.106-.102 4.969-.252 6.032-10.409 3.827-6.7 2.447.191a3.47 3.47 0 011.167 4.683c-.684 1.18-1.75 2.263-2.606 3.324a157.951 157.951 0 01-2.748 3.317c-1.178 1.383-2.413 2.714-3.638 4.054-1.074 1.174-2.012 2.403-3.355 3.296-1.613 1.073-3.45 1.714-5.182 2.555-1.946.945-3.883 1.907-5.83 2.85l-3.999 1.94z"/><path fill="#a4e603" d="M65.382 25.824c1.106-2.487 1.462-4.442 1.597-7.205.071-1.473-.043-3.842.045-5.449.09-1.638 1.011-2.319 2.604-2.231.82.044 1.922.33 2.786.416a267.178 267.178 0 012.972 7.828c-1.024.938-1.983 1.684-3.033 2.763-.643 3.173-2.006 7.795-2.949 10.479-.943 2.683-1.367 1.359-2.893 1.702-.661.148-1.46-.45-2.03-.637-1.464-.484-1.988-1.702-1.361-3.137.615-1.407 1.672-3.203 2.262-4.53z"/><path fill="#dea095" d="M70.368 12.576a1.385 1.385 0 001.366-1.396l-.045-4.106c-.008-.76-.628-.666-1.388-.658l-.007-.707a1.385 1.385 0 00-1.366 1.395l.045 4.106c.008.76.636 1.374 1.395 1.366z"/><path fill="#eeb5ac" d="M71.338.816c.058 0 .116.003.173.007l.099.008.073.006c.044.005.089.012.133.019l.035.004c.052.009.103.019.154.03l.012.001A3.361 3.361 0 0174.26 2.52l.05 5.658a1.24 1.24 0 01-1.244 1.256h-.013c-1.954-.026-3.592-1.284-4.121-2.995a3.402 3.402 0 01-.33-.363c-.002 0-.003-.003-.004-.004a3.09 3.09 0 01-.093-.125l-.006-.008a3.48 3.48 0 01-.084-.126l-.008-.012a3.26 3.26 0 01-.075-.126l-.01-.017a3.424 3.424 0 01-.066-.124l-.012-.023a3.257 3.257 0 01-.118-.27l-.014-.035a3.305 3.305 0 01-.04-.117l-.014-.04a3.166 3.166 0 01-.033-.115l-.013-.045a3.438 3.438 0 01-.026-.113l-.011-.05a2.155 2.155 0 01-.02-.111l-.01-.055-.013-.11-.006-.057c-.004-.04-.006-.08-.008-.12l-.004-.05a3.179 3.179 0 01-.002-.172c.023-1.811 1.557-3.26 3.426-3.235z"/><path fill="#a4e603" d="M44.272 52.75l-3.024-1.736-1.863.383 1.582 7.682a1.29 1.29 0 001.524 1.004z"/><path fill="#fff" d="M41.582 59.143l.554.116 1.095-5.213-.554-.117z"/><path fill="#623c34" d="M67.787 1.207a3.26 3.26 0 011.146-.87c1.422-.655 3.288-.38 4.602.386l.125.075c1.299.806 2.075 2.24 2.094 3.768l.02 1.575-2.47-2.416a3.76 3.76 0 01-1.072 2.671l-.312.318-.018-1.678a.99.99 0 10-1.06 1.294l-1.394 1.423a308.373 308.373 0 01-1.994-2.5c-.63-1.3-.626-2.902.333-4.046z"/><path fill="#623c34" d="M57.495 5.286c1.807-.533 4.222-1.243 5.855-1.88 2.705-1.055 4.581-.963 6.318 1.34-.015.006-.015.006 0 0-.38-.578-.724-1.17-1.094-1.753l.011-.005c-1.6-2.107-3.564-2.42-6.112-1.423-1.538.6-3.837 1.234-5.533 1.767.153.667.338 1.323.555 1.954z"/><path fill="#373c41" d="M64.395 27.803c.2-.38.395-.755.574-1.113 1.306.364 3.586 1.132 5.495 2.47-.197.646-.503 1.326-.612 1.99.96.378 1.887 1.11 2.745 1.68a52.3 52.3 0 015.849 4.516c.953.85 2.1 1.697 2.549 2.938.139.385-.063.795-.203 1.15-.31.785-.608 1.573-.895 2.366-1.323 3.652-2.417 7.386-3.664 11.064l-.571 1.73-2.063-.682A38.097 38.097 0 0075.52 44.18l.001-.147c.878-1 1.324-1.587 2.194-2.594-.246.278-2.2-2.532-11.611-4.956-.966-.249-3.328-1.487-4.107-3.399-.728-1.787.07-3.548 2.397-5.281z"/><path fill="#eeb5ac" d="M51.11 24.864c.06-.551.199-.679.3-1.015a3.33 3.33 0 01.25-.598c.077-.144.14-.355.218-.486.17-.283.308-.584.434-.888.308-.742.684-1.467 1.012-2.193.467-1.031.968-2.102 1.608-3.06.335-.503.711-.973 1.126-1.411.362-.382.6-1.035 1.167-1.164l9.699-2.211a1.454 1.454 0 011.7 1.12 1.546 1.546 0 01-1.321 1.86l-9.067.835-1.318 1.945-2.312 3.414-.576.851c-.104.153-.398.385-.339.597.018.066.075.112.115.167.06.083.08.188.103.288.113.516.396 1.003.454 1.526a1.406 1.406 0 01-.228.947l.159 1.471a.704.704 0 01-.895.753l-.55-.158a2.423 2.423 0 01-1.74-2.59z"/><path fill="#a4e603" d="M76.583 53.71l-3.013 1.755-.597 1.807 7.447 2.46a1.29 1.29 0 001.63-.82z"/><path fill="#fff" d="M80.782 59.23l.378-.422-3.973-3.55-.377.423z"/><path fill="#a4e603" d="M68.928 10.931H66.6l-2.536 1.517 1.69 2.841 2.192.024 1.911-.708-.92-2.62zm3.478.417l2.314 3.123-2.455 2.258-.85-2.478z"/><path fill="url(#b)" d="M.5 79.864v8.027l42-28.141z"/></svg>