<svg xmlns="http://www.w3.org/2000/svg" width="10" height="12"><path fill="#61be6a" d="M5.78.652c.196.084.265.235.254.444-.01.212-.002.425-.002.648h-.459v.562H4.227V1.75h-.459c0-.279-.007-.544.003-.809.006-.147.118-.229.242-.29H5.78zM4.895 11.42A4.384 4.384 0 01.52 7.045 4.384 4.384 0 014.902 2.67 4.384 4.384 0 019.27 7.048a4.384 4.384 0 01-4.376 4.37zm0-.824c1.973-.018 3.548-1.576 3.548-3.552 0-1.96-1.558-3.54-3.54-3.545A3.528 3.528 0 001.35 7.04c-.004 1.964 1.56 3.533 3.545 3.555zM8.012 3.21l-1.26-.726c.142-.234.271-.47.423-.689.088-.127.268-.154.41-.077.23.124.458.255.68.393.14.087.2.27.127.416-.115.23-.249.45-.38.684zm-5.017-.725l-1.258.726c-.132-.236-.27-.462-.386-.7-.068-.14 0-.319.138-.404.22-.135.444-.265.672-.387a.328.328 0 01.433.094c.142.215.265.442.401.67z"/><path fill="#61be6a" d="M4.901 9.859c-1.54.01-2.82-1.268-2.82-2.814a2.824 2.824 0 012.81-2.814c1.54-.01 2.82 1.268 2.82 2.815A2.824 2.824 0 014.9 9.859zm1.613-4.257c-.062.013-.09.016-.116.024-.673.22-1.283.568-1.883.935-.159.097-.199.223-.152.407a.91.91 0 00.453.578c.259.148.43.12.595-.123.302-.445.592-.9.878-1.355.086-.138.143-.294.225-.466z"/></svg>