<svg xmlns="http://www.w3.org/2000/svg" width="507" height="163"><defs><linearGradient id="a" x1="256.25" x2="256.12" y1="143.74" y2="16.85" gradientUnits="userSpaceOnUse"><stop offset="0" stop-color="#f9f9f9"/><stop offset="1" stop-color="#67d5e5"/></linearGradient><linearGradient id="b" x1="257.38" x2="258.25" y1="106.41" y2="128.77" gradientUnits="userSpaceOnUse"><stop offset="0" stop-color="#97cc45"/><stop offset=".89" stop-color="#5cc478"/></linearGradient><linearGradient id="c" x1="256.25" x2="255.75" y1="162.25" y2="111.75" gradientUnits="userSpaceOnUse"><stop offset=".21" stop-color="#f5f6f6"/><stop offset=".87" stop-color="#f5f6f6" stop-opacity="0"/></linearGradient><linearGradient id="d" x1="396.7" x2="343.7" y1="54.18" y2="53.42" gradientUnits="userSpaceOnUse"><stop offset=".38" stop-color="#4daf69"/><stop offset="1" stop-color="#5cc478"/></linearGradient><linearGradient id="e" x1="383.22" x2="406.22" y1="82.02" y2="81.39" gradientUnits="userSpaceOnUse"><stop offset="0" stop-color="#97cc45"/><stop offset=".74" stop-color="#5cc478"/></linearGradient><linearGradient id="f" x1="382.78" x2="418.78" y1="65.94" y2="65.51" gradientUnits="userSpaceOnUse"><stop offset="0" stop-color="#97cc45"/><stop offset=".89" stop-color="#5cc478"/></linearGradient><linearGradient id="g" x1="453.49" x2="453.55" y1="15.68" y2="103.79" gradientUnits="userSpaceOnUse"><stop offset=".34" stop-color="#4daf69"/><stop offset="1" stop-color="#5cc478"/></linearGradient><linearGradient id="h" x1="457.24" x2="457.55" y1="10.14" y2="85.13" gradientUnits="userSpaceOnUse"><stop offset=".43" stop-color="#4daf69"/><stop offset="1" stop-color="#5cc478"/></linearGradient><linearGradient id="i" x1="461.16" x2="461.55" y1="5.04" y2="66.62" gradientUnits="userSpaceOnUse"><stop offset=".2" stop-color="#4daf69"/><stop offset="1" stop-color="#5cc478"/></linearGradient><linearGradient id="j" x1="26.74" x2="26.8" y1="15.68" y2="103.79" gradientUnits="userSpaceOnUse"><stop offset=".34" stop-color="#4daf69"/><stop offset="1" stop-color="#5cc478"/></linearGradient><linearGradient id="k" x1="30.49" x2="30.8" y1="10.14" y2="85.13" gradientUnits="userSpaceOnUse"><stop offset=".43" stop-color="#4daf69"/><stop offset="1" stop-color="#5cc478"/></linearGradient><linearGradient id="l" x1="34.41" x2="34.8" y1="5.04" y2="66.62" gradientUnits="userSpaceOnUse"><stop offset=".2" stop-color="#4daf69"/><stop offset="1" stop-color="#5cc478"/></linearGradient><linearGradient id="m" x1="305.57" x2="332.57" y1="100.85" y2="100.37" gradientUnits="userSpaceOnUse"><stop offset="0" stop-color="#29353b"/><stop offset="1"/></linearGradient><linearGradient id="n" x1="349.64" x2="346.64" y1="70.67" y2="72.08" gradientUnits="userSpaceOnUse"><stop offset="0" stop-color="#e29b92"/><stop offset="1" stop-color="#f5b0a8"/></linearGradient></defs><path fill="url(#a)" d="M496.25 143.737H16.123V16.852H496.25z"/><path fill="url(#b)" d="M497.451 128.768H18.183c-4.839 0-8.798-3.959-8.798-8.798v-4.765c0-4.84 3.96-8.799 8.798-8.799h479.268c4.84 0 8.799 3.96 8.799 8.799v4.765c0 4.839-3.96 8.798-8.799 8.798z"/><path fill="#db4f69" d="M493.997 147H9.55c-4.841 0-8.8-3.96-8.8-8.8v-17.65c0-4.84 3.96-8.8 8.799-8.8h484.448c4.84 0 8.8 3.96 8.8 8.8v17.65c0 4.84-3.96 8.799-8.8 8.799z"/><path fill="#bc445c" d="M362.687 127.02c0-1.846-13.816-3.344-30.858-3.344-17.043 0-30.859 1.498-30.859 3.345 0 1.847 13.816 3.345 30.859 3.345 17.042 0 30.858-1.498 30.858-3.345z"/><path fill="url(#c)" d="M15.75 111.75h480.5v50.5H15.75z"/><path fill="url(#d)" d="M346.191 58.448l15.897-27.818c9.51-16.644 34.924-9.895 34.924 9.275v27.818c0 10.324-8.37 18.694-18.694 18.694h-15.896c-14.354 0-23.352-15.506-16.23-27.969z"/><path fill="#664a46" d="M384.169 39.137v-1.444l-7.735 7.735V31.177h-1.022V59.67l-7.88-7.88v1.444l7.88 7.881v20.593L363.445 69.74v1.445l11.967 11.967v28.658h1.022V73.872l7.735-7.735v-1.445l-7.735 7.735V46.872z"/><path fill="url(#e)" d="M384.312 83.744l6.976-12.207c4.173-7.304 15.325-4.342 15.325 4.07v12.207a8.203 8.203 0 01-8.203 8.203h-6.975c-6.299 0-10.248-6.804-7.123-12.273z"/><path fill="url(#f)" d="M408.672 62.423v-12.82c0-9.311-12.345-12.59-16.965-4.505l-7.721 13.513c-3.46 6.053.912 13.585 7.884 13.585h7.722c.04 0 .078-.002.118-.003l-3.7 6.475c-3.125 5.469.824 12.273 7.122 12.273h6.976a8.203 8.203 0 008.203-8.203V70.53c0-5.666-5.06-8.859-9.64-8.107z"/><path fill="#664a46" d="M405.951 76.422l-6.014 6.014v-33.43h-.773V64.38l-6.456-6.456v1.092l6.456 6.456v46.878h.773V83.528l6.014-6.014zm64.419 34.962V83.532l-16.46 27.852z"/><path fill="url(#g)" d="M427.487 103.788h13.422l6.988-11.825v11.825h13.269l6.988-11.825v11.825h11.394V15.684z"/><path fill="url(#h)" d="M435.237 85.133h11.424l5.948-10.065v10.065h11.293l5.948-10.065v10.065h9.698V10.145z"/><path fill="url(#i)" d="M443.16 66.617h9.382l4.884-8.265v8.265h9.274l4.884-8.265v8.265h7.964V5.037z"/><path fill="#61be6a" d="M449.796 50.95h7.671l3.994-6.758v6.758h7.582l3.994-6.758v6.758h6.511V.6z"/><path fill="#664a46" d="M43.62 111.384V83.532l-16.46 27.852z"/><path fill="url(#j)" d="M.736 103.788H14.16l6.988-11.825v11.825h13.269l6.988-11.825v11.825h11.394V15.684z"/><path fill="url(#k)" d="M8.487 85.133h11.425l5.947-10.065v10.065h11.294L43.1 75.068v10.065h9.698V10.145z"/><path fill="url(#l)" d="M16.41 66.617h9.382l4.884-8.265v8.265h9.274l4.884-8.265v8.265h7.964V5.037z"/><path fill="#61be6a" d="M23.046 50.95h7.671l3.993-6.758v6.758h7.583l3.994-6.758v6.758h6.511V.6z"/><path fill="#eeb5ac" d="M335.028 72.831c.647.487 1.301.963 1.958 1.437.654.475 1.32.933 1.984 1.395l3.97 2.788-2.124.309a86.066 86.066 0 011.636-1.817l.833-.895.842-.888c.562-.591 1.123-1.183 1.691-1.769.566-.588 1.136-1.173 1.712-1.752a1.09 1.09 0 011.66 1.402c-.476.664-.957 1.324-1.442 1.98-.483.659-.973 1.31-1.462 1.963l-.735.978-.744.972a86.02 86.02 0 01-1.518 1.916 1.59 1.59 0 01-2.059.349l-.065-.04-4.14-2.532c-.687-.425-1.373-.854-2.07-1.265-.695-.413-1.392-.824-2.096-1.224a1.982 1.982 0 112.169-3.307z"/><path fill="#8dc603" d="M336.986 74.268c-.657-.474-1.311-.95-1.958-1.437a82.005 82.005 0 01-.576-.442 4.967 4.967 0 00-.989.081l-1.103 3.266c.14.156.306.293.499.402.704.4 1.401.81 2.096 1.224.673.397 1.334.81 1.998 1.22l.06.017 1.29-3.4a80.79 80.79 0 01-1.317-.931z"/><path fill="url(#m)" d="M332.103 92.742c.037.063.06.12.09.18.026.056.05.113.07.169.022.056.036.109.054.164l.043.159a2.638 2.638 0 01-.134 1.649l-.386.978-.396.975a86.909 86.909 0 01-1.702 3.852l-.454.952-.464.947c-.307.633-.625 1.261-.937 1.891l-.942 1.89-.93 1.894-.218.443a2.734 2.734 0 01-2.34 1.524l-4.06.164c-1.356.044-2.71.099-4.066.133l-2.034.056-2.036.045c-1.358.022-2.715.046-4.076.046a1.615 1.615 0 01-.399-3.18c1.319-.337 2.64-.649 3.962-.962l1.983-.459 1.985-.448c1.323-.301 2.649-.583 3.973-.874l3.976-.844-2.557 1.967.648-2.008.637-2.013c.213-.67.422-1.343.64-2.011l.326-1.004.335-.999c.454-1.33.938-2.648 1.454-3.952l.393-.977.403-.972a2.638 2.638 0 011.05-1.278l.141-.085c.051-.026.099-.054.154-.08.052-.025.109-.05.167-.074.063-.021.119-.046.19-.065a4.899 4.899 0 015.457 2.207z"/><path fill="#a4e603" d="M334.452 80.36v-7.97h-8.047v1.004c-.466.468-.652 1.137-.48 2.194.952 5.889.497 10.592-1.087 16.195-.788 2.791.374 4.446 3.037 4.936 2.662.491 3.98-.247 4.88-3.3 1.224-4.157 1.79-8.26 1.713-12.478-.003-.193-.01-.387-.016-.58z"/><path fill="#dea095" d="M330.499 73.603a1.518 1.518 0 001.5-1.526l-.032-3.726a1.518 1.518 0 00-1.526-1.5 1.518 1.518 0 00-1.5 1.526l.031 3.726a1.518 1.518 0 001.527 1.5z"/><path fill="#eeb5ac" d="M329.803 62.373l4.846 1.865.023 2.704.01.146c.005.122.003.242-.005.361l-.023.185a3.165 3.165 0 01-2.783 2.77l-.035.004a4.19 4.19 0 01-4.607-3.943c-.1-1.796.976-3.423 2.574-4.092z"/><path fill="#664a46" d="M329.933 61.343h.04l6.255-.054-2.096 1.89 2.113.14a18.207 18.207 0 01-4.73 2.773l-.457.182a1.218 1.218 0 10-2.206.879l.01 2.408a4.185 4.185 0 011.071-8.218z"/><path fill="#eeb5ac" d="M321.105 102.941l-.35 1.104-.154.48-1.912.405c-1.324.291-2.65.572-3.973.874l-1.985.448-1.983.459c-1.322.313-2.643.625-3.962.961a1.615 1.615 0 00.399 3.18c1.36.001 2.718-.023 4.076-.045l2.036-.045 2.034-.056c1.356-.034 2.71-.089 4.065-.133l4.062-.164a2.734 2.734 0 002.34-1.524l.217-.443.857-1.745zm6.581-26.825c-.718.375-1.43.76-2.139 1.15-.71.387-1.41.791-2.113 1.191l-4.225 2.386.635-2.05c.325.747.633 1.5.937 2.257l.45 1.138.44 1.141c.292.762.586 1.523.87 2.288.287.764.57 1.53.846 2.299a1.09 1.09 0 01-1.98.896c-.396-.715-.784-1.433-1.168-2.154-.387-.718-.765-1.441-1.143-2.164l-.567-1.084-.558-1.089a85.792 85.792 0 01-1.077-2.194 1.59 1.59 0 01.57-2.01l.065-.041 4.065-2.648c.68-.439 1.361-.874 2.032-1.326.673-.45 1.343-.903 2.007-1.367a1.981 1.981 0 112.053 3.38z"/><path fill="#373c41" d="M310.547 111.224l-3.813-3.605-2.085-.035-.143 8.597a1.415 1.415 0 001.392 1.439l2.706-5.981a1.055 1.055 0 001.49.025z"/><path fill="#fff" d="M305.223 115.624l.565.257 2.417-5.317-.565-.257zm22.499-23.317l17.035 31.73"/><path fill="#373c41" d="M346.169 123.28a420.604 420.604 0 00-3.536-8.32l-.905-2.07-.913-2.065c-.605-1.378-1.228-2.747-1.842-4.12l-.922-2.06c-.309-.686-.613-1.374-.915-2.063l-.91-2.066-.461-1.03c-.154-.344-.307-.687-.466-1.028a85.414 85.414 0 00-2.533-5.078c.29-.988.542-1.972.758-2.955l-8.111-.849a52.58 52.58 0 01-.574 2.207c-.359 1.268-.313 2.3.09 3.096a2.591 2.591 0 00.155.76c.065.179.154.343.242.51.347.664.7 1.327 1.062 1.984a85.45 85.45 0 002.275 3.888c.196.32.398.638.599.956l.603.953 1.22 1.9c.407.633.813 1.267 1.214 1.903l1.207 1.907c.805 1.27 1.603 2.546 2.417 3.812l1.216 1.902 1.225 1.897a420.814 420.814 0 004.98 7.545 1.613 1.613 0 002.825-1.517z"/><path fill="#eeb5ac" d="M345.29 125.382a1.611 1.611 0 00.879-2.103 420.223 420.223 0 00-3.536-8.32l-.905-2.07-.913-2.064c-.605-1.378-1.228-2.747-1.842-4.12l-.922-2.06c-.309-.686-.613-1.374-.915-2.063l-.298-.677-5.804 3.846.05.08c.408.632.814 1.266 1.215 1.902l1.207 1.907c.805 1.27 1.603 2.546 2.417 3.812l1.216 1.902 1.225 1.897a420.266 420.266 0 004.98 7.545c.42.618 1.227.88 1.945.586z"/><path fill="#373c41" d="M344.826 120.23l-1.063 5.14 1.067 1.793 7.388-4.398c.672-.4.892-1.269.492-1.94l-6.51.841a1.053 1.053 0 00-.762-1.28z"/><path fill="#fff" d="M352.063 122.104l-.078-.616-5.794.739.079.616z"/><path fill="#eeb5ac" d="M350.69 69.275l-.945-.849-1.074-.144a.804.804 0 00-1.14.555l-.871 4.132 2.08.609 1.757-2.298.521-1.023a.727.727 0 00-.327-.982z"/><path fill="url(#n)" d="M346.643 72.955l.077-.5.018-.115a4.859 4.859 0 00.036-.307 2.675 2.675 0 00-.008-.485l-.001-.012v-.003l-.001-.007-.003-.014-.008-.058a3.175 3.175 0 01-.013-.116c-.002-.039-.002-.078-.002-.116 0-.039-.001-.078.004-.116.008-.076.016-.152.036-.226.068-.294.215-.56.424-.765a1.518 1.518 0 01.866-.43l.054-.008c.017-.002.035-.002.053-.003.071-.002.14-.006.215.003l.11.013.025.003.016.004.031.008.126.03.502.122-.168 1.058-.497-.036-.124-.01-.03-.002-.016-.001-.006.001a.104.104 0 01-.017.006c-.009 0-.024.009-.037.012a.02.02 0 00-.01.002l-.008.006a.109.109 0 01-.016.008.242.242 0 00-.093.104.197.197 0 00-.018.127c-.001.01.006.018.007.025 0 .004.004.008.006.011l.004.01a.057.057 0 01.008.008.05.05 0 01.003.005l.002.006.006.02a4.144 4.144 0 01.149.767 5.045 5.045 0 01.024.45l.002.137.005.508z"/><path fill="#eeb5ac" d="M324.07 92.796l1.152-.324.725-.869a.804.804 0 00.1-1.282l-.83-.726a1.559 1.559 0 00-.468-.982c-.053-.055-.114-.101-.175-.148-.03-.025-.063-.044-.096-.064a2.918 2.918 0 00-.1-.06 3.233 3.233 0 00-.106-.048l-.054-.023-.013-.006-.007-.002-.002-.002-.011-.005a2.584 2.584 0 01-.58-.37 4.486 4.486 0 01-.081-.066l-.089-.075-.387-.328-.012.017-.009-.008-1.603 1.457 1.158 2.935.486.758a.727.727 0 001.002.221z"/><path fill="#a4e603" d="M327.686 76.116a1.981 1.981 0 10-2.053-3.38 123.475 123.475 0 01-3.014 2.03l1.5 3.3a123.485 123.485 0 013.567-1.951z"/></svg>