<svg xmlns="http://www.w3.org/2000/svg" width="75" height="78"><defs><linearGradient id="a" x1="39.38" x2="35.75" y1="24.95" y2="63.13" gradientUnits="userSpaceOnUse"><stop offset="0" stop-color="#29353b"/><stop offset="1"/></linearGradient><linearGradient id="b" x1="21.04" x2="49.04" y1="35.04" y2="25.28" gradientUnits="userSpaceOnUse"><stop offset="0" stop-color="#f9f9f9"/><stop offset="1" stop-color="#67d5e5"/></linearGradient><linearGradient id="c" x1="47.66" x2="25.66" y1="37.65" y2="44.69" gradientUnits="userSpaceOnUse"><stop offset="0" stop-color="#f9f9f9"/><stop offset="1" stop-color="#67d5e5"/></linearGradient></defs><path fill="url(#a)" d="M62.758 63.076L9.719 57.403C3.898 56.78-.257 50.845.456 44.173c.603-5.635 3.084-10.728 6.986-14.34 3.902-3.613 8.758-5.313 13.673-4.787l37.348 3.995c4.915.526 9.302 3.214 12.352 7.57 3.05 4.356 4.397 9.858 3.794 15.493-.713 6.672-6.03 11.595-11.851 10.972zM20.355 32.153c-6.729-.72-12.874 4.97-13.699 12.682-.294 2.754 1.42 5.204 3.823 5.461l53.039 5.673c2.403.257 4.597-1.774 4.892-4.529.824-7.712-3.978-14.573-10.707-15.292z"/><path fill="#373c41" d="M63.488 56.25l-53.039-5.673c-4.94-.529-8.68-4.884-9.263-10.27a24.499 24.499 0 00-.73 3.865c-.713 6.673 3.442 12.608 9.263 13.23l53.039 5.674c5.821.623 11.138-4.3 11.851-10.973.142-1.322.174-2.637.104-3.931-1.708 5.14-6.284 8.606-11.225 8.078z"/><path fill="#b3b3b3" d="M14.88 33.502l-2.004-7.78 1.275-.33 2.005 7.782zm3.386-.883l-.493-8.02 1.314-.08.493 8.02z"/><path fill="url(#b)" d="M30.712 8.393l-2.207-7.11L21.66 3.41l2.228 7.176a8.67 8.67 0 00-2.454 8.992l11.018 35.49a5.65 5.65 0 007.07 3.72l5.77-1.79a5.65 5.65 0 003.72-7.071l-11.018-35.49a8.671 8.671 0 00-7.282-6.043z"/><path fill="url(#c)" d="M39.323 57.478l5.318-1.651a4.614 4.614 0 003.038-5.775L39.794 24.65l-14.132 4.387 7.886 25.402a4.614 4.614 0 005.775 3.039z"/><path fill="#f7f7f7" d="M39.794 24.65c.277.895-2.661 2.602-6.563 3.813-3.903 1.211-7.291 1.469-7.569.574-.277-.894 2.661-2.601 6.563-3.813 3.903-1.21 7.291-1.468 7.569-.574z"/><path fill="#a4e603" d="M20.792 2.952l1.394 4.49c.202.65 2.194.61 4.45-.091 2.256-.7 3.921-1.795 3.72-2.446L28.961.415z"/><path fill="#8dc603" d="M28.962.415c.202.65-1.464 1.746-3.72 2.446-2.256.7-4.248.741-4.45.09-.202-.65 1.463-1.745 3.72-2.445 2.255-.7 4.248-.74 4.45-.09z"/><path fill="#a4e603" d="M38.56 77.89l-6.734-.72C18.4 75.734 8.68 63.685 10.116 50.257l55.357 5.921C64.036 69.606 51.987 79.326 38.56 77.89z"/><path fill="#b3b3b3" d="M58.84 62.468l-43.574-4.661.14-1.31L58.98 61.16z"/><path fill="#373c41" d="M59.53 60.886l-1.87-.2-.2 1.87.891.096-1.189 3.957a.82.82 0 101.602.17l-.325-4.118.891.096z"/><path fill="#8dc603" d="M15.92 62.4c1.64 4.102 5.268 7.355 9.524 8.54 2.401.67 4.169.648 6.645.36a7.1 7.1 0 00-2.087 2.268 21.792 21.792 0 0010.575-3.409c-1.74.131-3.485.218-5.23.26l.253-1.327c-2.663.295-5.388.586-7.997-.022-1.531-.357-2.974-1.015-4.383-1.712-2.683-1.33-4.797-3.315-7.3-4.958zm35.87 8.576c.184-.07.377-.142.571-.115.195.027.385.19.37.386-.01.114-.085.212-.16.3-1.077 1.26-6.06 3.87-7.357 2.025 1.882-1.19 4.48-1.79 6.576-2.596z"/></svg>