<svg xmlns="http://www.w3.org/2000/svg" xmlns:xlink="http://www.w3.org/1999/xlink" width="449" height="320"><defs><linearGradient id="c" x1=".5" y1=".083" x2=".5" y2="1.6" gradientUnits="objectBoundingBox"><stop offset="0" stop-color="#f9f9f9"/><stop offset="1" stop-color="#69d9ee"/></linearGradient><linearGradient id="d" x1=".072" y1=".5" x2=".906" y2=".5" gradientUnits="objectBoundingBox"><stop offset="0" stop-color="#ed992c"/><stop offset="1" stop-color="#db4f69"/></linearGradient><linearGradient id="e" y1=".5" x2="1" y2=".5" gradientUnits="objectBoundingBox"><stop offset=".254" stop-color="#ecd013"/><stop offset="1" stop-color="#ed992c"/></linearGradient><linearGradient id="f" x1=".5" y1="-.13" x2=".5" y2=".587" gradientUnits="objectBoundingBox"><stop offset=".254" stop-color="#ed992c"/><stop offset="1" stop-color="#db4f69"/></linearGradient><linearGradient id="a" x1=".505" y1=".646" x2=".5" y2="1.014" gradientUnits="objectBoundingBox"><stop offset=".19" stop-color="#53a45d"/><stop offset="1" stop-color="#8dc603"/></linearGradient><linearGradient id="g" x1=".5" y1=".564" x2=".5" y2="1.022" xlink:href="#a"/><linearGradient id="h" x1=".5" y1=".685" x2=".5" y2="1.004" xlink:href="#a"/><linearGradient id="i" y1=".5" x2="1" y2=".5" gradientUnits="objectBoundingBox"><stop offset="0" stop-color="#373c41"/><stop offset="1"/></linearGradient><linearGradient id="j" x1="-.268" y1=".5" x2=".732" y2=".5" gradientUnits="objectBoundingBox"><stop offset=".254" stop-color="#53a45d"/><stop offset="1" stop-color="#61be6a"/></linearGradient><linearGradient id="k" x1="-227.993" y1="150.486" x2="-229.01" y2="151.22" gradientUnits="objectBoundingBox"><stop offset="0" stop-color="#dea095"/><stop offset="1" stop-color="#eeb5ac"/></linearGradient><linearGradient id="l" x1=".5" x2=".5" y2="1" gradientUnits="objectBoundingBox"><stop offset=".297" stop-color="#fff" stop-opacity="0"/><stop offset=".669" stop-color="#fff"/></linearGradient><clipPath id="b"><path data-name="Прямоугольник 59" transform="translate(3192 4364)" fill="none" d="M0 0h449v320H0z"/></clipPath></defs><g data-name="Сгруппировать 84"><g data-name="Сгруппировать 83" clip-path="url(#b)" transform="translate(-3192 -4364)"><g data-name="Сгруппировать 82"><circle data-name="Эллипс 3" cx="221.775" cy="221.775" r="221.775" transform="translate(3194.736 4263.038)" fill="url(#c)"/><g data-name="Сгруппировать 63"><path data-name="Контур 26" d="M3455.9 4402.343L3514.38 4300c34.988-61.229 128.479-36.4 128.479 34.12v102.339a68.769 68.769 0 01-68.77 68.77h-58.479c-52.804.004-85.91-57.039-59.71-102.886z" fill="url(#d)"/><path data-name="Контур 27" d="M3595.612 4331.3v-5.314l-28.456 28.456v-52.426h-3.756v104.826l-28.993-28.993v5.314l28.993 28.993v75.757l-44.026-44.026v5.314l44.026 44.026v105.425h3.758v-139.57l28.456-28.456v-5.314l-28.456 28.456v-94.012z" fill="#664a46"/></g><rect data-name="Прямоугольник 49" width="339.851" height="70.39" rx="35.195" transform="translate(3255.336 4646.388)" fill="#ed992c"/><g data-name="Сгруппировать 64"><path data-name="Контур 28" d="M3581.425 4513.8l25.662-44.908c15.353-26.869 56.379-15.974 56.379 14.972v44.908a30.178 30.178 0 01-30.178 30.178h-25.662a30.177 30.177 0 01-26.201-45.15z" fill="url(#e)"/><path data-name="Контур 29" d="M3671.039 4435.359V4388.2c0-34.255-45.413-46.315-62.409-16.573l-28.406 49.71c-12.725 22.27 3.355 49.979 29 49.979h28.406c.146 0 .29-.009.436-.011l-13.611 23.819a30.177 30.177 0 0026.2 45.15h25.662a30.178 30.178 0 0030.178-30.178v-44.908c.005-20.849-18.611-32.595-35.456-29.829z" fill="url(#e)"/><path data-name="Контур 32" d="M3661.03 4486.857l-22.126 22.126V4386h-2.842v56.56l-23.75-23.75v4.019l23.75 23.75v172.456h2.842V4513l22.126-22.126z" fill="#664a46"/></g><rect data-name="Прямоугольник 50" width="339.851" height="70.39" rx="35.195" transform="translate(3255.336 4581.13)" fill="url(#f)"/><g data-name="Сгруппировать 65"><path data-name="Контур 33" d="M3265.258 4617.317v-102.464l-60.548 102.465z" fill="#664a46"/><path data-name="Контур 34" d="M3107.5 4589.373h49.38l25.707-43.5v43.5h48.813l25.707-43.5v43.5h41.917v-324.119z" fill="url(#a)"/><path data-name="Контур 35" d="M3136.012 4520.745h42.029l21.88-37.028v37.028h41.546l21.88-37.028v37.028h35.677v-275.868z" fill="url(#g)"/><path data-name="Контур 36" d="M3165.159 4452.629h34.514l17.968-30.407v30.407h34.118l17.968-30.407v30.407h29.3v-226.542z" fill="url(#h)"/><path data-name="Контур 37" d="M3189.573 4394.992h28.219l14.691-24.861v24.861h27.9l14.691-24.861v24.861h23.955v-185.225z" fill="#8dc603"/></g><rect data-name="Прямоугольник 51" width="498.351" height="70.39" rx="35.195" transform="translate(3176.087 4611.192)" fill="#664a46"/><ellipse data-name="Эллипс 4" cx="97.133" cy="10.528" rx="97.133" ry="10.528" transform="translate(3308.17 4618.965)" fill="#473432"/><g data-name="Сгруппировать 66" fill="#fff"><path data-name="Прямоугольник 52" d="M3196.773 4654.821h42.924v5.723h-42.924z"/><path data-name="Контур 38" d="M3533.467 4660.544h-73.442v-5.723h73.442zm-146.884 0h-73.443v-5.723h73.443z"/><path data-name="Прямоугольник 53" d="M3606.91 4654.821h42.924v5.723h-42.924z"/></g><g data-name="Сгруппировать 81"><g data-name="Сгруппировать 68"><g data-name="Сгруппировать 67"><path data-name="Контур 39" d="M3420.349 4427.665c2.382 1.79 4.789 3.541 7.2 5.282s4.86 3.434 7.3 5.134l14.608 10.258-7.816 1.136a316.743 316.743 0 016.017-6.683l3.066-3.293 3.1-3.267c2.067-2.176 4.13-4.355 6.223-6.509s4.179-4.314 6.3-6.447a4.01 4.01 0 016.107 5.16q-2.624 3.666-5.3 7.284c-1.774 2.423-3.578 4.821-5.379 7.222l-2.7 3.6-2.735 3.573a313.878 313.878 0 01-5.584 7.049 5.85 5.85 0 01-7.576 1.283l-.24-.147-15.226-9.314c-2.532-1.562-5.053-3.139-7.617-4.652s-5.123-3.031-7.714-4.5a7.289 7.289 0 017.2-12.676 7.987 7.987 0 01.766.507z" fill="#eeb5ac"/></g></g><g data-name="Сгруппировать 70"><g data-name="Сгруппировать 69"><path data-name="Контур 40" d="M3409.59 4500.913c.138.23.222.438.335.657.092.211.179.421.251.624s.135.4.2.6l.156.585a10.09 10.09 0 01.271 2.2 9.722 9.722 0 01-.763 3.867l-1.42 3.6-1.458 3.586q-2.955 7.159-6.262 14.171l-1.669 3.5-1.706 3.486c-1.13 2.327-2.3 4.638-3.449 6.957l-3.462 6.951-3.423 6.967-.8 1.63a10.061 10.061 0 01-8.608 5.606l-14.942.6c-4.985.164-9.966.364-14.955.491l-7.484.205-7.488.165c-4.995.083-9.99.171-15 .17a5.943 5.943 0 01-1.467-11.7c4.851-1.237 9.713-2.384 14.575-3.536l7.3-1.688 7.3-1.649c4.867-1.109 9.743-2.144 14.614-3.216l14.629-3.1-9.408 7.235 2.383-7.388 2.344-7.4c.785-2.466 1.552-4.94 2.357-7.4l1.2-3.692 1.234-3.677q2.5-7.339 5.35-14.54l1.445-3.591 1.483-3.576a9.717 9.717 0 012.139-3.311 10.022 10.022 0 011.723-1.391l.518-.312c.19-.1.363-.2.566-.294s.4-.185.614-.273c.234-.08.439-.171.7-.24a18.02 18.02 0 0120.077 8.121z" fill="url(#i)"/></g></g><path data-name="Контур 41" d="M3394.035 4515.544c-.423.739-.542 1.044 0 0z" fill="#a4e603"/><path data-name="Контур 42" d="M3468.2 4434.536c-2.329-2.345-4.816-4.642-7.224-6.795a8.355 8.355 0 00-.918.606 6.25 6.25 0 00-.439.369l-.2.2-.162.165-.989 1.035-1.979 2.07-3.955 4.144q-3.671 3.855-7.261 7.8-2.755-1.527-5.422-3.183c-1.023-.622-2.033-1.264-3.038-1.912s-2.013-1.291-3-1.959c-2-1.309-3.961-2.678-5.928-4.036l-5.793-4.227c-.512-.38-1.027-.755-1.538-1.139-.235-.175-2.116-1.627-2.116-1.627a21.584 21.584 0 00-3.639.3l-4.059 12.013a7.291 7.291 0 001.835 1.481c.424.241.845.488 1.268.732 2.507 1.529 5.038 3.016 7.524 4.579l7.449 4.7 7.448 4.7 3.724 2.353 1.862 1.176c.635.385 1.2.8 1.939 1.164a6.425 6.425 0 004.689.3 6.351 6.351 0 002.115-1.156 7.481 7.481 0 00.858-.854l.7-.855c1.854-2.284 3.735-4.552 5.569-6.851 3.655-4.607 7.21-9.289 10.785-13.953v-.007l.523-.7z" fill="url(#j)"/><g data-name="Сгруппировать 72"><g data-name="Сгруппировать 71"><path data-name="Контур 43" d="M3393.34 4439.746c-2.64 1.38-5.256 2.8-7.866 4.232s-5.19 2.911-7.774 4.383l-15.542 8.778 2.335-7.545a322.401 322.401 0 013.446 8.306l1.654 4.184 1.618 4.2c1.076 2.8 2.156 5.6 3.2 8.417s2.1 5.628 3.114 8.456a4.011 4.011 0 01-7.286 3.3q-2.179-3.947-4.294-7.922c-1.425-2.644-2.814-5.3-4.208-7.962l-2.085-3.989-2.05-4a318.835 318.835 0 01-3.963-8.072 5.852 5.852 0 012.1-7.392l.236-.153 14.957-9.742c2.5-1.614 5.006-3.213 7.475-4.876s4.94-3.323 7.382-5.029a7.289 7.289 0 118.349 11.951 8.149 8.149 0 01-.798.475z" fill="#eeb5ac"/></g></g><path data-name="Контур 44" d="M3418.291 4457.5c-.013-.711-.035-1.423-.058-2.136v-29.325h-27.554a7.287 7.287 0 00-1.463 0h-.589v.088a7.256 7.256 0 00-2.838 1.185c-.636.444-1.277.88-1.916 1.319-5.089 3.375-10.283 6.579-15.456 9.819l-7.764 4.855-3.883 2.428-.97.607a9.846 9.846 0 00-1.006.684 6.548 6.548 0 00-2.18 6.919 16.614 16.614 0 00.938 2.209l.973 2.079 1.947 4.159c.652 1.386 1.337 2.75 2 4.127l4.109 8.2q2.057 4.1 4.173 8.165v.007l.51.974 1.065-.316a76 76 0 008.348-2.9l1.182-.5-.45-1.209c-.772-2.075-1.514-4.162-2.312-6.228l-2.361-6.208c-.795-2.067-1.579-4.137-2.4-6.2a400.034 400.034 0 00-2.065-5.146l15.882-10.44c.437-.242.871-.487 1.31-.726.7-.384 1.4-.764 2.106-1.146 2.485 19.371.653 35.561-4.714 54.552-2.9 10.27 1.373 16.355 11.169 18.161s14.643-.91 17.952-12.142a150.82 150.82 0 006.315-45.915z" fill="#61be6a"/><g data-name="Сгруппировать 75"><g data-name="Сгруппировать 74"><g data-name="Сгруппировать 73"><path data-name="Контур 45" d="M3330.292 4568.9l-14.031-13.264-7.67-.127-.524 31.627a5.208 5.208 0 005.12 5.292l9.955-22a3.875 3.875 0 005.479.09z" fill="#61be6a"/></g></g><path data-name="Прямоугольник 54" fill="#fff" d="M3310.704 4585.089l8.895-19.552 2.079.945-8.896 19.553z"/></g><rect data-name="Прямоугольник 55" width="11.137" height="24.844" rx="5.568" transform="rotate(179.511 1695.175 2222.503)" fill="#dea095"/><g data-name="Сгруппировать 76"><path data-name="Контур 46" d="M3401.128 4389.19l17.829 6.863.085 9.944c.01.18.024.361.033.54a12 12 0 01-.017 1.327l-.085.681a11.56 11.56 0 01-10.237 10.189l-.128.014a15.41 15.41 0 01-7.48-29.558z" fill="#eeb5ac"/><path data-name="Контур 47" d="M3401.608 4385.4h.145l23.008-.2-7.71 6.951 7.773.519a66.982 66.982 0 01-17.4 10.2l-1.682.67a4.481 4.481 0 10-8.114 3.231l.039 8.86a15.39 15.39 0 013.938-30.232z" fill="#664a46"/></g><path data-name="Линия 8" fill="#fff" d="M3393.475 4499.311l62.666 116.731"/><g data-name="Сгруппировать 77" fill="#373c41"><path data-name="Контур 48" d="M3461.336 4613.253c-4.212-10.27-8.586-20.453-13.01-30.609l-3.327-7.612-3.359-7.6c-2.227-5.07-4.516-10.107-6.775-15.159l-3.394-7.577q-1.7-3.787-3.366-7.591l-3.348-7.6-1.7-3.789c-.566-1.262-1.129-2.526-1.712-3.78q-3.458-7.542-7.3-14.878-1-1.911-2.022-3.805 1.6-5.448 2.789-10.87l-29.84-3.121a193.786 193.786 0 01-2.111 8.116c-1.318 4.663-1.151 8.461.336 11.39.013.244.032.484.061.719a9.578 9.578 0 00.507 2.078 14.9 14.9 0 00.887 1.873 359.794 359.794 0 003.909 7.3q3.992 7.255 8.368 14.3c.723 1.179 1.465 2.347 2.2 3.516l2.221 3.507 4.485 6.99q2.247 3.494 4.467 7l4.44 7.014c2.963 4.675 5.9 9.366 8.891 14.024l4.474 7 4.506 6.98c6.022 9.3 12.091 18.571 18.324 27.756a5.928 5.928 0 0010.39-5.578z"/><path data-name="Контур 49" d="M3394.035 4515.544c-.423.739-.542 1.044 0 0z"/></g><g data-name="Сгруппировать 79"><g data-name="Сгруппировать 78"><path data-name="Контур 50" d="M3456.4 4602.037l-3.91 18.908 3.924 6.593 27.181-16.179a5.2 5.2 0 001.811-7.136l-23.95 3.095a3.876 3.876 0 00-2.8-4.709z" fill="#61be6a"/></g><path data-name="Прямоугольник 56" fill="#fff" d="M3461.418 4609.38l21.314-2.716.288 2.265-21.313 2.717z"/></g><g data-name="Сгруппировать 80"><path data-name="Контур 51" d="M3477.971 4414.581l-3.48-3.122-3.949-.531a2.957 2.957 0 00-4.2 2.044l-3.2 15.2 7.652 2.242 6.464-8.453 1.917-3.764a2.673 2.673 0 00-1.204-3.616z" fill="#eeb5ac"/><path data-name="Контур 52" d="M3463.079 4428.121l.284-1.844.067-.422a12.88 12.88 0 00.132-1.129 9.875 9.875 0 000-1.439 9.821 9.821 0 00-.033-.345v-.079l-.008-.053-.031-.213c-.019-.143-.035-.285-.05-.427s-.007-.285-.007-.427a3.515 3.515 0 01.017-.425 5.579 5.579 0 01.13-.831 5.779 5.779 0 011.562-2.817 5.58 5.58 0 012.793-1.518c.131-.024.262-.045.394-.064l.2-.027c.065-.007.131-.007.2-.011a5.132 5.132 0 01.792.012 12.214 12.214 0 01.494.058l.058.014.115.028.463.112 1.846.449-.619 3.893-1.827-.136-.456-.033-.113-.009h-.079a.245.245 0 01-.061.021 1.182 1.182 0 00-.136.043.176.176 0 00-.035.01l-.031.019a.446.446 0 01-.062.03.9.9 0 00-.34.384.73.73 0 00-.068.468c0 .033.023.064.026.091s.016.027.022.04a.147.147 0 01.016.036.209.209 0 01.03.032l.009.015.006.022.021.07c.057.188.109.376.157.564a15.256 15.256 0 01.391 2.256q.055.56.077 1.11c.007.184.011.366.014.549l.005.5.021 1.866z" fill="url(#k)"/></g><path data-name="Контур 53" d="M3380.038 4501.111l4.24-1.194 2.667-3.194a2.956 2.956 0 00.363-4.717l-3.048-2.673a6 6 0 00-.133-.812 5.771 5.771 0 00-1.592-2.8 5.631 5.631 0 00-.641-.544 3.53 3.53 0 00-.354-.235c-.121-.074-.244-.147-.368-.217s-.259-.121-.39-.179l-.2-.085-.05-.021-.023-.01h-.01l-.039-.019c-.1-.048-.209-.1-.313-.152a9.7 9.7 0 01-1.225-.753q-.3-.216-.6-.455c-.1-.08-.2-.163-.3-.246l-.325-.277-1.425-1.2-.043.06-.031-.03-5.9 5.363 4.261 10.795 1.787 2.789a2.673 2.673 0 003.692.806z" fill="#eeb5ac"/><path data-name="Прямоугольник 57" fill="#61be6a" d="M3395.404 4420.563h16.779v10.868h-16.779z"/><path data-name="Контур 54" d="M3410.536 4385.326a18.332 18.332 0 00-2.2-.535 28.971 28.971 0 00-2.2-.315 38.522 38.522 0 00-4.39-.205 17.868 17.868 0 00-5.146.845 16.359 16.359 0 00-4.61 2.429c-.336.276-.7.52-1.01.825l-.943.9a18.146 18.146 0 00-1.63 2.026 15.729 15.729 0 00-2.208 4.668 17.018 17.018 0 00-.586 5.091 15.941 15.941 0 001.064 4.961 15.093 15.093 0 006.355 7.458h.006l4.378-7.044a4.481 4.481 0 012.944-6.585 4.617 4.617 0 011.206-.093l8.96-14.417z" fill="#373c41"/></g></g><path data-name="Прямоугольник 58" transform="translate(3191.5 4363.5)" fill="url(#l)" d="M0 0h450v320.5H0z"/></g></g></svg>