<svg xmlns="http://www.w3.org/2000/svg" xmlns:xlink="http://www.w3.org/1999/xlink" width="449" height="320"
     viewBox="0 0 449 320">
    <defs>
        <clipPath id="clip-path">
            <rect id="Прямоугольник_59" data-name="Прямоугольник 59" width="449" height="320"
                  transform="translate(3192 4364)" fill="none"/>
        </clipPath>
        <linearGradient id="linear-gradient" x1="0.5" y1="0.083" x2="0.5" y2="1.6" gradientUnits="objectBoundingBox">
            <stop offset="0" stop-color="#f9f9f9"/>
            <stop offset="1" stop-color="#69d9ee"/>
        </linearGradient>
        <linearGradient id="linear-gradient-2" x1="0.072" y1="0.5" x2="0.906" y2="0.5"
                        gradientUnits="objectBoundingBox">
            <stop offset="0" stop-color="#ed992c"/>
            <stop offset="1" stop-color="#db4f69"/>
        </linearGradient>
        <linearGradient id="linear-gradient-3" y1="0.5" x2="1" y2="0.5" gradientUnits="objectBoundingBox">
            <stop offset="0.254" stop-color="#ecd013"/>
            <stop offset="1" stop-color="#ed992c"/>
        </linearGradient>
        <linearGradient id="linear-gradient-5" x1="0.5" y1="-0.13" x2="0.5" y2="0.587"
                        gradientUnits="objectBoundingBox">
            <stop offset="0.254" stop-color="#ed992c"/>
            <stop offset="1" stop-color="#db4f69"/>
        </linearGradient>
        <linearGradient id="linear-gradient-6" x1="0.505" y1="0.646" x2="0.5" y2="1.014"
                        gradientUnits="objectBoundingBox">
            <stop offset="0.19" stop-color="#53a45d"/>
            <stop offset="1" stop-color="#8dc603"/>
        </linearGradient>
        <linearGradient id="linear-gradient-7" x1="0.5" y1="0.564" x2="0.5" y2="1.022" xlink:href="#linear-gradient-6"/>
        <linearGradient id="linear-gradient-8" x1="0.5" y1="0.685" x2="0.5" y2="1.004" xlink:href="#linear-gradient-6"/>
        <linearGradient id="linear-gradient-9" y1="0.5" x2="1" y2="0.5" gradientUnits="objectBoundingBox">
            <stop offset="0" stop-color="#373c41"/>
            <stop offset="1"/>
        </linearGradient>
        <linearGradient id="linear-gradient-10" x1="-0.268" y1="0.5" x2="0.732" y2="0.5"
                        gradientUnits="objectBoundingBox">
            <stop offset="0.254" stop-color="#53a45d"/>
            <stop offset="1" stop-color="#61be6a"/>
        </linearGradient>
        <linearGradient id="linear-gradient-11" x1="-227.993" y1="150.486" x2="-229.01" y2="151.22"
                        gradientUnits="objectBoundingBox">
            <stop offset="0" stop-color="#dea095"/>
            <stop offset="1" stop-color="#eeb5ac"/>
        </linearGradient>
        <linearGradient id="linear-gradient-12" x1="0.5" x2="0.5" y2="1" gradientUnits="objectBoundingBox">
            <stop offset="0.297" stop-color="#fff" stop-opacity="0"/>
            <stop offset="0.669" stop-color="#fff"/>
        </linearGradient>
    </defs>
    <g id="Сгруппировать_84" data-name="Сгруппировать 84" transform="translate(-3192 -4364)">
        <g id="Сгруппировать_83" data-name="Сгруппировать 83" clip-path="url(#clip-path)">
            <g id="Сгруппировать_82" data-name="Сгруппировать 82">
                <circle id="Эллипс_3" data-name="Эллипс 3" cx="221.775" cy="221.775" r="221.775"
                        transform="translate(3194.736 4263.038)" fill="url(#linear-gradient)"/>
                <g id="Сгруппировать_63" data-name="Сгруппировать 63">
                    <path id="Контур_26" data-name="Контур 26"
                          d="M3455.9,4402.343,3514.38,4300c34.988-61.229,128.479-36.4,128.479,34.12v102.339a68.769,68.769,0,0,1-68.77,68.77H3515.61C3462.806,4505.233,3429.7,4448.19,3455.9,4402.343Z"
                          fill="url(#linear-gradient-2)"/>
                    <path id="Контур_27" data-name="Контур 27"
                          d="M3595.612,4331.3v-5.314l-28.456,28.456v-52.426H3563.4v104.826l-28.993-28.993v5.314l28.993,28.993v75.757l-44.026-44.026v5.314l44.026,44.026v105.425h3.758v-139.57l28.456-28.456v-5.314l-28.456,28.456v-94.012Z"
                          fill="#664a46"/>
                </g>
                <rect id="Прямоугольник_49" data-name="Прямоугольник 49" width="339.851" height="70.39" rx="35.195"
                      transform="translate(3255.336 4646.388)" fill="#ed992c"/>
                <g id="Сгруппировать_64" data-name="Сгруппировать 64">
                    <path id="Контур_28" data-name="Контур 28"
                          d="M3581.425,4513.8l25.662-44.908c15.353-26.869,56.379-15.974,56.379,14.972v44.908a30.178,30.178,0,0,1-30.178,30.178h-25.662A30.177,30.177,0,0,1,3581.425,4513.8Z"
                          fill="url(#linear-gradient-3)"/>
                    <path id="Контур_29" data-name="Контур 29"
                          d="M3671.039,4435.359V4388.2c0-34.255-45.413-46.315-62.409-16.573l-28.406,49.71c-12.725,22.27,3.355,49.979,29,49.979h28.406c.146,0,.29-.009.436-.011l-13.611,23.819a30.177,30.177,0,0,0,26.2,45.15h25.662a30.178,30.178,0,0,0,30.178-30.178v-44.908C3706.5,4444.339,3687.884,4432.593,3671.039,4435.359Z"
                          fill="url(#linear-gradient-3)"/>
                    <path id="Контур_30" data-name="Контур 30" d="M3671.542,4490.292" fill="none" stroke="#53a45d"
                          stroke-miterlimit="10" stroke-width="7"/>
                    <path id="Контур_31" data-name="Контур 31" d="M3637.483,4524.351" fill="none" stroke="#53a45d"
                          stroke-miterlimit="10" stroke-width="7"/>
                    <path id="Контур_32" data-name="Контур 32"
                          d="M3661.03,4486.857l-22.126,22.126V4386h-2.842v56.56l-23.75-23.75v4.019l23.75,23.75v172.456h2.842V4513l22.126-22.126Z"
                          fill="#664a46"/>
                </g>
                <rect id="Прямоугольник_50" data-name="Прямоугольник 50" width="339.851" height="70.39" rx="35.195"
                      transform="translate(3255.336 4581.13)" fill="url(#linear-gradient-5)"/>
                <g id="Сгруппировать_65" data-name="Сгруппировать 65">
                    <path id="Контур_33" data-name="Контур 33" d="M3265.258,4617.317V4514.853l-60.548,102.465Z"
                          fill="#664a46"/>
                    <path id="Контур_34" data-name="Контур 34"
                          d="M3107.5,4589.373h49.38l25.707-43.5v43.5H3231.4l25.707-43.5v43.5h41.917V4265.254Z"
                          fill="url(#linear-gradient-6)"/>
                    <path id="Контур_35" data-name="Контур 35"
                          d="M3136.012,4520.745h42.029l21.88-37.028v37.028h41.546l21.88-37.028v37.028h35.677V4244.877Z"
                          fill="url(#linear-gradient-7)"/>
                    <path id="Контур_36" data-name="Контур 36"
                          d="M3165.159,4452.629h34.514l17.968-30.407v30.407h34.118l17.968-30.407v30.407h29.3V4226.087Z"
                          fill="url(#linear-gradient-8)"/>
                    <path id="Контур_37" data-name="Контур 37"
                          d="M3189.573,4394.992h28.219l14.691-24.861v24.861h27.9l14.691-24.861v24.861h23.955V4209.767Z"
                          fill="#8dc603"/>
                </g>
                <rect id="Прямоугольник_51" data-name="Прямоугольник 51" width="498.351" height="70.39" rx="35.195"
                      transform="translate(3176.087 4611.192)" fill="#664a46"/>
                <ellipse id="Эллипс_4" data-name="Эллипс 4" cx="97.133" cy="10.528" rx="97.133" ry="10.528"
                         transform="translate(3308.17 4618.965)" fill="#473432"/>
                <g id="Сгруппировать_66" data-name="Сгруппировать 66">
                    <rect id="Прямоугольник_52" data-name="Прямоугольник 52" width="42.924" height="5.723"
                          transform="translate(3196.773 4654.821)" fill="#fff"/>
                    <path id="Контур_38" data-name="Контур 38"
                          d="M3533.467,4660.544h-73.442v-5.723h73.442Zm-146.884,0H3313.14v-5.723h73.443Z" fill="#fff"/>
                    <rect id="Прямоугольник_53" data-name="Прямоугольник 53" width="42.924" height="5.723"
                          transform="translate(3606.91 4654.821)" fill="#fff"/>
                </g>
                <g id="Сгруппировать_81" data-name="Сгруппировать 81">
                    <g id="Сгруппировать_68" data-name="Сгруппировать 68">
                        <g id="Сгруппировать_67" data-name="Сгруппировать 67">
                            <path id="Контур_39" data-name="Контур 39"
                                  d="M3420.349,4427.665c2.382,1.79,4.789,3.541,7.2,5.282s4.86,3.434,7.3,5.134l14.608,10.258-7.816,1.136c1.968-2.26,3.984-4.478,6.017-6.683l3.066-3.293,3.1-3.267c2.067-2.176,4.13-4.355,6.223-6.509s4.179-4.314,6.3-6.447a4.01,4.01,0,0,1,6.107,5.16q-2.624,3.666-5.3,7.284c-1.774,2.423-3.578,4.821-5.379,7.222l-2.7,3.6-2.735,3.573c-1.834,2.373-3.684,4.731-5.584,7.049a5.85,5.85,0,0,1-7.576,1.283l-.24-.147-15.226-9.314c-2.532-1.562-5.053-3.139-7.617-4.652s-5.123-3.031-7.714-4.5a7.289,7.289,0,0,1,7.2-12.676A7.987,7.987,0,0,1,3420.349,4427.665Z"
                                  fill="#eeb5ac"/>
                        </g>
                    </g>
                    <g id="Сгруппировать_70" data-name="Сгруппировать 70">
                        <g id="Сгруппировать_69" data-name="Сгруппировать 69">
                            <path id="Контур_40" data-name="Контур 40"
                                  d="M3409.59,4500.913c.138.23.222.438.335.657.092.211.179.421.251.624s.135.4.2.6l.156.585a10.09,10.09,0,0,1,.271,2.2,9.722,9.722,0,0,1-.763,3.867l-1.42,3.6-1.458,3.586q-2.955,7.159-6.262,14.171l-1.669,3.5-1.706,3.486c-1.13,2.327-2.3,4.638-3.449,6.957l-3.462,6.951-3.423,6.967-.8,1.63a10.061,10.061,0,0,1-8.608,5.606l-14.942.6c-4.985.164-9.966.364-14.955.491l-7.484.205-7.488.165c-4.995.083-9.99.171-15,.17a5.943,5.943,0,0,1-1.467-11.7c4.851-1.237,9.713-2.384,14.575-3.536l7.3-1.688,7.3-1.649c4.867-1.109,9.743-2.144,14.614-3.216l14.629-3.1-9.408,7.235,2.383-7.388,2.344-7.4c.785-2.466,1.552-4.94,2.357-7.4l1.2-3.692,1.234-3.677q2.5-7.339,5.35-14.54l1.445-3.591,1.483-3.576a9.717,9.717,0,0,1,2.139-3.311,10.022,10.022,0,0,1,1.723-1.391l.518-.312c.19-.1.363-.2.566-.294s.4-.185.614-.273c.234-.08.439-.171.7-.24A18.02,18.02,0,0,1,3409.59,4500.913Z"
                                  fill="url(#linear-gradient-9)"/>
                        </g>
                    </g>
                    <path id="Контур_41" data-name="Контур 41" d="M3394.035,4515.544c-.423.739-.542,1.044,0,0Z"
                          fill="#a4e603"/>
                    <path id="Контур_42" data-name="Контур 42"
                          d="M3468.2,4434.536c-2.329-2.345-4.816-4.642-7.224-6.795a8.355,8.355,0,0,0-.918.606c-.152.116-.3.241-.439.369l-.2.2-.162.165-.989,1.035-1.979,2.07-3.955,4.144q-3.671,3.855-7.261,7.8-2.755-1.527-5.422-3.183c-1.023-.622-2.033-1.264-3.038-1.912s-2.013-1.291-3-1.959c-2-1.309-3.961-2.678-5.928-4.036l-5.793-4.227h0c-.512-.38-1.027-.755-1.538-1.139-.235-.175-2.116-1.627-2.116-1.627a21.584,21.584,0,0,0-3.639.3l-4.059,12.013a7.291,7.291,0,0,0,1.835,1.481c.424.241.845.488,1.268.732,2.507,1.529,5.038,3.016,7.524,4.579l7.449,4.7,7.448,4.7,3.724,2.353,1.862,1.176c.635.385,1.2.8,1.939,1.164a6.425,6.425,0,0,0,4.689.3,6.351,6.351,0,0,0,2.115-1.156,7.481,7.481,0,0,0,.858-.854l.7-.855c1.854-2.284,3.735-4.552,5.569-6.851,3.655-4.607,7.21-9.289,10.785-13.953l0-.007.523-.7Z"
                          fill="url(#linear-gradient-10)"/>
                    <g id="Сгруппировать_72" data-name="Сгруппировать 72">
                        <g id="Сгруппировать_71" data-name="Сгруппировать 71">
                            <path id="Контур_43" data-name="Контур 43"
                                  d="M3393.34,4439.746c-2.64,1.38-5.256,2.8-7.866,4.232s-5.19,2.911-7.774,4.383l-15.542,8.778,2.335-7.545c1.193,2.748,2.329,5.523,3.446,8.306l1.654,4.184,1.618,4.2c1.076,2.8,2.156,5.6,3.2,8.417s2.1,5.628,3.114,8.456a4.011,4.011,0,0,1-7.286,3.3q-2.179-3.947-4.294-7.922c-1.425-2.644-2.814-5.3-4.208-7.962l-2.085-3.989-2.05-4c-1.353-2.676-2.687-5.361-3.963-8.072a5.852,5.852,0,0,1,2.1-7.392l.236-.153,14.957-9.742c2.5-1.614,5.006-3.213,7.475-4.876s4.94-3.323,7.382-5.029a7.289,7.289,0,1,1,8.349,11.951A8.149,8.149,0,0,1,3393.34,4439.746Z"
                                  fill="#eeb5ac"/>
                        </g>
                    </g>
                    <path id="Контур_44" data-name="Контур 44"
                          d="M3418.291,4457.5c-.013-.711-.035-1.423-.058-2.136v-29.325h-27.554a7.287,7.287,0,0,0-1.463,0h-.589v.088a7.256,7.256,0,0,0-2.838,1.185c-.636.444-1.277.88-1.916,1.319h0c-5.089,3.375-10.283,6.579-15.456,9.819l-7.764,4.855-3.883,2.428-.97.607a9.846,9.846,0,0,0-1.006.684,6.548,6.548,0,0,0-2.18,6.919,16.614,16.614,0,0,0,.938,2.209l.973,2.079,1.947,4.159c.652,1.386,1.337,2.75,2,4.127l4.109,8.2q2.057,4.1,4.173,8.165l0,.007.51.974,1.065-.316a76,76,0,0,0,8.348-2.9l1.182-.5-.45-1.209c-.772-2.075-1.514-4.162-2.312-6.228l-2.361-6.208c-.795-2.067-1.579-4.137-2.4-6.2-.672-1.718-1.367-3.432-2.065-5.146l15.882-10.44v0c.437-.242.871-.487,1.31-.726.7-.384,1.4-.764,2.106-1.146,2.485,19.371.653,35.561-4.714,54.552-2.9,10.27,1.373,16.355,11.169,18.161s14.643-.91,17.952-12.142A150.82,150.82,0,0,0,3418.291,4457.5Z"
                          fill="#61be6a"/>
                    <g id="Сгруппировать_75" data-name="Сгруппировать 75">
                        <g id="Сгруппировать_74" data-name="Сгруппировать 74">
                            <g id="Сгруппировать_73" data-name="Сгруппировать 73">
                                <path id="Контур_45" data-name="Контур 45"
                                      d="M3330.292,4568.9l-14.031-13.264-7.67-.127-.524,31.627a5.208,5.208,0,0,0,5.12,5.292h0l9.955-22h0a3.875,3.875,0,0,0,5.479.09Z"
                                      fill="#61be6a"/>
                            </g>
                        </g>
                        <rect id="Прямоугольник_54" data-name="Прямоугольник 54" width="21.486" height="2.284"
                              transform="matrix(0.414, -0.91, 0.91, 0.414, 3310.704, 4585.089)" fill="#fff"/>
                    </g>
                    <rect id="Прямоугольник_55" data-name="Прямоугольник 55" width="11.137" height="24.844" rx="5.568"
                          transform="translate(3409.256 4430.457) rotate(179.511)" fill="#dea095"/>
                    <g id="Сгруппировать_76" data-name="Сгруппировать 76">
                        <path id="Контур_46" data-name="Контур 46"
                              d="M3401.128,4389.19l17.829,6.863.085,9.944c.01.18.024.361.033.54a12,12,0,0,1-.017,1.327l-.085.681a11.56,11.56,0,0,1-10.237,10.189l-.128.014a15.41,15.41,0,0,1-7.48-29.558Z"
                              fill="#eeb5ac"/>
                        <path id="Контур_47" data-name="Контур 47"
                              d="M3401.608,4385.4c.049,0,.1,0,.145,0l0,0,23.008-.2-7.71,6.951,7.773.519h0a66.982,66.982,0,0,1-17.4,10.2l-1.682.67a4.481,4.481,0,1,0-8.114,3.231l.039,8.86a15.39,15.39,0,0,1,3.938-30.232Z"
                              fill="#664a46"/>
                    </g>
                    <line id="Линия_8" data-name="Линия 8" x2="62.666" y2="116.731"
                          transform="translate(3393.475 4499.311)" fill="#fff"/>
                    <g id="Сгруппировать_77" data-name="Сгруппировать 77">
                        <path id="Контур_48" data-name="Контур 48"
                              d="M3461.336,4613.253c-4.212-10.27-8.586-20.453-13.01-30.609l-3.327-7.612-3.359-7.6c-2.227-5.07-4.516-10.107-6.775-15.159l-3.394-7.577q-1.7-3.787-3.366-7.591l-3.348-7.6-1.7-3.789c-.566-1.262-1.129-2.526-1.712-3.78q-3.458-7.542-7.3-14.878-1-1.911-2.022-3.805,1.6-5.448,2.789-10.87l-29.84-3.121h0c-.629,2.659-1.331,5.357-2.111,8.116-1.318,4.663-1.151,8.461.336,11.39.013.244.032.484.061.719a9.578,9.578,0,0,0,.507,2.078,14.9,14.9,0,0,0,.887,1.873c1.279,2.446,2.574,4.884,3.909,7.3q3.992,7.255,8.368,14.3c.723,1.179,1.465,2.347,2.2,3.516l2.221,3.507,4.485,6.99q2.247,3.494,4.467,7l4.44,7.014c2.963,4.675,5.9,9.366,8.891,14.024l4.474,7,4.506,6.98c6.022,9.3,12.091,18.571,18.324,27.756a5.928,5.928,0,0,0,10.39-5.578Z"
                              fill="#373c41"/>
                        <path id="Контур_49" data-name="Контур 49" d="M3394.035,4515.544c-.423.739-.542,1.044,0,0Z"
                              fill="#373c41"/>
                    </g>
                    <g id="Сгруппировать_79" data-name="Сгруппировать 79">
                        <g id="Сгруппировать_78" data-name="Сгруппировать 78">
                            <path id="Контур_50" data-name="Контур 50"
                                  d="M3456.4,4602.037l-3.91,18.908,3.924,6.593,27.181-16.179a5.2,5.2,0,0,0,1.811-7.136h0l-23.95,3.095h0a3.876,3.876,0,0,0-2.8-4.709Z"
                                  fill="#61be6a"/>
                        </g>
                        <rect id="Прямоугольник_56" data-name="Прямоугольник 56" width="21.486" height="2.284"
                              transform="translate(3461.418 4609.38) rotate(-7.263)" fill="#fff"/>
                    </g>
                    <g id="Сгруппировать_80" data-name="Сгруппировать 80">
                        <path id="Контур_51" data-name="Контур 51"
                              d="M3477.971,4414.581l-3.48-3.122-3.949-.531a2.957,2.957,0,0,0-4.2,2.044l-3.2,15.2,7.652,2.242,6.464-8.453,1.917-3.764A2.673,2.673,0,0,0,3477.971,4414.581Z"
                              fill="#eeb5ac"/>
                        <path id="Контур_52" data-name="Контур 52"
                              d="M3463.079,4428.121l.284-1.844.067-.422c.02-.127.039-.254.055-.38.033-.253.059-.5.077-.749a9.875,9.875,0,0,0,0-1.439c-.009-.115-.02-.231-.033-.345l0-.043v-.011l0-.025-.008-.053-.031-.213c-.019-.143-.035-.285-.05-.427s-.007-.285-.007-.427a3.515,3.515,0,0,1,.017-.425,5.579,5.579,0,0,1,.13-.831,5.779,5.779,0,0,1,1.562-2.817,5.58,5.58,0,0,1,2.793-1.518c.131-.024.262-.045.394-.064l.2-.027c.065-.007.131-.007.2-.011a5.132,5.132,0,0,1,.792.012c.135.013.269.028.4.045.031,0,.073.008.094.013l.058.014.115.028.463.112,1.846.449-.619,3.893-1.827-.136-.456-.033-.113-.009-.057,0c-.018,0-.014,0-.022,0a.245.245,0,0,1-.061.021,1.182,1.182,0,0,0-.136.043.176.176,0,0,0-.035.01l-.031.019a.446.446,0,0,1-.062.03.9.9,0,0,0-.34.384.73.73,0,0,0-.068.468c0,.033.023.064.026.091s.016.027.022.04a.147.147,0,0,1,.016.036.209.209,0,0,1,.03.032l.009.015,0,0,.006.022.021.07c.057.188.109.376.157.564a15.256,15.256,0,0,1,.391,2.256q.055.56.077,1.11c.007.184.011.366.014.549l.005.5.021,1.866Z"
                              fill="url(#linear-gradient-11)"/>
                    </g>
                    <path id="Контур_53" data-name="Контур 53"
                          d="M3380.038,4501.111l4.24-1.194,2.667-3.194a2.956,2.956,0,0,0,.363-4.717l-3.048-2.673a6,6,0,0,0-.133-.812,5.771,5.771,0,0,0-1.592-2.8,5.631,5.631,0,0,0-.641-.544,3.53,3.53,0,0,0-.354-.235c-.121-.074-.244-.147-.368-.217s-.259-.121-.39-.179l-.2-.085-.05-.021-.023-.01-.01,0-.039-.019c-.1-.048-.209-.1-.313-.152a9.7,9.7,0,0,1-1.225-.753q-.3-.216-.6-.455c-.1-.08-.2-.163-.3-.246l-.325-.277-1.425-1.2-.043.06-.031-.03-5.9,5.363,4.261,10.795,1.787,2.789A2.673,2.673,0,0,0,3380.038,4501.111Z"
                          fill="#eeb5ac"/>
                    <rect id="Прямоугольник_57" data-name="Прямоугольник 57" width="16.779" height="10.868"
                          transform="translate(3395.404 4420.563)" fill="#61be6a"/>
                    <path id="Контур_54" data-name="Контур 54"
                          d="M3410.536,4385.326h0a18.332,18.332,0,0,0-2.2-.535c-.732-.137-1.465-.235-2.2-.315a38.522,38.522,0,0,0-4.39-.205,17.868,17.868,0,0,0-5.146.845,16.359,16.359,0,0,0-4.61,2.429c-.336.276-.7.52-1.01.825l-.943.9a18.146,18.146,0,0,0-1.63,2.026,15.729,15.729,0,0,0-2.208,4.668,17.018,17.018,0,0,0-.586,5.091,15.941,15.941,0,0,0,1.064,4.961,15.093,15.093,0,0,0,6.355,7.458l.006,0,4.378-7.044a4.481,4.481,0,0,1,2.944-6.585,4.617,4.617,0,0,1,1.206-.093l8.96-14.417Z"
                          fill="#373c41"/>
                </g>
            </g>
            <rect id="Прямоугольник_58" data-name="Прямоугольник 58" width="450" height="320.5"
                  transform="translate(3191.5 4363.5)" fill="url(#linear-gradient-12)"/>
        </g>
    </g>
</svg>
