<svg xmlns="http://www.w3.org/2000/svg" xmlns:xlink="http://www.w3.org/1999/xlink" viewBox="0 0 927.34 688.7"><defs><style>.cls-1{fill:url(#Безымянный_градиент_32);}.cls-2{fill:url(#Безымянный_градиент_62);}.cls-3{fill:#664a46;}.cls-4{fill:url(#Безымянный_градиент_20);}.cls-5{fill:url(#Безымянный_градиент_19);}.cls-6{fill:url(#Безымянный_градиент_19-2);}.cls-7{fill:#db4f69;}.cls-8{fill:#bc445c;}.cls-9{fill:#fff;}.cls-10{fill:none;}.cls-11{fill:#373c41;}.cls-12{fill:#2f3439;}.cls-13{fill:#ed992c;}.cls-14{fill:url(#Безымянный_градиент_2);}.cls-15{fill:#dea095;}.cls-16{fill:#eeb5ac;}.cls-17{fill:#623c34;}.cls-18{fill:url(#Безымянный_градиент_2-2);}.cls-19{fill:#40dc9e;}.cls-20{fill:url(#Безымянный_градиент_20-2);}.cls-21{fill:url(#Безымянный_градиент_19-3);}.cls-22{fill:url(#Безымянный_градиент_19-4);}.cls-23{fill:#a4e603;}</style><linearGradient id="Безымянный_градиент_32" x1="488.11" y1="-38.51" x2="488.11" y2="1290.45" gradientUnits="userSpaceOnUse"><stop offset="0" stop-color="#f9f9f9"/><stop offset="0.1" stop-color="#f6f8f9"/><stop offset="0.17" stop-color="#ecf6f8"/><stop offset="0.24" stop-color="#dbf2f7"/><stop offset="0.31" stop-color="#c4edf5"/><stop offset="0.37" stop-color="#a6e6f3"/><stop offset="0.43" stop-color="#81def0"/><stop offset="0.46" stop-color="#69d9ee"/></linearGradient><linearGradient id="Безымянный_градиент_62" x1="936.1" y1="157.29" x2="679.03" y2="157.29" gradientUnits="userSpaceOnUse"><stop offset="0.38" stop-color="#53a45d"/><stop offset="1" stop-color="#61be6a"/></linearGradient><linearGradient id="Безымянный_градиент_20" x1="767.64" y1="297.64" x2="874.11" y2="297.64" gradientUnits="userSpaceOnUse"><stop offset="0" stop-color="#a4e603"/><stop offset="0.74" stop-color="#61be6a"/></linearGradient><linearGradient id="Безымянный_градиент_19" x1="765.63" y1="224.92" x2="927.34" y2="224.92" gradientUnits="userSpaceOnUse"><stop offset="0" stop-color="#a4e603"/><stop offset="0.89" stop-color="#61be6a"/></linearGradient><linearGradient id="Безымянный_градиент_19-2" x1="499.33" y1="421.62" x2="499.33" y2="501.67" xlink:href="#Безымянный_градиент_19"/><linearGradient id="Безымянный_градиент_2" x1="658.55" y1="342.79" x2="571.64" y2="311.54" gradientUnits="userSpaceOnUse"><stop offset="0.11" stop-color="#373c41"/><stop offset="1"/></linearGradient><linearGradient id="Безымянный_градиент_2-2" x1="406.48" y1="345.89" x2="337.53" y2="367.51" xlink:href="#Безымянный_градиент_2"/><linearGradient id="Безымянный_градиент_20-2" x1="2.81" y1="389.94" x2="151.34" y2="389.94" xlink:href="#Безымянный_градиент_20"/><linearGradient id="Безымянный_градиент_19-3" x1="0" y1="288.49" x2="225.61" y2="288.49" xlink:href="#Безымянный_градиент_19"/><linearGradient id="Безымянный_градиент_19-4" x1="579.2" y1="659.38" x2="579.2" y2="546.05" xlink:href="#Безымянный_градиент_19"/></defs><title>main</title><g id="Слой_2" data-name="Слой 2"><g id="элементы"><rect class="cls-1" x="63.43" y="66.57" width="849.36" height="511.18" rx="248.91"/><path class="cls-2" d="M610.34,179.72,687,45.57C732.86-34.69,855.41-2.14,855.41,90.29V224.44a90.14,90.14,0,0,1-90.15,90.14H688.61C619.39,314.58,576,239.81,610.34,179.72Z"/><polygon class="cls-3" points="793.48 86.59 793.48 79.63 756.18 116.93 756.18 48.21 751.25 48.21 751.25 185.61 713.25 147.61 713.25 154.58 751.25 192.58 751.25 291.88 693.54 234.17 693.54 241.14 751.25 298.85 751.25 437.04 756.18 437.04 756.18 254.09 793.48 216.79 793.48 209.83 756.18 247.13 756.18 123.89 793.48 86.59"/><path class="cls-4" d="M772.62,306.93l31.74-55.56c19-33.24,69.75-19.76,69.75,18.52v55.56a37.34,37.34,0,0,1-37.34,37.33H805C776.37,362.78,758.39,331.81,772.62,306.93Z"/><path class="cls-5" d="M883.47,209.89V151.55c0-42.37-56.17-57.29-77.2-20.5l-35.14,61.5c-15.74,27.54,4.15,61.82,35.88,61.82h35.68l-16.84,29.46c-14.22,24.89,3.75,55.86,32.41,55.86H890a37.33,37.33,0,0,0,37.33-37.34V246.79C927.34,221,904.31,206.47,883.47,209.89Z"/><polygon class="cls-3" points="871.09 273.6 843.72 300.97 843.72 148.83 840.21 148.83 840.21 218.8 810.83 189.42 810.83 194.39 840.21 223.77 840.21 437.11 843.72 437.11 843.72 305.94 871.09 278.57 871.09 273.6"/><rect class="cls-6" x="134.77" y="421.62" width="729.12" height="80.04" rx="38.98"/><rect class="cls-7" x="69.78" y="467.59" width="837.69" height="113.33" rx="55.18"/><ellipse class="cls-8" cx="626.93" cy="477.89" rx="154.54" ry="7.13"/><ellipse class="cls-8" cx="345.58" cy="519.89" rx="154.54" ry="7.13"/><rect class="cls-9" x="106.24" y="494.16" width="47.55" height="6.34"/><path class="cls-9" d="M735.27,500.5H638.36v-6.34h96.91Zm-193.82,0H444.53v-6.34h96.92Zm-193.83,0H250.7v-6.34h96.92Z"/><rect class="cls-9" x="832.19" y="494.16" width="47.55" height="6.34"/><path class="cls-10" d="M593.94,410.4c0-.45,0-.91,0-1.37l-48-3.69a9.11,9.11,0,0,1,.37,1.26l47.52,7.23C593.9,412.69,593.94,411.55,593.94,410.4Z"/><path class="cls-10" d="M599.48,414.69l2.6.39a15.24,15.24,0,0,1,3.59-5.14l-6.06-.47c0,.31,0,.62,0,.93C599.63,411.84,599.57,413.27,599.48,414.69Z"/><path class="cls-10" d="M546.24,386.34l-2.9-.94,9.57-29.75a56.86,56.86,0,0,0-16-2.29c-1.71,0-3.41.08-5.09.23l3.62,31.06-3,.35-3.63-31.06a56.61,56.61,0,0,0-20.07,6.89l16.16,26.73-2.61,1.58-16.16-26.73A57.54,57.54,0,0,0,490.7,377l25.77,17.65-1.72,2.52L489,379.49a56.86,56.86,0,0,0-8,19.71l30.81,5.29-.52,3-30.81-5.29a58.41,58.41,0,0,0-.59,8.2,57.11,57.11,0,0,0,1.49,13l30.26-7.9.77,2.95-30.26,7.9a57,57,0,0,0,9.66,18.93l24.17-19.77,1.93,2.36L493.7,447.61a57.34,57.34,0,0,0,16.56,13.22l13.87-28,2.73,1.36-13.87,28a56.74,56.74,0,0,0,20.62,5.16l.94-31.25,3.05.09-.94,31.25h.23a56.83,56.83,0,0,0,20.6-3.85l-12-28.85,2.82-1.17,12,28.84a57.36,57.36,0,0,0,17.4-12.21l-23-21.18,2.07-2.24,23,21.18a57.09,57.09,0,0,0,10.77-18.19l-52.39-11.43a11.17,11.17,0,0,1-1.42.11,9.8,9.8,0,1,1,0-19.59,9.64,9.64,0,0,1,3.91.82l32.53-33.27a57,57,0,0,0-17.36-9.83Z"/><path class="cls-10" d="M589.17,387.59l-28.62,12.18-1.2-2.81,28.52-12.14a57.39,57.39,0,0,0-9.61-13.65l-29.88,30.56,45.32,3.48A56.54,56.54,0,0,0,589.17,387.59Z"/><path class="cls-10" d="M717.21,413.48a3.66,3.66,0,0,1-1.28.24,3.48,3.48,0,0,1-3.24-2.19l-21-52.86a57.65,57.65,0,0,0-13.65,8.94l21.24,22.9-2.24,2.07-21.23-22.89a57.42,57.42,0,0,0-12.17,17.44l28.88,12-1.17,2.82-28.88-12a56.81,56.81,0,0,0-3.8,20.46c0,.14,0,.28,0,.41L690,409.75l.1,3.05-31.23,1.06A56.58,56.58,0,0,0,664,434.43l28-13.92,1.36,2.73-28,13.92a57.42,57.42,0,0,0,13.27,16.54l19.68-24.25,2.36,1.93L681,455.62A56.79,56.79,0,0,0,700,465.21L707.84,435l2.95.77L702.9,466a56.87,56.87,0,0,0,12.87,1.47,58,58,0,0,0,8.39-.62l-5.45-30.78,3-.53,5.45,30.78a56.74,56.74,0,0,0,19.61-8L729.1,432.49l2.52-1.72,17.66,25.77a57.52,57.52,0,0,0,14.56-15.47L737.05,425l1.57-2.61,26.8,16.06a56.74,56.74,0,0,0,6.83-20.06l-31-3.59.35-3,31,3.59c.14-1.64.22-3.29.22-5a56.87,56.87,0,0,0-2.34-16.18l-29.73,9.69-.94-2.9,29.72-9.69A57.17,57.17,0,0,0,758.83,373L735.78,394.1l-2.06-2.25,23-21.07a57.52,57.52,0,0,0-17.35-12.28l-12.17,28.79-2.8-1.19,12.16-28.8a56.83,56.83,0,0,0-20.84-3.94l.83,31.24-3,.08-.84-31.24a56.69,56.69,0,0,0-14.51,2.69L719.16,409A3.49,3.49,0,0,1,717.21,413.48Z"/><path class="cls-10" d="M621.75,392.55h-6.52l4.71,13.77.72.21,51-79.84L596,354.14l10.65,31.45h15.07Z"/><path class="cls-10" d="M598.63,421.59c-.36,2-.8,3.88-1.34,5.78l5.65,1.23a15.13,15.13,0,0,1-2-6.66Z"/><path class="cls-10" d="M599.45,405.66l6.86.52-16-47.32-8,8.24A62.53,62.53,0,0,1,599.45,405.66Z"/><path class="cls-10" d="M545.26,413.48a9.76,9.76,0,0,1-1.66,2.17l48.13,10.5c.5-1.77.93-3.58,1.27-5.42Z"/><path class="cls-11" d="M559.35,397l1.2,2.81,28.62-12.18c-.41-.94-.84-1.86-1.3-2.77Z"/><path class="cls-11" d="M546.24,386.34l9.58-29.75c-1-.34-1.93-.65-2.91-.94l-9.57,29.75Z"/><path class="cls-11" d="M535.42,384.65l-3.62-31.06c-1,.09-2,.21-3,.35L532.4,385Z"/><path class="cls-11" d="M524.86,387.56,508.7,360.83c-.88.5-1.75,1-2.61,1.58l16.16,26.73Z"/><path class="cls-11" d="M516.47,394.63,490.7,377c-.6.82-1.17,1.66-1.73,2.51l25.78,17.66Z"/><path class="cls-11" d="M511.77,404.49,481,399.2c-.2,1-.37,2-.52,3l30.81,5.29Z"/><path class="cls-11" d="M511.6,415.47l-30.26,7.9c.23,1,.49,2,.77,2.95l30.26-7.9Z"/><path class="cls-11" d="M515.94,425.48l-24.17,19.77c.62.81,1.26,1.59,1.93,2.36l24.17-19.77Z"/><path class="cls-11" d="M524.13,432.83l-13.87,28c.9.48,1.81.93,2.73,1.36l13.87-28Z"/><path class="cls-11" d="M534.55,436.1l-.94,31.25c1,.06,2,.09,3,.09l.94-31.25Z"/><path class="cls-11" d="M545.46,434.75l12,28.85c1-.37,1.89-.76,2.82-1.18l-12-28.84Z"/><path class="cls-11" d="M554.75,429l23,21.18c.71-.73,1.4-1.48,2.07-2.24l-23-21.18Z"/><path class="cls-11" d="M699.33,390.51l-21.24-22.9c-.76.68-1.51,1.37-2.23,2.08l21.23,22.89Z"/><path class="cls-11" d="M692.57,399.1l-28.88-12c-.41.92-.8,1.86-1.17,2.81l28.88,12Z"/><path class="cls-11" d="M690,409.75l-31.23,1.06c0,1,0,2,.1,3.05l31.23-1.06Z"/><path class="cls-11" d="M692,420.51l-28,13.92c.43.92.88,1.83,1.36,2.73l28-13.92Z"/><path class="cls-11" d="M698.35,429.45,678.67,453.7q1.16,1,2.37,1.92l19.67-24.24Z"/><path class="cls-11" d="M707.84,435,700,465.21c1,.28,2,.54,2.95.77l7.89-30.25Z"/><path class="cls-11" d="M718.71,436.05l5.45,30.78c1-.15,2-.33,3-.53l-5.45-30.78Z"/><path class="cls-11" d="M729.1,432.49l17.67,25.78c.85-.56,1.68-1.14,2.51-1.73l-17.66-25.77Z"/><path class="cls-11" d="M737.05,425l26.79,16.06c.55-.85,1.07-1.72,1.58-2.61l-26.8-16.06Z"/><path class="cls-11" d="M741.2,414.81l31,3.59c.14-1,.25-2,.34-3l-31-3.59Z"/><path class="cls-11" d="M740.74,403.91l29.73-9.69c-.29-1-.61-2-1-2.9L739.8,401Z"/><path class="cls-11" d="M735.78,394.1,758.83,373c-.67-.77-1.36-1.51-2.06-2.25l-23,21.07Z"/><path class="cls-11" d="M727.25,387.29l12.17-28.79c-.93-.42-1.86-.82-2.81-1.2l-12.16,28.8Z"/><path class="cls-11" d="M716.6,384.6l-.83-31.24h0c-1,0-2,0-3,.08l.84,31.24Z"/><path class="cls-12" d="M593.83,413.83l5.65.86c.09-1.42.15-2.85.15-4.29,0-.31,0-.62,0-.93l-5.69-.44c0,.46,0,.92,0,1.37C593.94,411.55,593.9,412.69,593.83,413.83Z"/><path class="cls-12" d="M590.55,429.78A57.09,57.09,0,0,1,579.78,448c-.67.76-1.36,1.51-2.07,2.24a57.36,57.36,0,0,1-17.4,12.21c-.93.42-1.87.81-2.82,1.18a56.83,56.83,0,0,1-20.6,3.85h-.23c-1,0-2,0-3-.09A56.74,56.74,0,0,1,513,462.19c-.92-.43-1.83-.88-2.73-1.36a57.34,57.34,0,0,1-16.56-13.22c-.67-.77-1.31-1.55-1.93-2.36a57,57,0,0,1-9.66-18.93c-.28-1-.54-1.95-.77-2.95a57.11,57.11,0,0,1-1.49-13,58.41,58.41,0,0,1,.59-8.2c.15-1,.32-2,.52-3a56.86,56.86,0,0,1,8-19.71c.56-.85,1.13-1.69,1.73-2.51a57.54,57.54,0,0,1,15.39-14.57c.86-.55,1.73-1.08,2.61-1.58a56.61,56.61,0,0,1,20.07-6.89c1-.14,2-.26,3-.35,1.68-.15,3.38-.23,5.09-.23a56.86,56.86,0,0,1,16,2.29c1,.29,2,.6,2.91.94a57,57,0,0,1,17.36,9.83l4-4.08a62.71,62.71,0,1,0,19,68.66Z"/><path class="cls-12" d="M593,420.73c-.34,1.84-.77,3.65-1.27,5.42l5.56,1.22c.54-1.9,1-3.82,1.34-5.78Z"/><path class="cls-12" d="M589.17,387.59a56.54,56.54,0,0,1,4.53,17.62l5.75.45a62.53,62.53,0,0,0-17.21-38.56l-4,4.07a57.39,57.39,0,0,1,9.61,13.65C588.33,385.73,588.76,386.65,589.17,387.59Z"/><path class="cls-12" d="M778.5,410.4a62.73,62.73,0,0,0-82.39-59.57l2.1,5.3a56.69,56.69,0,0,1,14.51-2.69c1-.05,2-.08,3-.08h0a56.83,56.83,0,0,1,20.84,3.94c.95.38,1.88.78,2.81,1.2a57.52,57.52,0,0,1,17.35,12.28c.7.74,1.39,1.48,2.06,2.25a57.17,57.17,0,0,1,10.69,18.29c.34.95.66,1.92,1,2.9a56.87,56.87,0,0,1,2.34,16.18c0,1.68-.08,3.33-.22,5-.09,1-.2,2-.34,3a56.74,56.74,0,0,1-6.83,20.06c-.51.89-1,1.76-1.58,2.61a57.52,57.52,0,0,1-14.56,15.47c-.83.59-1.66,1.17-2.51,1.73a56.74,56.74,0,0,1-19.61,8c-1,.2-2,.38-3,.53a58,58,0,0,1-8.39.62A56.87,56.87,0,0,1,702.9,466c-1-.23-2-.49-2.95-.77A56.79,56.79,0,0,1,681,455.62q-1.21-.93-2.37-1.92a57.42,57.42,0,0,1-13.27-16.54c-.48-.9-.93-1.81-1.36-2.73a56.58,56.58,0,0,1-5.21-20.57c-.06-1-.09-2-.1-3.05,0-.13,0-.27,0-.41a56.81,56.81,0,0,1,3.8-20.46c.37-.95.76-1.89,1.17-2.81a57.42,57.42,0,0,1,12.17-17.44c.72-.71,1.47-1.4,2.23-2.08a57.65,57.65,0,0,1,13.65-8.94l-2.09-5.3a62.73,62.73,0,1,0,88.85,57Z"/><path class="cls-13" d="M598.63,421.59l2.29.35c0-.32,0-.63,0-.95a15.28,15.28,0,0,1,1.19-5.91l-2.6-.39-5.65-.86-47.52-7.23a10.07,10.07,0,0,1,.22,2.06,9.71,9.71,0,0,1-1.27,4.82L593,420.73Z"/><path class="cls-12" d="M619.94,406.32l-4.71-13.77h6.52v-7H606.68L613.6,406a15.31,15.31,0,0,1,2.46-.2A15.51,15.51,0,0,1,619.94,406.32Z"/><path class="cls-14" d="M651.6,307.54a5,5,0,0,0-1.06-1.1l-38.11-29.3L576.5,265a16.05,16.05,0,0,0-14.82,2.36L571,297.06l9.54,3.24,11-3.19,43.49,14.76-9.66,6.45-.18.66a176.69,176.69,0,0,1-22.7,50.24h0l8.43,5.53,39.31-59.89a5.17,5.17,0,0,0,2.08-2.84h0a4.21,4.21,0,0,0,.12-.51l1.56-2.37Z"/><path class="cls-15" d="M650.54,306.44l-21.46-16.5-11.75,15.9,17.75,6-9.66,6.45-.18.66a176.69,176.69,0,0,1-22.7,50.24h0l8.43,5.53,39.31-59.89a5.17,5.17,0,0,0,2.08-2.84h0a4.21,4.21,0,0,0,.12-.51l1.56-2.37-2.44-1.6A5,5,0,0,0,650.54,306.44Z"/><path class="cls-11" d="M619.94,406.32a15.51,15.51,0,0,0-3.88-.5,15.31,15.31,0,0,0-2.46.2,15.08,15.08,0,0,0-2.25.55l-5-.39-6.86-.52-5.75-.45-45.32-3.48-5.16-.4a9.86,9.86,0,0,0-2.57-1.64,9.64,9.64,0,0,0-3.91-.82,9.8,9.8,0,1,0,0,19.59,11.17,11.17,0,0,0,1.42-.11l52.39,11.43,5.6,1.22,11.27,2.46a15.11,15.11,0,0,0,8.64,2.7c.43,0,.86,0,1.28-.06l-4.89-14.3,6.58-2.25L624,434a15.19,15.19,0,0,0-3.29-27.42Zm-22.65,21.05-5.56-1.22-48.13-10.5a9.84,9.84,0,0,0,2.93-7,10.07,10.07,0,0,0-.22-2.06,9.11,9.11,0,0,0-.37-1.26l48,3.69,5.69.44,6.06.47A15.07,15.07,0,0,0,600.89,421c0,.32,0,.63,0,.95a15.13,15.13,0,0,0,2,6.66Z"/><path class="cls-8" d="M614.86,366.4,601.15,375l-2.51,8.45,34.87,10.33a6,6,0,0,0,7.44-4h0Z"/><rect class="cls-9" x="625.19" y="370.09" width="2.63" height="24.7" transform="translate(-69.16 616.58) rotate(-50)"/><path class="cls-13" d="M691.74,358.67l21,52.86a3.48,3.48,0,0,0,3.24,2.19,3.66,3.66,0,0,0,1.28-.24,3.49,3.49,0,0,0,1.95-4.52l-20.95-52.83-2.1-5.3L679,307.58c2.3-1.78,6.67-5,10.91-8.07l-7-3.52c-4.39,3.14-7.25,5.16-9.09,6.44a5.2,5.2,0,0,0-1.89,6.11l3.71,9.34L593.8,347.56l-10-29.43-6.12,3.61,10.07,29.74-10.62,10.86-4,4.08-32.53,33.27a9.86,9.86,0,0,1,2.57,1.64l5.16.4,29.88-30.56,4-4.07,8-8.24,16,47.32,5,.39a15.08,15.08,0,0,1,2.25-.55l-6.92-20.43L596,354.14l75.65-27.45-51,79.84a15.11,15.11,0,0,1,6,3.58l52.78-82.58,10.25,25.84Z"/><polygon class="cls-12" points="619.03 419.55 612.45 421.8 617.34 436.1 619.73 443.11 613.22 443.11 613.22 450.06 635.34 450.06 635.34 443.11 627.08 443.11 623.95 433.95 619.03 419.55"/><path class="cls-12" d="M599.82,308.68a5.2,5.2,0,0,0-2.65-9.68H562.48a5.2,5.2,0,0,0-5.2,5.2v20.51a5.2,5.2,0,0,0,7.85,4.47l12.59-7.44,6.12-3.61Z"/><polygon class="cls-12" points="696.95 303.04 700.14 296.86 673.59 283.59 670.4 289.77 682.85 295.99 689.88 299.51 696.95 303.04"/><path class="cls-11" d="M593.48,292.81l0-.11Z"/><path class="cls-11" d="M593.5,292.87l0-.06Z"/><path class="cls-11" d="M593.5,292.87Z"/><path class="cls-11" d="M593.45,292.7l0-.12Z"/><path class="cls-11" d="M593.41,292.58v0Z"/><path class="cls-13" d="M564,282.8c2.81,3.85,1.54.88,1.2,1.54,8.42,2.76,13.53,4.79,20.1-3.56,10.64-13.5,9.77-20.08,25.71-30.26,2-.31,3.91-.24,6-.37,6.76-4.74,15.24-7.64,22.27-11.54,8-4.47,8.52-8.16,6.08-16.42a58.57,58.57,0,0,0-6-13c-3.48-5.67-6.22-7.36-12.82-4.92-5.55,2.05-12.46,5.78-17.86,8.53a51.34,51.34,0,0,0-22.29,21.56h0c-9.95,8-15.89,21.36-23.6,30.35C556.59,271.86,561.08,278.83,564,282.8Z"/><path class="cls-15" d="M637.41,218.21h0a6.41,6.41,0,0,0,9,1.37l15.35-11.26c2.84-2.08.81-4.17-1.27-7l2.64-1.94a6.41,6.41,0,0,0-9-1.37l-15.35,11.26A6.42,6.42,0,0,0,637.41,218.21Z"/><path class="cls-16" d="M658.9,179.5c.27,0,.54,0,.8-.05h.8c.21,0,.42,0,.62,0h.17l.72.07h.06a16.65,16.65,0,0,1,3,.63h0a15.56,15.56,0,0,1,8.07,5.89s1.83,17.27,2.76,26.09a5.76,5.76,0,0,1-5.18,6.35h-.06a20.13,20.13,0,0,1-20.36-12h0l-.59-.48h0l-.56-.51h0l-.52-.52,0,0-.49-.54,0,0c-.15-.17-.3-.35-.44-.54l0-.05c-.14-.18-.28-.36-.41-.55l-.05-.07-.36-.55-.06-.09c-.11-.18-.22-.36-.32-.54l-.07-.13c-.1-.17-.19-.35-.28-.53l-.08-.15-.24-.53a1.3,1.3,0,0,0-.08-.17c-.07-.17-.14-.35-.2-.52s-.06-.14-.08-.2-.12-.34-.17-.51l-.08-.23-.14-.5-.06-.25c0-.17-.08-.34-.12-.51a2,2,0,0,1,0-.26,5.07,5.07,0,0,1-.09-.54,2.23,2.23,0,0,1,0-.23c0-.27-.07-.53-.09-.8A15.45,15.45,0,0,1,658.9,179.5Z"/><path class="cls-17" d="M642.22,177.3a15.07,15.07,0,0,1,4.9-4.52c6.27-3.67,15-3.22,21.42-.28,8.66,4,13.88,12.61,13.88,12.61l-13.31,1.43-5.93,7.36a4.59,4.59,0,1,0-4.58,5.68l-5.79,7.19s-10.25-10.53-10.32-10.64C639,190.4,638.31,183,642.22,177.3Z"/><path class="cls-16" d="M690.19,300.38l-2.05-6.63a6.65,6.65,0,0,0,.3-.89,6.56,6.56,0,0,0-.1-3.67,6.08,6.08,0,0,0-.35-.89,4.5,4.5,0,0,0-.23-.43c-.08-.14-.17-.27-.26-.41l-.29-.39-.16-.19,0-.05,0,0h0l0,0c-.08-.11-.16-.21-.23-.32a10.36,10.36,0,0,1-.83-1.42q-.2-.37-.36-.78c-.06-.13-.11-.27-.17-.4l-.18-.46-.79-2-.07,0,0-.05-1.43.28L656.68,244l-.11-.12L633.92,206a7.66,7.66,0,0,0-11-2.36h0a11.62,11.62,0,0,0-2.9,16.18l1.32,1.89a15,15,0,0,0,9.7,6.22h0l17.55,25.21a5.77,5.77,0,0,0,.83.95l6.14,15.13,17.51,17.22.64,7.65a11.33,11.33,0,0,0,10.31,10.35l2.69.24A3.3,3.3,0,0,0,690.19,300.38Z"/><path class="cls-11" d="M563.86,294.44l9.15,6.92,19.61,56.74-5.82,20.14.29.62a177,177,0,0,1,15,53h0l10-1.21L603.5,358.9v0l.67-48.08-11.73-36.07a15.89,15.89,0,0,0-1.11-2.6c2.16-3.45,3.84-6.46,6-9.35L571,253.13a118.88,118.88,0,0,1-8.33,11.6L558.82,270c-1.44,5.4-1.88,11.43-.34,16.8Z"/><path class="cls-16" d="M587.09,378.86a177,177,0,0,1,15,53h0l10-1.21L603.5,358.9v0l.54-39.21-21.76,8.53,10.34,29.9-5.82,20.14Z"/><path class="cls-7" d="M610.07,422.07l-11,11.82-.25,8.81,36.36,1a6,6,0,0,0,6.14-5.82h0Z"/><rect class="cls-9" x="624.13" y="422.22" width="2.63" height="24.7" transform="translate(-33.21 816.93) rotate(-64.93)"/><rect class="cls-10" x="390.12" y="328.76" width="7.83" height="7.43"/><path class="cls-10" d="M411,359.82s0-.06,0-.09v-9h-9.86v10.9h1A22.53,22.53,0,0,0,411,359.82Z"/><rect class="cls-10" x="390.12" y="339.35" width="7.83" height="8.22"/><rect class="cls-10" x="401.12" y="339.35" width="9.86" height="8.22"/><rect class="cls-10" x="390.12" y="350.73" width="7.83" height="10.9"/><path class="cls-10" d="M328.81,438.11H322.3l4.7,13.77.72.21,51-79.84L303.1,399.71l10.65,31.45h15.06Z"/><path class="cls-10" d="M424.87,339.35H414.14v8.22h9A22.53,22.53,0,0,0,424.87,339.35Z"/><path class="cls-10" d="M253.31,431.9l-2.9-.94L260,401.21a56.86,56.86,0,0,0-16-2.29c-1.72,0-3.41.08-5.09.23l3.62,31.06-3,.35-3.62-31.06a56.61,56.61,0,0,0-20.07,6.89l16.16,26.73-2.61,1.58L213.16,408a57.58,57.58,0,0,0-15.4,14.57l25.78,17.65-1.73,2.52L196,425.06a56.42,56.42,0,0,0-8,19.7l30.8,5.29-.51,3-30.81-5.29a57.28,57.28,0,0,0,.9,21.18l30.25-7.9.78,2.95-30.26,7.89a56.83,56.83,0,0,0,9.65,18.93L223,471.05l1.93,2.36-24.18,19.77a57.35,57.35,0,0,0,16.57,13.21l13.87-28,2.73,1.35-13.87,28a56.54,56.54,0,0,0,20.62,5.16l.94-31.25,3,.1L243.72,513H244a56.83,56.83,0,0,0,20.6-3.85l-12-28.85,2.81-1.17,12,28.84a57.4,57.4,0,0,0,17.41-12.21l-23-21.17,2.07-2.25,23,21.18a57.27,57.27,0,0,0,10.77-18.19l-52.39-11.43a9.63,9.63,0,0,1-1.43.11,9.8,9.8,0,0,1,0-19.59,9.65,9.65,0,0,1,3.92.82L280.25,412a57.09,57.09,0,0,0-17.37-9.83Z"/><path class="cls-10" d="M306.51,451.22l6.87.52-16-47.31-8.05,8.23A62.54,62.54,0,0,1,306.51,451.22Z"/><rect class="cls-10" x="414.14" y="328.76" width="10.74" height="7.43"/><path class="cls-10" d="M296.24,433.15l-28.63,12.18-1.19-2.8,28.52-12.14a57.45,57.45,0,0,0-9.61-13.66l-29.88,30.56,45.32,3.48A56.82,56.82,0,0,0,296.24,433.15Z"/><path class="cls-10" d="M424.27,459a3.38,3.38,0,0,1-1.28.24,3.48,3.48,0,0,1-3.23-2.19l-20.95-52.86a57.45,57.45,0,0,0-13.65,8.94l21.23,22.9-2.23,2.07-21.24-22.89a57.21,57.21,0,0,0-12.16,17.44l28.87,12-1.16,2.82-28.88-12a56.81,56.81,0,0,0-3.8,20.46c0,.14,0,.28,0,.41L397,455.32l.1,3-31.23,1.06A56.77,56.77,0,0,0,371.1,480l28-13.92,1.36,2.73-28,13.92a57.25,57.25,0,0,0,13.27,16.54L405.41,475l2.37,1.92-19.67,24.25A56.86,56.86,0,0,0,407,510.77l7.89-30.25,2.95.77L410,511.54A56.78,56.78,0,0,0,422.83,513a58,58,0,0,0,8.39-.62l-5.45-30.78,3-.53,5.45,30.78a56.61,56.61,0,0,0,19.6-8l-17.66-25.78,2.51-1.72,17.66,25.77a57.4,57.4,0,0,0,14.57-15.47l-26.79-16.06,1.57-2.61L472.48,484A56.54,56.54,0,0,0,479.31,464l-31.05-3.59.35-3,31.05,3.58c.14-1.64.22-3.29.22-5a56.52,56.52,0,0,0-2.35-16.18l-29.72,9.69-.94-2.9,29.72-9.69a57.12,57.12,0,0,0-10.7-18.29l-23.05,21.07-2-2.25,23-21.06a57.14,57.14,0,0,0-17.35-12.29l-12.16,28.79-2.81-1.18,12.17-28.8a56.63,56.63,0,0,0-20.84-3.95l.83,31.24-3.05.08L419.79,399a56.61,56.61,0,0,0-14.51,2.69l20.94,52.84A3.47,3.47,0,0,1,424.27,459Z"/><rect class="cls-10" x="401.12" y="328.76" width="9.86" height="7.43"/><path class="cls-10" d="M301,456c0-.45,0-.91,0-1.36l-48-3.7a8.85,8.85,0,0,1,.37,1.27l47.52,7.22C301,458.26,301,457.11,301,456Z"/><path class="cls-10" d="M252.33,459a9.76,9.76,0,0,1-1.66,2.17l48.12,10.5a54.05,54.05,0,0,0,1.27-5.42Z"/><path class="cls-10" d="M421.53,350.73h-7.39v7.45A23,23,0,0,0,421.53,350.73Z"/><path class="cls-10" d="M306.54,460.25l2.61.39a15.2,15.2,0,0,1,3.59-5.14l-6.06-.47c0,.31,0,.62,0,.93Q306.69,458.12,306.54,460.25Z"/><path class="cls-10" d="M305.69,467.15c-.35,2-.8,3.89-1.33,5.78l5.64,1.23a15.08,15.08,0,0,1-2-6.66Z"/><path class="cls-11" d="M266.42,442.53l1.19,2.8,28.63-12.18c-.41-.94-.85-1.86-1.3-2.76Z"/><path class="cls-11" d="M253.31,431.9l9.57-29.75c-.95-.34-1.92-.65-2.9-.94L250.41,431Z"/><path class="cls-11" d="M242.49,430.21l-3.62-31.06c-1,.09-2,.21-3,.35l3.62,31.06Z"/><path class="cls-11" d="M231.93,433.12l-16.16-26.73c-.89.51-1.76,1-2.61,1.58l16.16,26.73Z"/><path class="cls-11" d="M223.54,440.19l-25.78-17.65c-.59.82-1.17,1.66-1.72,2.52l25.77,17.65Z"/><path class="cls-11" d="M218.83,450.05,188,444.76c-.2,1-.37,2-.52,3l30.81,5.29Z"/><path class="cls-11" d="M218.66,461l-30.25,7.9c.23,1,.49,2,.77,2.94L219.44,464Z"/><path class="cls-11" d="M223,471.05l-24.18,19.76c.63.81,1.27,1.6,1.93,2.37l24.18-19.77Z"/><path class="cls-11" d="M231.2,478.4l-13.87,28c.89.48,1.8.93,2.73,1.36l13.87-28Z"/><path class="cls-11" d="M241.62,481.66l-.94,31.25c1,.06,2,.09,3,.09l.94-31.24Z"/><path class="cls-11" d="M252.53,480.31l12,28.85c.95-.37,1.89-.76,2.81-1.18l-12-28.84Z"/><path class="cls-11" d="M261.82,474.6l23,21.17c.71-.73,1.4-1.47,2.07-2.24l-23-21.18Z"/><path class="cls-11" d="M406.39,436.07l-21.23-22.9c-.77.68-1.51,1.37-2.24,2.08l21.24,22.89Z"/><path class="cls-11" d="M399.63,444.66l-28.87-12c-.42.92-.81,1.86-1.17,2.81l28.88,12Z"/><path class="cls-11" d="M397,455.32l-31.23,1.05c0,1,0,2,.1,3.05l31.23-1.06Z"/><path class="cls-11" d="M399.1,466.07,371.1,480c.43.92.89,1.83,1.37,2.73l28-13.92Z"/><path class="cls-11" d="M405.41,475l-19.67,24.24c.77.67,1.56,1.31,2.37,1.93l19.67-24.25Z"/><path class="cls-11" d="M414.91,480.52,407,510.77c1,.29,2,.54,3,.77l7.89-30.25Z"/><path class="cls-11" d="M425.77,481.61l5.45,30.78c1-.15,2-.32,3-.53l-5.45-30.78Z"/><path class="cls-11" d="M436.17,478.05l17.66,25.78c.86-.56,1.69-1.13,2.51-1.73l-17.66-25.77Z"/><path class="cls-11" d="M444.12,470.57l26.79,16.06c.55-.85,1.07-1.72,1.57-2.61L445.69,468Z"/><path class="cls-11" d="M448.26,460.37,479.31,464c.14-1,.26-2,.35-3l-31.05-3.58Z"/><path class="cls-11" d="M447.81,449.47l29.72-9.69c-.29-1-.6-1.95-.94-2.9l-29.72,9.69Z"/><path class="cls-11" d="M442.84,439.66l23.05-21.07c-.66-.76-1.35-1.51-2.06-2.24l-23,21.06Z"/><path class="cls-11" d="M434.32,432.85l12.16-28.79c-.92-.42-1.85-.82-2.8-1.19l-12.17,28.8Z"/><path class="cls-11" d="M423.67,430.16l-.83-31.24h0c-1,0-2,0-3,.08l.83,31.24Z"/><path class="cls-12" d="M297.62,475.34a57.27,57.27,0,0,1-10.77,18.19c-.67.77-1.36,1.51-2.07,2.24A57.4,57.4,0,0,1,267.37,508c-.92.42-1.86.81-2.81,1.18A56.83,56.83,0,0,1,244,513h-.24c-1,0-2,0-3-.09a56.54,56.54,0,0,1-20.62-5.16c-.93-.43-1.84-.88-2.73-1.36a57.35,57.35,0,0,1-16.57-13.21c-.66-.77-1.3-1.56-1.93-2.37a56.83,56.83,0,0,1-9.65-18.93c-.28-1-.54-1.95-.77-2.94a57.28,57.28,0,0,1-.9-21.18c.15-1,.32-2,.52-3a56.42,56.42,0,0,1,8-19.7c.55-.86,1.13-1.7,1.72-2.52A57.58,57.58,0,0,1,213.16,408c.85-.55,1.72-1.07,2.61-1.58a56.61,56.61,0,0,1,20.07-6.89c1-.14,2-.26,3-.35,1.68-.15,3.37-.23,5.09-.23a56.86,56.86,0,0,1,16,2.29c1,.29,1.95.6,2.9.94A57.09,57.09,0,0,1,280.25,412l4-4.07a62.71,62.71,0,1,0,19,68.65Z"/><path class="cls-12" d="M300.9,459.39l5.64.86q.15-2.13.15-4.29c0-.31,0-.62,0-.93L301,454.6c0,.45,0,.91,0,1.36C301,457.11,301,458.26,300.9,459.39Z"/><path class="cls-12" d="M300.06,466.29a54.05,54.05,0,0,1-1.27,5.42l5.57,1.22c.53-1.89,1-3.82,1.33-5.78Z"/><path class="cls-12" d="M296.24,433.15a56.82,56.82,0,0,1,4.53,17.62l5.74.45a62.54,62.54,0,0,0-17.2-38.56l-4,4.07a57.45,57.45,0,0,1,9.61,13.66C295.39,431.29,295.83,432.21,296.24,433.15Z"/><path class="cls-12" d="M485.56,456a62.72,62.72,0,0,0-82.38-59.57l2.1,5.3A56.61,56.61,0,0,1,419.79,399c1-.05,2-.08,3-.08h0a56.63,56.63,0,0,1,20.84,3.95c.95.37,1.88.77,2.8,1.19a57.14,57.14,0,0,1,17.35,12.29c.71.73,1.4,1.48,2.06,2.24a57.12,57.12,0,0,1,10.7,18.29c.34.95.65,1.92.94,2.9A56.52,56.52,0,0,1,479.88,456c0,1.68-.08,3.33-.22,5-.09,1-.21,2-.35,3A56.54,56.54,0,0,1,472.48,484c-.5.89-1,1.76-1.57,2.61a57.4,57.4,0,0,1-14.57,15.47c-.82.6-1.65,1.17-2.51,1.73a56.61,56.61,0,0,1-19.6,8c-1,.21-2,.38-3,.53a58,58,0,0,1-8.39.62A56.78,56.78,0,0,1,410,511.54c-1-.23-2-.48-3-.77a56.86,56.86,0,0,1-18.91-9.58c-.81-.62-1.6-1.26-2.37-1.93a57.25,57.25,0,0,1-13.27-16.54c-.48-.9-.94-1.81-1.37-2.73a56.77,56.77,0,0,1-5.2-20.57c-.06-1-.1-2-.1-3.05,0-.13,0-.27,0-.41a56.81,56.81,0,0,1,3.8-20.46c.36-.95.75-1.89,1.17-2.81a57.21,57.21,0,0,1,12.16-17.44c.73-.71,1.47-1.4,2.24-2.08a57.45,57.45,0,0,1,13.65-8.94l-2.1-5.29a62.73,62.73,0,1,0,88.85,57Z"/><path class="cls-13" d="M305.69,467.15l2.3.35c0-.31,0-.63,0-.95a15.14,15.14,0,0,1,1.19-5.91l-2.61-.39-5.64-.86-47.52-7.22a9.93,9.93,0,0,1,.22,2.06,9.67,9.67,0,0,1-1.27,4.81l47.73,7.25Z"/><path class="cls-12" d="M327,451.88l-4.7-13.77h6.51v-6.95H313.75l6.91,20.42a15.28,15.28,0,0,1,6.34.3Z"/><path class="cls-12" d="M327,451.88a15.18,15.18,0,0,0-8.59.25l-5-.39-6.87-.52-5.74-.45-45.32-3.48-5.17-.4a9.81,9.81,0,0,0-2.56-1.64,9.65,9.65,0,0,0-3.92-.82,9.8,9.8,0,0,0,0,19.59,9.63,9.63,0,0,0,1.43-.11l52.39,11.43,5.6,1.22L314.49,479a15.09,15.09,0,0,0,8.64,2.7c.43,0,.85,0,1.28-.06l-4.89-14.3,6.58-2.25,4.92,14.4a15.18,15.18,0,0,0-3.3-27.42Zm-22.64,21.05-5.57-1.22-48.12-10.5a9.84,9.84,0,0,0,2.93-7,9.93,9.93,0,0,0-.22-2.06,8.85,8.85,0,0,0-.37-1.27l48,3.7,5.69.43,6.06.47A15.07,15.07,0,0,0,308,466.55c0,.32,0,.64,0,.95a15.08,15.08,0,0,0,2,6.66Z"/><polygon class="cls-12" points="326.1 465.11 319.52 467.36 324.4 481.66 326.8 488.67 320.28 488.67 320.28 495.63 342.4 495.63 342.4 488.67 334.15 488.67 331.02 479.51 326.1 465.11"/><path class="cls-18" d="M288.65,321c.26-.19.49-.31.74-.46s.48-.26.71-.36.46-.2.69-.3l.67-.25A12.1,12.1,0,0,1,294,319a11.79,11.79,0,0,1,4.66.49l4.42,1.28,4.41,1.33q8.81,2.72,17.47,5.85l4.33,1.58,4.31,1.64c2.88,1.08,5.75,2.2,8.62,3.31l8.62,3.32,8.63,3.28,1.85.7a12.89,12.89,0,0,1,6.69,18.3L358.13,378c-3.34,5.93-6.65,11.88-10,17.79L343,404.65l-5.1,8.86c-3.43,5.89-6.86,11.79-10.38,17.64A7,7,0,0,1,315,425.31c2.19-6.47,4.47-12.89,6.75-19.31l3.47-9.62,3.5-9.6c2.33-6.4,4.74-12.77,7.11-19.15l7.22-19.1,8.54,19-9-2-9-2c-3-.66-6-1.3-9-2l-4.51-1-4.48-1.06q-9-2.16-17.81-4.74l-4.41-1.31-4.4-1.36a11.88,11.88,0,0,1-4.15-2.16,11.74,11.74,0,0,1-1.84-1.88l-.43-.57c-.14-.21-.28-.41-.41-.63s-.27-.45-.4-.69-.25-.5-.36-.8A21,21,0,0,1,288.65,321Z"/><path class="cls-12" d="M306.89,354.25a5.21,5.21,0,0,0-2.65-9.69H269.55a5.2,5.2,0,0,0-5.2,5.21v20.5a5.2,5.2,0,0,0,7.84,4.48l12.6-7.45,6.12-3.61Z"/><path class="cls-11" d="M390.16,363.53l.5,1.26H402.1a26,26,0,0,0,23.32-14.59,1.52,1.52,0,0,0,.39-.85,25.62,25.62,0,0,0,2.24-10.51v-.13a1.58,1.58,0,0,0,0-1.88V325.6H387v37.93Zm24-34.77h10.75v7.43H414.14Zm0,10.59h10.73a22.53,22.53,0,0,1-1.72,8.22h-9Zm0,11.38h7.39a23,23,0,0,1-7.39,7.45Zm-13-22H411v7.43h-9.86Zm0,10.59H411v8.22h-9.86Zm0,11.38H411v9s0,.06,0,.09a22.53,22.53,0,0,1-8.89,1.81h-1Zm-11-22H398v7.43h-7.84Zm0,10.59H398v8.22h-7.84Zm0,11.38H398v10.9h-7.84Z"/><path class="cls-13" d="M426.22,454.53l-20.94-52.84-2.1-5.3-12.52-31.6,0,0V321.91h-7.39v41.32l-82.38,29.89-10-29.43-6.12,3.61L294.86,397l-10.63,10.87-4,4.07-32.53,33.27a9.81,9.81,0,0,1,2.56,1.64l5.17.4,29.88-30.56,4-4.07,8.05-8.23,16,47.31,5,.39a15.39,15.39,0,0,1,2.25-.55l-6.91-20.42L303.1,399.71l75.65-27.46-51,79.84a15.15,15.15,0,0,1,6,3.58l52.78-82.58,10.24,25.85,2.1,5.29,20.95,52.86a3.48,3.48,0,0,0,3.23,2.19,3.38,3.38,0,0,0,1.28-.24A3.47,3.47,0,0,0,426.22,454.53Z"/><path class="cls-12" d="M400.05,325.6h-41a3.7,3.7,0,0,1,0-7.39h41a3.7,3.7,0,0,1,0,7.39Z"/><path class="cls-19" d="M309.22,245.16a11,11,0,0,1,2.14.55,14.19,14.19,0,0,1,9.27,14c-.42,10.78-1.61,21.48-.95,32.3-4.72,3-9.43,5.66-14.09,9-1.83,10.15-2.94,22.65-1.33,32.43s-9.19,15.61-14.55,16.92-2.22-.1-2.17.65c-10.85-3.86-16.25-4.57-16.6-18.3-.71-28.3,6.14-53.12,18.56-78.63C294.65,243.43,298.91,243.66,309.22,245.16Z"/><rect class="cls-15" x="304.91" y="223.14" width="13.1" height="29.23" rx="6.38" transform="translate(572.51 529.98) rotate(-169.13)"/><path class="cls-16" d="M312.1,203.51l21,7.93.18,11.7c0,.21,0,.43,0,.64a13.53,13.53,0,0,1,0,1.56l-.09.8a14.33,14.33,0,0,1-.49,2.43,13.68,13.68,0,0,1-11.48,9.63l-.15,0a18.13,18.13,0,0,1-9-34.71Z"/><path class="cls-17" d="M312.63,199.05h.17l7.78-.06A26.09,26.09,0,0,1,340,207.42h0l-22.36,12.93a5.27,5.27,0,0,0-6.07-4.36,5.18,5.18,0,0,0-4.31,4.19,5.28,5.28,0,0,0,.86,4l.11,10.42a18.1,18.1,0,0,1,4.4-35.59Z"/><path class="cls-17" d="M277.05,246c2.79-7.42,6.26-17.41,8.83-24.32,4.25-11.46,13.23-16.24,24.63-14.39h0c-6.32-1.12-2.12-1.15-10.18-2.56h0c-8.07-1.41-20.75,2.69-23.75,14-1.81,6.84-6.26,16.61-8.47,23.92A88.6,88.6,0,0,0,277.05,246Z"/><path class="cls-16" d="M362.38,308.6c-3-2.5-6-5-9-7.44l-4.57-3.76-4.6-3.72c-2.72-2.18-5.46-4.35-8.23-6.47l-11.57-18.14c-2-3.16-4.08-6.31-6.06-9.51s-4-6.39-5.88-9.62a9.8,9.8,0,0,0-.58-.85,8.57,8.57,0,0,0-13.58,10.47q3.45,4.47,6.8,9c2.25,3,4.42,6.08,6.61,9.13L325,296l.2.28a6.33,6.33,0,0,0,1.42,1.41c3.2,2.3,6.44,4.54,9.7,6.76l4.9,3.31,4.93,3.27c2.76,1.83,5.51,3.65,8.28,5.46l3.32,8.21a13,13,0,0,0,14.82,7.84l3-.66a3.79,3.79,0,0,0,2.32-5.85l-4.5-6.56a7.79,7.79,0,0,0,0-1.08,7.49,7.49,0,0,0-1.35-4,8.12,8.12,0,0,0-.69-.86c-.12-.14-.27-.26-.4-.39l-.42-.37c-.15-.11-.3-.22-.46-.32l-.23-.16-.06,0,0,0h0l0,0-.36-.27a13.65,13.65,0,0,1-1.39-1.27l-.66-.73-.32-.39-.35-.44"/><path class="cls-11" d="M340.43,386.09l-1.1-1.53-6-8.32-5.92-8.34c-2-2.78-3.93-5.57-5.93-8.33l-3-4.16-3-4.12q-5.41-7.32-11.11-14.43l0-.67h0a11.77,11.77,0,0,0-.12-2.82,70.71,70.71,0,0,1-.75-12.84l-32.19-3.45c0,.08,0,.16,0,.24l-.25-.12-4,21.17,0,0c0,.24,0,.47-.07.71s0,.57,0,.84,0,.53,0,.8l.07.77a13.69,13.69,0,0,0,.64,2.77,14.13,14.13,0,0,0,2.56,4.5l3.2,4,3.24,4q6.51,7.84,13.38,15.42l3.45,3.77,3.48,3.74c2.32,2.5,4.67,5,7,7.46l7,7.44,3.81,4.09-.19,13.47c-.05,6.68-.15,13.36-.15,20.05l0,10v10c0,6.69.08,13.38.23,20.07a7,7,0,0,0,13.82,1.23c1.31-6.57,2.53-13.15,3.75-19.73l1.78-9.87,1.73-9.88c1.17-6.58,2.25-13.17,3.37-19.76l3.24-19.77A11.35,11.35,0,0,0,340.43,386.09Z"/><path class="cls-19" d="M330.33,464.09l-17.6,12.4-1.83,8.36,34.44,7.56a5.8,5.8,0,0,0,6.92-4.43h0l-21.85-15.74h0a4.31,4.31,0,0,0,1.31-6Z"/><rect class="cls-9" x="336.5" y="469.97" width="2.55" height="23.95" transform="translate(-250.69 473.2) rotate(-54.12)"/><path class="cls-20" d="M9.75,402.9,54,325.39c26.5-46.37,97.3-27.56,97.3,25.84v77.51a52.08,52.08,0,0,1-52.08,52.08H55C15,480.82-10.09,437.62,9.75,402.9Z"/><path class="cls-21" d="M164.41,267.53V186.14c0-59.12-78.37-79.94-107.7-28.61l-49,85.79c-22,38.44,5.79,86.26,50.06,86.26h49l.75,0L84,370.67c-19.84,34.72,5.23,77.92,45.22,77.92h44.29a52.08,52.08,0,0,0,52.08-52.08V319C225.61,283,193.48,262.76,164.41,267.53Z"/><polygon class="cls-3" points="147.14 356.4 108.95 394.59 108.95 182.34 104.05 182.34 104.05 279.95 63.06 238.96 63.06 245.9 104.05 286.89 104.05 584.52 108.95 584.52 108.95 401.53 147.14 363.34 147.14 356.4"/><rect class="cls-22" x="277.35" y="546.05" width="603.71" height="113.33" rx="55.18"/><rect class="cls-23" x="78.52" y="566.65" width="393.17" height="113.33" rx="55.18"/><rect class="cls-23" x="537.47" y="575.37" width="257.47" height="113.33" rx="55.18"/></g></g></svg>