<svg xmlns="http://www.w3.org/2000/svg" xmlns:xlink="http://www.w3.org/1999/xlink" viewBox="0 0 447.13 390.31"><defs><style>.cls-1{fill:#a4e603;}.cls-2{fill:#373c41;}.cls-3{fill:url(#Безымянный_градиент_16);}.cls-4{fill:url(#Безымянный_градиент_22);}.cls-5{fill:#eeb5ac;}.cls-6{fill:#fff;}.cls-7{fill:#dea095;}.cls-8{fill:#623c34;}.cls-9{fill:url(#Безымянный_градиент_22-2);}</style><linearGradient id="Безымянный_градиент_16" x1="16441.3" y1="251.27" x2="16283.94" y2="148.12" gradientTransform="matrix(-1, 0, 0, 1, 16506.05, 0)" gradientUnits="userSpaceOnUse"><stop offset="0" stop-color="#373c41"/><stop offset="1"/></linearGradient><linearGradient id="Безымянный_градиент_22" x1="16058.92" y1="81.3" x2="16227.93" y2="81.3" gradientTransform="matrix(-1, 0, 0, 1, 16506.05, 0)" gradientUnits="userSpaceOnUse"><stop offset="0" stop-color="#eeb5ac"/><stop offset="1" stop-color="#dea095"/></linearGradient><linearGradient id="Безымянный_градиент_22-2" x1="16096.16" y1="69" x2="16071.59" y2="63.28" xlink:href="#Безымянный_градиент_22"/></defs><title>run</title><g id="Слой_2" data-name="Слой 2"><g id="элементы"><path class="cls-1" d="M203.93,202.72c-.47.58-.7.84,0,0Z"/><path class="cls-1" d="M197,174.23c8.23-13.37,23.43-36.14,28.26-47.56C227,110.17,227.6,102,234.05,89c3.57-7.21,7.07-16.57,11.43-23.63a29.28,29.28,0,0,1,2.7-3.76l42.46,11.23c5.27,5.23,5.82,10.93,2.12,20.44-4.25,10.93-10.58,22.14-15.5,33-2.5,1.57-4.88,2.72-7.29,4.5-11.29,21.54-24.88,43.9-37.6,64.15-7.86,12.51-16.49,13.79-28.44,7.82S190.44,184.84,197,174.23Z"/><path class="cls-2" d="M195.81,201.27l-.05-.16Z"/><path class="cls-2" d="M195.84,201.37l0-.1Z"/><path class="cls-2" d="M195.84,201.37Z"/><path class="cls-2" d="M195.76,201.11l-.06-.18Z"/><path class="cls-2" d="M195.7,200.93v0Z"/><path class="cls-3" d="M43.13,192.07a266.4,266.4,0,0,0,72.6,40.34l1,.35,10.9,19.66,52-53.26h0a54.94,54.94,0,0,1,14.89-29.41l3.94-4a24.23,24.23,0,0,1,40,8.45l-5.16.23-13.92,39.23-26.2,26.84-24.28,12.31-24,12.16c-4.61,2.34-9.6,4.14-13.71,7.35a9.8,9.8,0,0,1-9.19,1c-6.44-3-6.73-5.52-11.67-9.39l-10.19-8L73.73,235.28q-12.77-10-25.55-20L34.24,204.38l-.46-.36Z"/><path class="cls-2" d="M185.71,186.75a41,41,0,0,1,13.22-24.84L212,150.15l-.06.23c.06-.09.12-.18.17-.27l33.12,24c-2.84,4.69-5.7,9.32-8.53,13.87l30.43,35.78,25.93,65.57,70.18,82.53-11.56,9.83h0a266.33,266.33,0,0,0-63-54.1l-.87-.54-9.67-30.82-53.37-62.76-18.7-10.82-14.4-16.94h0l-.45-.52c-.17-.2-.34-.42-.5-.64l-6.4-7.87Z"/><path class="cls-4" d="M278.85,82.05h0a11.52,11.52,0,0,1,15.09-7.5l65.32,24.54,52.57-24.61,1.54-5.2,22.37-21.91a5.2,5.2,0,0,1,8.45,1.76l1.61,3.94A17.88,17.88,0,0,1,438.72,75s-13.05,9-13.87,9.61l-35.69,25.77-28.76,6.36a8.65,8.65,0,0,1-2.45-.21,8.47,8.47,0,0,1-2.54-.35L311.16,103a22.63,22.63,0,0,1-17.23,1.79l-3.32-1A17.47,17.47,0,0,1,278.85,82.05Z"/><path class="cls-5" d="M116.28,139.41l1.7-5a40.18,40.18,0,0,1,8-13.4h0L149.1,88.14l25.09-15.41a8.67,8.67,0,0,1,2.39-.61,8.88,8.88,0,0,1,2.51-.5l46.12-2.05a22.66,22.66,0,0,1,15.7-7.33l3.46-.15A17.47,17.47,0,0,1,262.6,78.77h0a11.51,11.51,0,0,1-11.81,12L181,89l-42.38,41.38,0,1.07,0,.74c0,.22,0,.44,0,.66,0,.44,0,.88,0,1.3a16.2,16.2,0,0,0,.3,2.47c0,.2.08.4.13.59l0,.07v.06l0,.09.1.36c.06.24.12.48.17.72s.08.49.11.73a6.15,6.15,0,0,1,.06.74,10,10,0,0,1-2.11,6.62,12,12,0,0,1-1,1.05l-1.13,10.45A5,5,0,0,1,128,162L124.4,160A17.19,17.19,0,0,1,116.28,139.41Z"/><path class="cls-5" d="M267.72,225.17l25.36,64.12,70.18,82.53-11.56,9.83h0a266.33,266.33,0,0,0-63-54.1l-.87-.54-9.67-30.82-39.77-46.76Z"/><path class="cls-2" d="M203.93,202.72c-.47.58-.7.84,0,0Z"/><polygon class="cls-1" points="248.13 61.62 305.5 76.46 326.27 86.35 316.87 107.62 281.76 107.13 233.18 90.81 220.79 90.03 217.98 69.89 237.74 59.65 248.13 61.62"/><path class="cls-2" d="M349.4,355.84l-.47,24.35,8.61,10.12,41.73-35.49a9,9,0,0,0,1-12.71h0Z"/><rect class="cls-6" x="360.61" y="352.37" width="37.21" height="3.96" transform="translate(-86.56 125.39) rotate(-16.88)"/><path class="cls-7" d="M270.47,82.45h0a9.68,9.68,0,0,0,12.59-5.25L294,50.67c2-4.91-2.22-6-7.13-8l1.88-4.57a9.68,9.68,0,0,0-12.59,5.25l-10.9,26.53A9.67,9.67,0,0,0,270.47,82.45Z"/><path class="cls-5" d="M308.76,9.46c.38.16.74.34,1.1.51l.61.33c.15.08.31.15.45.24s.54.31.81.48l.21.12c.32.2.62.4.92.61l.06,0a23.71,23.71,0,0,1,3.52,3h0a23.45,23.45,0,0,1,6.47,13.59s-10,24.19-15.1,36.53a8.67,8.67,0,0,1-11.42,4.69l-.09,0C283.8,64.07,276.7,51.51,278,39.07h0c-.15-.35-.3-.71-.43-1.07h0c-.14-.36-.26-.71-.38-1.08v0c-.11-.35-.22-.71-.32-1.07v0c-.09-.35-.18-.7-.25-1l0-.07c-.07-.35-.14-.69-.2-1a.36.36,0,0,0,0-.1c-.05-.34-.1-.68-.14-1,0-.05,0-.09,0-.14,0-.33-.07-.65-.09-1,0-.06,0-.12,0-.18,0-.31,0-.62,0-.94v-.22c0-.3,0-.6,0-.9a2.26,2.26,0,0,0,0-.26c0-.28,0-.57.06-.86,0-.1,0-.2,0-.3,0-.27.06-.55.1-.82,0-.11,0-.22,0-.33,0-.27.09-.53.14-.8,0-.12,0-.23.07-.35s.11-.51.17-.77l.09-.38c.07-.25.14-.5.22-.75s.07-.25.11-.38.18-.53.27-.79l.12-.33c.14-.37.29-.75.45-1.11C283,9.34,296.81,4.21,308.76,9.46Z"/><path class="cls-8" d="M285.32,2.48A22.92,22.92,0,0,1,295.06,0C306-.33,317.25,6.53,323.61,15c8.61,11.51,9.33,26.67,9.33,26.67L314.27,34l-13.12,5.48A6.92,6.92,0,1,0,291,43.76l-12.84,5.35s-6-21.31-6-21.51C271.64,17.51,276,7.23,285.32,2.48Z"/><path class="cls-9" d="M413.32,69.14l2.2-2.53L416,66l.45-.53c.29-.35.57-.71.83-1.06a18.07,18.07,0,0,0,1.39-2.18c.1-.19.19-.37.28-.56l0-.07v-.06l0-.09.16-.35.33-.7.4-.65a4.72,4.72,0,0,1,.44-.63,9,9,0,0,1,1-1.14,10.32,10.32,0,0,1,5.07-2.78,10,10,0,0,1,5.7.37c.23.09.45.18.66.28l.33.15.31.17a10.44,10.44,0,0,1,1.19.77l.57.46.13.11.07.08.15.15.6.61,2.37,2.45-4.67,5.33-2.65-2-.66-.49-.16-.12-.09-.06,0,0-.12,0a2.46,2.46,0,0,0-.24-.07l-.07,0h-.19a1.62,1.62,0,0,0-.88.26,1.28,1.28,0,0,0-.55.64s0,.12-.05.17,0,0,0,.08a.17.17,0,0,1,0,.07.25.25,0,0,1,0,.07v0h0v0l0,.13c-.09.34-.19.68-.3,1a27.29,27.29,0,0,1-1.57,3.8c-.3.6-.62,1.19-.95,1.76-.16.29-.33.57-.5.85l-.48.77L422.57,76Z"/><path class="cls-5" d="M36.17,205.89l1.09-6.31,5.87-7.51a266.4,266.4,0,0,0,72.6,40.34l1,.35,10.9,19.66,33.52-34.34,17.57,29.73-9.79,5-24,12.16c-4.61,2.34-9.6,4.14-13.71,7.35a9.8,9.8,0,0,1-9.19,1c-6.44-3-6.73-5.52-11.67-9.39l-10.19-8L73.73,235.28q-12.77-10-25.55-20Z"/><path class="cls-2" d="M50.57,216.89l-4.43-23.95-10.47-8.19L1.92,227.9a9,9,0,0,0,1.54,12.66h0Z"/><rect class="cls-6" x="3.05" y="222.36" width="37.21" height="3.96" transform="translate(-104.3 37.44) rotate(-28.46)"/></g></g></svg>