<svg xmlns="http://www.w3.org/2000/svg" width="112" height="140" viewBox="0 0 112 140"><defs><linearGradient id="i1xla" x1="75.69" x2="91.69" y1="82.29" y2="84.02" gradientUnits="userSpaceOnUse"><stop offset="0" stop-color="#eb556f"/><stop offset="1" stop-color="#c34761"/></linearGradient></defs><g><g><g><g><path fill="#fff" d="M16.47 64.918l-2.414-5.14-12.85-5.14c-1.662 5.087-.805 8.125 2.57 9.111 3.374.987 7.606 1.376 12.694 1.169z"/></g></g><g><g><path fill="#fff" d="M95.455 5.908l-.191-.022a2.184 2.184 0 0 0-1.765.604l-14.66 14.175a2.659 2.659 0 0 0-.928.383l-8.558 5.551c-1.745-.334-5.269 1.425-6.776 2.415l-1.48 2.881c-2.423 1.592-3.856 3.143-2.31 5.495 1.068 1.628 3.335 1.98 4.933.768l17.131-13.001c.151-.115.288-.244.409-.385.146-.033.29-.079.434-.139l7.53-4.619 7.682-10.751a2.18 2.18 0 0 0 .407-1.209 2.095 2.095 0 0 0-1.858-2.146z"/></g></g><g><g><path fill="#fff" d="M47.063 41.087c-2.626-1.01-5.598.365-6.639 3.07l-.373.97a6.905 6.905 0 0 0 .079 5.18L35.315 62.83l-19.099 1.015a2.183 2.183 0 0 0-1.644.881l-.114.155a2.094 2.094 0 0 0 .307 2.822c.324.286.73.47 1.162.525l13.104 1.697 8.51-2.37c.554-.249.971-.666 1.222-1.158a2.635 2.635 0 0 0 1.031-1.149l9.067-19.501c.846-1.82.02-3.96-1.798-4.659z"/></g></g><g><g><path fill="#fff" d="M87.813 101.783l-.215-.5c.104-.343.129-.711.058-1.078l-3.935-20.454-8.142-14.277a6.97 6.97 0 0 0-12.108 6.905l3.266 5.727 4.49 2.13L81.03 97.43l-2.824-.42-.14.16c-3.818 4.33-8.329 7.639-13.368 9.806l1.725 4.01 18.855-8.112a2.239 2.239 0 0 0 1.91-.822z"/></g></g><g><g><g><path fill="#fff" d="M68.725 111.466l-3.258-6.201-3.572-1.357-5.594 14.728a2.593 2.593 0 0 0 1.503 3.345z"/></g></g><g><path fill="#fff" d="M57.276 119.407l.814.795 7.474-7.66-.815-.794z"/></g></g><g><g><path fill="#fff" d="M17.47 55.392a7.91 7.91 0 1 1-15.48 3.261 7.91 7.91 0 0 1 15.48-3.26z"/></g></g><g><g><path fill="#fff" d="M66.74 61.249a6.97 6.97 0 0 0-8.25 5.678l-1.092 6.502 2.13 4.49-3.883 23.123-9.2 2.272-.17.241a76.535 76.535 0 0 1-16.65 17.124l2.617 3.494 25.679-19.232a2.25 2.25 0 0 0 1.705-1.164l9.888-18.332 2.722-16.21a6.97 6.97 0 0 0-5.497-7.986z"/></g></g><g><g><g><path fill="#fff" d="M35.499 121.693l-6.04-3.55-3.75.733 3.019 15.463a2.593 2.593 0 0 0 3.042 2.048z"/></g></g><g><path fill="#fff" d="M29.963 134.48l1.11.245 2.308-10.45-1.11-.245z"/></g></g><g><g/><g><path fill="#fff" d="M71.776 72.349l-.011.002"/></g><g><path fill="#fff" d="M71.942 72.32c-.034.007-.087.015-.166.029"/></g><g><path fill="#fff" d="M71.95 72.32a.14.14 0 0 1-.008 0"/></g><g><path fill="#fff" d="M71.983 72.314l-.032.005"/></g><g><path fill="#fff" d="M71.72 72.358h-.003"/></g><g><path fill="#fff" d="M71.698 72.362h-.006"/></g><g><path fill="#fff" d="M71.717 72.359l-.015.002"/></g><g><path fill="#fff" d="M71.765 72.35a8.324 8.324 0 0 0-.044.008"/></g><g><path fill="#fff" d="M71.702 72.361h-.004"/></g></g><g><g><path fill="#fff" d="M52.77 38.037a2.782 2.782 0 0 0 1.657-3.555l-2.823-7.751c-.522-1.434-1.635-.843-3.068-.321l-.487-1.337a2.782 2.782 0 0 0-1.657 3.555l2.823 7.752a2.781 2.781 0 0 0 3.555 1.657z"/></g></g><g><g><g><path fill="#fff" d="M44.475 15.23c.104-.054.21-.105.315-.153.06-.027.122-.052.183-.078l.134-.057c.085-.033.17-.063.254-.093l.067-.025c.1-.034.2-.065.301-.095l.022-.006c.432-.125.869-.205 1.305-.243a6.75 6.75 0 0 1 4.209 1.018c2.658 4.133 4.597 7.325 5.816 9.576.66 1.22-2.011 3.086-3.244 3.725-.007.004-.807.654-.815.658-3.492 1.796-4.965.552-7.515-1.984a6.588 6.588 0 0 1-.626-.207l-.006-.002a6.627 6.627 0 0 1-.876-.415l-.026-.015a6.308 6.308 0 0 1-.52-.33l-.04-.03a6.423 6.423 0 0 1-.218-.163l-.049-.038a6.311 6.311 0 0 1-.2-.167l-.055-.048a6.487 6.487 0 0 1-.183-.17l-.062-.058a6.002 6.002 0 0 1-.167-.173l-.065-.068a6.212 6.212 0 0 1-.152-.175c-.023-.027-.046-.052-.068-.08-.048-.057-.094-.117-.14-.178l-.067-.087c-.045-.06-.087-.123-.13-.185-.02-.031-.044-.062-.064-.094-.044-.066-.086-.135-.127-.204l-.054-.087a6.296 6.296 0 0 1-.166-.302c-1.665-3.235-.308-7.25 3.03-8.968z"/></g></g></g><g><path fill="#fff" d="M39.215 21.303c.698-4.05 3.813-8.333 9.197-8.378 2.756-.022 5.305.894 7.647 2.75l-8.395 3.223-1.155 3.925a1.99 1.99 0 1 0-.893 3.034l1.077 3.804c-2.807-.554-4.225-.841-4.256-.864-2.344-1.716-3.732-4.539-3.222-7.494z"/></g><g><g><path fill="#fff" d="M46.735 28.883l3.829-1.706a31.848 31.848 0 0 1 5.966-1.979l.55-.124c.523.912.352 1.683-.514 2.312l-3.641 2.971-3.352.863z"/></g></g><g><path fill="#fff" d="M75.027 59.024L71.942 81.49l9.093 15.905 6.542 3.894-.433-15.391z"/></g><g><path fill="#fff" d="M73.733 64.14c-1.052-1.687-2.19-3.465-3.34-5.296l3.69-1.913-11.528-27.923c-.304.117-7.28 4.455-20.928 13.012-.584.862-.983 1.57-1.198 2.127l7.46 3.689.241-.517c.076.26.145.508.205.737.009.036.02.071.03.107l2.062 15.43h8.879l.002-.002c1.443 2.376 2.864 4.679 4.203 6.727 2.167 3.314 5.553 3.644 8.18 2.045 2.628-1.6 4.07-4.974 2.042-8.223z"/></g><g><g><path fill="#fff" d="M73.99 56.724l-14.68 6.869-1.951 9.736 2.031 5.412-3.745 22.314 3.35 3.66 22.192-32.028z"/></g></g><g><g><path fill="#fff" d="M94.19 10.669l-.44-4.42 1.387-.74c.05-.136.097-.272.153-.404.06-.149.12-.297.187-.442l.098-.219.104-.215c.281-.572.603-1.12.966-1.635.363-.515.762-1 1.193-1.45.108-.112.219-.22.329-.33l.17-.158c.056-.052.115-.109.166-.153l.637-.566 1.352 1.283-.53.666c-.047.057-.083.106-.123.158l-.116.154c-.074.105-.15.209-.222.315-.286.425-.537.87-.752 1.326a9.26 9.26 0 0 0-.362.884l1.305-.315-.01-.025.427-.19a17.788 17.788 0 0 1 6.372-1.5h.026l.086 1.862-.025.001c-1.573.074-3.11.376-4.585.899l-.02.417a17.959 17.959 0 0 1 5.688-.372l.37.035-.178 1.856-.37-.035c-1.87-.18-3.78-.02-5.6.457l-.003.06a17.829 17.829 0 0 1 4.411.46l1.054.245-.422 1.816-1.054-.245a15.967 15.967 0 0 0-4.026-.409c.779.233 1.543.519 2.283.855l1.089.496-.773 1.697-1.09-.496a16.026 16.026 0 0 0-2.882-.993l-2.247-.542.011-.046z"/></g></g><g><g><path fill="#fff" d="M11.797 63.282l-4.127.39-.013-.012.01.018c-.36-.027-.722-.069-1.081-.133-.568-.1-1.132-.243-1.686-.43-.138-.048-.275-.1-.413-.15l-.205-.082c-.069-.028-.133-.052-.21-.087l-.892-.385-1.006 1.874.813.53c.065.044.144.092.218.138l.226.14c.153.088.306.178.462.263.624.34 1.277.634 1.953.878.676.245 1.375.435 2.09.573l.268.05.27.043c.18.03.36.051.542.072.163.022.326.033.49.048l5.952 1.09.012-1.596-.51-1.955z"/></g></g></g><g><g><g><path fill="#dea095" d="M20.22 67.918l-2.414-5.14-12.85-5.141c-1.662 5.088-.805 8.126 2.57 9.112 3.375.987 7.606 1.376 12.694 1.169z"/></g></g><g><g><path fill="#eeb5ac" d="M99.205 8.908l-.191-.022a2.183 2.183 0 0 0-1.765.604l-14.66 14.175a2.658 2.658 0 0 0-.928.382L73.103 29.6c-1.745-.334-5.269 1.425-6.776 2.415l-1.48 2.881c-2.423 1.592-3.855 3.143-2.31 5.495 1.068 1.628 3.335 1.98 4.933.768l17.131-13.001c.151-.115.288-.244.41-.385a2.61 2.61 0 0 0 .433-.139l7.53-4.619 7.682-10.751c.253-.355.395-.776.407-1.209a2.095 2.095 0 0 0-1.858-2.146z"/></g></g><g><g><path fill="#eeb5ac" d="M50.813 44.087c-2.626-1.01-5.599.365-6.639 3.07l-.373.97a6.904 6.904 0 0 0 .079 5.18L39.065 65.83l-19.099 1.015c-.655.035-1.26.359-1.644.881l-.114.156a2.094 2.094 0 0 0 .307 2.821c.324.286.73.47 1.162.525l13.104 1.697 8.51-2.37c.554-.25.971-.666 1.222-1.158a2.635 2.635 0 0 0 1.031-1.149l9.067-19.501c.846-1.82.02-3.96-1.798-4.659z"/></g></g><g><g><path fill="#dea095" d="M91.563 104.783l-.215-.5c.104-.343.128-.711.058-1.078l-3.935-20.454-8.142-14.277a6.97 6.97 0 1 0-12.108 6.905l3.266 5.727 4.49 2.13 9.804 17.193-2.824-.42-.14.159c-3.818 4.33-8.329 7.64-13.368 9.807l1.725 4.01 18.855-8.112a2.237 2.237 0 0 0 1.91-.822z"/></g></g><g><g><g><path fill="#373c41" d="M72.475 114.466l-3.258-6.201-3.572-1.357-5.594 14.728a2.593 2.593 0 0 0 1.503 3.345z"/></g></g><g><path fill="#fff" d="M61.026 122.407l.814.795 7.474-7.66-.815-.794z"/></g></g><g><g><path fill="#db4f69" d="M21.22 58.392a7.91 7.91 0 1 1-15.48 3.262 7.91 7.91 0 0 1 15.48-3.262z"/></g></g><g><g><path fill="#eeb5ac" d="M70.49 64.25a6.97 6.97 0 0 0-8.25 5.677l-1.092 6.502 2.13 4.49-3.883 23.123-9.2 2.272-.17.241a76.543 76.543 0 0 1-16.65 17.124l2.617 3.494 25.679-19.232a2.25 2.25 0 0 0 1.706-1.164l9.887-18.332 2.722-16.21a6.97 6.97 0 0 0-5.497-7.986z"/></g></g><g><g><g><path fill="#373c41" d="M39.25 124.693l-6.04-3.55-3.75.733 3.018 15.463a2.593 2.593 0 0 0 3.042 2.048z"/></g></g><g><path fill="#fff" d="M33.713 137.48l1.11.245 2.308-10.45-1.11-.245z"/></g></g><g><g/><g><path fill="#a4e603" d="M75.526 75.349c-.004 0-.008 0-.011.002"/></g><g><path fill="#a4e603" d="M75.692 75.32l-.166.029"/></g><g><path fill="#a4e603" d="M75.7 75.32h-.008"/></g><g><path fill="#a4e603" d="M75.733 75.314l-.032.005"/></g><g><path fill="#a4e603" d="M75.47 75.358h-.003"/></g><g><path fill="#a4e603" d="M75.448 75.362a.09.09 0 0 0-.007.001"/></g><g><path fill="#a4e603" d="M75.467 75.359l-.015.002"/></g><g><path fill="#a4e603" d="M75.515 75.35l-.044.008"/></g><g><path fill="#a4e603" d="M75.452 75.361l-.004.001"/></g></g><g><g><path fill="#dea095" d="M56.52 41.037a2.782 2.782 0 0 0 1.657-3.555l-2.823-7.751c-.522-1.434-1.635-.843-3.068-.321l-.487-1.337a2.782 2.782 0 0 0-1.657 3.556l2.822 7.751a2.782 2.782 0 0 0 3.556 1.657z"/></g></g><g><g><g><path fill="#eeb5ac" d="M48.225 18.23c.104-.054.21-.105.315-.153.06-.027.122-.052.183-.078l.134-.057c.084-.033.17-.063.254-.093l.067-.025c.1-.034.2-.065.301-.094l.022-.007c.432-.124.869-.205 1.305-.243a6.75 6.75 0 0 1 4.209 1.018c2.658 4.133 4.597 7.325 5.816 9.576.66 1.22-2.011 3.086-3.244 3.725-.007.004-.807.654-.815.658-3.492 1.796-4.965.552-7.515-1.984a6.773 6.773 0 0 1-.317-.097h-.001a6.442 6.442 0 0 1-.308-.11l-.006-.002a6.53 6.53 0 0 1-.296-.123l-.011-.005a6.538 6.538 0 0 1-.283-.134l-.019-.01a6.549 6.549 0 0 1-.267-.143l-.026-.015a6.653 6.653 0 0 1-.251-.151c-.011-.008-.023-.014-.034-.021a6.557 6.557 0 0 1-.234-.159l-.042-.029a6.427 6.427 0 0 1-.216-.163l-.05-.038a6.288 6.288 0 0 1-.2-.167l-.055-.048a6.434 6.434 0 0 1-.183-.17l-.061-.058a6.734 6.734 0 0 1-.168-.173l-.065-.068a6.528 6.528 0 0 1-.152-.175c-.023-.027-.046-.052-.068-.08-.048-.057-.093-.117-.14-.177l-.067-.089c-.045-.06-.087-.122-.13-.184l-.065-.094c-.043-.067-.084-.135-.126-.204l-.054-.086a6.489 6.489 0 0 1-.166-.303c-1.665-3.235-.308-7.25 3.03-8.968z"/></g></g></g><g><path fill="#373c41" d="M42.964 24.303c.699-4.05 3.814-8.333 9.197-8.378 2.757-.022 5.306.894 7.648 2.75l-8.395 3.223-1.155 3.925a1.99 1.99 0 1 0-.893 3.034l1.077 3.804c-2.807-.554-4.225-.841-4.256-.864-2.344-1.715-3.732-4.539-3.223-7.494z"/></g><g><g><path fill="#dea095" d="M50.485 31.883l3.829-1.706a31.839 31.839 0 0 1 5.966-1.979l.55-.124c.523.912.352 1.683-.514 2.312l-3.641 2.971-3.352.863z"/></g></g><g><path fill="url(#i1xla)" d="M78.777 62.024L75.692 84.49l9.093 15.905 6.542 3.894-.433-15.391z"/></g><g><path fill="#373c41" d="M77.483 67.14c-1.052-1.687-2.19-3.465-3.34-5.296l3.69-1.913-11.528-27.923c-.304.117-7.28 4.455-20.928 13.012-.584.862-.983 1.57-1.198 2.127l7.46 3.689.241-.518c.076.261.145.51.204.738.01.036.021.071.03.107l2.063 15.43h8.879l.002-.002c1.444 2.375 2.864 4.679 4.203 6.727 2.167 3.314 5.553 3.644 8.18 2.045 2.628-1.6 4.07-4.974 2.042-8.223z"/></g><g><g><path fill="#db4f69" d="M77.74 59.724l-14.68 6.869-1.951 9.736 2.031 5.412-3.745 22.314 3.35 3.66 22.192-32.028z"/></g></g><g><g><path fill="#eeb5ac" d="M97.94 13.669L97.5 9.25l1.387-.742c.05-.135.097-.27.153-.403.06-.149.12-.297.187-.442l.098-.219.104-.215c.281-.572.603-1.12.966-1.635.363-.515.762-1 1.193-1.45.108-.112.219-.22.329-.33l.17-.158c.056-.052.115-.108.166-.153l.637-.566 1.353 1.283-.532.666c-.046.057-.082.106-.122.158l-.116.154c-.075.105-.15.209-.221.315-.287.425-.538.87-.753 1.326a9.3 9.3 0 0 0-.362.884l1.305-.315-.01-.025.427-.19a17.783 17.783 0 0 1 6.372-1.5h.026l.086 1.862-.025.001c-1.573.074-3.11.376-4.585.899l-.02.417a17.967 17.967 0 0 1 5.688-.372l.37.035-.178 1.856-.37-.035c-1.87-.18-3.78-.02-5.6.457l-.003.06a17.829 17.829 0 0 1 4.411.46l1.054.245-.422 1.816-1.054-.245a15.962 15.962 0 0 0-4.026-.41c.779.234 1.544.52 2.282.856l1.09.497-.773 1.696-1.09-.496a16.022 16.022 0 0 0-2.882-.993l-2.247-.542.011-.046z"/></g></g><g><g><path fill="#eeb5ac" d="M15.547 66.282l-4.127.39-.013-.012.01.018c-.36-.027-.722-.069-1.081-.133-.568-.1-1.132-.243-1.686-.43-.138-.048-.275-.1-.413-.15l-.204-.082c-.07-.028-.134-.052-.211-.087l-.892-.385-1.006 1.874.813.53c.064.044.144.092.218.138l.226.14c.153.088.306.178.462.263.624.34 1.277.634 1.953.878.676.245 1.375.435 2.09.573l.268.05.27.043c.18.03.36.051.542.072.163.022.326.033.49.048l5.952 1.09.012-1.596-.51-1.955z"/></g></g></g></g></svg>