<svg xmlns="http://www.w3.org/2000/svg" width="354" height="243" viewBox="0 0 354 243"><defs><linearGradient id="s30aa" x1="130.69" x2="146.69" y1="155.29" y2="157.02" gradientUnits="userSpaceOnUse"><stop offset="0" stop-color="#eb556f"/><stop offset="1" stop-color="#c34761"/></linearGradient></defs><g><g><path fill="#fff" d="M18.055 149.588l1.542 2.407-.912 1.615L17.66 152 2.11 179.606l-1.463-.823 15.515-27.546-1.965.078.906-1.604z"/></g><g><path fill="#fff" d="M36.352 117.088l1.6 2.302-.91 1.615-1.067-1.54-15.547 27.603-1.502-.753 15.513-27.544-2.003.149.906-1.605z"/></g><g><path fill="#fff" d="M54.647 84.591l1.66 2.197-.911 1.615-1.106-1.47-15.545 27.6-1.542-.682L52.715 86.31l-2.043.217.906-1.604z"/></g><g><path fill="#fff" d="M26.07 153.632l1.586 2.449-.922 1.633-1.056-1.638L9.951 184l-1.497-.841 15.692-27.863-2.003.07.916-1.622z"/></g><g><path fill="#fff" d="M44.577 120.76l1.646 2.34-.922 1.634-1.096-1.566-15.725 27.92-1.538-.77 15.69-27.86-2.043.142.916-1.622z"/></g><g><path fill="#fff" d="M63.081 87.89l1.707 2.233-.922 1.633-1.137-1.494-15.723 27.918-1.578-.699 15.69-27.857-2.084.214.916-1.623z"/></g><g><path fill="#fff" d="M34.272 157.771l1.631 2.49-.933 1.653-1.086-1.666-15.91 28.248-1.532-.861 15.875-28.186-2.045.063.926-1.642z"/></g><g><path fill="#fff" d="M52.992 124.516l1.694 2.38-.933 1.653-1.128-1.592-15.907 28.245-1.574-.788 15.873-28.183-2.086.135.927-1.641z"/></g><g><path fill="#fff" d="M71.711 91.265l1.755 2.27-.932 1.653-1.17-1.52-15.905 28.243-1.615-.715 15.871-28.18-2.126.208.926-1.641z"/></g><g><path fill="#fff" d="M42.666 162.007l1.678 2.534-.943 1.672-1.118-1.695-16.096 28.58-1.569-.881 16.06-28.517-2.087.054.937-1.66z"/></g><g><path fill="#fff" d="M61.606 128.361l1.742 2.422-.944 1.672-1.16-1.62-16.094 28.577-1.61-.806 16.058-28.514-2.13.128.938-1.66z"/></g><g><path fill="#fff" d="M80.544 94.72l1.805 2.308-.943 1.672-1.203-1.545L64.11 125.73l-1.652-.732 16.057-28.51-2.171.202.937-1.66z"/></g><g><path fill="#fff" d="M51.26 166.343l1.727 2.58-.955 1.691-1.15-1.725-16.288 28.92-1.606-.902 16.25-28.855-2.13.045.948-1.68z"/></g><g><path fill="#fff" d="M70.424 132.298l1.792 2.463-.955 1.692-1.194-1.648-16.285 28.917-1.649-.825 16.249-28.853-2.174.122.948-1.681z"/></g><g><path fill="#fff" d="M89.587 98.256l1.857 2.348-.955 1.692-1.237-1.571-16.284 28.914-1.692-.749 16.247-28.85-2.217.198.948-1.68z"/></g><g><path fill="#fff" d="M40.662 205.243l1.713 2.744-.967 1.712-1.14-1.835-16.484 29.272-1.601-1.003 16.446-29.205-2.132-.043.96-1.7z"/></g><g><path fill="#fff" d="M60.06 170.784l1.778 2.626-.966 1.712-1.185-1.756-16.483 29.268-1.645-.924 16.445-29.202-2.176.035.96-1.7z"/></g><g><path fill="#fff" d="M79.454 136.329l1.845 2.507-.966 1.712-1.23-1.677-16.48 29.266-1.69-.846 16.444-29.199-2.22.113.96-1.7z"/></g><g><path fill="#fff" d="M98.847 101.878l1.911 2.389-.966 1.712-1.274-1.599-16.48 29.263-1.732-.767 16.442-29.196-2.265.191.96-1.7z"/></g><g><path fill="#fff" d="M49.256 210.107l1.763 2.793-.978 1.733-1.174-1.868-16.68 29.62-1.64-1.026 16.642-29.553-2.178-.054.971-1.721z"/></g><g><path fill="#fff" d="M68.884 175.237l1.83 2.672-.978 1.733-1.22-1.787-16.678 29.617-1.684-.946 16.64-29.55-2.223.026.972-1.721z"/></g><g><path fill="#fff" d="M88.509 140.371l1.898 2.551-.977 1.733-1.265-1.707-16.678 29.615-1.729-.866 16.639-29.546-2.268.105.972-1.72z"/></g><g><path fill="#fff" d="M108.132 105.51l1.966 2.43-.978 1.732-1.31-1.626-16.675 29.612-1.775-.786 16.637-29.543-2.312.185.971-1.72z"/></g><g><path fill="#fff" d="M78.115 179.896l1.886 2.721-.99 1.755-1.256-1.821-16.884 29.983-1.726-.97 16.844-29.913-2.271.015.983-1.742z"/></g><g><path fill="#fff" d="M97.982 144.6l1.955 2.598-.99 1.754-1.303-1.738-16.882 29.98-1.772-.887 16.843-29.91-2.318.096.984-1.742z"/></g><g><path fill="#fff" d="M117.846 109.308l2.025 2.474-.99 1.754-1.35-1.655-16.88 29.977-1.818-.805 16.841-29.907-2.363.178.983-1.741z"/></g><g><path fill="#fff" d="M87.577 184.67l1.943 2.773-1.002 1.776-1.295-1.855-17.094 30.358-1.77-.993 17.055-30.287-2.322.004.996-1.764z"/></g><g><path fill="#fff" d="M107.691 148.935l2.014 2.645-1.002 1.776-1.342-1.77-17.093 30.355-1.817-.91 17.053-30.283-2.369.088.995-1.764z"/></g><g><path fill="#fff" d="M127.803 113.203l2.085 2.518-1.002 1.776-1.39-1.685-17.09 30.351-1.865-.825 17.05-30.28-2.415.172.995-1.764z"/></g><g><path fill="#fff" d="M97.279 189.566l2.002 2.826-1.015 1.798-1.334-1.89-17.31 30.742-1.815-1.02 17.27-30.668-2.375-.008 1.008-1.786z"/></g><g><path fill="#fff" d="M117.646 153.378l2.075 2.695-1.015 1.799-1.383-1.803-17.308 30.739-1.863-.933 17.267-30.666-2.422.079 1.008-1.786z"/></g><g><path fill="#fff" d="M138.01 117.195l2.15 2.564-1.016 1.799-1.431-1.716-17.307 30.735-1.912-.846 17.266-30.662-2.471.164 1.008-1.785z"/></g><g><path fill="#fff" d="M107.228 194.587l2.064 2.88-1.028 1.821-1.375-1.926-17.532 31.136-1.861-1.046 17.49-31.06-2.43-.02 1.022-1.81z"/></g><g><path fill="#fff" d="M127.855 157.936l2.14 2.746-1.029 1.822-1.425-1.838-17.53 31.133-1.91-.957 17.487-31.057-2.478.068 1.02-1.808z"/></g><g><path fill="#fff" d="M148.48 121.29l2.214 2.612-1.028 1.821-1.476-1.748-17.527 31.13-1.961-.868 17.485-31.054-2.527.156 1.02-1.808z"/></g><g><path fill="#fff" d="M117.435 199.738l2.129 2.936-1.042 1.846-1.418-1.965-17.759 31.54-1.91-1.073 17.716-31.462-2.485-.034 1.034-1.832z"/></g><g><path fill="#fff" d="M138.329 162.612l2.206 2.799-1.042 1.845-1.47-1.873-17.756 31.537-1.961-.982 17.713-31.46-2.535.058 1.034-1.832z"/></g><g><path fill="#fff" d="M159.22 125.49l2.283 2.662-1.042 1.845-1.52-1.781-17.756 31.533-2.012-.89 17.712-31.457-2.586.149 1.034-1.832z"/></g><g><path fill="#fff" d="M127.689 204.912l2.195 2.994-1.055 1.869-1.463-2.003-17.986 31.946-1.96-1.1 17.943-31.867-2.542-.046 1.047-1.856z"/></g><g><path fill="#fff" d="M148.85 167.309l2.274 2.852-1.055 1.87-1.515-1.91-17.984 31.943-2.012-1.006 17.94-31.864-2.594.047 1.048-1.856z"/></g><g><path fill="#fff" d="M170.01 129.71l2.352 2.712-1.055 1.869-1.567-1.815-17.983 31.939-2.064-.913 17.938-31.86-2.646.14 1.047-1.856z"/></g><g><path fill="#fff" d="M159.879 172.232l2.346 2.91-1.07 1.894-1.562-1.947-18.224 32.368-2.065-1.034 18.178-32.287-2.656.035 1.061-1.88z"/></g><g><path fill="#fff" d="M181.319 134.133l2.427 2.765-1.07 1.894-1.616-1.85-18.222 32.364-2.12-.938 18.176-32.283-2.709.13 1.061-1.88z"/></g><g><path fill="#fff" d="M171.205 177.288l2.421 2.968-1.083 1.92-1.614-1.986-18.469 32.805-2.121-1.062 18.422-32.722-2.72.023 1.075-1.905z"/></g><g><path fill="#fff" d="M192.933 138.675l2.504 2.82-1.083 1.92-1.67-1.888-18.466 32.802-2.177-.963 18.42-32.718-2.775.12 1.076-1.905z"/></g><g><path fill="#fff" d="M182.84 182.482l2.5 3.03-1.099 1.945-1.665-2.027-18.721 33.254-2.18-1.09 18.673-33.169-2.787.01 1.09-1.932z"/></g><g><path fill="#fff" d="M204.864 143.341l2.585 2.877-1.098 1.946-1.723-1.925-18.719 33.25-2.236-.99 18.67-33.164-2.843.11 1.09-1.931z"/></g><g><path fill="#fff" d="M194.798 187.82l2.581 3.093-1.113 1.973-1.72-2.07-18.98 33.716-2.242-1.122 18.931-33.627-2.856-.005 1.105-1.957z"/></g><g><path fill="#fff" d="M217.126 148.137l2.67 2.936-1.114 1.973-1.779-1.965-18.978 33.711-2.3-1.017 18.93-33.623-2.915.099 1.105-1.958z"/></g><g><path fill="#fff" d="M207.091 193.308l2.667 3.158-1.129 2.001-1.777-2.114-19.247 34.19-2.304-1.153 19.196-34.099-2.93-.02 1.121-1.984z"/></g><g><path fill="#fff" d="M229.732 153.068l2.758 2.996-1.13 2.001-1.837-2.006-19.245 34.186-2.364-1.046 19.193-34.095-2.988.087 1.12-1.985z"/></g><g><path fill="#fff" d="M219.468 198.833l2.755 3.225-1.146 2.029-1.835-2.159-19.515 34.668-2.37-1.185 19.463-34.575-3.002-.034 1.136-2.013z"/></g><g><path fill="#fff" d="M242.423 158.031l2.848 3.059-1.145 2.029-1.898-2.048-19.512 34.664-2.43-1.076 19.46-34.57-3.065.075 1.136-2.012z"/></g><g><path fill="#fff" d="M232.469 204.637l2.848 3.295-1.162 2.059-1.898-2.206-19.796 35.17-2.438-1.22 19.743-35.074-3.081-.05 1.152-2.042z"/></g><g><path fill="#fff" d="M255.756 163.245l2.944 3.125-1.162 2.058-1.962-2.092-19.794 35.166-2.502-1.107 19.74-35.07-3.144.063 1.153-2.042z"/></g><g><path fill="#fff" d="M269.478 168.612l3.045 3.193-1.179 2.089-2.03-2.138-20.083 35.682-2.575-1.14 20.028-35.582-3.228.048 1.17-2.071z"/></g><g><path fill="#fff" d="M283.61 174.14l3.15 3.263-1.197 2.12-2.1-2.185-20.382 36.213-2.652-1.173 20.325-36.112-3.315.033 1.186-2.102z"/></g><g><path fill="#fff" d="M298.167 179.833l3.26 3.338-1.214 2.152-2.173-2.235-20.69 36.761-2.733-1.209 20.63-36.656-3.405.017 1.204-2.134z"/></g><g><path fill="#fff" d="M313.171 185.7l3.377 3.416-1.234 2.185-2.25-2.287-21.007 37.326-2.818-1.246 20.947-37.218h-3.502l1.223-2.165z"/></g><g><g><path fill="#fff" d="M71.47 137.918l-2.414-5.14-12.85-5.14c-1.662 5.087-.805 8.125 2.57 9.111 3.374.987 7.606 1.376 12.694 1.169z"/></g></g><g><g><path fill="#fff" d="M150.455 78.908l-.191-.022a2.184 2.184 0 0 0-1.765.604l-14.66 14.175a2.659 2.659 0 0 0-.928.383l-8.558 5.551c-1.745-.334-5.269 1.425-6.776 2.415l-1.48 2.881c-2.423 1.592-3.856 3.143-2.31 5.495 1.068 1.628 3.335 1.98 4.933.768l17.131-13.001c.151-.115.288-.244.409-.385.146-.033.29-.079.434-.139l7.53-4.619 7.682-10.751a2.18 2.18 0 0 0 .407-1.209 2.095 2.095 0 0 0-1.858-2.146z"/></g></g><g><g><path fill="#fff" d="M102.063 114.087c-2.626-1.01-5.598.365-6.639 3.07l-.373.97a6.905 6.905 0 0 0 .079 5.18l-4.815 12.522-19.099 1.015a2.183 2.183 0 0 0-1.644.881l-.114.155a2.094 2.094 0 0 0 .307 2.822c.324.286.73.47 1.162.525l13.104 1.697 8.51-2.37c.554-.249.971-.666 1.222-1.158a2.635 2.635 0 0 0 1.031-1.149l9.067-19.501c.846-1.82.02-3.96-1.798-4.659z"/></g></g><g><g><path fill="#fff" d="M142.813 174.783l-.215-.5c.104-.343.129-.711.058-1.078l-3.935-20.454-8.142-14.277a6.97 6.97 0 0 0-12.108 6.905l3.266 5.727 4.49 2.13 9.804 17.193-2.824-.42-.14.16c-3.818 4.33-8.329 7.639-13.368 9.806l1.725 4.01 18.855-8.112a2.239 2.239 0 0 0 1.91-.822z"/></g></g><g><g><g><path fill="#fff" d="M123.725 184.466l-3.258-6.201-3.572-1.357-5.594 14.728a2.593 2.593 0 0 0 1.503 3.345z"/></g></g><g><path fill="#fff" d="M112.276 192.407l.814.795 7.474-7.66-.815-.794z"/></g></g><g><g><path fill="#fff" d="M72.47 128.392a7.91 7.91 0 1 1-15.48 3.261 7.91 7.91 0 0 1 15.48-3.26z"/></g></g><g><g><path fill="#fff" d="M121.74 134.25a6.97 6.97 0 0 0-8.25 5.677l-1.092 6.502 2.13 4.49-3.883 23.123-9.2 2.272-.17.241a76.535 76.535 0 0 1-16.65 17.124l2.617 3.494 25.679-19.232a2.25 2.25 0 0 0 1.705-1.164l9.888-18.332 2.722-16.21a6.97 6.97 0 0 0-5.497-7.986z"/></g></g><g><g><g><path fill="#fff" d="M90.499 194.693l-6.04-3.55-3.75.733 3.019 15.463a2.593 2.593 0 0 0 3.042 2.048z"/></g></g><g><path fill="#fff" d="M84.963 207.48l1.11.245 2.308-10.45-1.11-.245z"/></g></g><g><g/><g><path fill="#fff" d="M126.776 145.349l-.011.002"/></g><g><path fill="#fff" d="M126.942 145.32c-.034.007-.087.015-.166.029"/></g><g><path fill="#fff" d="M126.95 145.32a.14.14 0 0 1-.008 0"/></g><g><path fill="#fff" d="M126.983 145.314l-.032.005"/></g><g><path fill="#fff" d="M126.72 145.358h-.003"/></g><g><path fill="#fff" d="M126.698 145.362h-.006"/></g><g><path fill="#fff" d="M126.717 145.359l-.015.002"/></g><g><path fill="#fff" d="M126.765 145.35a8.324 8.324 0 0 0-.044.008"/></g><g><path fill="#fff" d="M126.702 145.361h-.004"/></g></g><g><g><path fill="#fff" d="M107.77 111.037a2.782 2.782 0 0 0 1.657-3.555l-2.823-7.751c-.522-1.434-1.635-.843-3.068-.321l-.487-1.337a2.782 2.782 0 0 0-1.657 3.555l2.823 7.752a2.781 2.781 0 0 0 3.555 1.657z"/></g></g><g><g><g><path fill="#fff" d="M99.475 88.23c.104-.054.21-.105.315-.153.06-.027.122-.052.183-.078l.134-.057c.085-.033.17-.063.254-.093l.067-.025c.1-.034.2-.065.301-.095l.022-.006c.432-.125.869-.205 1.305-.243a6.75 6.75 0 0 1 4.209 1.018c2.658 4.133 4.597 7.325 5.816 9.576.66 1.22-2.011 3.086-3.244 3.725-.007.004-.807.654-.815.658-3.492 1.796-4.965.552-7.515-1.984a6.588 6.588 0 0 1-.626-.207l-.006-.002a6.627 6.627 0 0 1-.876-.415l-.026-.015a6.308 6.308 0 0 1-.52-.33l-.04-.03a6.423 6.423 0 0 1-.218-.163l-.049-.038a6.311 6.311 0 0 1-.2-.167l-.055-.048a6.487 6.487 0 0 1-.183-.17l-.062-.058a6.002 6.002 0 0 1-.167-.173l-.065-.068a6.212 6.212 0 0 1-.152-.175c-.023-.027-.046-.052-.068-.08-.048-.057-.094-.117-.14-.178l-.067-.087c-.045-.06-.087-.123-.13-.185-.02-.031-.044-.062-.064-.094-.044-.066-.086-.135-.127-.204l-.054-.087a6.296 6.296 0 0 1-.166-.302c-1.665-3.235-.308-7.25 3.03-8.968z"/></g></g></g><g><path fill="#fff" d="M94.215 94.303c.698-4.05 3.813-8.333 9.197-8.378 2.756-.022 5.305.894 7.647 2.75l-8.395 3.223-1.155 3.925a1.99 1.99 0 1 0-.893 3.034l1.077 3.804c-2.807-.554-4.225-.841-4.256-.864-2.344-1.716-3.732-4.539-3.222-7.494z"/></g><g><g><path fill="#fff" d="M101.735 101.883l3.829-1.706a31.848 31.848 0 0 1 5.966-1.979l.55-.124c.523.912.352 1.683-.514 2.312l-3.641 2.971-3.352.863z"/></g></g><g><path fill="#fff" d="M130.027 132.024l-3.085 22.466 9.093 15.905 6.542 3.894-.433-15.391z"/></g><g><path fill="#fff" d="M128.733 137.14c-1.052-1.687-2.19-3.465-3.34-5.296l3.69-1.913-11.528-27.923c-.304.117-7.28 4.455-20.928 13.012-.584.862-.983 1.57-1.198 2.127l7.46 3.689.241-.517c.076.26.145.508.205.737.009.036.02.071.03.107l2.062 15.43h8.879l.002-.002c1.444 2.376 2.864 4.679 4.203 6.727 2.167 3.314 5.553 3.644 8.18 2.045 2.628-1.6 4.07-4.974 2.042-8.223z"/></g><g><g><path fill="#fff" d="M128.99 129.724l-14.68 6.869-1.951 9.736 2.031 5.412-3.745 22.314 3.35 3.66 22.192-32.028z"/></g></g><g><g><path fill="#fff" d="M149.19 83.669l-.44-4.42 1.387-.74c.05-.136.097-.272.153-.404.06-.149.12-.297.187-.442l.098-.219.104-.215c.281-.572.603-1.12.966-1.635.363-.515.762-1 1.193-1.45.107-.112.219-.22.329-.33l.17-.158c.056-.052.115-.109.166-.153l.637-.566 1.352 1.283-.53.666c-.047.057-.083.106-.123.158l-.116.154c-.074.105-.15.209-.222.315-.286.425-.537.87-.752 1.326a9.26 9.26 0 0 0-.362.884l1.305-.315-.01-.025.427-.19a17.788 17.788 0 0 1 6.372-1.5h.026l.086 1.862-.025.001c-1.573.074-3.11.376-4.585.899l-.02.417a17.959 17.959 0 0 1 5.688-.372l.37.035-.178 1.856-.37-.035c-1.87-.18-3.78-.02-5.6.457l-.003.06a17.829 17.829 0 0 1 4.411.46l1.054.245-.422 1.816-1.054-.245a15.967 15.967 0 0 0-4.026-.409c.779.233 1.543.519 2.283.855l1.089.496-.773 1.697-1.09-.496a16.026 16.026 0 0 0-2.882-.993l-2.247-.542.011-.046z"/></g></g><g><g><path fill="#fff" d="M66.797 136.282l-4.127.39-.013-.012.01.018c-.36-.027-.722-.069-1.081-.133-.568-.1-1.132-.243-1.686-.43-.138-.048-.275-.1-.413-.15l-.205-.082c-.069-.028-.133-.052-.21-.087l-.892-.385-1.006 1.874.813.53c.065.044.144.092.218.138l.226.14c.153.088.306.178.462.263.624.34 1.277.634 1.953.878.676.245 1.375.435 2.09.573l.268.05.27.043c.18.03.36.051.542.072.163.022.326.033.49.048l5.952 1.09.012-1.596-.51-1.955z"/></g></g><g><g><path fill="#dea095" d="M75.22 140.918l-2.414-5.14-12.85-5.141c-1.662 5.088-.805 8.126 2.57 9.112 3.375.987 7.606 1.376 12.694 1.169z"/></g></g><g><g><path fill="#eeb5ac" d="M154.205 81.908l-.191-.022a2.183 2.183 0 0 0-1.765.604l-14.66 14.175a2.658 2.658 0 0 0-.928.382l-8.558 5.552c-1.745-.334-5.269 1.425-6.776 2.415l-1.48 2.881c-2.423 1.592-3.855 3.143-2.31 5.495 1.068 1.628 3.335 1.98 4.933.768l17.131-13.001c.151-.115.288-.244.41-.385a2.61 2.61 0 0 0 .433-.139l7.53-4.619 7.682-10.751c.253-.355.395-.776.407-1.209a2.095 2.095 0 0 0-1.858-2.146z"/></g></g><g><g><path fill="#eeb5ac" d="M105.813 117.087c-2.626-1.01-5.599.365-6.639 3.07l-.373.97a6.904 6.904 0 0 0 .079 5.18l-4.815 12.522-19.099 1.015c-.655.035-1.26.359-1.644.881l-.114.156a2.094 2.094 0 0 0 .307 2.821c.324.286.73.47 1.162.525l13.104 1.697 8.51-2.37c.554-.25.971-.666 1.222-1.158a2.635 2.635 0 0 0 1.031-1.149l9.067-19.501c.846-1.82.02-3.96-1.798-4.659z"/></g></g><g><g><path fill="#dea095" d="M146.563 177.783l-.215-.5c.104-.343.128-.711.058-1.078l-3.935-20.454-8.142-14.277a6.97 6.97 0 1 0-12.108 6.905l3.266 5.727 4.49 2.13 9.804 17.193-2.824-.42-.14.159c-3.818 4.33-8.329 7.64-13.368 9.807l1.725 4.01 18.855-8.112a2.237 2.237 0 0 0 1.91-.822z"/></g></g><g><g><g><path fill="#373c41" d="M127.475 187.466l-3.258-6.201-3.572-1.357-5.594 14.728a2.593 2.593 0 0 0 1.503 3.345z"/></g></g><g><path fill="#fff" d="M116.026 195.407l.814.795 7.474-7.66-.815-.794z"/></g></g><g><g><path fill="#db4f69" d="M76.22 131.392a7.91 7.91 0 1 1-15.48 3.262 7.91 7.91 0 0 1 15.48-3.262z"/></g></g><g><g><path fill="#eeb5ac" d="M125.49 137.25a6.97 6.97 0 0 0-8.25 5.677l-1.092 6.502 2.13 4.49-3.883 23.123-9.2 2.272-.17.241a76.543 76.543 0 0 1-16.65 17.124l2.617 3.494 25.679-19.232a2.25 2.25 0 0 0 1.706-1.164l9.887-18.332 2.722-16.21a6.97 6.97 0 0 0-5.497-7.986z"/></g></g><g><g><g><path fill="#373c41" d="M94.25 197.693l-6.04-3.55-3.75.733 3.018 15.463a2.593 2.593 0 0 0 3.042 2.048z"/></g></g><g><path fill="#fff" d="M88.713 210.48l1.11.245 2.308-10.45-1.11-.245z"/></g></g><g><g/><g><path fill="#a4e603" d="M130.526 148.349c-.004 0-.008 0-.011.002"/></g><g><path fill="#a4e603" d="M130.692 148.32l-.166.029"/></g><g><path fill="#a4e603" d="M130.7 148.32h-.008"/></g><g><path fill="#a4e603" d="M130.733 148.314l-.032.005"/></g><g><path fill="#a4e603" d="M130.47 148.358h-.003"/></g><g><path fill="#a4e603" d="M130.448 148.362a.09.09 0 0 0-.007.001"/></g><g><path fill="#a4e603" d="M130.467 148.359l-.015.002"/></g><g><path fill="#a4e603" d="M130.515 148.35l-.044.008"/></g><g><path fill="#a4e603" d="M130.452 148.361l-.004.001"/></g></g><g><g><path fill="#dea095" d="M111.52 114.037a2.782 2.782 0 0 0 1.657-3.555l-2.823-7.751c-.522-1.434-1.635-.843-3.068-.321l-.487-1.337a2.782 2.782 0 0 0-1.657 3.556l2.822 7.751a2.782 2.782 0 0 0 3.556 1.657z"/></g></g><g><g><g><path fill="#eeb5ac" d="M103.225 91.23c.104-.054.21-.105.315-.153.06-.027.122-.052.183-.078l.134-.057c.084-.033.17-.063.254-.093l.067-.025c.1-.034.2-.065.301-.094l.022-.007c.432-.124.869-.205 1.305-.243a6.75 6.75 0 0 1 4.209 1.018c2.658 4.133 4.597 7.325 5.816 9.576.66 1.22-2.011 3.086-3.244 3.725-.007.004-.807.654-.815.658-3.492 1.796-4.965.552-7.515-1.984a6.773 6.773 0 0 1-.317-.097h-.001a6.442 6.442 0 0 1-.308-.11l-.006-.002a6.53 6.53 0 0 1-.296-.123l-.011-.005a6.538 6.538 0 0 1-.283-.134l-.019-.01a6.549 6.549 0 0 1-.267-.143l-.026-.015a6.653 6.653 0 0 1-.251-.151c-.011-.008-.023-.014-.034-.021a6.557 6.557 0 0 1-.234-.159l-.042-.029a6.427 6.427 0 0 1-.217-.163l-.049-.038a6.288 6.288 0 0 1-.2-.167l-.055-.048a6.434 6.434 0 0 1-.183-.17l-.061-.058a6.734 6.734 0 0 1-.168-.173l-.065-.068a6.528 6.528 0 0 1-.152-.175l-.068-.079c-.048-.058-.094-.118-.14-.178l-.067-.089c-.045-.06-.087-.122-.13-.184l-.065-.094c-.043-.067-.084-.135-.126-.204l-.054-.086a6.489 6.489 0 0 1-.166-.303c-1.665-3.235-.308-7.25 3.03-8.968z"/></g></g></g><g><path fill="#373c41" d="M97.964 97.303c.699-4.05 3.814-8.333 9.198-8.378 2.756-.022 5.305.894 7.647 2.75l-8.395 3.223-1.155 3.925a1.99 1.99 0 1 0-.893 3.034l1.077 3.804c-2.807-.554-4.225-.841-4.256-.864-2.344-1.715-3.732-4.539-3.223-7.494z"/></g><g><g><path fill="#dea095" d="M105.485 104.883l3.829-1.706a31.839 31.839 0 0 1 5.966-1.979l.55-.124c.523.912.352 1.683-.514 2.312l-3.641 2.971-3.352.863z"/></g></g><g><path fill="url(#s30aa)" d="M133.777 135.024l-3.085 22.466 9.093 15.905 6.542 3.894-.433-15.391z"/></g><g><path fill="#373c41" d="M132.483 140.14c-1.052-1.687-2.19-3.465-3.34-5.296l3.69-1.913-11.528-27.923c-.304.117-7.28 4.455-20.928 13.012-.584.862-.983 1.57-1.198 2.127l7.46 3.689.241-.518c.076.261.145.51.204.738.01.036.021.071.03.107l2.063 15.43h8.879l.002-.002c1.444 2.375 2.864 4.679 4.203 6.727 2.167 3.314 5.553 3.644 8.18 2.045 2.628-1.6 4.07-4.974 2.042-8.223z"/></g><g><g><path fill="#db4f69" d="M132.74 132.724l-14.68 6.869-1.951 9.736 2.031 5.412-3.745 22.314 3.35 3.66 22.192-32.028z"/></g></g><g><g><path fill="#eeb5ac" d="M152.94 86.669l-.44-4.419 1.387-.742c.05-.135.097-.27.153-.403.06-.149.12-.297.187-.442l.098-.219.104-.215c.281-.572.603-1.12.966-1.635.363-.515.762-1 1.193-1.45.108-.112.219-.22.329-.33l.17-.158c.056-.052.115-.108.166-.153l.637-.566 1.353 1.283-.532.666c-.046.057-.082.106-.122.158l-.116.154c-.075.105-.15.209-.221.315-.287.425-.538.87-.753 1.326a9.3 9.3 0 0 0-.362.884l1.305-.315-.01-.025.427-.19a17.783 17.783 0 0 1 6.372-1.5h.026l.086 1.862-.025.001c-1.573.074-3.11.376-4.585.899l-.02.417a17.967 17.967 0 0 1 5.688-.372l.37.035-.178 1.856-.37-.035c-1.87-.18-3.78-.02-5.6.457l-.003.06a17.829 17.829 0 0 1 4.411.46l1.054.245-.422 1.816-1.054-.245a15.962 15.962 0 0 0-4.026-.41c.779.234 1.544.52 2.282.856l1.09.497-.773 1.696-1.09-.496a16.022 16.022 0 0 0-2.882-.993l-2.247-.542.011-.046z"/></g></g><g><g><path fill="#eeb5ac" d="M70.547 139.282l-4.127.39-.013-.012.01.018c-.36-.027-.722-.069-1.081-.133-.568-.1-1.132-.243-1.686-.43-.138-.048-.275-.1-.413-.15l-.204-.082c-.07-.028-.134-.052-.211-.087l-.892-.385-1.006 1.874.813.53c.064.044.144.092.218.138l.226.14c.153.088.306.178.462.263.624.34 1.277.634 1.953.878.676.245 1.375.435 2.09.573l.268.05.27.043c.18.03.36.051.542.072.163.022.326.033.49.048l5.952 1.09.012-1.596-.51-1.955z"/></g></g><g><path fill="#fff" d="M201.86 77.188c-13.956 0-24.889-5.147-24.889-11.719 0-6.571 10.933-11.72 24.89-11.72 13.956 0 24.889 5.149 24.889 11.72 0 6.572-10.933 11.72-24.89 11.72zm0-21.652c-12.523 0-23.103 4.549-23.103 9.933 0 5.385 10.58 9.933 23.104 9.933 12.523 0 23.103-4.548 23.103-9.933 0-5.384-10.58-9.933-23.103-9.933z"/></g><g><path fill="#db4f69" d="M267.953 102.033l-72.708-38.55V.547l72.708 38.55z"/></g><g><path fill="#db4f69" d="M250.112 62.676v1.485l-10.22 10.798 10.22 5.289L353.75 68.145V40.622z"/></g><g><path fill="#fff" d="M195.245 63.483V.547h-6.993l-.18 2.861v62.074l68.854 36.551h11.027z"/></g><g><path fill="#fff" d="M239.892 74.959V57.387l103.637-22.055v27.523z"/></g><g><path fill="#fff" d="M213 82.072l-2.33.956 1 2.435-.708 1.804-1.531-3.73-5.36 2.201 2.2 5.36 3.8-1.56-.676 1.725-2.615 1.074 1.122 2.733-.707 1.803-1.654-4.027-5.36 2.2 2.201 5.36 4.085-1.676-.677 1.725-8.632 3.545-2.867-.993-1.948-4.742-5.36 2.201.006.014-1.935-.67.182-.074-2.201-5.36-3.013 1.237-.161-1.382 2.665-1.094-2.201-5.36-1.16.476-.161-1.382.812-.333-1.505-3.323-.174-3.045-.941-14.241 1.336-.088.372 5.623 1.936-.77a16.013 16.013 0 0 0 2.255 1.522l1.85 4.504 4.702-1.93c.79.21 1.607.402 2.451.571l2.155 5.249 5.36-2.201-.906-2.207c.488.03.98.051 1.476.067l.67 1.631 4.129-1.696a49.409 49.409 0 0 0 4.762-.507l-1.784.732 2.201 5.36 3.515-1.443zm-18.238-.224l2.2 5.36 5.361-2.2-2.2-5.36zm-1.239.51l-5.36 2.2 2.2 5.36 5.36-2.2zm-8.07-4.399l2.201 5.36 5.36-2.2-2.2-5.36zm-6.456-5.088l.405 6.125 4.303-1.767-2.2-5.36zm2.058 13.158l5.36-2.2-2.2-5.361-4.72 1.938.144 2.174zm2.71 6.599l5.36-2.2-2.201-5.361-5.36 2.201zm8.07 4.398l-2.201-5.36-5.36 2.201 2.2 5.36zm1.238-.508l5.36-2.201-2.2-5.36-5.36 2.2zm5.87-.963l-5.36 2.201 2.2 5.36 5.36-2.2zm3.889-9.308l-5.36 2.2 2.2 5.36 5.36-2.2zm6.09-3.949l-2.201-5.36-5.36 2.2 2.201 5.361z"/></g><g><path fill="none" stroke="#373c41" stroke-miterlimit="20" stroke-width=".1" d="M68.864 125.903c-2.154 1.057-3.685 3.206-4.183 5.552-.497 2.347-.01 4.85 1.15 6.949"/></g><g><path fill="none" stroke="#373c41" stroke-miterlimit="20" stroke-width=".1" d="M71.032 126.166c2.121 2.208 3.036 5.51 2.354 8.495-.358 1.57-1.232 3.136-2.701 3.793"/></g><g><g><path fill="none" stroke="#bc445c" stroke-miterlimit="20" stroke-width=".13" d="M117.241 149.052a129.4 129.4 0 0 1 5.844-8.354l-.124.331"/></g></g><g><path fill="#bc445c" d="M133.351 140.013c.303-.104-1.083 2-2.094 2.982a6.232 6.232 0 0 1 1.911-.303c-.13.388-.449.677-.755.949l-4.898 4.34 7.84-3.586z"/></g><g><path fill="#bc445c" d="M119.11 159.402l2.37-1.248a7.18 7.18 0 0 1-2.294-.858l5.678-2.753c-1.875-.025-3.75-.017-5.624.025L118 160z"/></g><g><path fill="none" stroke="#bc445c" stroke-miterlimit="20" stroke-width=".13" d="M116.168 174.866c1.065.508 2.184.903 3.331 1.179"/></g><g><g><path fill="#2f3439" d="M126.07 122c.114-.08-6.2 8.55-9.677 12.781-.259.315-.59.66-.995.617-.12-.498-.017-1.02.089-1.522.365-1.742.75-3.48 1.154-5.214a59.181 59.181 0 0 1-5.793 9.385c2.32.143 4.442.252 6.763.12.102-.006.224-.144.125-.167z"/></g></g><g><path fill="#2f3439" d="M124.686 135.298c-.038.513.982-2.572.889-2.266.735-2.396 1.02-4.874 1.324-7.351L121 137.5z"/></g><g><path fill="#2f3439" d="M109.843 122.859a128.75 128.75 0 0 0 4.055-12.469l-2.648 1.86z"/></g><g><g><path fill="#dea095" d="M123.434 110.165l1.025 2.484 15.142-11.492c.151-.115.288-.244.41-.385.145-.033.29-.079.433-.139l7.514-4.61z"/></g></g><g><path fill="#dea095" d="M157.25 80.75l-2 2.75-1.5.75.82 2.484 5.18-1.234z"/></g><g><g><path fill="#dea095" d="M99 126.25l3.25-1L94 139z"/></g></g><g><path fill="#dea095" d="M105.25 179.25l-3.33 6.899 1.58 1.101-12.899 7.665z"/></g><g><g><path fill="none" stroke="#bc445c" stroke-miterlimit="20" stroke-width=".13" d="M204.3 42.445c-.138-.118.126-.334.272-.227.146.108.144.323.128.503-.48 5.393-.977 10.785-1.491 16.175l-.487-.275"/></g></g><g><g><path fill="none" stroke="#bc445c" stroke-miterlimit="20" stroke-width=".13" d="M207.488 56.117a339.315 339.315 0 0 0 27.959 20.315"/></g></g><g><path fill="none" stroke="#bc445c" stroke-miterlimit="20" stroke-width=".13" d="M262.984 82.617v9.957"/></g><g><path fill="none" stroke="#bc445c" stroke-miterlimit="20" stroke-width=".13" d="M253.56 42.006l6.802 3.756c.376.208.778.442.952.836"/></g><g><path fill="none" stroke="#bc445c" stroke-miterlimit="20" stroke-width=".13" d="M242.29 76.009l8.17 3.321"/></g><g><path fill="none" stroke="#bc445c" stroke-miterlimit="20" stroke-width=".13" d="M248.673 76.521l4.865 2.01"/></g></g></svg>