<svg xmlns="http://www.w3.org/2000/svg" viewBox="0 0 19.93 19.94"><defs><style>.cls-1{fill:#373c41;}</style></defs><title>Ресурс 5</title><g id="Слой_2" data-name="Слой 2"><g id="элементы"><path class="cls-1" d="M9.93,19.94A10,10,0,1,1,10.07,0a9.91,9.91,0,0,1,9.86,10.07A9.91,9.91,0,0,1,9.93,19.94ZM8.78,10.13v.78c0,1.38,0,2.75,0,4.13,0,.7.45.72.86.6s1.52.61,1.62-.58c.09-1,0-2,0-3V10.15c1.6-.24,1.6-.24,1.68-1.6V8.48c.06-.38-.1-.56-.49-.54H11.34c-.19-1.63.07-1.62,1.14-1.59.16,0,.45-.23.46-.38a14.5,14.5,0,0,0,0-1.63,5.76,5.76,0,0,0-3.1.27c-1.33.73-1,2.12-1.15,3.3-.56,0-1.13-.12-1.1.77C7.68,10,7.62,10,8.78,10.13Z"/></g></g></svg>