<svg xmlns="http://www.w3.org/2000/svg" width="481" height="451" viewBox="0 0 481 451"><defs><linearGradient id="vyeua" x1="240.25" x2="240" y1="450.75" y2=".25" gradientUnits="userSpaceOnUse"><stop offset=".31" stop-color="#f5f6f6"/><stop offset="1" stop-color="#eb556f"/></linearGradient><linearGradient id="vyeub" x1="254.25" x2="226.25" y1="177.99" y2="11.25" gradientUnits="userSpaceOnUse"><stop offset=".41" stop-color="#f5f6f6"/><stop offset="1" stop-color="#eb556f"/></linearGradient><linearGradient id="vyeuc" x1="208.37" x2="235.12" y1="65.66" y2="41.74" gradientUnits="userSpaceOnUse"><stop offset="0" stop-color="#29353b"/><stop offset="1"/></linearGradient><linearGradient id="vyeud" x1="224.85" x2="221.85" y1="40.81" y2="40.11" gradientUnits="userSpaceOnUse"><stop offset="0" stop-color="#f5b0a8"/><stop offset="1" stop-color="#e29b92"/></linearGradient><linearGradient id="vyeue" x1="310.84" x2="341.84" y1="60.45" y2="44.72" gradientUnits="userSpaceOnUse"><stop offset="0" stop-color="#29353b"/><stop offset="1"/></linearGradient><linearGradient id="vyeuf" x1="375.76" x2="349.76" y1="38.03" y2="35.2" gradientUnits="userSpaceOnUse"><stop offset="0" stop-color="#f5b0a8"/><stop offset="1" stop-color="#e29b92"/></linearGradient><linearGradient id="vyeug" x1="370.45" x2="374.45" y1="35.24" y2="34.19" gradientUnits="userSpaceOnUse"><stop offset="0" stop-color="#f5b0a8"/><stop offset="1" stop-color="#e29b92"/></linearGradient><linearGradient id="vyeuh" x1="94.68" x2="120.72" y1="54.37" y2="39.68" gradientUnits="userSpaceOnUse"><stop offset="0" stop-color="#29353b"/><stop offset="1"/></linearGradient></defs><g><g><g><path fill="url(#vyeua)" d="M480.25 450.75H0V.25h480.25z"/></g><g><path fill="url(#vyeub)" d="M.511 41.855l478.75 136.134.989-85.976L.25 11.25z"/></g><g><g><g><path fill="#fff" d="M172.7 18.491l-3.105.61-1.587-.197 2.065-.405-25.693-3.137 1.215-.47 25.71 3.102.396-.602 1.59.19z"/></g><g><path fill="#fff" d="M207.49 22.713l-3.32.657-1.833-.227 2.206-.437-29.556-3.609 1.234-.512 29.565 3.568.28-.665 1.836.22z"/></g><g><path fill="#fff" d="M247.922 27.618l-3.564.714-2.143-.265 2.368-.474-34.36-4.196 1.245-.56 34.359 4.146.12-.74 2.142.256z"/></g><g><path fill="#fff" d="M295.492 33.39l-3.846.78-2.538-.314 2.555-.518-40.438-4.938 1.242-.619 40.42 4.879-.102-.833 2.533.302z"/></g><g><path fill="#fff" d="M352.274 40.28l-4.177.86-3.052-.377 2.773-.572-48.286-5.895 1.219-.69 48.242 5.821-.418-.95 3.042.364z"/></g><g><path fill="#fff" d="M421.229 48.645l-4.568.961-3.741-.463 3.032-.637-58.664-7.162 1.163-.78 58.576 7.07-.871-1.1 3.72.445z"/></g><g><path fill="#fff" d="M166.124 21.207l-3.146.618-1.582-.208 2.09-.41-25.6-3.325 1.241-.481 25.62 3.288.428-.62 1.584.202z"/></g><g><path fill="#fff" d="M200.846 25.687l-3.364.668-1.831-.242 2.236-.443-29.499-3.83 1.263-.524 29.51 3.787.313-.685 1.833.233z"/></g><g><path fill="#fff" d="M241.278 30.903l-3.616.726-2.144-.282 2.402-.482-34.358-4.461 1.276-.575 34.36 4.41.152-.765 2.144.273z"/></g><g><path fill="#fff" d="M288.953 37.054l-3.907.795-2.546-.335 2.595-.527-40.526-5.262 1.276-.636 40.511 5.199-.072-.863 2.542.323z"/></g><g><path fill="#fff" d="M346.008 44.415l-4.249.88-3.07-.405 2.82-.583-48.519-6.299 1.256-.71 48.477 6.22-.39-.987 3.06.389z"/></g><g><path fill="#fff" d="M415.514 53.383l-4.655.982-3.776-.497 3.09-.651-59.134-7.677 1.202-.804 59.046 7.577-.852-1.147 3.756.477z"/></g><g><path fill="#fff" d="M159.392 23.987l-3.186.626-1.577-.22 2.118-.417-25.5-3.518 1.27-.492 25.52 3.481.46-.638 1.58.213z"/></g><g><path fill="#fff" d="M194.036 28.737l-3.412.678-1.828-.256 2.267-.45-29.43-4.061 1.292-.537 29.445 4.017.346-.708 1.83.248z"/></g><g><path fill="#fff" d="M234.453 34.279l-3.67.738-2.146-.3 2.439-.49-34.346-4.74 1.309-.589 34.349 4.685.186-.79 2.146.29z"/></g><g><path fill="#fff" d="M282.218 40.828l-3.97.81-2.553-.357 2.637-.538-40.603-5.602 1.311-.654 40.59 5.537-.038-.895 2.55.344z"/></g><g><path fill="#fff" d="M339.537 48.687l-4.324.897-3.089-.432 2.871-.595-48.743-6.725 1.294-.732 48.702 6.642-.36-1.026 3.078.416z"/></g><g><path fill="#fff" d="M409.591 58.293l-4.744 1.004-3.812-.533 3.15-.665-59.602-8.223 1.241-.831 59.514 8.116-.83-1.198 3.792.513z"/></g><g><path fill="#fff" d="M152.5 26.832l-3.227.636-1.57-.234 2.145-.422-25.386-3.721 1.297-.503 25.409 3.682.493-.657 1.574.226z"/></g><g><path fill="#fff" d="M187.05 31.865l-3.459.688-1.824-.271 2.299-.457-29.35-4.302 1.324-.55 29.366 4.256.38-.73 1.827.262z"/></g><g><path fill="#fff" d="M227.438 37.748l-3.725.75-2.146-.319 2.475-.498-34.32-5.03 1.343-.605 34.326 4.974.222-.819 2.146.309z"/></g><g><path fill="#fff" d="M275.28 44.716l-4.036.825-2.56-.38 2.68-.548-40.667-5.96 1.349-.672 40.656 5.891-.002-.928 2.556.367z"/></g><g><path fill="#fff" d="M332.849 53.102l-4.401.915-3.106-.461 2.922-.607-48.956-7.175 1.334-.755 48.917 7.088-.328-1.069 3.096.444z"/></g><g><path fill="#fff" d="M403.449 63.386l-4.839 1.027-3.847-.571 3.21-.681-60.064-8.803 1.283-.86 59.979 8.69-.807-1.251 3.828.55z"/></g><g><path fill="#fff" d="M145.444 29.746l-3.27.645-1.564-.247 2.174-.429-25.261-3.932 1.327-.514 25.285 3.892.529-.678 1.567.24z"/></g><g><path fill="#fff" d="M179.884 35.074l-3.508.699-1.82-.288 2.331-.464-29.255-4.554 1.355-.563 29.275 4.506.418-.754 1.823.279z"/></g><g><path fill="#fff" d="M220.226 41.314l-3.782.763-2.145-.338 2.512-.507-34.279-5.336 1.378-.62 34.288 5.276.26-.846 2.146.327z"/></g><g><path fill="#fff" d="M268.128 48.724l-4.103.84-2.565-.405 2.724-.557-40.717-6.338 1.386-.69 40.71 6.264.035-.964 2.562.391z"/></g><g><path fill="#fff" d="M325.935 57.667l-4.482.934-3.122-.493 2.975-.62-49.158-7.65 1.375-.779 49.121 7.559-.293-1.113 3.113.475z"/></g><g><path fill="#fff" d="M397.073 68.671l-4.935 1.052-3.884-.613 3.276-.696-60.524-9.42 1.328-.89 60.438 9.3-.78-1.308 3.863.589z"/></g><g><path fill="#fff" d="M138.216 32.73l-3.315.655-1.556-.261 2.203-.435-25.122-4.152 1.357-.526 25.15 4.11.564-.698 1.56.253z"/></g><g><path fill="#fff" d="M172.53 38.367l-3.558.71-1.815-.304 2.365-.472-29.148-4.817 1.39-.577 29.169 4.767.456-.778 1.817.295z"/></g><g><path fill="#fff" d="M212.808 44.982l-3.841.777-2.143-.36 2.551-.515-34.224-5.656 1.414-.637 34.236 5.594.3-.876 2.145.347z"/></g><g><path fill="#fff" d="M260.752 52.857l-4.172.856-2.57-.43 2.77-.568-40.753-6.735 1.427-.711 40.748 6.658.075-1 2.568.415z"/></g><g><path fill="#fff" d="M318.781 62.389l-4.564.954-3.139-.526 3.03-.633-49.346-8.154 1.419-.804 49.312 8.058-.256-1.16 3.13.507z"/></g><g><path fill="#fff" d="M390.452 74.16l-5.037 1.078-3.92-.657 3.343-.713-60.976-10.076 1.374-.921 60.892 9.949-.75-1.37 3.898.631z"/></g></g><g><g><path fill="#fff" d="M130.966 35.724l-3.359.664-1.547-.275 2.232-.441-24.974-4.377 1.388-.538 25.004 4.333.602-.719 1.552.267z"/></g><g><path fill="#fff" d="M165.14 41.676l-3.61.722-1.808-.322 2.398-.48-29.027-5.086 1.423-.59 29.052 5.033.496-.803 1.812.312z"/></g><g><path fill="#fff" d="M205.337 48.677l-3.9.79-2.141-.38 2.59-.525-34.154-5.985 1.452-.654 34.17 5.92.34-.907 2.143.368z"/></g><g><path fill="#fff" d="M253.304 57.031l-4.243.873-2.574-.457 2.817-.58-40.77-7.144 1.467-.732 40.77 7.064.116-1.038 2.572.442z"/></g><g><path fill="#fff" d="M311.534 67.173l-4.65.974-3.153-.56 3.086-.646-49.516-8.676 1.463-.829 49.485 8.574-.216-1.208 3.145.54z"/></g><g><path fill="#fff" d="M383.716 79.745l-5.14 1.103-3.954-.702 3.41-.73-61.412-10.762 1.423-.952 61.33 10.625-.72-1.433 3.933.675z"/></g><g><path fill="#fff" d="M123.38 38.856l-3.406.675-1.538-.29 2.263-.449-24.807-4.616 1.42-.55 24.84 4.57.642-.74 1.544.28z"/></g><g><path fill="#fff" d="M157.391 45.146l-3.663.733-1.801-.34 2.434-.487-28.888-5.375 1.459-.605 28.915 5.32.538-.83 1.806.33z"/></g><g><path fill="#fff" d="M197.485 52.56l-3.963.804-2.137-.403 2.632-.534-34.065-6.338 1.49-.672 34.085 6.27.386-.94 2.139.39z"/></g><g><path fill="#fff" d="M245.454 61.43l-4.317.89-2.577-.486 2.867-.59-40.772-7.586 1.511-.754 40.774 7.501.161-1.079 2.576.47z"/></g><g><path fill="#fff" d="M303.87 72.232l-4.738.996-3.168-.597 3.145-.66-49.674-9.242 1.511-.856 49.646 9.132-.174-1.259 3.16.576z"/></g><g><path fill="#fff" d="M376.563 85.674l-5.25 1.131-3.988-.752 3.483-.749-61.847-11.506 1.474-.987 61.767 11.361-.685-1.5 3.969.722z"/></g><g><path fill="#fff" d="M115.602 42.068l-3.453.684-1.528-.306 2.295-.455-24.625-4.865 1.454-.564 24.66 4.818.684-.764 1.534.297z"/></g><g><path fill="#fff" d="M149.43 48.71l-3.718.746-1.792-.36 2.47-.494-28.731-5.677 1.496-.62 28.762 5.618.583-.858 1.797.349z"/></g><g><path fill="#fff" d="M189.4 56.558l-4.029.82-2.132-.428 2.676-.543-33.958-6.71 1.532-.69 33.98 6.638.432-.974 2.136.414z"/></g><g><path fill="#fff" d="M237.347 65.973l-4.393.908-2.58-.516 2.918-.603-40.753-8.05 1.558-.777 40.758 7.961.21-1.121 2.577.499z"/></g><g><path fill="#fff" d="M295.928 77.475l-4.832 1.019-3.181-.637 3.206-.675-49.812-9.84 1.561-.885 49.789 9.724-.128-1.314 3.174.615z"/></g><g><path fill="#fff" d="M369.118 91.847l-5.364 1.16-4.024-.806 3.56-.768-62.271-12.301 1.529-1.024 62.192 12.146-.647-1.573 4.004.775z"/></g><g><path fill="#fff" d="M107.625 45.361l-3.501.696-1.516-.323 2.326-.462-24.426-5.126 1.489-.577 24.465 5.076.727-.788 1.523.314z"/></g><g><path fill="#fff" d="M141.25 52.373l-3.776.76-1.782-.38 2.508-.504-28.556-5.992 1.534-.637 28.591 5.931.63-.886 1.788.368z"/></g><g><path fill="#fff" d="M181.07 60.678l-4.096.834-2.126-.452 2.72-.554-33.83-7.099 1.576-.71 33.855 7.024.482-1.01 2.13.439z"/></g><g><path fill="#fff" d="M228.97 70.667l-4.473.927-2.58-.549 2.97-.614-40.71-8.543 1.604-.8 40.722 8.448.26-1.167 2.58.53z"/></g><g><path fill="#fff" d="M287.69 82.913l-4.928 1.042-3.193-.679 3.27-.69-49.93-10.477 1.614-.914 49.91 10.353-.077-1.372 3.187.655z"/></g><g><path fill="#fff" d="M361.362 98.277l-5.484 1.19-4.058-.863 3.638-.788-62.679-13.15 1.587-1.063 62.603 12.985-.604-1.65 4.038.83z"/></g><g><path fill="#fff" d="M99.442 48.74l-3.551.706-1.504-.34 2.36-.469-24.21-5.398 1.525-.591 24.252 5.346.772-.813 1.511.33z"/></g><g><path fill="#fff" d="M132.839 56.14l-3.834.771-1.772-.4 2.547-.513-28.36-6.323 1.574-.654 28.4 6.26.678-.917 1.778.389z"/></g><g><path fill="#fff" d="M172.483 64.924l-4.164.85-2.118-.48 2.765-.563-33.679-7.51 1.62-.73 33.71 7.43.534-1.046 2.123.464z"/></g><g><path fill="#fff" d="M220.31 75.52l-4.556.947-2.578-.583 3.024-.627-40.646-9.062 1.655-.825 40.66 8.961.315-1.213 2.58.563z"/></g><g><path fill="#fff" d="M279.143 88.556l-5.03 1.067-3.204-.724 3.337-.707L224.22 77.04l1.67-.946 50.01 11.02-.025-1.433 3.2.699z"/></g><g><path fill="#fff" d="M353.275 104.981l-5.61 1.223-4.09-.924 3.72-.81-63.07-14.06 1.647-1.103 62.999 13.883-.558-1.734 4.072.89z"/></g><g><path fill="#fff" d="M91.045 52.207l-3.603.718-1.49-.358 2.394-.477-23.975-5.683 1.562-.605 24.021 5.628.82-.839 1.498.348z"/></g><g><path fill="#fff" d="M124.189 60.013l-3.894.785-1.76-.423 2.586-.521-28.144-6.67 1.617-.671 28.187 6.603.73-.948 1.767.41z"/></g><g><path fill="#fff" d="M163.63 69.302l-4.236.867-2.11-.508 2.813-.574-33.504-7.94 1.667-.752 33.539 7.857.59-1.086 2.115.491z"/></g><g><path fill="#fff" d="M211.35 80.541l-4.641.967-2.576-.62 3.081-.64-40.554-9.611 1.707-.851 40.575 9.505.372-1.264 2.578.598z"/></g><g><path fill="#fff" d="M270.265 94.416l-5.134 1.093-3.214-.772 3.406-.724-50.092-11.87 1.729-.98 50.082 11.732.034-1.5 3.209.746z"/></g><g><path fill="#fff" d="M344.835 111.978l-5.74 1.257-4.124-.99 3.806-.832-63.44-15.034 1.712-1.147 63.373 14.845-.507-1.822 4.105.952z"/></g></g><g><g><path fill="#fff" d="M82.607 55.691l-3.656.73-1.475-.377 2.428-.485-23.725-5.973 1.6-.62 23.776 5.916.868-.865 1.484.366z"/></g><g><path fill="#fff" d="M115.477 63.914l-3.955.8-1.747-.447 2.627-.53-27.91-7.027 1.66-.689 27.957 6.957.782-.98 1.755.432z"/></g><g><path fill="#fff" d="M154.689 73.723l-4.308.884-2.1-.536 2.86-.586-33.306-8.385 1.714-.773 33.348 8.297.647-1.126 2.105.52z"/></g><g><path fill="#fff" d="M202.274 85.627l-4.73.988-2.57-.656 3.138-.655-40.437-10.18 1.761-.878L199.9 84.314l.433-1.315 2.574.634z"/></g><g><path fill="#fff" d="M261.235 100.377l-5.24 1.12-3.222-.823 3.477-.741-50.13-12.62 1.788-1.013 50.126 12.472.095-1.567 3.217.793z"/></g><g><path fill="#fff" d="M336.206 119.132l-5.875 1.291-4.154-1.06 3.895-.854-63.781-16.055 1.78-1.192 63.718 15.852-.453-1.914 4.137 1.019z"/></g><g><path fill="#fff" d="M73.76 59.344l-3.71.742-1.46-.397 2.465-.492-23.45-6.284 1.641-.636L72.75 58.5l.92-.893 1.469.385z"/></g><g><path fill="#fff" d="M106.321 68.014l-4.02.813-1.73-.47 2.669-.54-27.645-7.408 1.704-.708 27.698 7.335.84-1.015 1.74.456z"/></g><g><path fill="#fff" d="M145.267 78.383l-4.385.9-2.087-.566 2.911-.598-33.078-8.864 1.765-.795 33.124 8.77.71-1.169 2.094.55z"/></g><g><path fill="#fff" d="M192.677 91.005l-4.822 1.01-2.565-.697 3.2-.67-40.286-10.793 1.819-.907 40.318 10.675.499-1.37 2.568.673z"/></g><g><path fill="#fff" d="M251.648 106.706l-5.355 1.148-3.227-.877 3.552-.76-50.137-13.433 1.854-1.05 50.139 13.275.162-1.64 3.224.846z"/></g><g><path fill="#fff" d="M326.997 126.767l-6.02 1.329-4.184-1.137 3.99-.879-64.1-17.173 1.852-1.241 64.043 16.956-.391-2.016 4.167 1.093z"/></g><g><path fill="#fff" d="M64.67 63.097l-3.766.754-1.441-.418 2.502-.5-23.15-6.61 1.682-.651 23.209 6.546.975-.923 1.452.406z"/></g><g><path fill="#fff" d="M96.893 72.235l-4.085.829-1.715-.497 2.713-.55-27.354-7.808 1.751-.727 27.412 7.731.9-1.051 1.725.482z"/></g><g><path fill="#fff" d="M135.536 83.194l-4.463.92-2.073-.6 2.963-.61-32.818-9.368 1.819-.82 32.87 9.27.775-1.214 2.08.581z"/></g><g><path fill="#fff" d="M182.731 96.579l-4.918 1.033-2.556-.74 3.263-.685-40.1-11.446 1.88-.937 40.138 11.32.57-1.429 2.56.715z"/></g><g><path fill="#fff" d="M241.67 113.294l-5.475 1.177-3.23-.935 3.63-.78-50.106-14.3 1.923-1.09 50.115 14.133.234-1.718 3.23.901z"/></g><g><path fill="#fff" d="M317.357 134.759l-6.17 1.368-4.213-1.22 4.09-.904-64.387-18.377 1.929-1.292 64.336 18.142-.323-2.124 4.197 1.172z"/></g><g><path fill="#fff" d="M55.33 66.954l-3.824.766-1.422-.44 2.54-.508-22.827-6.95 1.726-.668 22.89 6.883 1.034-.953 1.433.427z"/></g><g><path fill="#fff" d="M87.181 76.584l-4.154.845-1.696-.524 2.758-.56-27.035-8.23 1.8-.747 27.099 8.148.963-1.09 1.707.51z"/></g><g><path fill="#fff" d="M125.483 88.166l-4.546.939-2.056-.635 3.017-.623-32.526-9.9 1.875-.845L123.83 86.9l.844-1.262 2.066.615z"/></g><g><path fill="#fff" d="M172.417 102.359l-5.017 1.056-2.546-.786 3.33-.7-39.876-12.137 1.942-.969 39.922 12.003.645-1.49 2.552.76z"/></g><g><path fill="#fff" d="M231.274 120.156l-5.598 1.208-3.232-.997 3.712-.8-50.033-15.228 1.995-1.13 50.05 15.047.314-1.8 3.232.961z"/></g><g><path fill="#fff" d="M307.257 143.132l-6.329 1.41-4.239-1.308 4.194-.933-64.635-19.671 2.011-1.348 64.593 19.42-.25-2.241 4.225 1.257z"/></g><g><path fill="#fff" d="M45.73 70.918l-3.886.78-1.401-.462 2.58-.518-22.478-7.305 1.771-.687 22.547 7.237 1.093-.986 1.413.45z"/></g><g><path fill="#fff" d="M77.17 81.067l-4.225.86-1.674-.553 2.805-.57L47.39 72.13l1.852-.768 26.755 8.587 1.03-1.13 1.687.537z"/></g><g><path fill="#fff" d="M115.09 93.306l-4.632.959-2.037-.672 3.073-.636-32.196-10.462 1.933-.872 32.262 10.354.918-1.313 2.048.65z"/></g><g><path fill="#fff" d="M161.715 108.356l-5.122 1.082-2.532-.835 3.398-.717-39.61-12.87 2.01-1.002 39.664 12.728.725-1.557 2.54.807z"/></g><g><path fill="#fff" d="M220.437 127.31l-5.729 1.242-3.23-1.065 3.798-.822-49.914-16.218 2.07-1.174 49.942 16.026.398-1.89 3.232 1.026z"/></g><g><path fill="#fff" d="M296.663 151.915l-6.496 1.455-4.263-1.406 4.304-.961-64.84-21.067 2.1-1.406 64.805 20.794-.167-2.366 4.25 1.35z"/></g><g><path fill="#fff" d="M35.854 74.995l-3.946.794-1.379-.486 2.621-.527-22.101-7.678 1.818-.705 22.175 7.606 1.156-1.019 1.392.473z"/></g><g><path fill="#fff" d="M66.849 85.689l-4.299.877-1.652-.583 2.854-.582-26.303-9.138 1.905-.79 26.379 9.047 1.1-1.17 1.666.565z"/></g><g><path fill="#fff" d="M104.338 98.623l-4.72.98-2.016-.712 3.132-.65-31.828-11.056 1.994-.899 31.902 10.942.996-1.367 2.029.69z"/></g><g><path fill="#fff" d="M150.601 114.584l-5.23 1.108-2.516-.887 3.47-.734-39.297-13.65 2.08-1.037 39.36 13.499.812-1.627 2.525.857z"/></g><g><path fill="#fff" d="M209.128 134.776l-5.865 1.276-3.226-1.137 3.889-.845-49.744-17.278 2.152-1.22 49.781 17.073.49-1.985 3.229 1.096z"/></g><g><path fill="#fff" d="M285.538 161.138l-6.672 1.502-4.285-1.51 4.42-.993-64.991-22.573 2.192-1.469 64.968 22.28-.077-2.502 4.273 1.45z"/></g></g><g><g><path fill="#fff" d="M25.91 79.102l-4.01.808-1.354-.512 2.662-.536-21.703-8.061 1.865-.723 21.784 7.986 1.22-1.054 1.37.497z"/></g><g><path fill="#fff" d="M56.426 90.356l-4.373.894-1.628-.614 2.903-.593-25.893-9.617 1.96-.814 25.975 9.523 1.174-1.214 1.642.596z"/></g><g><path fill="#fff" d="M93.446 104.009l-4.809 1-1.993-.751 3.192-.664-31.426-11.67 2.056-.928 31.508 11.55 1.078-1.421 2.007.728z"/></g><g><path fill="#fff" d="M139.298 120.918l-5.341 1.136-2.497-.942 3.543-.752-38.943-14.462 2.152-1.073 39.016 14.302.902-1.7 2.508.91z"/></g><g><path fill="#fff" d="M197.567 142.407l-6.004 1.312-3.218-1.213 3.98-.868-49.52-18.389 2.236-1.267 49.57 18.169.587-2.084 3.223 1.168z"/></g><g><path fill="#fff" d="M274.09 170.629l-6.854 1.551-4.302-1.621 4.54-1.025-65.083-24.167 2.29-1.534 65.07 23.849.022-2.644 4.292 1.555z"/></g><g><path fill="#fff" d="M45.443 95.274l-4.451.912-1.6-.648 2.954-.605-25.438-10.132 2.018-.838 25.528 10.033 1.252-1.26 1.616.63z"/></g><g><path fill="#fff" d="M81.931 109.703l-4.904 1.023-1.966-.795 3.254-.679-30.97-12.335 2.124-.957 31.06 12.207 1.167-1.48 1.982.77z"/></g><g><path fill="#fff" d="M127.297 127.643l-5.459 1.165-2.473-1.001 3.62-.771-38.525-15.344 2.23-1.112 38.61 15.173 1-1.778 2.487.967z"/></g><g><path fill="#fff" d="M185.23 150.552l-6.155 1.35-3.205-1.296 4.08-.893-49.229-19.605 2.327-1.319 49.29 19.369.696-2.193 3.212 1.248z"/></g><g><path fill="#fff" d="M261.788 180.827l-7.05 1.606-4.316-1.745 4.67-1.06-65.108-25.929 2.396-1.605 65.11 25.584.13-2.803 4.31 1.674z"/></g><g><path fill="#fff" d="M34.101 100.352l-4.532.931-1.57-.683 3.008-.617-24.94-10.676 2.078-.863 25.038 10.57 1.336-1.307 1.588.663z"/></g><g><path fill="#fff" d="M69.999 115.604l-5.004 1.047-1.936-.843 3.32-.693-30.463-13.039 2.194-.989 30.563 12.902 1.261-1.542 1.954.815z"/></g><g><path fill="#fff" d="M114.808 134.642l-5.583 1.195-2.446-1.064 3.702-.791-38.046-16.284 2.312-1.153 38.142 16.101 1.108-1.86 2.462 1.027z"/></g><g><path fill="#fff" d="M172.317 159.076l-6.311 1.391-3.188-1.386 4.183-.92-48.863-20.912 2.424-1.373 48.939 20.657.813-2.309 3.198 1.334z"/></g><g><path fill="#fff" d="M248.82 191.58l-7.259 1.661-4.324-1.88 4.805-1.097-65.052-27.839 2.51-1.682 65.07 27.465.254-2.973 4.32 1.802z"/></g><g><path fill="#fff" d="M57.625 121.723l-5.106 1.071-1.903-.892 3.388-.71-29.9-13.784 2.268-1.022 30.011 13.64 1.362-1.61 1.922.864z"/></g><g><path fill="#fff" d="M101.799 141.932l-5.712 1.227-2.414-1.132 3.786-.812-37.499-17.286 2.4-1.197 37.608 17.092 1.222-1.95 2.433 1.092z"/></g><g><path fill="#fff" d="M158.79 168.006l-6.477 1.434-3.165-1.483 4.292-.949-48.415-22.316 2.527-1.432 48.507 22.043.941-2.434 3.179 1.427z"/></g><g><path fill="#fff" d="M235.128 202.93l-7.479 1.723-4.328-2.027 4.95-1.138-64.902-29.915 2.632-1.764 64.94 29.509.39-3.16 4.327 1.942z"/></g><g><path fill="#fff" d="M44.787 128.072l-5.214 1.097-1.865-.945 3.459-.727-29.279-14.575 2.346-1.058 29.402 14.422 1.468-1.679 1.887.915z"/></g><g><path fill="#fff" d="M88.237 149.532l-5.846 1.26-2.378-1.204 3.875-.835-36.878-18.357 2.492-1.242 37.002 18.15v-.001l1.345-2.045 2.4 1.163z"/></g><g><path fill="#fff" d="M144.603 177.371l-6.651 1.48-3.137-1.588 4.407-.978-47.875-23.83 2.637-1.494 47.985 23.535 1.08-2.569 3.154 1.527z"/></g><g><path fill="#fff" d="M220.652 214.931l-7.713 1.79-4.324-2.19 5.104-1.18-64.648-32.177 2.764-1.852 64.706 31.734.54-3.362 4.328 2.095z"/></g><g><path fill="#fff" d="M74.087 157.461l-5.988 1.296-2.336-1.282 3.969-.858-36.173-19.502 2.588-1.29 36.314 19.279 1.477-2.147 2.361 1.238z"/></g><g><path fill="#fff" d="M129.707 187.205l-6.836 1.528-3.1-1.701 4.527-1.01-47.23-25.462L79.82 159l47.362 25.143 1.232-2.714 3.122 1.636z"/></g><g><path fill="#fff" d="M205.321 227.64l-7.961 1.86-4.314-2.366 5.268-1.227-64.266-34.643 2.905-1.948 64.35 34.16.709-3.582 4.32 2.263z"/></g></g><g><path fill="#fff" d="M31.986 131.032l-1.583 1.753-28.726-15.252-1.427.643v.991l27.59 14.875-3.533.745 1.823 1.001 5.326-1.124L33.834 132z"/></g><g><path fill="#fff" d="M11.028 108.144l-1.517 1.412-9.261-4.543v2.124l6.936 3.453-3.122.644 1.501.76 4.705-.97 2.28-2.142z"/></g><g><path fill="#fff" d="M22.965 102.84l-1.423 1.359L.25 94.52v1.898l19.043 8.78-3.064.63 1.537.721 4.617-.95 2.139-2.06z"/></g><g><path fill="#fff" d="M5.433 85.601L4.068 86.73.25 85.118v1.706l1.757.752-1.757.355v.634l.305.133 4.143-.838 2.05-1.709z"/></g><g><path fill="#fff" d="M16.055 81.244l-1.29 1.09L.25 76.629v1.543l12.512 4.984-2.706.546 1.328.537 4.075-.822 1.94-1.65z"/></g></g><g><g><g><path fill="#fff" d="M233.074 23.69a1.958 1.958 0 0 0-.431.026c-.845.15-1.69.288-2.537.422-.846.137-1.695.254-2.543.376l-5.085.747-.066.01a1.533 1.533 0 0 0-1.259 1.13c-.225.867-.433 1.738-.636 2.61l-.299 1.31-.289 1.314c-.192.875-.385 1.75-.568 2.628-.16.748-.314 1.497-.465 2.247l-1.633 1.855a2.63 2.63 0 0 0 .297 3.375l.444.442a.766.766 0 0 0 1.247-.248l.62-1.485a1.446 1.446 0 0 1-.714.164l-.053-.002c-.017 0-.034-.003-.051-.005-.069-.01-.136-.017-.206-.037a3.116 3.116 0 0 1-.104-.03c-.007-.001-.018-.005-.023-.007l-.015-.006-.029-.012-.116-.049-.462-.196.327-.99.471.114.118.028.03.007.014.004h.006a.093.093 0 0 1 .017-.004c.008.002.025-.004.037-.005h.01l.009-.005a.097.097 0 0 1 .017-.005.236.236 0 0 0 .105-.086.192.192 0 0 0 .038-.119c.002-.008-.004-.017-.003-.025 0-.003-.003-.007-.004-.01l-.003-.011a.071.071 0 0 1-.006-.01.04.04 0 0 1-.002-.004v-.001l-.001-.006-.003-.02a3.942 3.942 0 0 1 .005-1.052l.02-.143.02-.133.074-.487 1.627.386.004-.011c.06-.615.095-.935.103-.959.297-.846.3-.966.586-1.816.289-.85.568-1.7.847-2.552l.42-1.277.408-1.28c.16-.506.316-1.013.47-1.52l4.105-.364c.824-.076 1.647-.156 2.472-.218.39-.838.796-1.669 1.228-2.489.436-.827.89-1.294 1.41-1.516z"/></g></g><g><path fill="#fff" d="M211.99 62.113l-2.206.676c-.736.222-1.473.445-2.21.664.737-.22 1.474-.442 2.21-.664l2.207-.676 2.202-.686z"/></g><g><path fill="#fff" d="M204.194 61.233c-.002.001-.003.003-.005.003l-.17-.141-2.012.09.376 8.295a1.366 1.366 0 0 0 1.427 1.303l2.251-5.925c.415.379 1.058.35 1.437-.065l.412-.45-.876-.732-2.845-2.374.005-.004z"/></g><g><path fill="#fff" d="M212.402 57.005c1.371-.695 2.75-1.373 4.126-2.06l1.57-.77-1.57.77c-1.376.687-2.755 1.365-4.126 2.06l-2.06 1.04-.694.355.695-.355z"/></g><g><path fill="#fff" d="M233.674 30.208c-.503-.683-1.01-1.363-1.526-2.037a1.913 1.913 0 0 1 .513-2.79c.912-.563 2.126-.232 2.673.689.426.717.862 1.427 1.3 2.136.41.667.835 1.325 1.258 1.985.3-.629.609-1.256.928-1.881.613-1.2.351-2.03-.3-2.72l-.085.118a1.466 1.466 0 0 1-2.04.328 1.465 1.465 0 0 1-.349-2.01 7.187 7.187 0 0 0-.676-.241c-.927-.27-1.661-.366-2.296-.095-.52.222-.974.69-1.41 1.516-.432.82-.838 1.65-1.227 2.489-1.606 3.459-2.875 7.05-4.03 10.614l-.017.055-.378 1.175c-.28.88-.626 1.736-.995 2.583a4.43 4.43 0 0 0-.317 1.133l-.03.05a84.185 84.185 0 0 0-1.933 3.582l-.458.91-.449.915c-.301.61-.593 1.224-.889 1.836l-.488 1.012 4.966 4.374.21-.307 1.159-1.679c.386-.56.775-1.117 1.156-1.68l.574-.843.564-.848a85.204 85.204 0 0 0 1.486-2.348c.988.253 1.98.498 2.975.723l1.108.246 1.11.235c.739.158 1.481.306 2.222.46l-1.2-.247 3.525-6.088 1.633.582-2.139-.762c-.713-.253-1.425-.51-2.14-.758l-1.07-.374-1.074-.364c-.637-.212-1.275-.418-1.914-.618l.09-.295.026-.088a80.962 80.962 0 0 1 2.555-7.062l-1.114-1.548c-.493-.69-.982-1.382-1.487-2.063z"/></g><g><g><path fill="#fff" d="M236.395 26.036c.651.47 1.57.323 2.04-.328l.085-.117.871-1.205c-.032-.018-.065-.034-.098-.053l-.029-.017a4.027 4.027 0 0 1-1.796-2.26l-1.401 1.94c-.008.01-.014.02-.02.03a1.465 1.465 0 0 0 .348 2.01z"/></g></g><g><g><path fill="#fff" d="M220.453 51.56l-.398.826-.531 1.088-1.427.7-1.57.772c-1.375.686-2.754 1.364-4.125 2.06l-2.06 1.04-.694.354-1.36.695c-.684.353-1.367.706-2.05 1.061-.683.356-1.365.714-2.044 1.077l-.005.004 2.845 2.374c.18-.053.36-.104.54-.158.737-.22 1.474-.442 2.21-.664l2.207-.676 2.202-.686c.734-.227 1.467-.46 2.2-.692.732-.233 1.463-.468 2.196-.7l4.385-1.419a2.443 2.443 0 0 0 1.01-.635 2.435 2.435 0 0 0 .244-.303l.25-.367.94-1.377z"/></g></g><g><g><path fill="#fff" d="M239.264 24.316l.03.017c.031.02.065.035.097.053a3.057 3.057 0 0 0 3.24-.244c.15-.11.285-.236.412-.37l.124-.13c.074-.088.144-.18.21-.278.026-.04.05-.08.077-.12l1.396-1.93a17.592 17.592 0 0 1-3.366-.537l-.46-.12a1.176 1.176 0 1 0-2.217-.58l-1.368 1.876c.01.035.019.07.03.103.29.916.902 1.733 1.795 2.26z"/></g></g><g><path fill="#fff" d="M239.165 19.267a1.175 1.175 0 0 1 1.86 1.39l.46.12a17.592 17.592 0 0 0 5.265.552l-1.563-1.32 2.712-.27-4.894-3.538h-.002l-.03-.023a4.04 4.04 0 0 0-5.537 5.778l.003-.003 1.368-1.876c.008-.29.124-.581.358-.81z"/></g><g><path fill="#fff" d="M219.32 37.793l-.02.133a5.324 5.324 0 0 0-.047.436 4.032 4.032 0 0 0 .022.76l.003.019v.006h.001l.002.005a.072.072 0 0 0 .006.01c0 .003.001.007.003.01 0 .004.005.008.004.011 0 .008.005.017.003.025a.192.192 0 0 1-.038.12.236.236 0 0 1-.105.085.096.096 0 0 0-.017.005l-.01.004-.01.001c-.011 0-.028.007-.036.005a.093.093 0 0 0-.017.003c-.002 0-.002.002-.006 0l-.015-.003-.03-.007-.117-.028-.47-.114-.328.99.462.196.116.05.03.011.014.006.023.008.104.029c.07.02.137.027.206.037l.051.005.053.002h.106a1.446 1.446 0 0 0 .793-.277c.233-.164.416-.396.528-.669.03-.067.05-.14.07-.211.01-.036.015-.073.022-.11a2.91 2.91 0 0 0 .017-.112 3.46 3.46 0 0 0 .005-.113V39.049l.001-.006v-.015l.007-.091a2.612 2.612 0 0 1 .115-.568l.03-.097.036-.107.153-.469-.02-.004-1.626-.386z"/></g><g><g><path fill="#fff" d="M250.767 23.34a.766.766 0 0 0-1.234-.308l-1.193 1.078a1.526 1.526 0 0 0-.98.402c-.056.048-.104.105-.153.162-.025.027-.045.059-.067.09a3.376 3.376 0 0 0-.062.094 3.627 3.627 0 0 0-.054.1l-.025.051-.006.013-.003.006-.001.003-.006.01c-.014.027-.03.053-.045.08a2.605 2.605 0 0 1-.345.464l-.07.075-.077.082c-.188.214-.268.499-.234.782.006.052.005.093-.01.106-.675.64-1.345 1.283-2.011 1.93-.67.645-1.331 1.296-1.994 1.947l-.993.977-.985.984c-.18.18-.358.361-.537.543l-1.686-2.658-.104-.162c-.423-.66-.848-1.318-1.258-1.985-.438-.709-.874-1.42-1.3-2.136-.547-.921-1.76-1.252-2.672-.69a1.913 1.913 0 0 0-.514 2.791 138.7 138.7 0 0 1 1.526 2.037c.505.681.994 1.373 1.487 2.063l1.114 1.548 1.856 2.58.04.053a1.547 1.547 0 0 0 2.404.13c.62-.689 1.229-1.39 1.832-2.095l.902-1.061.894-1.069c.595-.712 1.192-1.424 1.78-2.143.55-.666 1.097-1.336 1.64-2.01l2.186-1.096a2.63 2.63 0 0 0 1.17-3.179z"/></g></g><g><path fill="#fff" d="M245.974 46.257c.123.21.22.435.285.672"/></g><g><path fill="#fff" d="M246.314 47.17c.03.161.046.328.046.496"/></g><g><path fill="#fff" d="M239.93 57.472l-.02 1.106-.033 2.212.032-2.212z"/></g><g><path fill="#fff" d="M240.109 50.33l-.05 1.616c-.018.737-.038 1.473-.057 2.21.019-.737.04-1.473.057-2.21z"/></g><g><path fill="#fff" d="M243.046 65.016z"/></g><g><path fill="#fff" d="M239.877 60.79a401.3 401.3 0 0 0-.021 3.414"/></g><g><path fill="#fff" d="M243.84 61.211l.434-2.17.422-2.17-.422 2.17z"/></g><g><g><path fill="#fff" d="M236.783 49.646l1.2.247 2.126.436-.05 1.617c-.018.737-.038 1.473-.057 2.21-.02.736-.037 1.473-.05 2.21l-.021 1.106-.022 1.106-.032 2.212a401.3 401.3 0 0 0-.021 3.414l3.19.812c.274-1.268.535-2.536.795-3.805l.433-2.17.422-2.17c.284-1.448.55-2.897.824-4.345l.794-4.348a2.806 2.806 0 0 0-.34-1.921 2.797 2.797 0 0 0-1.488-1.225l-.404-.142-2.141-.75-1.633-.582z"/></g></g><g><g><g><path fill="#fff" d="M243.046 65.016l1.633.415-.177.584c-.163.538-.73.842-1.268.68l.527 6.316a1.366 1.366 0 0 1-1.85-.56l-3.92-7.32 1.776-.95.089.023zm.106 7.266l-.458-5.621-.598.049.459 5.62z"/></g></g></g><g><path fill="#fff" d="M242.096 66.71l.459 5.62.597-.048-.458-5.621z"/></g><g><path fill="#fff" d="M318.248 58.087a3.099 3.099 0 0 1 0 0z"/></g><g><path fill="#fff" d="M318.172 57.992a9.29 9.29 0 0 1-.145-.192"/></g><g><path fill="#fff" d="M320.165 58.902c-.073.02-.147.035-.225.043"/></g><g><path fill="#fff" d="M318.027 57.8c-.048-.066-.098-.133-.152-.203"/></g><g><path fill="#fff" d="M321.812 58.216c-.311.101-.62.21-.917.343"/></g><g><path fill="#fff" d="M322.375 58.035c-.186.062-.375.12-.563.181"/></g><g><path fill="#fff" d="M371.884 31.736l-.168-.623a.788.788 0 0 0-1.239-.423l-1.318 1.003a1.56 1.56 0 0 0-1.04.328c-.06.044-.115.099-.17.152-.028.027-.052.057-.077.087-.025.03-.049.06-.072.091a3.202 3.202 0 0 0-.064.099l-.03.05-.008.012-.003.006-.002.003-.006.01a2.507 2.507 0 0 1-.302.38 3.557 3.557 0 0 1-.223.215l-.087.077-.379.339.015.014-.01.007-.328.754-8.369 2.712-4.746-2.494.025-.042-2.938-1.878-2.912-1.154-.476.843c-.396.7-1.292.95-1.992.554a1.466 1.466 0 0 1-.553-1.992l.278-.492-1.827-.725-.858-.346-.004.004-.005-.001-1.524-.493-3.164 1.17.043 3.08 1.848.35c-1.07 1.699-1.32 2.913-1.868 5.244-.478.826-1.414 2.042-2.414 3.283-.01.01-.02.022-.028.033l.013-.033-2.19 1.522a6.21 6.21 0 0 0-1.921 2.162 8.32 8.32 0 0 0-1.69 3.076l-8.818 7.032 5.686-4.535L328.053 56l2.317-.833 2.678-2.136 2.206 1.673 6.845 10.44-5.1-7.778 4.87-3.097 2.607 10.12-2.667-10.349-3.902-5.952.558-.693.255-.317.462-.58c.09-.112.18-.223.268-.336 1.566-1.978 3.13-4.03 4.531-6.05.396-.222.776-.35 1.181-.539.546-.89 1.164-1.789 1.753-2.692l4.555.635.22-.368 5.415 2.375a1.3 1.3 0 0 0 .375.1c.115.043.237.07.365.078l4.444-.415 5.852-3.205c.09-.049.845-.443 2.266-1.184a2.708 2.708 0 0 0 1.477-3.16z"/></g><g><g><path fill="#fff" d="M337.308 29.983l-5.88-.472c-.132-.01-.262 0-.388.028a1.287 1.287 0 0 0-.37.046l-4.063 1.847-4.097 4.502h-.001c-.593.533-1.106 1.148-1.452 1.866l-.35.725a2.605 2.605 0 0 0 .833 3.25l.505.362a.759.759 0 0 0 1.179-.443l.367-1.55a1.514 1.514 0 0 0 .572-.879c.02-.07.026-.144.034-.218.005-.037.004-.074.004-.111l-.001-.112a2.932 2.932 0 0 0-.014-.112l-.008-.056-.002-.014v-.006l-.001-.003-.001-.011a2.552 2.552 0 0 1 .026-.764l.018-.11.025-.16 7.15-5.427 5.959.902z"/></g></g><g><g><path fill="#fff" d="M336.999 57.365l5.1 7.779.875 4.817.121.098a40.333 40.333 0 0 1 8.106 8.803l.494-3.408.034-.005-7.253-11.062-2.608-10.119z"/></g></g><g><path fill="#fff" d="M351.201 78.862l-.035.246 1.104 1.684 6.943-4.553c.631-.414.808-1.26.394-1.892l-7.878 1.102-.034.005z"/></g><g><g><path fill="#fff" d="M344.412 30.866c-.396.7-.147 1.596.553 1.992.7.395 1.596.146 1.992-.554l.476-.843.549-.971a4.613 4.613 0 0 1-1.15-2.524l-.084.023-.149-.984c-.016.025-.033.05-.048.076l-1.86 3.293z"/></g></g><g><g><path fill="#fff" d="M350.385 26.979a1.049 1.049 0 1 0-1.606.446l-1.946.54c.11.92.505 1.805 1.149 2.525.313.35.684.66 1.11.915l.012.007c.63.373 1.444.145 1.805-.49l2.321-4.086-.767-.434z"/></g></g><g><path fill="#fff" d="M346.833 27.966l1.946-.541a1.049 1.049 0 1 1 1.606-.446l2.078-.577.767.434 1.895 1.07c.118-1.529-.183-2.924-.902-4.186-.797-1.4-2.36-2.643-4.01-2.797a3.453 3.453 0 0 0-1.511.188c-1.486.539-2.34 2.003-2.454 3.53-.002.019.203 1.383.351 2.364l.149.984z"/></g><g><g><path fill="#fff" d="M320.283 55.732l-1.27-3.162-.138-.07a40.329 40.329 0 0 1-9.708-6.997l.2 3.438-.032.011 3.17 3.189 3.587 3.606 1.382 1.39c.167.169.293.32.4.46.055.07.105.137.153.203a9.343 9.343 0 0 0 .22.287c.182.218.406.433.805.68.191.12.445.182.699.186a1.461 1.461 0 0 0 .414-.051c.104-.028.203-.065.288-.116.143-.085.291-.159.442-.227.297-.134.606-.242.917-.343.188-.06.377-.12.563-.181.094-.031.187-.063.279-.096l3.834-1.378 1.564-.562-2.083-4.801z"/></g></g><g><path fill="#fff" d="M309.167 45.503l-.015-.248-1.42-1.428-5.887 5.854a1.366 1.366 0 0 0-.006 1.933l7.496-2.662.033-.011z"/></g><g><path fill="#fff" d="M147.025 25.808a.705.705 0 0 0-1.125-.325l-1.134.951a1.406 1.406 0 0 0-.914.337c-.054.042-.1.093-.147.143-.024.025-.044.053-.065.08l-.06.085-.053.09-.025.047-.006.012-.003.005-.001.002-.006.01a2.305 2.305 0 0 1-.377.487l-.066.066-.075.073-.323.319.013.011-.008.007-.261.688-7.359 2.775-4.344-2.026.02-.038-2.702-1.553-2.65-.908-.39.774a1.31 1.31 0 0 1-1.754.578 1.31 1.31 0 0 1-.579-1.755l.228-.452-1.662-.57-.781-.271-.004.003-.003-.001-1.383-.376-2.776 1.179-5.271-.173a1.166 1.166 0 0 0-.344.042c-.11.003-.22.02-.33.057l-3.55 1.82-3.467 4.194-.001.001c-.507.5-.94 1.072-1.218 1.727l-.281.662a2.329 2.329 0 0 0 .88 2.868l.467.301a.678.678 0 0 0 1.034-.445l.262-1.4a1.353 1.353 0 0 0 .474-.809c.014-.064.017-.13.021-.196.003-.033 0-.066 0-.1a2.318 2.318 0 0 0-.007-.1 2.429 2.429 0 0 0-.016-.099l-.01-.05-.002-.012-.002-.005v-.003l-.001-.01a2.04 2.04 0 0 1-.027-.417c.001-.058.005-.116.01-.176l.008-.09.011-.099.015-.144 6.156-5.148 5.359.553 1.665.234c-.885 1.562-1.056 2.657-1.447 4.762-.392.758-1.176 1.883-2.017 3.033l-.023.031.01-.03-1.89 1.452a5.552 5.552 0 0 0-1.625 2.012 7.44 7.44 0 0 0-1.38 2.819l-7.576 6.652-1.267-2.77-.127-.057a36.058 36.058 0 0 1-8.966-5.837l-.023-.22-1.328-1.216-5.01 5.477c-.456.498-.421 1.27.077 1.726l6.581-2.694 2.966 2.713 3.355 3.069 1.293 1.183a4.136 4.136 0 0 1 .452.482c.264.32.45.586 1.026.907.088.05.19.085.297.108a1.36 1.36 0 0 0 .335.028 1.37 1.37 0 0 0 .372-.065c.09-.029.175-.065.248-.114a3.711 3.711 0 0 1 .46-.26c.394-.192.814-.334 1.225-.492l.245-.097 3.365-1.393 3.407-1.41 2.302-2.02 2.04 1.4 6.555 9.033.985 4.266.113.082a36.064 36.064 0 0 1 7.61 7.518l-.02.22 1.057 1.458 6.007-4.36c.546-.396.668-1.16.272-1.706l-6.989 1.318-6.945-9.571-2.819-9.128-3.737-5.15.47-.643.214-.293.39-.542c.075-.103.15-.204.223-.308 1.315-1.832 2.624-3.731 3.79-5.594.344-.215.678-.346 1.032-.531.45-.817.964-1.647 1.451-2.478l4.095.374.181-.339 4.936 1.893c.11.042.224.066.339.073.104.033.214.053.33.054l3.95-.558 5.09-3.11c.078-.047.736-.432 1.974-1.153a2.42 2.42 0 0 0 1.185-2.885z"/></g><g><g><path fill="#fff" d="M122.631 26.743a1.31 1.31 0 0 0 .579 1.755 1.31 1.31 0 0 0 1.755-.578l.39-.774.449-.89a4.125 4.125 0 0 1-1.133-2.205l-.075.024-.174-.867c-.012.023-.029.041-.04.065l-1.523 3.018z"/></g></g><g><path fill="#fff" d="M124.67 24.05c.138.816.528 1.59 1.134 2.206a4.277 4.277 0 0 0 1.04.776 1.174 1.174 0 0 0 1.592-.514l1.9-3.747 1.737.876c.04-1.37-.287-2.604-.982-3.7-.771-1.216-2.22-2.26-3.7-2.329-.45-.02-.904.05-1.342.232-1.303.545-2.004 1.888-2.041 3.256 0 .017.24 1.232.415 2.102l.173.867z"/></g></g><g><g><g><path fill="#dda08c" d="M221.013 39.865l1.633-1.855c.151-.75.306-1.5.465-2.247.183-.878.376-1.753.568-2.628l.29-1.313.298-1.31c.203-.873.412-1.744.636-2.61a1.532 1.532 0 0 1 1.26-1.13l.065-.01 5.085-.748c.848-.122 1.697-.24 2.543-.376.846-.134 1.692-.272 2.537-.422a1.913 1.913 0 1 1 .446 3.792c-.856.05-1.71.114-2.565.18-.855.063-1.707.146-2.56.225l-4.106.363c-.153.508-.31 1.015-.469 1.52l-.409 1.28-.418 1.278c-.28.851-.56 1.703-.848 2.552-.285.85-.29.97-.586 1.816-.008.024-.043.344-.103.959l-1.774 4.253a.766.766 0 0 1-1.247.248l-.444-.442a2.63 2.63 0 0 1-.297-3.375z"/></g></g><g><g><path fill="url(#vyeuc)" d="M231.293 41.77c-.07.009-.127.025-.19.037-.059.015-.116.03-.17.048-.056.016-.105.037-.158.055l-.147.062a2.564 2.564 0 0 0-1.18 1.079l-.518.874-.51.88a84.27 84.27 0 0 0-1.933 3.582l-.458.91-.45.915c-.3.61-.592 1.224-.888 1.836l-.886 1.838-.895 1.832 1.504-1.305-4.136 2.033c-1.376.686-2.755 1.364-4.126 2.06l-2.059 1.04-2.055 1.049c-1.367.706-2.735 1.411-4.094 2.138a1.557 1.557 0 0 0 1.162 2.87c1.482-.424 2.955-.87 4.428-1.314l2.206-.676 2.203-.686c1.469-.455 2.93-.928 4.396-1.392l4.385-1.419c.531-.172.962-.51 1.254-.938l.25-.367 1.15-1.684 1.16-1.679c.385-.56.775-1.117 1.156-1.68l.574-.843.564-.848a84.403 84.403 0 0 0 2.157-3.451l.513-.879.503-.883a2.564 2.564 0 0 0 .355-1.559l-.019-.157c-.01-.055-.016-.108-.03-.165a2.64 2.64 0 0 0-.042-.171c-.02-.062-.035-.119-.062-.184a4.728 4.728 0 0 0-4.914-2.858z"/></g></g><g><g><g><path fill="#373c41" d="M231.429 47.962c1.035.567.24.139.24.139 2.275.231 4.199-.04 4.923-2.704 1.465-5.383 3.397-10.534 5.978-15.587.856-1.675.012-2.629-1.222-3.484-.53-.367-1.538-.84-2.228-1.041-1.686-.49-2.738-.415-3.706 1.421-2.765 5.245-4.58 10.908-6.297 16.377-.856 2.726 1.267 4.307 2.312 4.88z"/></g></g></g><g><g><path fill="#dea095" d="M240.145 27.536c.651.471 1.57.323 2.04-.328l2.108-2.916a1.466 1.466 0 0 0-.328-2.04 1.466 1.466 0 0 0-2.04.328l-2.109 2.915a1.466 1.466 0 0 0 .329 2.041z"/></g></g><g><g><path fill="#dda08c" d="M224.203 53.06l-.398.826-.531 1.088-2.996 1.472c-1.376.686-2.755 1.364-4.126 2.06l-2.059 1.04-2.055 1.049c-1.367.706-2.735 1.411-4.094 2.138a1.55 1.55 0 0 0-.454.369l1.084 2.556c.177.012.357-.005.532-.056 1.482-.423 2.955-.869 4.428-1.313l2.206-.676 2.203-.686c1.469-.455 2.93-.928 4.396-1.392l4.385-1.419c.531-.172.962-.51 1.254-.938l.25-.367.94-1.377z"/></g></g><g><g><g><path fill="#dda08c" d="M246.032 18.404l2.701 4.225-1.53 2.116-.076.119c-.066.097-.136.19-.21.278l-.124.13c-.127.134-.262.26-.411.37a3.056 3.056 0 0 1-3.368.174 4.046 4.046 0 0 1-1.326-5.703 4.062 4.062 0 0 1 4.344-1.709z"/></g></g><g><path fill="#623c34" d="M246.723 17.678l.03.023h.002l4.894 3.539-2.712.27 1.563 1.319a17.587 17.587 0 0 1-5.265-.552l-.46-.12a1.176 1.176 0 1 0-2.218-.58l-1.37 1.88a4.04 4.04 0 0 1 5.536-5.779z"/></g></g><g><g><g><path fill="#373c41" d="M211.66 65.842l-3.891-3.247-2.012.09.376 8.295a1.366 1.366 0 0 0 1.426 1.303l2.252-5.925c.415.379 1.058.35 1.437-.065z"/></g></g><g><path fill="#fff" d="M206.765 71.15l.56.213 2.013-5.268-.56-.214z"/></g></g><g><path fill="url(#vyeud)" d="M224.79 39.196l-.153.47-.036.106a3.854 3.854 0 0 0-.082.29 2.607 2.607 0 0 0-.07.466v.036l-.001.057a3.48 3.48 0 0 1-.006.113c-.004.037-.01.075-.016.112-.007.037-.012.074-.022.11a1.528 1.528 0 0 1-.597.88 1.477 1.477 0 0 1-.9.277l-.052-.002c-.018 0-.035-.003-.052-.005-.07-.01-.136-.016-.206-.037a3.314 3.314 0 0 1-.104-.03c-.007-.002-.018-.004-.023-.007l-.015-.006-.029-.012-.116-.049-.462-.196.327-.99.471.114.118.028.03.007.014.004h.006a.104.104 0 0 1 .017-.004c.008.002.024-.004.037-.005l.01-.001.008-.004a.12.12 0 0 1 .018-.005.236.236 0 0 0 .105-.086.193.193 0 0 0 .038-.119c.002-.008-.004-.017-.003-.025 0-.003-.003-.007-.004-.01a.05.05 0 0 1-.003-.011.056.056 0 0 1-.006-.01.025.025 0 0 1-.002-.004v-.001l-.001-.006-.003-.02a4.059 4.059 0 0 1 .005-1.052l.02-.143.02-.133.075-.487z"/></g><g><g><path fill="#dda08c" d="M236.411 26.88c.912-.562 2.126-.231 2.673.69.426.717.862 1.427 1.3 2.135.444.723.905 1.434 1.362 2.148l1.687 2.657.536-.542.985-.984.993-.977c.663-.65 1.325-1.302 1.994-1.947.666-.647 1.336-1.29 2.012-1.93.014-.013.015-.054.009-.106a1.002 1.002 0 0 1 .234-.783l.078-.081.069-.075a2.605 2.605 0 0 0 .39-.544l.005-.01.002-.003.003-.006.006-.013.025-.05a3.26 3.26 0 0 1 .053-.101c.02-.032.042-.063.063-.094.022-.031.042-.063.067-.09.05-.057.097-.114.153-.162a1.527 1.527 0 0 1 .98-.402l1.193-1.078a.766.766 0 0 1 1.234.308l.213.59a2.63 2.63 0 0 1-1.172 3.178l-2.185 1.096c-.542.674-1.09 1.344-1.64 2.01-.588.719-1.185 1.43-1.78 2.143l-.894 1.069-.902 1.061c-.603.705-1.211 1.406-1.832 2.096a1.546 1.546 0 0 1-2.405-.13l-.039-.055-2.97-4.127c-.493-.69-.982-1.382-1.487-2.063-.503-.683-1.01-1.363-1.526-2.037a1.913 1.913 0 0 1 .513-2.79z"/></g></g><g><path fill="#373c41" d="M229.765 41.03c.13-.407.26-.814.392-1.222l7.314 2.572-.118.384c.64.2 1.278.406 1.915.618l1.074.364 1.07.374c.715.247 1.427.505 2.14.758l2.139.762 2.141.75.404.142a2.802 2.802 0 0 1 1.828 3.146l-.794 4.348c-.275 1.448-.54 2.897-.824 4.344l-.422 2.171-.433 2.17c-.296 1.446-.59 2.892-.908 4.336-.154.7-.78 1.226-1.53 1.222-.861-.005-1.545-.728-1.549-1.588-.007-1.465.009-2.928.023-4.39l.032-2.213.043-2.211c.026-1.475.071-2.948.107-4.421l.05-1.617-2.126-.436c-.74-.154-1.483-.302-2.223-.46l-1.11-.235-1.106-.246a104.4 104.4 0 0 1-4.397-1.093l-1.091-.303-1.089-.313a3.14 3.14 0 0 1-1.038-.492 3.072 3.072 0 0 1-.469-.424l-.11-.13c-.036-.048-.073-.092-.108-.143a2.784 2.784 0 0 1-.103-.156c-.032-.06-.067-.112-.097-.18a4.426 4.426 0 0 1-.025-3.596c.37-.85.717-1.709.998-2.592z"/></g><g><g><path fill="#dda08c" d="M248.236 46.532l-.404-.142-2.141-.75-1.633-.582-3.524 6.088 1.2.247 2.125.436-.05 1.617c-.036 1.473-.08 2.946-.107 4.42l-.043 2.212-.032 2.212c-.014 1.463-.03 2.926-.023 4.39.004.861.688 1.584 1.549 1.59a1.558 1.558 0 0 0 1.53-1.223c.318-1.444.612-2.89.908-4.336l.433-2.17.422-2.17c.284-1.448.55-2.897.824-4.345l.794-4.348a2.802 2.802 0 0 0-1.828-3.146z"/></g></g><g><g><g><g><path fill="#373c41" d="M248.429 66.931l-4.912-1.25-1.775.95 3.919 7.32a1.367 1.367 0 0 0 1.85.56l-.527-6.317a1.017 1.017 0 0 0 1.268-.679z"/></g></g></g><g><path fill="#fff" d="M246.305 73.83l.597-.048-.458-5.621-.598.049z"/></g></g></g><g><g><g/><g><path fill="#373c41" d="M335.935 46.778c1.49-1.856 4.205-4.995 5.146-6.62.576-2.449.82-3.663 2.034-5.502.672-1.017 1.374-2.358 2.163-3.339.162-.2.32-.371.477-.514l6.174 2.488c.695.885.67 1.752-.065 3.113-.845 1.564-2.008 3.13-2.952 4.668-.405.189-.785.317-1.181.54-2.102 3.027-4.566 6.134-6.859 8.94-1.418 1.734-2.74 1.764-4.425.641-1.685-1.122-1.692-2.943-.512-4.415z"/></g></g><g><g><path fill="#373c41" d="M335.253 50.823l-.005-.026"/></g><g><path fill="#373c41" d="M335.256 50.837l-.003-.014"/></g><g/><g><path fill="#373c41" d="M335.248 50.797l-.005-.028"/></g><g><path fill="#373c41" d="M335.243 50.769v-.007"/></g></g><g><path fill="url(#vyeue)" d="M312.467 46.568a40.341 40.341 0 0 0 10.158 7.431l.139.071 1.27 3.162 8.817-7.032a8.327 8.327 0 0 1 2.792-4.144l.669-.533a3.673 3.673 0 0 1 5.863 2.025l-.78-.064-2.831 5.638-4.444 3.544-3.882 1.395c-1.278.46-2.556.92-3.834 1.378-.738.265-1.522.442-2.2.847-.388.231-1.019.22-1.402-.018-.913-.568-.908-.957-1.578-1.63l-1.383-1.391-3.585-3.606-3.467-3.487-1.892-1.903-.061-.061z"/></g><g><path fill="#373c41" d="M334.008 48.448a6.217 6.217 0 0 1 2.454-3.486l2.19-1.522-.013.033.031-.038 4.53 4.226c-.516.652-1.032 1.295-1.544 1.926l3.903 5.952 2.667 10.348 9.002 13.73-1.923 1.262a40.341 40.341 0 0 0-8.46-9.32l-.12-.098-.876-4.817-6.846-10.44-2.607-1.979-1.848-2.819-.058-.087a1.565 1.565 0 0 1-.062-.105l-.815-1.303z"/></g><g><path fill="url(#vyeuf)" d="M349.982 34.455a1.747 1.747 0 0 1 2.411-.844l9.362 4.918 8.368-2.712.328-.754 3.776-2.873a.788.788 0 0 1 1.24.423l.167.623a2.708 2.708 0 0 1-1.477 3.16c-1.421.74-2.177 1.135-2.266 1.184l-5.852 3.205-4.444.415a1.286 1.286 0 0 1-.365-.078 1.304 1.304 0 0 1-.375-.1l-6.407-2.811a3.431 3.431 0 0 1-2.625-.055l-.48-.21a2.65 2.65 0 0 1-1.361-3.49z"/></g><g><g><path fill="#eeb5ac" d="M324.457 40.025l.35-.725c.346-.718.859-1.333 1.452-1.865v-.001l4.098-4.502 4.063-1.847c.123-.034.248-.048.37-.046.126-.028.256-.039.387-.028l6.974.56a3.432 3.432 0 0 1 2.499-.808l.522.042a2.65 2.65 0 0 1 2.429 2.852 1.746 1.746 0 0 1-2.002 1.587l-10.456-1.583-7.15 5.427-.025.16-.017.11a4.525 4.525 0 0 0-.035.296 2.565 2.565 0 0 0 .008.468l.001.01v.004l.001.006.003.014.008.056a3.5 3.5 0 0 1 .013.112l.002.112c-.001.037 0 .074-.005.111-.008.074-.015.147-.034.218a1.512 1.512 0 0 1-.572.879l-.367 1.55a.759.759 0 0 1-1.18.443l-.505-.361a2.605 2.605 0 0 1-.832-3.251z"/></g></g><g><g><path fill="#eeb5ac" d="M345.618 55.768l2.608 10.12 9.002 13.73-1.923 1.26a40.341 40.341 0 0 0-8.46-9.32l-.12-.097-.876-4.817-5.1-7.78z"/></g></g><g/><g><path fill="#373c41" d="M345.746 30.806l8.349 3.31 2.938 1.878-1.813 3.021-5.272-.735-6.999-3.367-1.847-.35-.044-3.08 3.163-1.17z"/></g><g><g><g><path fill="#373c41" d="M355.445 76.954l-.529 3.654 1.104 1.684 6.943-4.553c.632-.414.808-1.26.394-1.892z"/></g></g><g><path fill="#fff" d="M362.786 77.109l-.102-.591-5.558.955.102.591z"/></g></g><g><g><path fill="#dea095" d="M348.715 34.358c.7.395 1.596.146 1.992-.554l2.139-3.784c.395-.7-.223-.944-.923-1.34l.37-.652a1.466 1.466 0 0 0-1.992.553l-2.14 3.785c-.395.7-.146 1.596.554 1.992z"/></g></g><g><g><g><path fill="#eeb5ac" d="M355.846 24.101c.053.032.105.065.155.098l.086.06.063.045c.039.028.076.058.113.087l.03.023c.042.036.085.072.126.109l.009.007c.176.159.333.332.472.517.475.632.725 1.396.717 2.166-1.304 2.3-2.29 4.036-2.958 5.208a1.313 1.313 0 0 1-1.805.491l-.012-.007c-1.777-1.06-2.609-3.083-2.185-4.93a3.38 3.38 0 0 1-.082-.338v-.003a3.29 3.29 0 0 1-.028-.167v-.006a3.372 3.372 0 0 1-.02-.164v-.011a3.449 3.449 0 0 1-.011-.16v-.015a3.233 3.233 0 0 1-.003-.155v-.02c0-.05.003-.1.006-.15l.001-.027a3.295 3.295 0 0 1 .066-.478c.003-.014.005-.03.009-.044l.03-.122.013-.049c.01-.039.023-.078.036-.117l.016-.052.04-.112c.008-.018.014-.037.021-.055l.047-.109c.008-.018.015-.037.024-.055.017-.038.036-.076.056-.114l.024-.048c.028-.053.057-.106.089-.158.983-1.647 3.156-2.16 4.855-1.145z"/></g></g></g><g><path fill="#623c34" d="M352.452 22.611a3.454 3.454 0 0 1 1.51-.188c1.651.154 3.214 1.398 4.011 2.797.72 1.262 1.02 2.657.902 4.186l-2.663-1.504-2.077.577a1.049 1.049 0 1 0-1.606.446l-2.031.564a332.234 332.234 0 0 1-.5-3.348c.114-1.527.968-2.991 2.454-3.53z"/></g><g><path fill="url(#vyeug)" d="M370.446 35.042l.379-.339.087-.077.077-.07c.05-.048.1-.096.146-.145a2.666 2.666 0 0 0 .302-.38l.006-.01.002-.003.003-.006.008-.012.03-.05c.02-.034.042-.067.063-.099l.073-.091c.025-.03.049-.06.077-.087.055-.053.11-.108.17-.152.242-.184.525-.297.816-.323a1.519 1.519 0 0 1 .944.218l.046.028c.015.01.03.02.043.031.057.044.113.085.165.14l.077.079.018.019.01.013.019.026.078.103.31.414-.802.712-.361-.344-.09-.086-.023-.021-.01-.011c-.004-.003-.005-.002-.007-.003a.096.096 0 0 1-.016-.006c-.007-.006-.024-.009-.036-.014-.003-.002-.006-.004-.01-.004l-.009-.002a.127.127 0 0 1-.018-.004.243.243 0 0 0-.138.022.199.199 0 0 0-.095.087c-.006.006-.006.017-.01.024-.003.002-.002.008-.003.012a.04.04 0 0 1-.003.01c.001.004.002.008.001.012v.005l-.003.006-.008.019a3.917 3.917 0 0 1-.372.688 4.968 4.968 0 0 1-.267.365l-.087.107-.317.396z"/></g><g><g><path fill="#eeb5ac" d="M311.16 48.516l.282-.928 1.025-1.02a40.341 40.341 0 0 0 10.158 7.431l.139.071 1.27 3.162 5.685-4.534 2.083 4.8-1.564.563c-1.278.46-2.556.92-3.834 1.378-.738.265-1.522.441-2.2.847-.388.231-1.019.22-1.402-.018-.913-.568-.908-.957-1.578-1.63l-1.383-1.391-3.585-3.606-3.467-3.487-1.629-1.638z"/></g></g><g><g><g><path fill="#373c41" d="M313.118 50.44l-.216-3.685-1.42-1.428-5.887 5.854a1.367 1.367 0 0 0-.006 1.933z"/></g></g><g><path fill="#fff" d="M305.895 51.764l.218.558 5.253-2.052-.218-.559z"/></g></g></g><g><g><g/><g><path fill="#373c41" d="M116.073 41.63c1.252-1.72 3.544-4.638 4.315-6.13.41-2.21.577-3.305 1.584-4.998.557-.937 1.127-2.164 1.79-3.073a4.02 4.02 0 0 1 .404-.48l5.618 1.96c.659.762.673 1.537.074 2.783-.688 1.432-1.66 2.881-2.438 4.294-.354.185-.688.316-1.032.531-1.749 2.793-3.818 5.671-5.747 8.274-1.192 1.609-2.372 1.691-3.924.76-1.552-.93-1.636-2.556-.644-3.92z"/></g></g><g><g><path fill="#373c41" d="M115.635 45.271l-.005-.023"/></g><g><path fill="#373c41" d="M115.638 45.284l-.003-.013"/></g><g/><g><path fill="#373c41" d="M115.63 45.248l-.006-.025"/></g><g><path fill="#373c41" d="M115.624 45.223v-.005"/></g></g><g><path fill="url(#vyeuh)" d="M95.107 42.436a36.056 36.056 0 0 0 9.386 6.206l.127.058 1.267 2.77 7.577-6.653a7.445 7.445 0 0 1 2.318-3.82l.574-.504a3.283 3.283 0 0 1 5.322 1.56l-.7-.023-2.289 5.154-3.819 3.353-3.407 1.41-3.365 1.393c-.648.267-1.34.458-1.93.85-.336.222-.9.239-1.252.042-.839-.468-.851-.816-1.478-1.39l-1.293-1.182-3.355-3.069-3.243-2.966-1.77-1.62-.057-.052z"/></g><g><path fill="#373c41" d="M114.423 43.203a5.558 5.558 0 0 1 2.044-3.217l1.891-1.452-.01.03.026-.035 4.224 3.582c-.433.604-.867 1.2-1.297 1.785l3.737 5.15 2.82 9.129 8.62 11.88-1.665 1.207a36.06 36.06 0 0 0-7.948-7.964l-.113-.082-.985-4.266-6.555-9.033-2.413-1.656-1.769-2.439-.055-.075a1.49 1.49 0 0 1-.06-.091l-.783-1.13z"/></g><g><path fill="#7f4e46" d="M128.095 30.032a1.561 1.561 0 0 1 2.118-.856l8.568 3.995 7.358-2.776.261-.687 3.25-2.725a.705.705 0 0 1 1.125.325l.176.55a2.42 2.42 0 0 1-1.185 2.884 411.8 411.8 0 0 0-1.974 1.153l-5.09 3.11-3.95.558a1.148 1.148 0 0 1-.33-.054 1.168 1.168 0 0 1-.34-.073l-5.84-2.24a3.067 3.067 0 0 1-2.346.063l-.438-.168a2.368 2.368 0 0 1-1.363-3.06z"/></g><g><path fill="#7f4e46" d="M105.538 36.085l.281-.662c.279-.655.711-1.226 1.218-1.727l3.469-4.194 3.55-1.821c.109-.036.22-.054.328-.057.112-.03.227-.046.345-.042l6.252.205a3.067 3.067 0 0 1 2.197-.827l.468.015a2.368 2.368 0 0 1 2.29 2.445 1.561 1.561 0 0 1-1.721 1.501l-9.404-.97-6.156 5.148-.015.144-.011.1-.009.09a2.261 2.261 0 0 0 .017.593l.002.01v.002l.002.005.002.013.01.05.016.099c.003.033.005.066.006.1.002.033.004.066.001.1-.004.065-.007.131-.021.195a1.354 1.354 0 0 1-.474.809l-.262 1.4a.678.678 0 0 1-1.034.445l-.466-.3a2.329 2.329 0 0 1-.881-2.869z"/></g><g><path fill="#7f4e46" d="M125.1 49.248l2.757 8.927 8.62 11.88-1.664 1.207a36.06 36.06 0 0 0-7.948-7.964l-.113-.082-.985-4.266-4.884-6.73z"/></g><g/><g><path fill="#373c41" d="M124.158 26.952l7.596 2.602 2.703 1.553-1.491 2.775-4.739-.433-6.392-2.71-1.665-.235-.17-2.75 2.776-1.178z"/></g><g><g><g><path fill="#373c41" d="M134.772 67.752l-.318 3.285 1.058 1.457 6.007-4.36c.546-.396.668-1.16.272-1.706z"/></g></g><g><path fill="#fff" d="M141.334 67.579l-.115-.524-4.923 1.089.116.523z"/></g></g><g><path fill="#623c34" d="M126.96 29.998a1.31 1.31 0 0 0 1.755-.578l1.75-3.47c.323-.642-.239-.834-.88-1.157l.301-.599a1.31 1.31 0 0 0-1.755.579l-1.75 3.47a1.31 1.31 0 0 0 .579 1.755z"/></g><g><g><path fill="#7f4e46" d="M132.893 20.537c.05.026.097.053.144.081l.079.05.058.037c.036.024.07.049.104.074a3.212 3.212 0 0 1 .597.558 3.18 3.18 0 0 1 .732 1.904 4376.107 4376.107 0 0 1-2.42 4.776 1.174 1.174 0 0 1-1.603.51c-1.631-.873-2.46-2.643-2.16-4.311a3.117 3.117 0 0 1-.087-.298l-.001-.003a3.307 3.307 0 0 1-.032-.148v-.005a3.146 3.146 0 0 1-.025-.146l-.001-.01a2.995 2.995 0 0 1-.016-.142l-.001-.014a3.112 3.112 0 0 1-.009-.138v-.018a3.197 3.197 0 0 1-.002-.134v-.023c0-.043.003-.086.005-.128l.002-.03.011-.122.004-.034c.004-.039.01-.078.016-.116l.007-.04c.006-.037.014-.074.022-.11l.009-.044a3.14 3.14 0 0 1 .027-.106l.012-.048.032-.102.016-.05.037-.099c.007-.017.012-.034.02-.05.013-.035.029-.07.044-.104l.02-.044c.022-.049.047-.097.072-.145.809-1.512 2.728-2.062 4.288-1.228z"/></g></g><g><path fill="#373c41" d="M129.8 19.35a3.086 3.086 0 0 1 1.341-.232c1.48.068 2.929 1.113 3.7 2.328.695 1.097 1.022 2.33.982 3.7l-2.441-1.23-1.831.603a.938.938 0 1 0-1.415.466l-1.79.59a285.195 285.195 0 0 1-.588-2.969c.037-1.368.738-2.712 2.041-3.256z"/></g><g><path fill="#623c34" d="M146.395 29.69l.323-.319.075-.073a4.263 4.263 0 0 0 .19-.201 2.382 2.382 0 0 0 .253-.353l.006-.009.001-.002.003-.005.006-.012.025-.046.052-.09c.02-.03.04-.057.061-.085.021-.028.041-.056.065-.08.047-.05.093-.102.146-.144.208-.175.455-.287.715-.323a1.36 1.36 0 0 1 .852.154l.042.024.04.026c.053.037.104.07.153.117l.072.068.017.016.01.011.018.023.074.089.295.356-.687.67-.337-.292-.084-.073-.021-.018-.01-.01c-.004-.002-.004 0-.006-.001a.095.095 0 0 1-.015-.005c-.006-.005-.022-.007-.032-.012l-.009-.003h-.009a.1.1 0 0 1-.016-.004.217.217 0 0 0-.122.026.177.177 0 0 0-.081.081c-.006.006-.005.016-.009.022-.002.003 0 .008-.001.01l-.002.01.001.01v.006l-.002.005-.007.017a3.563 3.563 0 0 1-.303.63 4.602 4.602 0 0 1-.223.338l-.073.099-.267.367z"/></g><g><path fill="#623c34" d="M94.023 44.23l.212-.84.872-.954a36.056 36.056 0 0 0 9.386 6.206l.127.058 1.267 2.77 4.886-4.29 2.063 4.199-1.373.568-3.365 1.393c-.648.267-1.34.458-1.93.85-.336.222-.9.239-1.252.042-.839-.468-.851-.816-1.478-1.39l-1.293-1.182-3.355-3.069-3.243-2.966-1.524-1.394z"/></g><g><g><g><path fill="#373c41" d="M95.852 45.866l-.348-3.282-1.328-1.215-5.01 5.477c-.456.498-.421 1.27.077 1.726z"/></g></g><g><path fill="#fff" d="M89.459 47.353l.218.49 4.604-2.055-.218-.49z"/></g></g></g></g></g></svg>