<svg xmlns="http://www.w3.org/2000/svg" width="6" height="5" viewBox="0 0 6 5"><g><g><path fill="#373c41" d="M2.667 4.972a2.502 2.502 0 0 1-2.499-2.51A2.503 2.503 0 0 1 2.674-.021a2.493 2.493 0 0 1 2.494 2.51 2.49 2.49 0 0 1-2.5 2.484zm.009-1.354v-.04c.32 0 .641.007.962-.002.208-.006.348-.125.385-.329a4.238 4.238 0 0 0-.003-1.553c-.04-.208-.18-.315-.392-.317a94.826 94.826 0 0 0-1.906 0c-.234.003-.369.11-.409.341a4.568 4.568 0 0 0-.003 1.505c.033.203.16.33.371.344.331.022.663.035.995.051z"/></g></g></svg>