<svg xmlns="http://www.w3.org/2000/svg" viewBox="0 0 20.02 20"><defs><style>.cls-1{fill:#373c41;}</style></defs><title>Ресурс 2</title><g id="Слой_2" data-name="Слой 2"><g id="элементы"><path class="cls-1" d="M10,20a10,10,0,1,1,10-9.95A10,10,0,0,1,10,20Zm0-5.42v-.16c1.29,0,2.57,0,3.85,0a1.51,1.51,0,0,0,1.55-1.32,16.89,16.89,0,0,0,0-6.22A1.47,1.47,0,0,0,13.85,5.6q-3.81,0-7.63,0A1.48,1.48,0,0,0,4.59,7a18.16,18.16,0,0,0,0,6,1.5,1.5,0,0,0,1.49,1.38C7.38,14.46,8.71,14.51,10,14.58Z"/><path class="cls-1" d="M8.58,12.12V7.89L12.44,10Z"/></g></g></svg>